<svg xmlns="http://www.w3.org/2000/svg" xmlns:xlink="http://www.w3.org/1999/xlink" width="80" zoomAndPan="magnify" viewBox="0 0 60 60" height="80" preserveAspectRatio="xMidYMid meet" version="1.0"><defs><clipPath id="8079ff0595"><path d="M 8 2 L 52.78125 2 L 52.78125 60 L 8 60 Z M 8 2 " clip-rule="nonzero"/></clipPath><clipPath id="8179cc30a5"><path d="M 23 18 L 52.78125 18 L 52.78125 35 L 23 35 Z M 23 18 " clip-rule="nonzero"/></clipPath><clipPath id="721d6023f2"><path d="M 7.03125 0 L 52.78125 0 L 52.78125 60 L 7.03125 60 Z M 7.03125 0 " clip-rule="nonzero"/></clipPath></defs><g clip-path="url(#8079ff0595)"><path fill="#f0d0b4" d="M 10.890625 48.476562 C 12.066406 47.761719 12.308594 47.847656 13.648438 47.609375 C 13.550781 47.558594 12.589844 45.855469 15.886719 46.167969 C 18.9375 46.453125 19.238281 46.289062 20.03125 46.3125 C 20.835938 46.332031 21.039062 47.144531 21.84375 47.078125 C 22.503906 47.027344 23.210938 46.722656 23.828125 46.46875 C 24.386719 46.238281 24.890625 45.863281 25.1875 45.316406 C 25.519531 44.703125 25.5625 43.976562 25.578125 43.289062 C 25.617188 41.636719 25.539062 39.980469 25.355469 38.339844 C 25.226562 38.261719 25.105469 38.183594 24.992188 38.113281 C 24.035156 40.640625 20.636719 43.378906 16.984375 43.378906 C 12.246094 43.378906 8.546875 39.746094 8.546875 34.96875 C 8.546875 30.484375 12.40625 26.800781 16.128906 26.410156 C 16.003906 26.242188 15.710938 25.804688 15.460938 25.265625 C 14.976562 24.234375 15.199219 22.6875 16.386719 21.550781 C 17.492188 20.664062 18.445312 21.304688 18.445312 21.304688 C 18.445312 21.304688 18.753906 15.59375 18.953125 15.28125 C 20.195312 13.34375 21.996094 10.984375 24.078125 9.984375 C 24.519531 9.773438 24.980469 9.59375 25.453125 9.449219 C 25.453125 9.449219 27.597656 9.40625 29.878906 9.363281 C 30.175781 9.355469 30.707031 2.53125 30.707031 2.53125 C 30.707031 2.53125 31.324219 9.332031 31.59375 9.328125 C 33.535156 9.289062 35.191406 9.257812 35.21875 9.257812 C 37.40625 9.425781 39.230469 10.878906 40.59375 12.605469 C 41.171875 13.339844 42.109375 14.269531 42.460938 15.152344 C 42.675781 15.6875 42.777344 20.792969 42.777344 20.792969 C 42.777344 20.792969 43.527344 20.710938 44.300781 20.996094 C 44.914062 21.21875 45.546875 21.675781 45.828125 22.582031 C 46.65625 24.636719 45.441406 25.90625 44.621094 27.007812 C 43.832031 28.066406 43.476562 29.25 43.476562 29.25 L 42.714844 29.25 C 42.714844 29.25 40.558594 34.046875 40.132812 34.863281 C 40.117188 34.859375 40.105469 34.859375 40.09375 34.855469 C 39.941406 35.054688 39.796875 35.226562 39.65625 35.367188 C 38.976562 36.054688 38.226562 36.664062 37.441406 37.21875 L 37.441406 37.15625 C 36.507812 37.859375 35.738281 38.359375 35.621094 38.4375 C 35.445312 40.058594 35.367188 41.691406 35.402344 43.324219 C 35.417969 44.011719 35.464844 44.738281 35.796875 45.351562 C 36.089844 45.898438 36.597656 46.273438 37.15625 46.503906 C 37.773438 46.757812 38.441406 46.863281 39.105469 46.914062 C 39.90625 46.980469 40.714844 46.964844 41.519531 46.945312 C 42.3125 46.921875 43.109375 46.894531 43.902344 46.929688 C 44.675781 46.964844 45.445312 47.050781 46.203125 47.1875 C 47.542969 47.425781 48.917969 47.796875 50.09375 48.511719 C 51.199219 49.1875 52.023438 50.191406 52.398438 51.460938 C 52.78125 52.773438 52.714844 54.179688 52.585938 55.523438 C 52.429688 57.121094 52.234375 58.714844 52.058594 60.3125 C 51.742188 63.203125 51.421875 66.097656 51.105469 68.992188 L 9.882812 68.992188 C 9.5625 66.085938 9.242188 63.179688 8.921875 60.277344 C 8.746094 58.679688 8.554688 57.085938 8.398438 55.488281 C 8.269531 54.144531 8.199219 52.738281 8.585938 51.425781 C 8.960938 50.15625 9.785156 49.152344 10.890625 48.476562 Z M 10.890625 48.476562 " fill-opacity="1" fill-rule="nonzero"/></g><path fill="#d89c73" d="M 14.921875 39.433594 C 14.910156 39.410156 14.898438 39.390625 14.882812 39.375 C 14.960938 39.085938 15.046875 38.796875 15.136719 38.511719 C 15.609375 38.3125 16.066406 38.078125 16.511719 37.8125 C 16.515625 37.808594 16.519531 37.808594 16.523438 37.804688 C 16.726562 37.949219 17.109375 38.222656 17.339844 38.382812 C 17.011719 38.878906 16.695312 39.382812 16.390625 39.894531 C 16.371094 39.878906 16.34375 39.867188 16.308594 39.863281 C 16.230469 39.855469 16.152344 39.847656 16.074219 39.839844 C 15.683594 39.722656 15.277344 39.632812 14.921875 39.433594 Z M 15.566406 35.011719 C 15.664062 34.691406 15.878906 33.972656 15.992188 33.667969 C 15.773438 33.253906 15.539062 32.847656 15.285156 32.453125 L 13.984375 33.117188 C 13.917969 33.433594 13.855469 33.753906 13.792969 34.074219 C 13.957031 34.476562 14.132812 34.871094 14.324219 35.257812 C 14.714844 35.179688 15.109375 35.101562 15.5 35.011719 C 15.523438 35.007812 15.546875 35.007812 15.566406 35.011719 Z M 13.652344 36.613281 C 14.101562 37.15625 14.570312 37.679688 15.050781 38.191406 C 15.496094 38 15.933594 37.777344 16.351562 37.523438 C 16.363281 37.515625 16.375 37.511719 16.386719 37.507812 C 16.378906 37.203125 16.367188 36.609375 16.375 36.25 C 16.265625 36.113281 15.835938 35.578125 15.628906 35.316406 C 15.617188 35.324219 15.601562 35.332031 15.582031 35.335938 C 15.085938 35.445312 14.585938 35.550781 14.082031 35.640625 C 13.945312 35.949219 13.808594 36.257812 13.671875 36.5625 C 13.667969 36.582031 13.664062 36.597656 13.652344 36.613281 Z M 16.6875 36.246094 C 16.667969 36.671875 16.664062 37.097656 16.675781 37.523438 C 16.824219 37.660156 17.441406 38.1875 17.484375 38.167969 C 17.53125 38.144531 18.667969 37.382812 18.796875 37.277344 C 18.769531 37.144531 18.160156 35.796875 18.070312 35.8125 C 17.972656 35.828125 17.066406 36.144531 16.6875 36.246094 Z M 19.132812 37.164062 C 19.496094 37.277344 19.859375 37.394531 20.226562 37.507812 C 20.363281 37.066406 20.496094 36.621094 20.625 36.175781 C 20.328125 35.816406 20.007812 35.472656 19.664062 35.15625 C 19.253906 35.351562 18.835938 35.527344 18.410156 35.6875 Z M 19.628906 39.0625 C 19.644531 39.058594 19.660156 39.058594 19.671875 39.058594 C 19.804688 38.640625 19.9375 38.226562 20.070312 37.808594 C 19.726562 37.703125 19.382812 37.59375 19.039062 37.484375 C 19.03125 37.480469 19.023438 37.476562 19.015625 37.472656 L 17.722656 38.375 C 17.726562 38.378906 17.730469 38.386719 17.730469 38.394531 C 17.847656 38.75 17.992188 39.097656 18.164062 39.433594 C 18.652344 39.308594 19.140625 39.183594 19.628906 39.0625 Z M 20.746094 38.773438 C 20.59375 38.570312 20.441406 38.367188 20.289062 38.164062 C 20.183594 38.492188 20.078125 38.816406 19.976562 39.144531 C 20.152344 39.214844 20.324219 39.296875 20.484375 39.390625 C 20.574219 39.1875 20.660156 38.980469 20.746094 38.773438 Z M 17.941406 39.699219 C 17.773438 39.382812 17.628906 39.050781 17.507812 38.710938 C 17.210938 39.164062 16.925781 39.625 16.648438 40.089844 C 16.679688 40.113281 16.703125 40.144531 16.71875 40.191406 C 16.734375 40.242188 16.75 40.296875 16.769531 40.351562 L 16.992188 40.796875 C 17.007812 40.828125 17.011719 40.859375 17.007812 40.890625 C 17.097656 41.050781 17.195312 41.207031 17.308594 41.351562 C 17.507812 41.148438 17.703125 40.949219 17.902344 40.746094 C 17.914062 40.730469 17.929688 40.722656 17.945312 40.714844 C 17.941406 40.390625 17.949219 40.070312 17.976562 39.746094 C 17.964844 39.734375 17.953125 39.71875 17.941406 39.699219 Z M 44.679688 23.296875 C 44.257812 23.042969 43.667969 23.277344 43.316406 23.609375 C 43.132812 23.78125 42.976562 23.996094 42.871094 24.242188 C 42.867188 24.246094 42.867188 24.253906 42.863281 24.261719 L 42.785156 24.722656 C 43.457031 24.90625 43.183594 25.878906 43.023438 26.058594 C 42.992188 26.113281 42.875 26.292969 42.851562 26.328125 C 42.84375 26.339844 42.839844 26.347656 42.832031 26.359375 L 42.675781 27.269531 C 42.804688 27.074219 42.96875 26.800781 42.992188 26.789062 C 43.597656 26.5 44.097656 25.945312 44.238281 25.230469 C 44.335938 24.742188 44.226562 23.992188 43.824219 23.742188 C 43.917969 23.691406 44.015625 23.65625 44.117188 23.640625 C 44.234375 23.617188 44.371094 23.609375 44.476562 23.667969 C 44.585938 23.730469 44.617188 23.855469 44.632812 23.980469 C 44.660156 24.296875 44.554688 25.382812 44.699219 25.15625 C 44.898438 24.847656 45.015625 24.5 45.023438 24.128906 C 45.03125 23.800781 44.953125 23.460938 44.679688 23.296875 Z M 13.105469 31.867188 C 13.121094 31.863281 13.132812 31.859375 13.144531 31.855469 C 13.265625 31.589844 13.394531 31.324219 13.527344 31.0625 C 13.53125 31.046875 13.535156 31.027344 13.542969 31.011719 C 13.453125 30.75 13.359375 30.484375 13.269531 30.222656 C 13.195312 30.019531 13.5 29.933594 13.570312 30.132812 C 13.664062 30.398438 13.757812 30.664062 13.851562 30.929688 C 14.101562 30.929688 14.351562 30.933594 14.601562 30.933594 C 14.683594 30.691406 14.785156 30.457031 14.902344 30.230469 C 14.898438 30.210938 14.898438 30.183594 14.902344 30.160156 C 14.957031 29.921875 15.007812 29.683594 15.058594 29.445312 C 15.105469 29.234375 15.40625 29.324219 15.363281 29.535156 C 15.316406 29.75 15.269531 29.96875 15.222656 30.183594 C 15.226562 30.191406 15.230469 30.195312 15.238281 30.203125 C 15.496094 30.53125 15.773438 30.839844 16.074219 31.121094 C 16.101562 31.148438 16.117188 31.179688 16.121094 31.210938 L 17.21875 31.464844 C 17.101562 31.046875 16.972656 30.632812 16.832031 30.222656 C 16.761719 30.019531 17.066406 29.933594 17.136719 30.132812 C 17.289062 30.582031 17.429688 31.035156 17.558594 31.492188 C 17.558594 31.5 17.5625 31.503906 17.5625 31.507812 C 17.875 31.546875 18.191406 31.570312 18.507812 31.578125 C 18.636719 31.167969 18.765625 30.753906 18.894531 30.34375 C 18.738281 30.046875 18.566406 29.761719 18.382812 29.488281 C 18.265625 29.3125 18.535156 29.144531 18.652344 29.316406 C 18.824219 29.574219 18.984375 29.839844 19.132812 30.113281 C 19.160156 30.109375 19.1875 30.117188 19.21875 30.132812 C 19.539062 30.296875 19.855469 30.472656 20.167969 30.648438 C 20.390625 30.332031 20.59375 30.003906 20.78125 29.660156 C 20.886719 29.476562 21.15625 29.644531 21.054688 29.832031 C 20.859375 30.1875 20.644531 30.527344 20.414062 30.859375 C 20.417969 30.875 20.421875 30.894531 20.425781 30.914062 C 20.449219 31.183594 20.476562 31.453125 20.503906 31.722656 C 20.769531 31.773438 21.039062 31.8125 21.308594 31.847656 C 21.308594 31.847656 21.3125 31.847656 21.3125 31.847656 C 21.683594 31.546875 22.066406 31.265625 22.460938 31.003906 C 22.636719 30.890625 22.792969 31.183594 22.621094 31.292969 C 22.230469 31.550781 21.847656 31.828125 21.484375 32.128906 L 21.484375 33.246094 C 21.800781 33.152344 22.117188 33.070312 22.441406 33.003906 C 22.449219 33 22.457031 33 22.464844 33 C 22.542969 32.804688 22.621094 32.605469 22.699219 32.410156 C 22.734375 32.328125 22.851562 32.308594 22.914062 32.347656 C 22.996094 32.398438 23.003906 32.496094 22.972656 32.578125 L 22.773438 33.074219 C 22.839844 33.089844 22.902344 33.101562 22.96875 33.113281 C 23.050781 33.125 23.097656 33.238281 23.078125 33.316406 C 23.050781 33.414062 22.96875 33.449219 22.882812 33.433594 C 22.757812 33.417969 22.636719 33.390625 22.515625 33.355469 C 22.503906 33.347656 22.488281 33.34375 22.476562 33.335938 C 22.160156 33.402344 21.847656 33.484375 21.535156 33.578125 C 21.691406 33.976562 21.839844 34.375 21.980469 34.777344 C 22.265625 34.949219 22.550781 35.125 22.835938 35.300781 C 23.078125 34.984375 23.320312 34.671875 23.5625 34.355469 C 23.617188 34.285156 23.730469 34.296875 23.785156 34.355469 C 23.851562 34.425781 23.839844 34.523438 23.785156 34.59375 C 23.539062 34.914062 23.289062 35.238281 23.042969 35.558594 C 23.058594 35.863281 23.074219 36.167969 23.089844 36.472656 C 23.375 36.5625 23.667969 36.632812 23.960938 36.6875 C 23.96875 36.683594 23.972656 36.679688 23.976562 36.675781 L 24.683594 36.238281 C 24.859375 36.128906 25.019531 36.421875 24.84375 36.527344 C 24.640625 36.65625 24.4375 36.777344 24.234375 36.90625 L 24.550781 37.503906 C 24.648438 37.691406 24.378906 37.859375 24.277344 37.671875 L 23.9375 37.019531 C 23.574219 36.957031 23.214844 36.867188 22.863281 36.753906 C 22.855469 36.75 22.847656 36.746094 22.839844 36.742188 C 22.597656 36.910156 22.355469 37.074219 22.113281 37.242188 L 22.113281 38.421875 C 22.441406 38.726562 22.78125 39.015625 23.136719 39.285156 C 23.40625 39.175781 23.671875 39.066406 23.941406 38.957031 C 24.128906 38.878906 24.210938 39.203125 24.023438 39.28125 C 23.777344 39.382812 23.527344 39.484375 23.277344 39.585938 C 23.351562 39.769531 23.433594 39.953125 23.53125 40.125 C 23.632812 40.3125 23.359375 40.480469 23.257812 40.296875 C 23.128906 40.054688 23.015625 39.800781 22.925781 39.542969 C 22.925781 39.539062 22.925781 39.535156 22.921875 39.53125 C 22.578125 39.265625 22.242188 38.984375 21.921875 38.6875 C 21.914062 38.6875 21.90625 38.683594 21.898438 38.679688 C 21.613281 38.730469 21.328125 38.792969 21.050781 38.867188 L 20.683594 39.738281 C 20.742188 40.046875 20.804688 40.355469 20.867188 40.664062 C 20.867188 40.664062 20.867188 40.667969 20.867188 40.667969 C 21.261719 40.777344 21.660156 40.871094 22.058594 40.949219 C 22.257812 40.988281 22.171875 41.3125 21.976562 41.273438 C 21.59375 41.199219 21.214844 41.109375 20.839844 41.007812 C 20.738281 41.222656 20.636719 41.441406 20.535156 41.65625 C 20.445312 41.851562 20.175781 41.679688 20.265625 41.488281 C 20.371094 41.261719 20.476562 41.035156 20.582031 40.804688 C 20.574219 40.792969 20.566406 40.773438 20.5625 40.753906 C 20.496094 40.421875 20.429688 40.09375 20.363281 39.761719 C 20.359375 39.742188 20.359375 39.722656 20.363281 39.703125 C 20.171875 39.589844 19.976562 39.496094 19.769531 39.421875 C 19.746094 39.414062 19.726562 39.402344 19.710938 39.386719 C 19.238281 39.503906 18.765625 39.625 18.292969 39.742188 C 18.261719 40.09375 18.253906 40.445312 18.261719 40.796875 C 18.261719 40.796875 18.261719 40.800781 18.261719 40.800781 C 18.476562 40.964844 18.707031 41.113281 18.941406 41.246094 C 19.121094 41.347656 18.960938 41.636719 18.78125 41.535156 C 18.53125 41.394531 18.285156 41.234375 18.054688 41.054688 C 17.839844 41.273438 17.625 41.492188 17.410156 41.710938 C 17.402344 41.71875 17.394531 41.726562 17.386719 41.734375 C 17.339844 41.890625 17.308594 42.054688 17.257812 42.210938 C 17.183594 42.441406 16.824219 42.339844 16.898438 42.113281 C 16.953125 41.945312 16.988281 41.773438 17.035156 41.605469 C 16.742188 41.226562 16.519531 40.789062 16.375 40.332031 C 16.207031 40.261719 16.039062 40.207031 15.867188 40.15625 C 15.714844 40.140625 15.5625 40.128906 15.410156 40.117188 C 15.265625 40.722656 15.089844 41.320312 14.898438 41.914062 C 15.960938 42.511719 17.175781 42.851562 18.460938 42.851562 C 22.144531 42.851562 25.222656 40.074219 25.960938 36.375 L 26.871094 36.457031 C 27.195312 35.558594 27.371094 34.585938 27.371094 33.574219 C 27.371094 29.046875 23.84375 25.351562 19.410156 25.128906 C 19.433594 22.546875 19.453125 20.082031 19.453125 20.023438 C 19.414062 17.484375 20.613281 15.742188 21.820312 14.328125 C 22.925781 13.03125 24.355469 12.160156 25.742188 11.613281 C 26.496094 11.316406 28.179688 10.96875 30.128906 11.566406 C 30.46875 11.667969 30.832031 11.679688 31.179688 11.601562 C 33.445312 11.097656 35.859375 11.488281 37.117188 12.1875 C 38.867188 13.167969 40.3125 14.664062 41.042969 17.152344 C 41.371094 18.257812 41.699219 18.871094 41.707031 20.40625 C 41.710938 20.9375 41.726562 24.773438 41.660156 27.566406 C 41.648438 28.085938 42.257812 28.992188 42.257812 28.992188 L 42.644531 18.339844 C 42.644531 17.433594 42.136719 15.046875 40.609375 13.007812 C 39.441406 11.445312 37.417969 9.523438 34.828125 9.191406 C 34.800781 9.1875 33.289062 8.96875 31.460938 9.824219 C 31.214844 9.9375 30.574219 3.027344 30.574219 3.027344 C 30.574219 3.027344 30.21875 9.660156 29.945312 9.546875 C 28.121094 8.792969 26.074219 9.101562 26.074219 9.101562 C 25.601562 9.246094 20.660156 11.421875 18.816406 15.96875 C 18.804688 16 18.777344 18.875 18.753906 22.007812 C 18.394531 21.648438 17.9375 21.433594 17.445312 21.433594 C 16.984375 21.433594 16.914062 21.933594 16.855469 22.507812 C 16.769531 23.382812 16.710938 24.425781 15.332031 24.121094 C 15.332031 24.78125 15.519531 25.386719 15.832031 25.855469 L 18.460938 25.855469 L 18.460938 26.078125 C 18.460938 26.078125 18.492188 26.195312 18.558594 26.402344 C 18.609375 26.414062 18.664062 26.421875 18.71875 26.433594 C 18.71875 26.441406 18.71875 26.445312 18.714844 26.453125 C 18.632812 26.449219 18.546875 26.445312 18.460938 26.445312 C 15.332031 26.445312 12.644531 28.445312 11.449219 31.316406 L 12.113281 32.234375 C 12.445312 32.109375 12.777344 31.988281 13.105469 31.867188 Z M 30.097656 27.253906 C 30.019531 27.203125 29.878906 27.226562 29.835938 27.324219 C 29.644531 27.8125 29.460938 28.300781 29.261719 28.785156 C 29.117188 29.136719 29.136719 29.445312 29.214844 29.683594 C 29.277344 29.871094 29.445312 29.992188 29.632812 29.992188 L 29.78125 29.992188 C 29.984375 29.992188 30.183594 30.054688 30.355469 30.167969 L 31.292969 30.167969 C 31.4375 30.054688 31.609375 29.996094 31.789062 29.996094 L 31.9375 29.996094 C 32.171875 29.996094 32.378906 29.828125 32.4375 29.585938 C 32.492188 29.363281 32.488281 29.089844 32.363281 28.785156 C 32.167969 28.300781 31.980469 27.8125 31.789062 27.324219 C 31.75 27.226562 31.609375 27.203125 31.53125 27.253906 C 31.433594 27.316406 31.421875 27.429688 31.460938 27.53125 C 31.542969 27.730469 31.730469 28.625 31.71875 28.8125 C 31.699219 29.03125 31.527344 29.199219 31.324219 29.195312 L 30.304688 29.195312 C 30.097656 29.199219 29.925781 29.03125 29.910156 28.8125 C 29.894531 28.625 30.085938 27.730469 30.164062 27.53125 C 30.203125 27.429688 30.191406 27.3125 30.097656 27.253906 Z M 21.796875 38.359375 L 21.796875 37.230469 L 20.886719 36.40625 C 20.75 36.878906 20.605469 37.351562 20.457031 37.824219 C 20.457031 37.832031 20.453125 37.839844 20.449219 37.847656 C 20.625 38.078125 20.800781 38.3125 20.972656 38.542969 C 21.246094 38.46875 21.519531 38.410156 21.796875 38.359375 Z M 47.832031 60.296875 C 47.621094 59.636719 45.796875 47.191406 45.796875 47.191406 L 45.734375 56.160156 C 45.734375 56.160156 46.75 59.558594 47.003906 60.902344 C 47.257812 62.25 47.066406 65.003906 47.066406 66.09375 C 47.066406 66.457031 46.871094 67.664062 46.605469 68.992188 L 50.953125 68.992188 L 51.546875 63.5625 C 51.546875 63.5625 49.261719 64.8125 47.832031 60.296875 Z M 31.722656 25.46875 C 31.742188 24.203125 32.058594 22.964844 32.636719 21.867188 C 32.757812 21.636719 32.433594 21.433594 32.3125 21.660156 C 31.699219 22.820312 31.367188 24.132812 31.34375 25.46875 C 31.339844 25.730469 31.71875 25.730469 31.722656 25.46875 Z M 23.074219 20.054688 C 22.949219 20.101562 22.863281 20.222656 22.902344 20.363281 C 22.933594 20.484375 23.078125 20.582031 23.203125 20.539062 C 23.914062 20.273438 24.675781 20.242188 25.402344 20.453125 C 25.710938 20.542969 25.839844 20.0625 25.535156 19.972656 C 24.730469 19.738281 23.859375 19.765625 23.074219 20.054688 Z M 21.820312 47.128906 L 21.472656 47.128906 L 25.558594 56.546875 C 25.558594 56.546875 31.464844 60.230469 32.191406 60.777344 L 35.574219 60.777344 C 36.640625 60.480469 37.628906 60.089844 38.53125 59.625 C 41.023438 58.335938 42.589844 55.75 42.589844 52.925781 L 42.589844 47.152344 C 42.464844 47.011719 41.273438 47.234375 41.191406 47.253906 C 41.160156 47.261719 42.023438 53.726562 40.429688 56.257812 C 39.195312 58.210938 37.195312 59.324219 34.992188 59.441406 C 32.421875 59.582031 29.585938 58.375 27.382812 55.574219 C 26.472656 54.414062 25.496094 52.886719 24.613281 51.472656 C 24.863281 51.515625 25.984375 51.785156 26.941406 52.003906 C 28.609375 52.382812 27.460938 51.679688 26.832031 51.355469 C 25.453125 50.644531 23.667969 49.726562 23.273438 49.335938 C 22.503906 48.582031 22.199219 47.691406 21.820312 47.128906 Z M 36.019531 20.445312 C 36.730469 20.183594 37.492188 20.152344 38.21875 20.363281 C 38.523438 20.453125 38.65625 19.972656 38.351562 19.882812 C 37.546875 19.648438 36.675781 19.675781 35.890625 19.964844 C 35.761719 20.011719 35.679688 20.132812 35.714844 20.273438 C 35.75 20.394531 35.894531 20.492188 36.019531 20.445312 Z M 25.8125 44.070312 C 25.8125 44.070312 27.300781 44.136719 30.40625 42.832031 C 31.675781 42.296875 32.75 41.4375 33.574219 40.609375 C 34.773438 39.40625 35.453125 38.261719 35.453125 38.261719 C 35.453125 38.261719 33.78125 39.457031 32.285156 40.023438 C 31.644531 40.265625 30.589844 40.480469 30.085938 40.480469 C 28.789062 40.480469 25.554688 38.394531 25.554688 38.394531 Z M 19.164062 33.101562 C 19.152344 33.113281 19.140625 33.125 19.125 33.136719 C 18.769531 33.386719 18.394531 33.609375 18.011719 33.808594 C 18.003906 33.8125 17.996094 33.816406 17.984375 33.820312 L 18.316406 35.367188 C 18.734375 35.210938 19.144531 35.035156 19.546875 34.847656 C 19.566406 34.839844 19.582031 34.832031 19.601562 34.828125 C 19.714844 34.453125 19.832031 34.074219 19.945312 33.695312 C 19.679688 33.507812 19.417969 33.308594 19.164062 33.101562 Z M 13.476562 39.265625 C 13.84375 39.21875 14.214844 39.230469 14.578125 39.289062 C 14.65625 39 14.738281 38.714844 14.832031 38.429688 C 14.339844 37.914062 13.867188 37.375 13.40625 36.824219 C 13.167969 37.011719 12.917969 37.175781 12.648438 37.316406 C 12.542969 37.636719 12.433594 37.957031 12.324219 38.277344 C 12.34375 38.285156 12.363281 38.296875 12.378906 38.3125 C 12.71875 38.625 13.058594 38.933594 13.421875 39.214844 C 13.441406 39.226562 13.460938 39.246094 13.476562 39.265625 Z M 13.148438 39.46875 C 12.789062 39.1875 12.453125 38.882812 12.117188 38.578125 C 12.117188 38.574219 12.113281 38.574219 12.113281 38.570312 L 11.84375 38.796875 C 12.144531 39.34375 12.5 39.847656 12.90625 40.304688 C 12.988281 40.027344 13.085938 39.75 13.148438 39.46875 Z M 12.207031 32.550781 C 12.261719 33.035156 12.324219 33.515625 12.402344 33.996094 C 12.71875 33.960938 13.035156 33.921875 13.351562 33.871094 C 13.40625 33.863281 13.464844 33.875 13.503906 33.914062 C 13.566406 33.59375 13.628906 33.273438 13.695312 32.953125 C 13.507812 32.707031 13.328125 32.457031 13.148438 32.207031 C 12.835938 32.320312 12.519531 32.4375 12.207031 32.550781 Z M 11.765625 35.96875 C 12.011719 36.320312 12.257812 36.667969 12.503906 37.019531 C 12.816406 36.855469 13.113281 36.65625 13.386719 36.421875 C 13.570312 36.011719 13.753906 35.601562 13.9375 35.191406 C 13.78125 34.863281 13.636719 34.53125 13.5 34.191406 C 13.496094 34.183594 13.496094 34.175781 13.492188 34.167969 C 13.476562 34.183594 13.457031 34.191406 13.433594 34.195312 C 13.078125 34.253906 12.71875 34.300781 12.355469 34.335938 C 12.132812 34.859375 11.921875 35.386719 11.71875 35.921875 C 11.734375 35.933594 11.75 35.949219 11.765625 35.96875 Z M 11.390625 36.191406 C 11.238281 36.207031 11.085938 36.226562 10.9375 36.253906 C 11.085938 37.050781 11.339844 37.808594 11.6875 38.503906 C 11.792969 38.414062 11.898438 38.328125 12.003906 38.238281 C 12.109375 37.925781 12.214844 37.613281 12.320312 37.300781 C 12.320312 37.296875 12.320312 37.292969 12.316406 37.289062 C 12.296875 37.273438 12.28125 37.257812 12.265625 37.234375 L 11.496094 36.140625 C 11.46875 36.167969 11.433594 36.1875 11.390625 36.191406 Z M 11.390625 35.855469 C 11.394531 35.855469 11.402344 35.855469 11.40625 35.855469 C 11.617188 35.300781 11.835938 34.75 12.066406 34.207031 C 11.644531 34.230469 11.21875 34.253906 10.796875 34.277344 C 10.792969 34.402344 10.789062 34.523438 10.789062 34.648438 C 10.789062 35.082031 10.820312 35.507812 10.882812 35.925781 C 11.050781 35.898438 11.21875 35.875 11.390625 35.855469 Z M 15.078125 39.914062 C 14.945312 39.863281 14.8125 39.804688 14.6875 39.730469 C 14.640625 39.730469 14.59375 39.710938 14.558594 39.679688 C 14.222656 39.667969 13.886719 39.6875 13.550781 39.691406 C 13.523438 39.691406 13.5 39.683594 13.480469 39.675781 C 13.40625 39.96875 13.304688 40.253906 13.222656 40.546875 C 13.214844 40.570312 13.207031 40.589844 13.191406 40.609375 C 13.609375 41.03125 14.074219 41.402344 14.570312 41.71875 C 14.761719 41.125 14.9375 40.523438 15.078125 39.914062 Z M 25.464844 60.105469 C 25.890625 59.851562 26.316406 59.597656 26.742188 59.34375 C 26.898438 59.25 26.832031 58.996094 26.648438 58.996094 C 25.40625 59 24.011719 58.996094 22.898438 58.367188 C 20.351562 55.574219 19.375 52.117188 19.316406 52.074219 L 15.925781 51.09375 L 15.972656 50.746094 C 16.003906 50.492188 16.234375 50.308594 16.488281 50.34375 C 17.390625 50.472656 19.324219 50.742188 19.503906 50.769531 C 19.816406 50.820312 19.863281 50.082031 19.550781 50.03125 C 19.492188 50.023438 16.816406 49.722656 15.847656 49.617188 C 15.671875 49.597656 15.558594 49.417969 15.613281 49.25 L 15.679688 49.058594 C 15.679688 49.058594 19.695312 49.199219 19.929688 49.234375 C 20.246094 49.28125 20.4375 48.929688 20.121094 48.882812 C 20.070312 48.875 16.601562 48.4375 15.390625 48.285156 C 15.113281 48.25 15.007812 47.898438 15.222656 47.714844 C 15.335938 47.617188 15.484375 47.558594 15.648438 47.558594 L 19.234375 47.558594 C 18.675781 47.414062 16.59375 47.21875 15.238281 46.898438 C 14.320312 46.679688 14.300781 46.203125 14.210938 46.246094 C 13.984375 46.367188 13.511719 46.378906 13.480469 46.898438 C 13.441406 47.519531 13.488281 48.800781 13.410156 50.105469 C 13.402344 50.238281 14.316406 53.769531 14.296875 53.902344 C 13.824219 57.023438 13.335938 60.164062 13.234375 60.488281 C 11.804688 65.003906 9.515625 63.753906 9.515625 63.753906 L 10.109375 68.988281 L 14.609375 68.988281 C 14.273438 67.808594 13.996094 66.710938 13.996094 66.285156 C 13.996094 65.195312 13.804688 62.441406 14.058594 61.097656 C 14.316406 59.75 15.332031 56.355469 15.332031 56.355469 L 15.714844 55.113281 C 16.386719 55.386719 17.949219 55.960938 18.058594 55.894531 C 18.332031 55.734375 18.101562 54.625 18.101562 54.625 C 18.101562 54.625 18.886719 55.167969 19.222656 55.753906 C 19.574219 56.363281 20.054688 57.019531 20.457031 57.597656 C 21.082031 58.492188 21.585938 59.480469 22.539062 60.082031 C 22.792969 60.242188 23.542969 60.519531 23.609375 60.503906 L 32.824219 68.988281 L 44.519531 68.988281 C 44.519531 68.988281 42.292969 68.910156 39.292969 68.128906 C 37.894531 67.761719 36.328125 67.242188 34.738281 66.503906 C 30.203125 64.402344 25.421875 60.132812 25.464844 60.105469 Z M 11.882812 32.460938 C 11.691406 32.199219 11.503906 31.933594 11.3125 31.667969 C 11.050781 32.382812 10.882812 33.144531 10.816406 33.941406 C 11.234375 33.917969 11.648438 33.894531 12.066406 33.871094 C 11.992188 33.402344 11.933594 32.933594 11.882812 32.460938 Z M 15.53125 32.238281 C 15.796875 32.65625 16.046875 33.085938 16.277344 33.523438 C 16.472656 33.527344 16.765625 33.53125 17.054688 33.535156 C 17.089844 32.953125 17.132812 32.375 17.1875 31.796875 C 16.816406 31.710938 16.445312 31.625 16.074219 31.539062 C 15.890625 31.773438 15.710938 32.003906 15.53125 32.238281 Z M 20.382812 32.035156 C 20.371094 32.050781 20.355469 32.066406 20.339844 32.078125 C 20.019531 32.339844 19.695312 32.597656 19.367188 32.84375 C 19.367188 32.847656 19.371094 32.847656 19.371094 32.851562 C 19.625 33.058594 19.886719 33.253906 20.15625 33.441406 C 20.492188 33.351562 20.832031 33.261719 21.171875 33.171875 L 21.171875 32.164062 C 20.917969 32.132812 20.667969 32.089844 20.417969 32.042969 C 20.402344 32.042969 20.390625 32.039062 20.382812 32.035156 Z M 19.179688 30.484375 C 19.058594 30.875 18.9375 31.265625 18.8125 31.65625 C 18.820312 31.667969 18.824219 31.679688 18.828125 31.6875 C 18.945312 31.984375 19.0625 32.28125 19.179688 32.578125 C 19.515625 32.320312 19.851562 32.058594 20.179688 31.789062 C 20.183594 31.785156 20.1875 31.785156 20.195312 31.78125 C 20.167969 31.519531 20.144531 31.261719 20.121094 31 C 19.808594 30.824219 19.496094 30.652344 19.179688 30.484375 Z M 17.5 31.835938 C 17.445312 32.402344 17.402344 32.96875 17.371094 33.539062 C 17.554688 33.542969 17.714844 33.542969 17.816406 33.542969 L 18.949219 32.859375 C 18.828125 32.542969 18.703125 32.230469 18.578125 31.914062 C 18.21875 31.910156 17.859375 31.882812 17.5 31.835938 Z M 20.257812 33.757812 L 19.902344 34.933594 C 20.226562 35.234375 20.53125 35.558594 20.816406 35.898438 C 21.082031 35.554688 21.351562 35.214844 21.628906 34.878906 C 21.640625 34.863281 21.65625 34.851562 21.671875 34.84375 C 21.515625 34.398438 21.347656 33.957031 21.171875 33.519531 C 20.867188 33.597656 20.5625 33.679688 20.257812 33.757812 Z M 14.710938 31.273438 C 14.402344 31.269531 14.09375 31.265625 13.785156 31.265625 C 13.65625 31.515625 13.53125 31.773438 13.414062 32.03125 C 13.589844 32.277344 13.769531 32.519531 13.949219 32.757812 C 13.949219 32.761719 13.949219 32.761719 13.953125 32.761719 C 14.363281 32.550781 14.773438 32.34375 15.183594 32.132812 C 15.035156 31.839844 14.875 31.554688 14.710938 31.269531 C 14.710938 31.273438 14.710938 31.273438 14.710938 31.273438 Z M 15.839844 35.082031 C 15.949219 35.257812 16.40625 35.945312 16.453125 35.9375 C 16.503906 35.925781 18.070312 35.441406 18.089844 35.425781 C 18.074219 35.4375 17.742188 33.914062 17.652344 33.902344 C 17.554688 33.890625 16.570312 33.871094 16.179688 33.859375 C 16.050781 34.261719 15.9375 34.667969 15.839844 35.082031 Z M 15.101562 30.546875 C 15.03125 30.691406 14.96875 30.835938 14.917969 30.988281 C 15.089844 31.277344 15.253906 31.570312 15.410156 31.871094 C 15.546875 31.691406 15.6875 31.511719 15.824219 31.335938 C 15.566406 31.089844 15.324219 30.828125 15.101562 30.546875 Z M 22.75 36.40625 C 22.757812 36.402344 22.765625 36.398438 22.769531 36.394531 C 22.757812 36.136719 22.742188 35.878906 22.730469 35.621094 C 22.441406 35.445312 22.15625 35.269531 21.867188 35.09375 C 21.863281 35.101562 21.859375 35.109375 21.851562 35.117188 C 21.578125 35.445312 21.316406 35.777344 21.054688 36.117188 C 21.359375 36.390625 21.664062 36.667969 21.96875 36.941406 C 22.226562 36.765625 22.488281 36.585938 22.75 36.40625 Z M 22.75 36.40625 " fill-opacity="1" fill-rule="nonzero"/><g clip-path="url(#8179cc30a5)"><path fill="#e06f69" d="M 39.410156 27.882812 C 39.410156 28.507812 38.4375 28.085938 37.347656 28.085938 C 36.261719 28.085938 35.472656 28.507812 35.472656 27.882812 C 35.472656 27.257812 36.355469 26.75 37.441406 26.75 C 38.53125 26.75 39.410156 27.257812 39.410156 27.882812 Z M 33.804688 33.371094 C 33.804688 34.40625 32.601562 34.796875 31.101562 34.796875 C 30.136719 34.796875 29.28125 34.636719 28.796875 34.246094 L 30.847656 34.246094 C 31.246094 34.246094 31.246094 33.621094 30.847656 33.621094 L 28.398438 33.621094 C 28.378906 33.542969 28.371094 33.460938 28.371094 33.371094 C 28.371094 32.335938 29.585938 31.5 31.085938 31.5 C 32.585938 31.5 33.804688 32.335938 33.804688 33.371094 Z M 32.375 33.558594 C 31.976562 33.558594 31.976562 34.179688 32.375 34.179688 C 32.769531 34.179688 32.769531 33.558594 32.375 33.558594 Z M 24.542969 26.6875 C 24.28125 26.6875 24.027344 26.71875 23.800781 26.769531 C 24.308594 27.203125 24.824219 27.628906 25.308594 28.089844 C 26.003906 28.175781 26.511719 28.269531 26.511719 27.816406 C 26.515625 27.195312 25.632812 26.6875 24.542969 26.6875 Z M 49.425781 24.71875 L 49.425781 18.957031 C 49.425781 18.476562 48.640625 18.476562 48.640625 18.957031 L 48.640625 24.71875 C 48.640625 25.199219 49.425781 25.199219 49.425781 24.71875 Z M 49.089844 26.148438 C 48.847656 26.148438 48.652344 26.335938 48.652344 26.5625 C 48.652344 26.792969 48.847656 26.980469 49.089844 26.980469 C 49.332031 26.980469 49.527344 26.792969 49.527344 26.5625 C 49.527344 26.335938 49.332031 26.148438 49.089844 26.148438 Z M 52.058594 24.71875 L 52.058594 18.957031 C 52.058594 18.476562 51.269531 18.476562 51.269531 18.957031 L 51.269531 24.71875 C 51.269531 25.199219 52.058594 25.199219 52.058594 24.71875 Z M 51.722656 26.148438 C 51.480469 26.148438 51.28125 26.335938 51.28125 26.5625 C 51.28125 26.792969 51.480469 26.980469 51.722656 26.980469 C 51.964844 26.980469 52.160156 26.792969 52.160156 26.5625 C 52.160156 26.335938 51.964844 26.148438 51.722656 26.148438 Z M 51.722656 26.148438 " fill-opacity="1" fill-rule="nonzero"/></g><path fill="#e4eff4" d="M 34.933594 23.371094 C 34.933594 22.230469 35.984375 21.304688 37.28125 21.304688 C 38.578125 21.304688 39.628906 22.230469 39.628906 23.371094 C 39.628906 24.511719 38.578125 25.4375 37.28125 25.4375 C 35.984375 25.4375 34.933594 24.511719 34.933594 23.371094 Z M 29.367188 33.144531 L 32.570312 33.144531 C 32.710938 33.144531 32.761719 32.886719 32.640625 32.789062 C 32.292969 32.515625 31.675781 32.332031 30.96875 32.332031 C 30.265625 32.332031 29.644531 32.515625 29.300781 32.789062 C 29.175781 32.886719 29.226562 33.144531 29.367188 33.144531 Z M 45.9375 47.070312 C 45.246094 46.945312 41.992188 46.8125 41.992188 46.8125 L 42.054688 52.488281 C 42.054688 56.703125 38.664062 60.121094 34.484375 60.121094 L 31.136719 60.121094 L 44.105469 68.992188 L 46.558594 68.992188 C 46.941406 65.824219 47.148438 60.734375 45.917969 57.1875 C 45.984375 51.953125 45.996094 47.082031 45.9375 47.070312 Z M 23.605469 60.199219 C 20.859375 59.503906 18.507812 54.402344 18.507812 54.402344 L 17.839844 54.382812 L 18.078125 55.777344 L 15.695312 54.863281 C 15.695312 54.863281 15.226562 56.253906 15.226562 57.1875 C 13.460938 61.296875 13.945312 66.039062 14.550781 68.992188 L 33.160156 68.992188 L 25.65625 61.976562 Z M 24.269531 25.507812 C 25.566406 25.507812 26.617188 24.582031 26.617188 23.441406 C 26.617188 22.300781 25.566406 21.375 24.269531 21.375 C 22.976562 21.375 21.925781 22.300781 21.925781 23.441406 C 21.925781 24.582031 22.976562 25.507812 24.269531 25.507812 Z M 24.269531 25.507812 " fill-opacity="1" fill-rule="nonzero"/><g clip-path="url(#721d6023f2)"><path fill="#493831" d="M 8.355469 40.339844 C 8.984375 41.5 9.820312 42.515625 10.839844 43.359375 C 11.859375 44.199219 13.011719 44.824219 14.265625 45.214844 C 15.441406 45.582031 16.660156 45.730469 17.894531 45.648438 L 17.929688 46.023438 C 16.34375 45.957031 14.664062 45.890625 14.605469 45.898438 C 14.234375 45.941406 13.808594 46.003906 13.523438 46.269531 C 13.183594 46.589844 13.203125 47.042969 13.253906 47.472656 C 13.253906 47.5 13.257812 47.527344 13.261719 47.554688 C 12.433594 47.785156 11.625 48.09375 10.890625 48.542969 C 9.785156 49.214844 8.960938 50.21875 8.585938 51.488281 C 8.199219 52.800781 8.269531 54.207031 8.398438 55.554688 C 8.554688 57.152344 8.746094 58.746094 8.921875 60.339844 C 9.242188 63.222656 9.558594 66.105469 9.875 68.988281 L 10.253906 68.988281 C 9.980469 66.523438 9.710938 64.058594 9.4375 61.589844 C 9.253906 59.925781 9.070312 58.257812 8.886719 56.59375 C 8.738281 55.230469 8.558594 53.832031 8.761719 52.464844 C 8.859375 51.808594 9.046875 51.160156 9.371094 50.582031 C 9.691406 50.015625 10.140625 49.535156 10.660156 49.15625 C 11.453125 48.578125 12.367188 48.210938 13.300781 47.945312 C 13.332031 48.253906 13.355469 48.566406 13.363281 48.875 C 13.363281 48.898438 13.363281 48.941406 13.367188 48.992188 C 13.367188 49.289062 13.367188 49.585938 13.367188 49.882812 C 13.367188 50.226562 13.351562 50.578125 13.492188 50.894531 C 13.523438 50.964844 13.5625 51.03125 13.601562 51.097656 C 13.683594 51.335938 13.78125 51.570312 13.886719 51.800781 C 13.890625 52.191406 13.894531 52.585938 13.898438 52.976562 C 13.898438 52.980469 13.898438 52.984375 13.894531 52.988281 C 13.882812 53.019531 13.882812 53.050781 13.890625 53.082031 C 13.882812 53.125 13.894531 53.175781 13.933594 53.226562 C 14.105469 53.519531 14.484375 54.160156 14.5 54.179688 C 14.515625 54.207031 14.863281 54.425781 15.011719 54.511719 C 15.007812 55.117188 15.003906 55.757812 15.003906 56.425781 C 14.875 56.777344 14.753906 57.128906 14.628906 57.484375 C 14.550781 57.710938 14.910156 57.808594 14.988281 57.582031 C 15.078125 57.320312 15.679688 55.675781 15.929688 55.027344 C 16.5625 55.367188 17.207031 55.679688 17.859375 55.972656 C 17.863281 55.972656 17.867188 55.976562 17.871094 55.976562 C 18.007812 56.164062 18.320312 55.980469 18.1875 55.78125 C 18.171875 55.757812 18.152344 55.734375 18.136719 55.707031 C 18.117188 55.324219 18.070312 54.941406 17.992188 54.5625 C 18 54.542969 18.003906 54.523438 18.003906 54.503906 C 18.199219 54.511719 18.394531 54.519531 18.589844 54.527344 C 19.3125 56.40625 20.351562 58.15625 21.992188 59.371094 C 22.550781 59.785156 23.167969 60.113281 23.828125 60.34375 C 23.851562 60.351562 23.878906 60.355469 23.898438 60.351562 C 24.175781 60.621094 24.449219 60.886719 24.726562 61.15625 C 23.972656 60.992188 23.226562 60.789062 22.488281 60.550781 C 22.261719 60.476562 22.164062 60.835938 22.390625 60.910156 C 23.25 61.191406 25.109375 61.59375 25.148438 61.566406 C 26.414062 62.792969 27.679688 64.023438 28.945312 65.25 C 30.226562 66.496094 31.511719 67.742188 32.796875 68.988281 L 33.332031 68.988281 C 32.894531 68.566406 32.457031 68.140625 32.015625 67.714844 C 30.34375 66.089844 28.671875 64.46875 27 62.84375 C 26.082031 61.953125 25.164062 61.0625 24.246094 60.171875 C 24.445312 60.089844 24.648438 60.011719 24.847656 59.933594 C 24.941406 59.894531 25.007812 59.808594 24.976562 59.703125 C 24.953125 59.613281 24.84375 59.535156 24.75 59.574219 C 24.476562 59.679688 24.199219 59.789062 23.925781 59.898438 C 23.894531 59.910156 23.867188 59.929688 23.84375 59.953125 C 21.492188 59.101562 19.9375 56.917969 19.035156 54.65625 C 18.761719 53.980469 18.539062 53.28125 18.335938 52.578125 C 18.734375 52.640625 19.132812 52.699219 19.53125 52.761719 C 19.628906 52.777344 19.730469 52.734375 19.757812 52.628906 C 19.785156 52.542969 19.726562 52.414062 19.628906 52.398438 C 18.660156 52.253906 17.691406 52.105469 16.726562 51.957031 C 16.6875 51.9375 16.648438 51.929688 16.605469 51.941406 C 16.472656 51.917969 16.332031 51.898438 16.195312 51.878906 C 16.097656 51.863281 16 51.902344 15.96875 52.007812 C 15.945312 52.097656 16 52.222656 16.097656 52.238281 L 16.296875 52.269531 C 16.121094 52.480469 15.945312 52.6875 15.769531 52.898438 C 15.621094 53.078125 15.867188 53.335938 16.023438 53.175781 C 16.605469 53.585938 17.140625 54.050781 17.632812 54.566406 C 17.625 54.59375 17.625 54.621094 17.632812 54.652344 C 17.667969 54.832031 17.699219 55.015625 17.722656 55.199219 C 17.464844 54.925781 17.179688 54.6875 16.863281 54.480469 C 16.660156 54.351562 16.476562 54.675781 16.675781 54.804688 C 16.898438 54.949219 17.105469 55.113281 17.292969 55.292969 C 16.515625 54.902344 15.503906 54.335938 15.503906 54.335938 C 15.503906 54.335938 15.445312 54.304688 15.359375 54.257812 C 14.992188 54.066406 14.683594 53.773438 14.472656 53.410156 C 14.40625 53.296875 14.335938 53.1875 14.269531 53.074219 C 14.269531 53.070312 14.273438 53.066406 14.269531 53.0625 C 14.269531 53.054688 14.269531 53.046875 14.269531 53.039062 C 14.621094 52.136719 15.042969 51.265625 15.527344 50.433594 C 15.578125 50.351562 15.621094 50.257812 15.6875 50.191406 C 15.761719 50.113281 15.859375 50.128906 15.960938 50.136719 C 16.207031 50.164062 16.457031 50.195312 16.703125 50.226562 C 17.21875 50.289062 17.730469 50.363281 18.242188 50.445312 C 18.816406 50.539062 19.390625 50.640625 19.960938 50.753906 C 20.195312 50.800781 20.292969 50.441406 20.058594 50.394531 C 18.980469 50.179688 17.890625 50.003906 16.800781 49.863281 C 16.527344 49.828125 16.253906 49.792969 15.980469 49.765625 C 15.742188 49.742188 15.535156 49.785156 15.378906 49.980469 C 15.21875 50.179688 15.101562 50.425781 14.980469 50.648438 C 14.851562 50.878906 14.730469 51.109375 14.613281 51.347656 C 14.53125 51.515625 14.449219 51.683594 14.371094 51.855469 C 14.390625 51.441406 14.4375 51.027344 14.511719 50.621094 C 14.585938 50.222656 14.652344 49.703125 14.972656 49.417969 C 15.136719 49.269531 15.363281 49.230469 15.574219 49.226562 C 15.828125 49.214844 16.078125 49.234375 16.332031 49.238281 C 16.878906 49.253906 17.429688 49.269531 17.976562 49.285156 C 18.597656 49.300781 19.222656 49.316406 19.84375 49.335938 C 20.082031 49.339844 20.082031 48.96875 19.84375 48.960938 L 16.304688 48.863281 C 15.824219 48.851562 15.234375 48.761719 14.816406 49.066406 C 14.476562 49.3125 14.332031 49.71875 14.238281 50.117188 C 14.238281 50.117188 14.238281 50.117188 14.238281 50.113281 C 14.277344 49.636719 14.308594 49.246094 14.304688 49.152344 C 14.289062 48.953125 14.269531 48.753906 14.261719 48.554688 C 14.253906 48.414062 14.261719 48.25 14.335938 48.125 C 14.496094 47.855469 14.917969 47.839844 15.195312 47.8125 C 15.402344 47.796875 18.972656 48.21875 19.207031 48.25 C 19.523438 48.296875 19.730469 47.554688 19.414062 47.507812 C 19.296875 47.492188 15.308594 47.304688 15.195312 47.3125 C 14.824219 47.34375 14.398438 47.390625 14.101562 47.648438 C 13.75 47.953125 13.753906 48.40625 13.785156 48.835938 C 13.824219 49.304688 13.847656 49.773438 13.84375 50.242188 C 13.84375 50.308594 13.847656 50.46875 13.851562 50.671875 C 13.851562 50.671875 13.851562 50.667969 13.851562 50.667969 C 13.835938 50.617188 13.808594 50.582031 13.769531 50.5625 C 13.71875 50.324219 13.738281 50.070312 13.738281 49.832031 L 13.738281 49.007812 C 13.769531 48.414062 13.792969 47.878906 13.78125 47.769531 C 13.761719 47.570312 13.734375 47.371094 13.71875 47.171875 C 13.707031 47.03125 13.703125 46.867188 13.773438 46.742188 C 13.925781 46.464844 14.347656 46.429688 14.621094 46.394531 C 14.742188 46.378906 16.5 46.445312 17.980469 46.507812 L 17.980469 46.519531 L 18.238281 46.519531 C 19.15625 46.558594 19.914062 46.589844 20.027344 46.597656 C 20.542969 46.632812 20.996094 46.949219 21.214844 47.421875 C 22.285156 49.734375 25.371094 56.515625 25.371094 56.515625 C 25.371094 56.515625 26.644531 57.386719 28.640625 58.753906 C 29.246094 59.179688 29.855469 59.609375 30.464844 60.035156 C 32.082031 61.164062 33.699219 62.292969 35.320312 63.417969 C 36.941406 64.542969 38.5625 65.664062 40.1875 66.78125 C 41.261719 67.519531 42.335938 68.253906 43.410156 68.992188 L 44.328125 68.992188 C 41.164062 66.8125 37.523438 64.28125 34.410156 62.183594 C 35.285156 62.1875 36.15625 62.164062 37.027344 62.105469 C 36.773438 62.230469 36.511719 62.34375 36.246094 62.445312 C 36.023438 62.527344 36.121094 62.886719 36.34375 62.804688 C 36.90625 62.59375 37.449219 62.332031 37.960938 62.015625 C 38.109375 61.925781 38.058594 61.652344 37.867188 61.667969 C 36.542969 61.785156 35.214844 61.828125 33.882812 61.804688 C 33.871094 61.804688 33.859375 61.804688 33.851562 61.804688 C 33.1875 61.359375 32.546875 60.925781 31.9375 60.515625 L 34.394531 60.515625 C 36.703125 60.515625 38.910156 59.507812 40.402344 57.730469 C 41.585938 56.320312 42.230469 54.550781 42.230469 52.679688 L 42.167969 47.234375 C 42.167969 47.222656 42.175781 47.210938 42.191406 47.214844 C 42.882812 47.242188 44.953125 47.339844 45.714844 47.4375 C 45.726562 47.4375 45.734375 47.445312 45.734375 47.457031 C 45.761719 48.210938 45.761719 51.5625 45.714844 55.726562 C 45.671875 55.609375 45.625 55.488281 45.582031 55.367188 C 45.566406 55.316406 45.34375 54.90625 45.269531 54.730469 C 45.226562 54.640625 45.09375 54.617188 45.015625 54.664062 C 44.921875 54.71875 44.910156 54.828125 44.949219 54.921875 C 45 55.035156 45.628906 56.644531 46.097656 58.613281 C 46.578125 60.613281 46.894531 62.980469 46.910156 63.753906 C 46.941406 65.597656 46.71875 67.652344 46.523438 68.992188 L 46.921875 68.992188 C 47.148438 67.050781 47.332031 64.289062 47.300781 63.464844 C 47.226562 61.351562 46.101562 56.449219 46.101562 56.449219 C 46.128906 54.273438 46.144531 52.097656 46.148438 50.363281 C 46.148438 49.421875 46.148438 48.644531 46.140625 48.113281 C 46.140625 47.921875 46.136719 47.757812 46.132812 47.628906 C 46.308594 47.660156 46.480469 47.695312 46.652344 47.730469 C 47.9375 48.003906 49.242188 48.402344 50.324219 49.191406 C 50.84375 49.570312 51.289062 50.050781 51.609375 50.617188 C 51.9375 51.195312 52.125 51.84375 52.222656 52.5 C 52.425781 53.867188 52.246094 55.265625 52.097656 56.628906 C 51.914062 58.292969 51.730469 59.960938 51.546875 61.625 C 51.273438 64.082031 51.003906 66.535156 50.734375 68.992188 L 51.109375 68.992188 C 51.429688 66.121094 51.746094 63.246094 52.058594 60.375 C 52.238281 58.78125 52.429688 57.1875 52.585938 55.589844 C 52.714844 54.242188 52.78125 52.835938 52.398438 51.523438 C 52.023438 50.253906 51.199219 49.25 50.09375 48.578125 C 48.917969 47.859375 47.542969 47.492188 46.203125 47.25 C 46.171875 47.246094 46.140625 47.238281 46.109375 47.234375 C 46.09375 47.167969 46.054688 47.089844 45.949219 47.070312 C 45.253906 46.941406 42.109375 46.808594 41.972656 46.804688 L 41.789062 46.796875 C 41.777344 46.796875 41.765625 46.808594 41.765625 46.820312 L 41.769531 47 C 41.683594 47.003906 41.601562 47.007812 41.519531 47.007812 C 40.714844 47.03125 39.90625 47.042969 39.105469 46.980469 C 38.441406 46.925781 37.773438 46.824219 37.15625 46.566406 C 36.597656 46.335938 36.09375 45.960938 35.796875 45.417969 C 35.464844 44.804688 35.417969 44.074219 35.402344 43.390625 C 35.367188 41.757812 35.445312 40.121094 35.621094 38.5 C 35.738281 38.425781 37.855469 36.988281 38.054688 36.832031 C 38.617188 36.402344 39.15625 35.9375 39.65625 35.433594 C 39.796875 35.292969 39.941406 35.121094 40.09375 34.921875 C 41.363281 35.191406 42.695312 35.058594 43.890625 34.554688 C 43.492188 34.847656 43.101562 35.175781 42.871094 35.621094 C 42.199219 36.925781 42.992188 37.722656 42.917969 37.488281 C 42.738281 36.902344 42.898438 36.285156 43.21875 35.78125 C 43.554688 35.242188 44.070312 34.855469 44.605469 34.535156 C 45.695312 33.882812 46.960938 33.4375 47.753906 32.382812 C 48.480469 31.417969 48.617188 30.144531 48.527344 28.96875 C 48.433594 27.730469 48.152344 26.480469 47.722656 25.3125 C 47.410156 24.230469 46.90625 23.207031 46.226562 22.308594 C 45.960938 21.957031 45.675781 21.625 45.363281 21.320312 C 46.765625 20.226562 47.488281 18.429688 47.4375 16.664062 C 47.382812 14.632812 46.414062 12.75 45.085938 11.261719 C 44.804688 10.949219 44.507812 10.648438 44.195312 10.363281 C 43.746094 8.972656 43.089844 7.652344 42.253906 6.457031 C 40.976562 4.628906 36.773438 1.523438 34.257812 0.667969 C 33.167969 0.300781 31.773438 0.265625 30.671875 1.511719 C 30.378906 0.726562 29.570312 0.222656 28.742188 0.132812 C 27.558594 0.0078125 26.402344 0.625 25.402344 1.1875 C 23.925781 2.015625 22.566406 3.054688 21.375 4.261719 C 21.039062 4.5625 20.71875 4.878906 20.414062 5.210938 C 19.570312 6.125 18.832031 7.144531 18.234375 8.238281 C 17.660156 9.285156 17.210938 10.402344 16.914062 11.558594 C 16.675781 11.945312 16.210938 12.746094 15.757812 13.605469 C 15.34375 14.269531 14.921875 14.9375 14.5625 15.628906 C 14.371094 15.996094 14.214844 16.382812 14.148438 16.789062 C 14.082031 17.210938 14.09375 17.632812 14.160156 18.054688 C 14.277344 18.761719 14.566406 19.449219 14.96875 20.035156 C 15.375 20.628906 15.898438 21.132812 16.503906 21.507812 C 15.214844 22.65625 14.964844 24.265625 15.460938 25.328125 C 15.464844 25.34375 15.472656 25.355469 15.480469 25.367188 C 14.398438 25.558594 13.367188 25.925781 12.402344 26.457031 C 11.25 27.089844 10.246094 27.933594 9.410156 28.960938 C 8.574219 29.992188 7.957031 31.152344 7.570312 32.417969 C 7.167969 33.722656 7.03125 35.085938 7.167969 36.457031 C 7.304688 37.832031 7.703125 39.136719 8.355469 40.339844 Z M 16.695312 53.207031 L 18.152344 53.371094 C 18.164062 53.371094 18.175781 53.367188 18.1875 53.367188 C 18.269531 53.628906 18.355469 53.890625 18.449219 54.148438 C 18.246094 54.140625 17.769531 54.132812 17.746094 54.148438 C 17.472656 53.875 16.996094 53.449219 16.695312 53.207031 Z M 14.566406 18.203125 C 14.480469 17.816406 14.449219 17.414062 14.488281 17.019531 C 14.507812 16.820312 14.554688 16.628906 14.613281 16.4375 C 14.511719 18.253906 15.230469 19.699219 15.964844 20.625 C 15.273438 19.980469 14.773438 19.132812 14.566406 18.203125 Z M 21.550781 46.867188 C 21.402344 46.5625 20.882812 46.160156 20.714844 46.148438 C 20.601562 46.140625 19.960938 46.113281 19.132812 46.074219 L 19.078125 45.503906 C 20.144531 45.3125 21.167969 44.949219 22.125 44.421875 C 23.273438 43.789062 24.28125 42.945312 25.117188 41.917969 C 25.273438 41.722656 25.425781 41.519531 25.566406 41.316406 C 25.589844 41.996094 25.59375 42.675781 25.582031 43.355469 C 25.5625 44.039062 25.519531 44.769531 25.1875 45.382812 C 24.890625 45.925781 24.386719 46.300781 23.828125 46.53125 C 23.210938 46.789062 22.542969 46.890625 21.878906 46.945312 C 21.785156 46.953125 21.691406 46.957031 21.597656 46.964844 C 21.582031 46.929688 21.566406 46.898438 21.550781 46.867188 Z M 35.898438 46.191406 C 36.328125 46.632812 36.890625 46.910156 37.46875 47.085938 C 38.847656 47.503906 40.347656 47.429688 41.773438 47.386719 L 41.832031 52.679688 C 41.832031 56.78125 38.527344 60.117188 34.460938 60.117188 L 31.375 60.117188 C 31.375 60.125 31.375 60.128906 31.375 60.136719 C 30.246094 59.378906 29.238281 58.695312 28.398438 58.128906 C 27.738281 57.664062 27.078125 57.203125 26.417969 56.734375 C 26.21875 56.59375 26.015625 56.453125 25.816406 56.3125 C 25.375 55.453125 22.894531 49.730469 21.78125 47.351562 C 22.371094 47.308594 22.953125 47.222656 23.515625 47.050781 C 24.09375 46.875 24.65625 46.597656 25.085938 46.15625 C 25.558594 45.667969 25.792969 45.023438 25.886719 44.355469 C 25.988281 43.609375 25.972656 42.84375 25.960938 42.09375 C 25.957031 41.652344 25.941406 41.210938 25.921875 40.769531 C 26.226562 40.269531 26.484375 39.746094 26.699219 39.199219 C 27.785156 39.832031 28.871094 40.441406 29.035156 40.507812 C 29.589844 40.734375 30.363281 40.695312 30.859375 40.675781 C 31.535156 40.648438 33.570312 39.734375 35.214844 38.75 C 35.183594 39.054688 35.15625 39.363281 35.132812 39.667969 C 35.070312 40.488281 35.03125 41.308594 35.023438 42.128906 C 35.011719 42.878906 34.996094 43.644531 35.097656 44.386719 C 35.191406 45.058594 35.425781 45.703125 35.898438 46.191406 Z M 42.320312 34.609375 C 41.675781 34.714844 41.011719 34.703125 40.367188 34.585938 C 40.496094 34.441406 40.589844 34.335938 40.613281 34.289062 C 41.640625 34.480469 42.566406 34.484375 43.382812 34.34375 C 43.039062 34.464844 42.683594 34.554688 42.320312 34.609375 Z M 48.007812 28.148438 C 48.007812 28.03125 48.003906 27.917969 48 27.800781 C 48.050781 28.097656 48.09375 28.390625 48.125 28.6875 C 48.246094 29.847656 48.1875 31.113281 47.5 32.097656 C 46.953125 32.871094 46.105469 33.308594 45.273438 33.742188 C 45.4375 33.613281 45.59375 33.476562 45.742188 33.332031 C 47.234375 32.195312 48.007812 30.289062 48.007812 28.148438 Z M 46.207031 13.5 C 46.359375 13.796875 46.496094 14.101562 46.609375 14.414062 C 46.148438 13.597656 45.457031 12.65625 44.507812 11.476562 C 44.476562 11.347656 44.445312 11.214844 44.410156 11.085938 C 45.117188 11.800781 45.738281 12.601562 46.207031 13.5 Z M 26.328125 1.117188 C 26.84375 0.859375 27.386719 0.628906 27.957031 0.53125 C 28.503906 0.441406 29.066406 0.496094 29.554688 0.773438 C 29.800781 0.914062 30.027344 1.109375 30.183594 1.351562 C 28.933594 0.628906 27.375 0.804688 26.308594 1.125 C 26.316406 1.121094 26.320312 1.117188 26.328125 1.117188 Z M 19.117188 18.390625 C 19.117188 16.894531 20.070312 14.1875 22.371094 12.273438 C 24.003906 10.921875 26.085938 10.367188 26.820312 10.335938 C 27.0625 10.324219 26.507812 9.976562 26.355469 9.996094 C 27.707031 9.492188 29.679688 9.957031 30.460938 10.179688 C 30.460938 10.179688 30.722656 4.050781 30.722656 4.453125 L 31.007812 10.074219 C 31.894531 9.84375 33.734375 9.371094 34.980469 9.835938 C 34.828125 9.816406 34.273438 10.164062 34.515625 10.175781 C 35.246094 10.207031 37.332031 10.761719 38.960938 12.113281 C 41.265625 14.027344 42.21875 16.734375 42.21875 18.230469 L 42.253906 25.453125 C 42.375 25.179688 42.625 22.511719 42.789062 22.265625 C 43.015625 21.929688 43.3125 21.523438 43.730469 21.496094 C 44.21875 21.460938 44.617188 21.6875 44.925781 22.023438 C 45.480469 22.628906 45.753906 23.578125 45.757812 23.96875 C 45.761719 24.363281 45.703125 24.753906 45.566406 25.121094 C 45.433594 25.46875 45.222656 25.761719 44.96875 26.027344 C 44.46875 26.542969 43.890625 26.980469 43.660156 27.699219 C 43.550781 28.03125 43.53125 28.480469 43.277344 28.734375 C 42.960938 29.050781 42.558594 28.847656 42.425781 28.765625 C 42.414062 28.683594 42.386719 28.476562 42.347656 28.28125 C 42.304688 28.070312 42.253906 27.875 42.199219 27.855469 C 42.136719 27.722656 42.070312 27.757812 42.011719 28.21875 C 41.832031 29.652344 41.457031 31.507812 40.679688 33.09375 C 40.082031 34.316406 39.171875 35.324219 38.289062 36.105469 C 37.320312 36.914062 36.269531 37.601562 35.746094 37.929688 C 35.199219 38.269531 34.648438 38.59375 34.089844 38.914062 C 33.527344 39.242188 32.964844 39.574219 32.386719 39.875 C 32.101562 40.019531 31.320312 40.28125 30.570312 40.285156 C 29.761719 40.292969 28.984375 40.035156 28.683594 39.882812 C 28.105469 39.582031 27.542969 39.25 26.980469 38.921875 C 26.929688 38.894531 26.882812 38.867188 26.832031 38.839844 C 26.875 38.714844 26.917969 38.589844 26.957031 38.460938 C 27.359375 37.152344 27.492188 35.792969 27.355469 34.417969 C 27.222656 33.046875 26.820312 31.738281 26.171875 30.535156 C 25.542969 29.375 24.707031 28.359375 23.6875 27.519531 C 22.667969 26.679688 21.515625 26.054688 20.261719 25.664062 C 19.863281 25.539062 19.460938 25.4375 19.050781 25.363281 Z M 16.410156 22.183594 C 16.71875 21.847656 17.117188 21.621094 17.601562 21.65625 C 18.023438 21.683594 18.320312 22.089844 18.542969 22.425781 C 18.675781 22.621094 18.84375 24.46875 18.964844 25.351562 C 18.074219 25.199219 17.167969 25.167969 16.253906 25.257812 C 16.09375 25.273438 15.9375 25.292969 15.78125 25.316406 C 15.777344 25.304688 15.773438 25.292969 15.769531 25.28125 C 15.632812 24.914062 15.570312 24.523438 15.574219 24.128906 C 15.578125 23.738281 15.851562 22.789062 16.410156 22.183594 Z M 16.398438 26.746094 C 21.152344 26.265625 25.40625 29.777344 25.882812 34.570312 C 26.359375 39.363281 22.878906 43.652344 18.125 44.132812 C 13.375 44.609375 9.121094 41.101562 8.644531 36.308594 C 8.167969 31.515625 11.648438 27.226562 16.398438 26.746094 Z M 28.789062 33.359375 L 33.207031 33.359375 C 33.335938 33.359375 33.394531 33.246094 33.382812 33.144531 C 33.398438 33.089844 33.386719 33.027344 33.332031 32.972656 C 32.730469 32.371094 31.910156 32.011719 31.0625 31.996094 C 30.207031 31.976562 29.359375 32.320312 28.730469 32.914062 C 28.695312 32.945312 28.679688 32.984375 28.675781 33.019531 C 28.558594 33.117188 28.597656 33.359375 28.789062 33.359375 Z M 29.515625 32.972656 L 29.515625 32.789062 C 29.980469 32.511719 30.519531 32.363281 31.0625 32.375 C 31.539062 32.382812 32.003906 32.515625 32.417969 32.75 L 32.417969 32.976562 C 32.417969 32.976562 32.417969 32.976562 32.417969 32.980469 L 29.515625 32.980469 C 29.515625 32.976562 29.515625 32.976562 29.515625 32.972656 Z M 14.246094 68.847656 C 13.839844 67.113281 13.652344 65.328125 13.691406 63.546875 C 13.726562 61.757812 13.988281 59.972656 14.476562 58.253906 C 14.542969 58.015625 14.90625 58.117188 14.839844 58.359375 C 14.570312 59.3125 14.367188 60.285156 14.238281 61.269531 C 14.007812 63.007812 14.003906 64.78125 14.214844 66.523438 C 14.316406 67.355469 14.46875 68.179688 14.667969 68.992188 L 14.277344 68.992188 C 14.269531 68.941406 14.253906 68.894531 14.246094 68.847656 Z M 25.957031 24.878906 C 25.34375 25.320312 24.550781 25.460938 23.824219 25.289062 C 23.871094 25.292969 23.921875 25.296875 23.96875 25.296875 C 24.582031 25.296875 25.097656 24.917969 25.292969 24.386719 L 24.496094 24.386719 C 24.105469 24.386719 24.105469 23.796875 24.496094 23.796875 L 25.363281 23.796875 C 25.292969 23.109375 24.695312 22.570312 23.96875 22.570312 C 23.195312 22.570312 22.566406 23.179688 22.566406 23.933594 C 22.566406 24.34375 22.757812 24.714844 23.054688 24.964844 C 22.855469 24.84375 22.675781 25.152344 22.871094 25.277344 C 23.847656 25.898438 25.199219 25.867188 26.140625 25.1875 C 26.222656 25.132812 26.257812 25.035156 26.207031 24.945312 C 26.160156 24.867188 26.035156 24.820312 25.957031 24.878906 Z M 23.53125 24.324219 C 23.140625 24.324219 23.140625 23.734375 23.53125 23.734375 C 23.917969 23.734375 23.921875 24.324219 23.53125 24.324219 Z M 20.5 22.332031 C 20.425781 22.113281 20.777344 22.023438 20.851562 22.234375 C 20.921875 22.4375 21.144531 22.554688 21.355469 22.53125 C 21.421875 22.429688 21.492188 22.332031 21.5625 22.242188 C 21.457031 22.207031 21.355469 22.140625 21.265625 22.070312 C 21.097656 21.933594 20.980469 21.738281 20.929688 21.53125 C 20.875 21.3125 21.222656 21.21875 21.28125 21.4375 C 21.308594 21.554688 21.363281 21.660156 21.445312 21.75 C 21.488281 21.792969 21.535156 21.828125 21.585938 21.859375 C 21.613281 21.875 21.636719 21.890625 21.664062 21.902344 C 21.671875 21.90625 21.734375 21.917969 21.710938 21.929688 C 21.757812 21.910156 21.808594 21.902344 21.855469 21.914062 C 21.96875 21.800781 22.089844 21.691406 22.214844 21.597656 C 22.6875 21.230469 23.234375 21.003906 23.796875 20.9375 C 24.40625 20.867188 25.003906 20.988281 25.527344 21.292969 L 25.539062 21.296875 C 26.199219 21.738281 26.546875 22.421875 26.820312 22.972656 C 26.921875 23.167969 26.8125 23.367188 26.652344 23.445312 C 26.597656 23.46875 26.546875 23.480469 26.496094 23.480469 C 26.375 23.480469 26.261719 23.417969 26.203125 23.296875 L 26.1875 23.269531 C 25.988281 22.871094 25.785156 22.460938 25.476562 22.148438 C 24.992188 21.652344 24.203125 21.476562 23.464844 21.703125 C 22.8125 21.902344 22.226562 22.402344 21.8125 23.113281 C 21.75 23.222656 21.644531 23.285156 21.523438 23.285156 C 21.394531 23.285156 21.269531 23.21875 21.203125 23.109375 C 21.160156 23.035156 21.148438 22.957031 21.164062 22.878906 C 20.863281 22.828125 20.601562 22.621094 20.5 22.332031 Z M 20.628906 18.015625 C 20.628906 18.015625 21.742188 17.007812 23.363281 16.8125 C 24.980469 16.617188 26.347656 17.171875 26.347656 17.171875 C 26.347656 17.171875 27.269531 17.527344 27.238281 17.855469 C 27.207031 18.179688 26.824219 18.375 26.824219 18.375 C 26.824219 18.375 25.617188 17.59375 24.25 17.429688 C 22.761719 17.253906 20.628906 18.015625 20.628906 18.015625 Z M 38.777344 24.722656 C 38.226562 25.121094 37.535156 25.273438 36.875 25.179688 C 37.40625 25.113281 37.84375 24.757812 38.015625 24.28125 L 37.21875 24.28125 C 36.832031 24.28125 36.828125 23.691406 37.21875 23.691406 L 38.089844 23.691406 C 38.019531 23 37.421875 22.464844 36.695312 22.464844 C 35.917969 22.464844 35.292969 23.074219 35.292969 23.828125 C 35.292969 24.207031 35.453125 24.550781 35.710938 24.800781 C 35.601562 24.855469 35.554688 25.035156 35.691406 25.121094 C 36.667969 25.742188 38.019531 25.710938 38.960938 25.035156 C 39.039062 24.976562 39.078125 24.878906 39.027344 24.789062 C 38.980469 24.710938 38.855469 24.667969 38.777344 24.722656 Z M 36.253906 24.21875 C 35.863281 24.21875 35.863281 23.628906 36.253906 23.628906 C 36.644531 23.628906 36.644531 24.21875 36.253906 24.21875 Z M 41.023438 22.222656 C 40.921875 22.515625 40.65625 22.722656 40.359375 22.773438 C 40.375 22.851562 40.363281 22.929688 40.320312 23.003906 C 40.253906 23.109375 40.125 23.179688 40 23.179688 C 39.878906 23.179688 39.773438 23.117188 39.710938 23.007812 C 39.296875 22.296875 38.710938 21.796875 38.058594 21.597656 C 37.320312 21.371094 36.527344 21.546875 36.042969 22.042969 C 35.738281 22.355469 35.535156 22.765625 35.332031 23.160156 L 35.320312 23.191406 C 35.257812 23.308594 35.148438 23.375 35.027344 23.375 C 34.976562 23.375 34.921875 23.363281 34.871094 23.339844 C 34.710938 23.261719 34.601562 23.0625 34.699219 22.863281 C 34.976562 22.316406 35.324219 21.628906 35.984375 21.191406 L 35.996094 21.1875 C 36.519531 20.882812 37.117188 20.761719 37.722656 20.832031 C 38.289062 20.898438 38.835938 21.125 39.308594 21.488281 C 39.433594 21.585938 39.554688 21.691406 39.667969 21.808594 C 39.714844 21.796875 39.765625 21.804688 39.8125 21.824219 C 39.785156 21.8125 39.851562 21.796875 39.859375 21.796875 C 39.882812 21.785156 39.910156 21.769531 39.933594 21.753906 C 39.988281 21.722656 40.035156 21.6875 40.074219 21.640625 C 40.160156 21.554688 40.214844 21.449219 40.242188 21.332031 C 40.300781 21.113281 40.648438 21.207031 40.59375 21.425781 C 40.542969 21.632812 40.421875 21.824219 40.253906 21.960938 C 40.167969 22.035156 40.066406 22.101562 39.957031 22.136719 C 40.03125 22.226562 40.101562 22.324219 40.167969 22.425781 C 40.378906 22.449219 40.601562 22.332031 40.671875 22.128906 C 40.746094 21.914062 41.097656 22.007812 41.023438 22.222656 Z M 34.246094 17.796875 C 34.214844 17.472656 35.136719 17.113281 35.136719 17.113281 C 35.136719 17.113281 36.503906 16.5625 38.121094 16.757812 C 39.742188 16.953125 40.855469 17.960938 40.855469 17.960938 C 40.855469 17.960938 38.722656 17.195312 37.234375 17.375 C 35.867188 17.535156 34.660156 18.316406 34.660156 18.316406 C 34.660156 18.316406 34.277344 18.121094 34.246094 17.796875 Z M 32.320312 34.699219 C 32.320312 34.804688 32.234375 34.890625 32.132812 34.890625 L 30.03125 34.890625 C 29.925781 34.890625 29.84375 34.804688 29.84375 34.699219 C 29.84375 34.589844 29.925781 34.503906 30.03125 34.503906 L 32.132812 34.503906 C 32.234375 34.503906 32.320312 34.589844 32.320312 34.699219 Z M 32.320312 34.699219 " fill-opacity="1" fill-rule="nonzero"/></g><path fill="#736357" d="M 29.761719 8.976562 C 28.484375 8.546875 27.097656 8.464844 25.777344 8.738281 C 24.679688 8.964844 23.671875 9.441406 22.753906 10.085938 C 21.921875 10.671875 21.074219 11.277344 20.4375 12.074219 C 19.773438 12.90625 19.089844 13.535156 18.449219 14.003906 C 16.710938 15.28125 15.300781 15.398438 15.460938 15.335938 C 16.523438 14.933594 17.464844 14.269531 18.324219 13.535156 C 19.890625 12.1875 21.25 10.574219 23.015625 9.464844 C 25.046875 8.1875 27.578125 7.851562 29.859375 8.617188 C 30.085938 8.691406 29.988281 9.050781 29.761719 8.976562 Z M 21.265625 9.460938 C 22.84375 8.109375 24.902344 7.347656 26.972656 7.308594 C 27.554688 7.296875 28.140625 7.339844 28.714844 7.445312 C 28.90625 7.480469 29.0625 7.203125 28.859375 7.101562 C 27.785156 6.574219 26.605469 6.3125 25.421875 6.324219 C 26.460938 5.996094 27.574219 5.902344 28.660156 5.84375 C 28.863281 5.835938 28.921875 5.53125 28.710938 5.476562 C 27.636719 5.210938 26.53125 5.125 25.433594 5.214844 C 26.410156 4.882812 27.484375 4.839844 28.507812 4.804688 C 28.683594 4.796875 28.765625 4.546875 28.601562 4.453125 C 28.035156 4.144531 27.414062 3.953125 26.78125 3.894531 C 27.230469 3.78125 27.699219 3.757812 28.160156 3.835938 C 28.394531 3.878906 28.492188 3.519531 28.257812 3.476562 C 27.382812 3.324219 26.480469 3.484375 25.710938 3.9375 C 25.566406 4.023438 25.613281 4.308594 25.804688 4.285156 C 26.441406 4.207031 27.085938 4.265625 27.691406 4.464844 C 26.46875 4.535156 25.230469 4.710938 24.191406 5.398438 C 24.015625 5.519531 24.128906 5.78125 24.335938 5.742188 C 25.265625 5.554688 26.214844 5.503906 27.15625 5.59375 C 26.109375 5.71875 25.078125 5.953125 24.140625 6.457031 C 23.941406 6.566406 24.085938 6.835938 24.28125 6.800781 C 25.304688 6.617188 26.367188 6.667969 27.367188 6.9375 C 26.125 6.910156 24.902344 7.199219 23.714844 7.578125 C 22.210938 8.058594 21.082031 9.617188 21.265625 9.460938 Z M 27.996094 2.835938 C 28.316406 2.867188 28.636719 2.890625 28.957031 2.824219 C 29.066406 2.804688 29.136719 2.644531 29.066406 2.550781 C 28.890625 2.308594 28.660156 2.125 28.398438 2.011719 C 28.648438 1.96875 28.925781 2.007812 29.164062 2.046875 C 29.261719 2.0625 29.359375 2.023438 29.390625 1.917969 C 29.414062 1.828125 29.359375 1.703125 29.261719 1.6875 C 28.742188 1.601562 28.152344 1.546875 27.738281 1.941406 C 27.613281 2.058594 27.71875 2.25 27.871094 2.257812 C 28.101562 2.277344 28.324219 2.363281 28.507812 2.5 C 27.992188 2.507812 27.195312 2.597656 26.6875 2.769531 C 26.464844 2.847656 27.683594 2.804688 27.996094 2.835938 Z M 18.402344 14.742188 C 17.753906 15.5625 16.859375 16.152344 15.851562 16.414062 C 15.679688 16.460938 15.671875 16.738281 15.851562 16.773438 C 16.410156 16.894531 16.988281 16.867188 17.527344 16.699219 C 17.472656 16.726562 17.421875 16.753906 17.363281 16.777344 C 16.988281 16.945312 15.921875 17.394531 16.160156 17.394531 C 16.667969 17.402344 17.167969 17.285156 17.625 17.066406 C 17.851562 16.957031 18.058594 16.820312 18.253906 16.664062 C 18.4375 16.515625 18.609375 16.300781 18.585938 16.046875 C 18.574219 15.921875 18.433594 15.792969 18.308594 15.886719 C 17.871094 16.214844 17.351562 16.414062 16.816406 16.464844 C 17.53125 16.128906 18.171875 15.632812 18.664062 15.007812 C 18.726562 14.929688 18.738281 14.820312 18.664062 14.742188 C 18.597656 14.675781 18.464844 14.664062 18.402344 14.742188 Z M 17.445312 18.027344 C 17.175781 18.058594 16.449219 18.195312 16.449219 18.304688 C 16.449219 18.398438 17.175781 18.433594 17.445312 18.402344 C 17.546875 18.390625 17.628906 18.324219 17.628906 18.214844 C 17.632812 18.121094 17.546875 18.015625 17.445312 18.027344 Z M 46.082031 15.144531 C 45.019531 14.742188 44.082031 14.078125 43.222656 13.339844 C 41.652344 11.992188 40.292969 10.378906 38.53125 9.273438 C 36.496094 7.996094 33.964844 7.660156 31.683594 8.421875 C 31.457031 8.5 31.554688 8.859375 31.78125 8.785156 C 33.0625 8.355469 34.445312 8.273438 35.765625 8.546875 C 36.867188 8.773438 37.875 9.25 38.792969 9.894531 C 39.625 10.480469 40.472656 11.085938 41.109375 11.882812 C 41.773438 12.714844 42.457031 13.34375 43.097656 13.8125 C 44.832031 15.089844 46.246094 15.203125 46.082031 15.144531 Z M 33.285156 3.285156 C 33.050781 3.324219 33.152344 3.6875 33.382812 3.644531 C 33.84375 3.566406 34.316406 3.589844 34.765625 3.703125 C 34.128906 3.761719 33.507812 3.953125 32.945312 4.261719 C 32.777344 4.355469 32.863281 4.605469 33.039062 4.609375 C 34.0625 4.648438 35.136719 4.691406 36.113281 5.019531 C 35.015625 4.933594 33.90625 5.019531 32.835938 5.285156 C 32.625 5.339844 32.683594 5.640625 32.882812 5.652344 C 33.96875 5.710938 35.082031 5.804688 36.125 6.132812 C 34.9375 6.117188 33.757812 6.382812 32.6875 6.910156 C 32.484375 7.011719 32.636719 7.289062 32.828125 7.253906 C 33.402344 7.148438 33.988281 7.101562 34.574219 7.113281 C 36.644531 7.15625 38.699219 7.917969 40.28125 9.269531 C 40.460938 9.425781 39.335938 7.867188 37.828125 7.386719 C 36.640625 7.007812 35.421875 6.71875 34.175781 6.746094 C 35.179688 6.476562 36.238281 6.425781 37.261719 6.609375 C 37.457031 6.644531 37.601562 6.371094 37.40625 6.265625 C 36.464844 5.761719 35.433594 5.527344 34.386719 5.402344 C 35.328125 5.3125 36.28125 5.363281 37.210938 5.550781 C 37.417969 5.589844 37.53125 5.324219 37.351562 5.207031 C 36.316406 4.519531 35.074219 4.34375 33.851562 4.273438 C 34.457031 4.074219 35.101562 4.011719 35.738281 4.09375 C 35.929688 4.117188 35.980469 3.832031 35.832031 3.746094 C 35.0625 3.292969 34.164062 3.132812 33.285156 3.285156 Z M 32.382812 1.855469 C 32.617188 1.816406 32.898438 1.773438 33.148438 1.820312 C 32.886719 1.933594 32.65625 2.117188 32.480469 2.359375 C 32.410156 2.453125 32.480469 2.613281 32.589844 2.632812 C 32.910156 2.699219 33.226562 2.675781 33.550781 2.644531 C 33.863281 2.613281 35.082031 2.65625 34.855469 2.578125 C 34.347656 2.40625 33.550781 2.316406 33.035156 2.308594 C 33.222656 2.167969 33.445312 2.082031 33.675781 2.066406 C 33.828125 2.054688 33.929688 1.867188 33.804688 1.746094 C 33.394531 1.355469 32.800781 1.410156 32.285156 1.496094 C 32.183594 1.511719 32.128906 1.636719 32.15625 1.726562 C 32.183594 1.828125 32.28125 1.871094 32.382812 1.855469 Z M 45.691406 16.222656 C 44.683594 15.960938 43.792969 15.371094 43.144531 14.550781 C 43.082031 14.472656 42.945312 14.484375 42.882812 14.550781 C 42.804688 14.628906 42.820312 14.734375 42.882812 14.816406 C 43.375 15.4375 44.011719 15.9375 44.730469 16.273438 C 44.195312 16.222656 43.675781 16.019531 43.238281 15.695312 C 43.113281 15.601562 42.972656 15.730469 42.960938 15.855469 C 42.933594 16.109375 43.105469 16.320312 43.292969 16.472656 C 43.484375 16.628906 43.695312 16.765625 43.917969 16.875 C 44.375 17.09375 44.875 17.207031 45.382812 17.203125 C 45.621094 17.199219 44.558594 16.753906 44.179688 16.585938 C 44.125 16.5625 44.070312 16.535156 44.015625 16.507812 C 44.554688 16.675781 45.136719 16.703125 45.691406 16.582031 C 45.875 16.542969 45.863281 16.265625 45.691406 16.222656 Z M 44.097656 18.210938 C 44.371094 18.238281 45.09375 18.207031 45.09375 18.113281 C 45.09375 18.003906 44.371094 17.867188 44.097656 17.835938 C 44 17.824219 43.914062 17.929688 43.914062 18.023438 C 43.914062 18.132812 44 18.199219 44.097656 18.210938 Z M 46.511719 30.691406 C 45.96875 31.457031 45.210938 32.109375 44.554688 32.449219 C 44.941406 32.167969 45.285156 31.828125 45.582031 31.449219 C 46.515625 30.257812 46.902344 28.757812 46.90625 27.253906 C 46.910156 26.339844 46.171875 24.40625 46.222656 24.640625 C 46.558594 26.121094 46.6875 27.691406 46.296875 29.175781 C 45.964844 30.421875 45.230469 31.566406 44.152344 32.28125 C 43.578125 32.660156 42.925781 32.902344 42.238281 32.941406 C 42 32.953125 42 33.300781 42.238281 33.3125 C 44.152344 33.414062 45.992188 32.351562 46.871094 30.636719 C 47.109375 30.171875 47.273438 29.671875 47.355469 29.15625 C 47.367188 29.105469 47.039062 29.957031 46.511719 30.691406 Z M 42.777344 31.695312 C 42.570312 31.8125 42.753906 32.132812 42.964844 32.019531 C 44.257812 31.304688 44.945312 30.433594 45.292969 29.636719 C 45.878906 28.304688 45.527344 27.179688 45.519531 27.328125 C 45.421875 28.726562 44.753906 30.0625 43.726562 31.003906 C 43.4375 31.269531 43.117188 31.5 42.777344 31.695312 Z M 42.777344 31.695312 " fill-opacity="1" fill-rule="nonzero"/></svg>