<svg xmlns="http://www.w3.org/2000/svg" xmlns:xlink="http://www.w3.org/1999/xlink" width="80" zoomAndPan="magnify" viewBox="0 0 60 60" height="80" preserveAspectRatio="xMidYMid meet" version="1.0"><path fill="#fec4b9" d="M 56.675781 55.832031 C 56.019531 54.292969 54.773438 53.09375 53.183594 52.605469 C 52.078125 52.269531 50.664062 51.882812 48.941406 51.5 L 48.988281 50.785156 C 49.03125 50.140625 48.542969 49.578125 47.890625 49.535156 C 47.863281 49.535156 47.839844 49.53125 47.808594 49.53125 C 47.195312 49.53125 46.683594 50.011719 46.640625 50.632812 L 46.636719 50.632812 L 46.679688 50 C 46.722656 49.355469 46.230469 48.792969 45.578125 48.75 C 45.554688 48.75 45.527344 48.746094 45.503906 48.746094 C 44.890625 48.746094 44.371094 49.226562 44.328125 49.847656 L 44.378906 49.117188 C 44.421875 48.464844 43.925781 47.90625 43.277344 47.863281 C 43.25 47.863281 43.226562 47.855469 43.199219 47.855469 C 42.585938 47.855469 42.066406 48.335938 42.027344 48.960938 L 42.023438 48.960938 L 42.085938 48.019531 C 42.128906 47.371094 41.636719 46.8125 40.988281 46.769531 C 40.964844 46.769531 40.933594 46.765625 40.910156 46.765625 C 38.808594 44.570312 36.617188 43.207031 34.753906 42.367188 L 34.753906 42.363281 C 34.753906 42.363281 49.777344 42.878906 51.589844 40.816406 C 53.40625 38.746094 54.421875 15.085938 52.929688 12.976562 C 51.4375 10.859375 40.355469 10.234375 40.355469 10.234375 L 40.351562 10.242188 C 38.636719 8.25 36.761719 7.070312 36.179688 5.980469 C 35.21875 4.175781 34.753906 1.679688 34.753906 1.679688 C 33.699219 1.859375 32.84375 2.648438 32.074219 3.65625 C 32.714844 2.789062 32.863281 1.691406 32.851562 0.523438 C 30.0625 3.390625 24.738281 3.839844 21.132812 7.101562 C 20.105469 8.035156 19.265625 9.105469 18.589844 10.234375 C 18.589844 10.234375 8.5625 10.859375 7.070312 12.976562 C 5.578125 15.085938 6.59375 38.746094 8.410156 40.816406 C 10.222656 42.878906 25.246094 42.363281 25.246094 42.363281 C 23.382812 43.203125 21.191406 44.566406 19.089844 46.765625 L 19.085938 46.765625 C 19.058594 46.765625 19.035156 46.769531 19.011719 46.769531 C 18.363281 46.8125 17.871094 47.371094 17.914062 48.019531 L 17.976562 48.960938 L 17.972656 48.960938 C 17.933594 48.335938 17.414062 47.855469 16.800781 47.855469 C 16.773438 47.855469 16.75 47.863281 16.722656 47.863281 C 16.074219 47.90625 15.578125 48.464844 15.621094 49.117188 L 15.671875 49.847656 C 15.628906 49.226562 15.109375 48.746094 14.496094 48.746094 C 14.472656 48.746094 14.445312 48.75 14.421875 48.75 C 13.769531 48.792969 13.277344 49.355469 13.320312 50 L 13.363281 50.632812 L 13.359375 50.632812 C 13.316406 50.011719 12.804688 49.53125 12.191406 49.53125 C 12.160156 49.53125 12.136719 49.535156 12.109375 49.535156 C 11.457031 49.578125 10.96875 50.140625 11.011719 50.785156 L 11.058594 51.5 C 9.335938 51.882812 7.921875 52.269531 6.816406 52.605469 C 5.226562 53.09375 3.980469 54.292969 3.324219 55.832031 C 2.71875 57.246094 1.832031 58.261719 0.523438 59.476562 L 59.476562 59.476562 C 58.167969 58.261719 57.28125 57.246094 56.675781 55.832031 Z M 56.675781 55.832031 " fill-opacity="1" fill-rule="nonzero"/><path fill="#f7b6ad" d="M 41.671875 24.09375 C 41.816406 24.125 41.957031 24.160156 42.09375 24.214844 C 43.535156 24.789062 44.183594 26.667969 43.539062 28.410156 C 42.984375 29.925781 41.648438 30.839844 40.363281 30.683594 C 40.96875 28.933594 41.425781 26.613281 41.671875 24.09375 Z M 41.671875 24.09375 " fill-opacity="1" fill-rule="nonzero"/><path fill="#f7b6ad" d="M 19.636719 30.683594 C 18.351562 30.839844 17.015625 29.925781 16.460938 28.410156 C 15.816406 26.667969 16.464844 24.789062 17.90625 24.214844 C 18.042969 24.160156 18.183594 24.125 18.328125 24.09375 C 18.574219 26.613281 19.03125 28.933594 19.636719 30.683594 Z M 19.636719 30.683594 " fill-opacity="1" fill-rule="nonzero"/><path fill="#c3ddda" d="M 16.441406 18.519531 C 16.636719 21.488281 18.328125 24.09375 18.328125 24.09375 C 18.183594 24.125 18.042969 24.160156 17.90625 24.214844 C 16.464844 24.789062 15.816406 26.667969 16.460938 28.410156 C 17.015625 29.925781 18.351562 30.839844 19.636719 30.683594 C 19.898438 31.441406 20.183594 32.09375 20.492188 32.605469 C 21.589844 34.4375 24.09375 36.832031 27.148438 37.835938 L 27.148438 41.632812 C 26.570312 41.816406 25.929688 42.050781 25.246094 42.359375 C 25.246094 42.359375 10.222656 42.878906 8.410156 40.816406 C 6.59375 38.746094 5.578125 15.085938 7.070312 12.976562 C 8.5625 10.859375 18.589844 10.234375 18.589844 10.234375 C 16.910156 13.058594 16.292969 16.25 16.441406 18.519531 Z M 16.441406 18.519531 " fill-opacity="1" fill-rule="nonzero"/><path fill="#c3ddda" d="M 41.671875 24.09375 C 41.671875 24.09375 44.269531 19.941406 43.109375 15.433594 C 42.539062 13.210938 41.480469 11.554688 40.351562 10.242188 L 40.355469 10.234375 C 40.355469 10.234375 51.4375 10.859375 52.929688 12.976562 C 54.421875 15.085938 53.40625 38.746094 51.589844 40.816406 C 49.777344 42.878906 34.753906 42.363281 34.753906 42.363281 L 34.753906 42.367188 C 34.070312 42.050781 33.429688 41.816406 32.851562 41.632812 L 32.851562 37.835938 C 33.695312 37.558594 34.488281 37.179688 35.226562 36.730469 L 40.449219 40.464844 C 41.367188 41.121094 42.675781 40.863281 43.371094 39.890625 L 43.984375 39.035156 C 44.675781 38.058594 44.496094 36.742188 43.578125 36.085938 L 39.257812 33 C 39.347656 32.867188 39.433594 32.734375 39.507812 32.605469 C 39.816406 32.09375 40.101562 31.441406 40.363281 30.683594 C 41.648438 30.839844 42.984375 29.925781 43.539062 28.410156 C 44.183594 26.667969 43.535156 24.789062 42.09375 24.214844 C 41.957031 24.160156 41.816406 24.125 41.671875 24.09375 Z M 41.671875 24.09375 " fill-opacity="1" fill-rule="nonzero"/><path fill="#f48ca7" d="M 56.675781 55.832031 C 56.019531 54.292969 54.773438 53.09375 53.183594 52.605469 C 52.078125 52.269531 50.664062 51.882812 48.941406 51.5 L 48.902344 52.109375 C 48.859375 52.730469 48.34375 53.210938 47.730469 53.210938 C 47.699219 53.210938 47.675781 53.207031 47.648438 53.207031 C 47 53.164062 46.507812 52.605469 46.550781 51.957031 C 46.515625 52.464844 46.164062 52.878906 45.703125 53.011719 C 45.597656 53.042969 45.488281 53.058594 45.378906 53.058594 C 45.351562 53.058594 45.328125 53.054688 45.300781 53.054688 C 44.648438 53.011719 44.160156 52.449219 44.203125 51.804688 C 44.164062 52.355469 43.753906 52.796875 43.230469 52.886719 C 43.164062 52.902344 43.097656 52.90625 43.027344 52.90625 C 43.003906 52.90625 42.976562 52.902344 42.949219 52.902344 C 42.300781 52.859375 41.808594 52.296875 41.851562 51.648438 C 41.816406 52.175781 41.433594 52.601562 40.945312 52.714844 C 40.835938 52.746094 40.714844 52.753906 40.597656 52.746094 C 39.949219 52.703125 39.457031 52.140625 39.5 51.496094 L 39.59375 50.015625 C 36.738281 49.730469 33.53125 49.550781 30 49.550781 C 26.46875 49.550781 23.261719 49.730469 20.40625 50.015625 L 20.5 51.496094 C 20.542969 52.140625 20.050781 52.703125 19.402344 52.746094 C 19.273438 52.753906 19.144531 52.738281 19.027344 52.710938 C 18.550781 52.589844 18.183594 52.164062 18.148438 51.648438 C 18.191406 52.296875 17.699219 52.859375 17.050781 52.902344 C 17.023438 52.902344 16.996094 52.90625 16.972656 52.90625 C 16.808594 52.90625 16.648438 52.875 16.503906 52.808594 C 16.113281 52.636719 15.828125 52.253906 15.796875 51.804688 C 15.839844 52.449219 15.351562 53.011719 14.699219 53.054688 C 14.671875 53.054688 14.648438 53.058594 14.621094 53.058594 C 14.007812 53.058594 13.492188 52.578125 13.449219 51.957031 C 13.492188 52.605469 13 53.164062 12.351562 53.207031 C 12.324219 53.207031 12.300781 53.210938 12.269531 53.210938 C 11.65625 53.210938 11.140625 52.730469 11.097656 52.109375 L 11.058594 51.5 C 9.335938 51.882812 7.921875 52.269531 6.816406 52.605469 C 5.226562 53.09375 3.980469 54.292969 3.324219 55.832031 C 2.71875 57.246094 1.832031 58.261719 0.523438 59.476562 L 59.476562 59.476562 C 58.167969 58.261719 57.28125 57.246094 56.675781 55.832031 Z M 56.675781 55.832031 " fill-opacity="1" fill-rule="nonzero"/><path fill="#ffc05a" d="M 27.148438 41.632812 C 27.148438 41.632812 27.21875 44.949219 30 44.949219 C 32.78125 44.949219 32.851562 41.632812 32.851562 41.632812 C 33.429688 41.816406 34.070312 42.050781 34.753906 42.367188 C 36.617188 43.207031 38.808594 44.570312 40.910156 46.765625 C 40.296875 46.765625 39.78125 47.242188 39.738281 47.867188 L 39.59375 50.015625 C 36.738281 49.730469 33.53125 49.550781 30 49.550781 C 26.46875 49.550781 23.261719 49.730469 20.40625 50.015625 L 20.261719 47.867188 C 20.21875 47.242188 19.703125 46.765625 19.089844 46.765625 C 21.191406 44.566406 23.382812 43.203125 25.246094 42.363281 C 25.929688 42.050781 26.570312 41.816406 27.148438 41.632812 Z M 27.148438 41.632812 " fill-opacity="1" fill-rule="nonzero"/><path fill="#f7b6ad" d="M 45.300781 53.054688 C 44.648438 53.011719 44.160156 52.449219 44.203125 51.804688 L 44.328125 49.847656 C 44.371094 49.226562 44.890625 48.746094 45.503906 48.746094 C 45.527344 48.746094 45.554688 48.75 45.578125 48.75 C 46.230469 48.792969 46.722656 49.355469 46.679688 50 L 46.636719 50.632812 L 46.550781 51.957031 C 46.515625 52.464844 46.164062 52.878906 45.703125 53.011719 C 45.597656 53.042969 45.488281 53.058594 45.378906 53.058594 C 45.351562 53.058594 45.328125 53.054688 45.300781 53.054688 Z M 45.300781 53.054688 " fill-opacity="1" fill-rule="nonzero"/><path fill="#f7b6ad" d="M 40.945312 52.714844 C 40.835938 52.746094 40.714844 52.753906 40.597656 52.746094 C 39.949219 52.703125 39.457031 52.140625 39.5 51.496094 L 39.59375 50.015625 L 39.738281 47.867188 C 39.78125 47.242188 40.296875 46.765625 40.910156 46.765625 C 40.933594 46.765625 40.964844 46.769531 40.988281 46.769531 C 41.636719 46.8125 42.128906 47.371094 42.085938 48.019531 L 42.023438 48.960938 L 41.851562 51.648438 C 41.816406 52.175781 41.433594 52.601562 40.945312 52.714844 Z M 40.945312 52.714844 " fill-opacity="1" fill-rule="nonzero"/><path fill="#fec4b9" d="M 47.890625 49.535156 C 48.542969 49.578125 49.03125 50.140625 48.988281 50.785156 L 48.941406 51.5 L 48.902344 52.109375 C 48.859375 52.730469 48.34375 53.210938 47.730469 53.210938 C 47.699219 53.210938 47.675781 53.207031 47.648438 53.207031 C 47 53.164062 46.507812 52.605469 46.550781 51.957031 L 46.636719 50.632812 L 46.640625 50.632812 C 46.683594 50.011719 47.195312 49.53125 47.808594 49.53125 C 47.839844 49.53125 47.863281 49.535156 47.890625 49.535156 Z M 47.890625 49.535156 " fill-opacity="1" fill-rule="nonzero"/><path fill="#fec4b9" d="M 42.949219 52.902344 C 42.300781 52.859375 41.808594 52.296875 41.851562 51.648438 L 42.023438 48.960938 L 42.027344 48.960938 C 42.066406 48.335938 42.585938 47.855469 43.199219 47.855469 C 43.226562 47.855469 43.25 47.863281 43.277344 47.863281 C 43.925781 47.90625 44.421875 48.464844 44.378906 49.117188 L 44.328125 49.847656 L 44.203125 51.804688 C 44.164062 52.355469 43.753906 52.796875 43.230469 52.886719 C 43.164062 52.902344 43.097656 52.90625 43.027344 52.90625 C 43.003906 52.90625 42.976562 52.902344 42.949219 52.902344 Z M 42.949219 52.902344 " fill-opacity="1" fill-rule="nonzero"/><path fill="#fec4b9" d="M 18.148438 51.648438 C 18.191406 52.296875 17.699219 52.859375 17.050781 52.902344 C 17.023438 52.902344 16.996094 52.90625 16.972656 52.90625 C 16.808594 52.90625 16.648438 52.875 16.503906 52.808594 C 16.113281 52.636719 15.828125 52.253906 15.796875 51.804688 L 15.671875 49.847656 L 15.621094 49.117188 C 15.578125 48.464844 16.074219 47.90625 16.722656 47.863281 C 16.75 47.863281 16.773438 47.855469 16.800781 47.855469 C 17.414062 47.855469 17.933594 48.335938 17.972656 48.960938 L 17.976562 48.960938 Z M 18.148438 51.648438 " fill-opacity="1" fill-rule="nonzero"/><path fill="#f7b6ad" d="M 19.085938 46.765625 L 19.089844 46.765625 C 19.703125 46.765625 20.21875 47.242188 20.261719 47.867188 L 20.40625 50.015625 L 20.5 51.496094 C 20.542969 52.140625 20.050781 52.703125 19.402344 52.746094 C 19.273438 52.753906 19.144531 52.738281 19.027344 52.710938 C 18.550781 52.589844 18.183594 52.164062 18.148438 51.648438 L 17.976562 48.960938 L 17.914062 48.019531 C 17.871094 47.371094 18.363281 46.8125 19.011719 46.769531 C 19.035156 46.769531 19.058594 46.765625 19.085938 46.765625 Z M 19.085938 46.765625 " fill-opacity="1" fill-rule="nonzero"/><path fill="#f7b6ad" d="M 15.796875 51.804688 C 15.839844 52.449219 15.351562 53.011719 14.699219 53.054688 C 14.671875 53.054688 14.648438 53.058594 14.621094 53.058594 C 14.007812 53.058594 13.492188 52.578125 13.449219 51.957031 L 13.363281 50.632812 L 13.320312 50 C 13.277344 49.355469 13.769531 48.792969 14.421875 48.75 C 14.445312 48.75 14.472656 48.746094 14.496094 48.746094 C 15.109375 48.746094 15.628906 49.226562 15.671875 49.847656 Z M 15.796875 51.804688 " fill-opacity="1" fill-rule="nonzero"/><path fill="#fec4b9" d="M 13.449219 51.957031 C 13.492188 52.605469 13 53.164062 12.351562 53.207031 C 12.324219 53.207031 12.300781 53.210938 12.269531 53.210938 C 11.65625 53.210938 11.140625 52.730469 11.097656 52.109375 L 11.058594 51.5 L 11.011719 50.785156 C 10.96875 50.140625 11.457031 49.578125 12.109375 49.535156 C 12.136719 49.535156 12.160156 49.53125 12.191406 49.53125 C 12.804688 49.53125 13.316406 50.011719 13.359375 50.632812 L 13.363281 50.632812 Z M 13.449219 51.957031 " fill-opacity="1" fill-rule="nonzero"/><path fill="#e15c63" d="M 42.039062 37.066406 C 42.484375 37.382812 42.589844 38.007812 42.269531 38.453125 C 41.953125 38.898438 41.328125 39.003906 40.882812 38.679688 C 40.4375 38.363281 40.332031 37.738281 40.648438 37.292969 C 40.96875 36.847656 41.589844 36.742188 42.039062 37.066406 Z M 42.039062 37.066406 " fill-opacity="1" fill-rule="nonzero"/><path fill="#e15c63" d="M 39.007812 35.082031 C 39.386719 35.351562 39.476562 35.882812 39.203125 36.261719 C 38.933594 36.640625 38.40625 36.726562 38.023438 36.457031 L 34.933594 34.25 C 34.554688 33.980469 34.46875 33.453125 34.738281 33.070312 C 34.90625 32.84375 35.164062 32.71875 35.429688 32.71875 C 35.601562 32.71875 35.773438 32.773438 35.917969 32.875 Z M 39.007812 35.082031 " fill-opacity="1" fill-rule="nonzero"/><path fill="#e7f2f1" d="M 43.578125 36.085938 C 44.496094 36.742188 44.675781 38.058594 43.984375 39.035156 L 43.371094 39.890625 C 42.675781 40.863281 41.367188 41.121094 40.449219 40.464844 L 35.226562 36.730469 L 32.691406 34.925781 C 31.777344 34.269531 31.453125 33.085938 31.808594 32.019531 L 29.394531 30.300781 C 29.1875 30.148438 29.074219 29.90625 29.074219 29.65625 C 29.074219 29.480469 29.128906 29.304688 29.238281 29.148438 C 29.511719 28.773438 30.019531 28.667969 30.375 28.925781 L 32.785156 30.648438 C 33.683594 29.964844 34.90625 29.890625 35.820312 30.542969 L 39.257812 33 Z M 42.269531 38.453125 C 42.589844 38.007812 42.484375 37.382812 42.039062 37.066406 C 41.589844 36.742188 40.96875 36.847656 40.648438 37.292969 C 40.332031 37.738281 40.4375 38.363281 40.882812 38.679688 C 41.328125 39.003906 41.953125 38.898438 42.269531 38.453125 Z M 39.203125 36.261719 C 39.476562 35.882812 39.386719 35.351562 39.007812 35.082031 L 35.917969 32.875 C 35.773438 32.773438 35.601562 32.71875 35.429688 32.71875 C 35.164062 32.71875 34.90625 32.84375 34.738281 33.070312 C 34.46875 33.453125 34.554688 33.980469 34.933594 34.25 L 38.023438 36.457031 C 38.40625 36.726562 38.933594 36.640625 39.203125 36.261719 Z M 39.203125 36.261719 " fill-opacity="1" fill-rule="nonzero"/><path fill="#ad6a6a" d="M 43.109375 15.433594 C 44.269531 19.941406 41.671875 24.09375 41.671875 24.09375 C 40.328125 23.039062 39.613281 21.632812 39.144531 20.101562 L 39.144531 20.097656 C 39.964844 19.863281 40.582031 18.722656 40.308594 17.671875 C 40.507812 17.492188 40.636719 17.230469 40.636719 16.925781 L 40.636719 14.09375 C 40.636719 13.21875 40.070312 12.464844 39.277344 12.277344 C 38.269531 12.035156 37.261719 11.832031 36.253906 11.675781 L 36.253906 11.671875 C 35.078125 10.378906 33.199219 9.546875 30 9.546875 C 26.800781 9.546875 24.921875 10.378906 23.746094 11.671875 L 23.746094 11.675781 C 22.738281 11.832031 21.730469 12.035156 20.722656 12.277344 C 19.929688 12.464844 19.363281 13.21875 19.363281 14.09375 L 19.363281 18.304688 C 19.363281 19.25 20.019531 20.015625 20.847656 20.132812 C 20.371094 21.652344 19.660156 23.042969 18.328125 24.09375 C 18.328125 24.09375 16.636719 21.488281 16.441406 18.519531 C 16.292969 16.25 16.910156 13.058594 18.589844 10.234375 C 19.265625 9.105469 20.105469 8.035156 21.132812 7.101562 C 24.738281 3.839844 30.0625 3.390625 32.851562 0.523438 C 32.863281 1.691406 32.714844 2.789062 32.074219 3.65625 C 32.84375 2.648438 33.699219 1.859375 34.753906 1.679688 C 34.753906 1.679688 35.21875 4.175781 36.179688 5.980469 C 36.761719 7.070312 38.636719 8.25 40.351562 10.242188 C 41.480469 11.554688 42.539062 13.210938 43.109375 15.433594 Z M 43.109375 15.433594 " fill-opacity="1" fill-rule="nonzero"/><path fill="#20bab6" d="M 20.847656 20.132812 C 20.019531 20.015625 19.363281 19.25 19.363281 18.304688 L 19.363281 14.09375 C 19.363281 13.21875 19.929688 12.464844 20.722656 12.277344 C 21.730469 12.035156 22.738281 11.832031 23.746094 11.675781 C 27.917969 10.996094 32.082031 10.996094 36.253906 11.675781 C 37.261719 11.832031 38.269531 12.035156 39.277344 12.277344 C 40.070312 12.464844 40.636719 13.21875 40.636719 14.09375 L 40.636719 16.925781 C 40.636719 17.230469 40.507812 17.492188 40.308594 17.671875 C 40.582031 18.722656 39.964844 19.863281 39.144531 20.097656 L 39.144531 20.101562 C 38.984375 20.144531 38.824219 20.160156 38.65625 20.128906 C 37.085938 19.867188 35.511719 19.679688 33.933594 19.5625 C 31.3125 19.363281 28.6875 19.363281 26.066406 19.5625 C 24.488281 19.679688 22.914062 19.867188 21.34375 20.128906 C 21.171875 20.160156 21.003906 20.160156 20.847656 20.132812 Z M 20.847656 20.132812 " fill-opacity="1" fill-rule="nonzero"/><path fill="#f7b6ad" d="M 32.851562 37.835938 L 32.851562 40.050781 C 29.40625 40.757812 27.148438 39.253906 27.148438 39.253906 L 27.148438 37.835938 C 28.054688 38.132812 29.015625 38.3125 30 38.3125 C 30.984375 38.3125 31.941406 38.132812 32.851562 37.835938 Z M 32.851562 37.835938 " fill-opacity="1" fill-rule="nonzero"/><path fill="#b8d3cf" d="M 45.039062 24.09375 C 45.039062 24.09375 46.730469 25.996094 45.441406 29.570312 C 44.148438 33.144531 40.636719 33.984375 40.636719 33.984375 L 39.257812 33 C 39.347656 32.867188 39.433594 32.734375 39.507812 32.605469 C 39.816406 32.09375 40.101562 31.441406 40.363281 30.683594 C 41.648438 30.839844 42.984375 29.925781 43.539062 28.410156 C 44.183594 26.667969 43.535156 24.789062 42.09375 24.214844 C 41.957031 24.160156 41.816406 24.125 41.671875 24.09375 C 41.671875 24.09375 44.269531 19.941406 43.109375 15.433594 C 42.539062 13.210938 41.480469 11.554688 40.351562 10.242188 L 40.355469 10.234375 C 40.355469 10.234375 41.648438 10.308594 43.40625 10.488281 C 43.40625 10.488281 47.140625 16.125 45.039062 24.09375 Z M 45.039062 24.09375 " fill-opacity="1" fill-rule="nonzero"/><path fill="#b8d3cf" d="M 44.40625 37.875 C 44.40625 37.875 45.921875 38.429688 44.523438 40.515625 C 43.800781 41.589844 42.867188 41.984375 41.933594 42.027344 C 40.074219 42.117188 38.25 40.824219 38.25 40.824219 L 33.683594 37.519531 C 34.222656 37.296875 34.734375 37.027344 35.226562 36.730469 L 40.449219 40.464844 C 41.367188 41.121094 42.675781 40.863281 43.371094 39.890625 L 43.984375 39.035156 C 44.238281 38.675781 44.371094 38.273438 44.402344 37.875 Z M 44.40625 37.875 " fill-opacity="1" fill-rule="nonzero"/><path fill="#3a322b" d="M 35.707031 24.050781 C 35.707031 24.3125 35.613281 24.535156 35.425781 24.722656 C 35.242188 24.90625 35.015625 25 34.753906 25 C 34.492188 25 34.269531 24.90625 34.082031 24.722656 C 33.894531 24.535156 33.804688 24.3125 33.804688 24.050781 C 33.804688 23.785156 33.894531 23.5625 34.082031 23.378906 C 34.269531 23.191406 34.492188 23.097656 34.753906 23.097656 C 35.015625 23.097656 35.242188 23.191406 35.425781 23.378906 C 35.613281 23.5625 35.707031 23.785156 35.707031 24.050781 Z M 35.707031 24.050781 " fill-opacity="1" fill-rule="nonzero"/><path fill="#3a322b" d="M 26.195312 24.050781 C 26.195312 24.3125 26.105469 24.535156 25.917969 24.722656 C 25.730469 24.90625 25.507812 25 25.246094 25 C 24.984375 25 24.757812 24.90625 24.574219 24.722656 C 24.386719 24.535156 24.292969 24.3125 24.292969 24.050781 C 24.292969 23.785156 24.386719 23.5625 24.574219 23.378906 C 24.757812 23.191406 24.984375 23.097656 25.246094 23.097656 C 25.507812 23.097656 25.730469 23.191406 25.917969 23.378906 C 26.105469 23.5625 26.195312 23.785156 26.195312 24.050781 Z M 26.195312 24.050781 " fill-opacity="1" fill-rule="nonzero"/><path fill="#3a322b" d="M 39.285156 34.695312 L 36.195312 32.488281 C 35.601562 32.066406 34.777344 32.203125 34.351562 32.796875 C 33.929688 33.386719 34.066406 34.214844 34.660156 34.636719 L 37.75 36.84375 C 37.984375 37.011719 38.25 37.089844 38.515625 37.089844 C 38.925781 37.089844 39.335938 36.898438 39.589844 36.539062 C 40.011719 35.945312 39.875 35.121094 39.285156 34.695312 Z M 38.816406 35.984375 C 38.699219 36.148438 38.46875 36.1875 38.300781 36.070312 L 35.210938 33.863281 C 35.132812 33.804688 35.078125 33.722656 35.0625 33.625 C 35.046875 33.527344 35.070312 33.429688 35.125 33.347656 C 35.199219 33.25 35.3125 33.195312 35.425781 33.195312 C 35.5 33.195312 35.574219 33.21875 35.640625 33.261719 L 38.730469 35.472656 C 38.894531 35.589844 38.933594 35.820312 38.816406 35.984375 Z M 38.816406 35.984375 " fill-opacity="1" fill-rule="nonzero"/><path fill="#3a322b" d="M 42.65625 38.726562 C 42.886719 38.410156 42.976562 38.019531 42.910156 37.632812 C 42.847656 37.242188 42.636719 36.902344 42.316406 36.675781 C 41.996094 36.449219 41.605469 36.359375 41.21875 36.421875 C 40.832031 36.488281 40.492188 36.699219 40.265625 37.019531 C 39.792969 37.679688 39.945312 38.597656 40.605469 39.070312 C 40.863281 39.253906 41.164062 39.34375 41.460938 39.34375 C 41.917969 39.34375 42.371094 39.128906 42.65625 38.726562 Z M 41.039062 37.570312 C 41.117188 37.457031 41.238281 37.382812 41.375 37.359375 C 41.402344 37.355469 41.433594 37.351562 41.460938 37.351562 C 41.570312 37.351562 41.675781 37.386719 41.761719 37.449219 C 41.875 37.53125 41.949219 37.648438 41.972656 37.789062 C 41.996094 37.925781 41.964844 38.0625 41.882812 38.175781 C 41.71875 38.410156 41.390625 38.460938 41.160156 38.296875 C 40.925781 38.128906 40.871094 37.804688 41.039062 37.570312 Z M 41.039062 37.570312 " fill-opacity="1" fill-rule="nonzero"/><path fill="#3a322b" d="M 22.660156 28.890625 C 22.757812 28.890625 22.855469 28.859375 22.941406 28.796875 C 23.152344 28.644531 23.199219 28.347656 23.046875 28.132812 L 21.613281 26.171875 C 21.460938 25.960938 21.160156 25.914062 20.949219 26.066406 C 20.738281 26.222656 20.691406 26.519531 20.84375 26.730469 L 22.277344 28.695312 C 22.371094 28.820312 22.515625 28.890625 22.660156 28.890625 Z M 22.660156 28.890625 " fill-opacity="1" fill-rule="nonzero"/><path fill="#3a322b" d="M 24.542969 28.695312 C 24.636719 28.820312 24.78125 28.890625 24.929688 28.890625 C 25.027344 28.890625 25.125 28.859375 25.207031 28.796875 C 25.421875 28.644531 25.46875 28.347656 25.3125 28.132812 L 23.882812 26.171875 C 23.726562 25.960938 23.429688 25.914062 23.21875 26.066406 C 23.003906 26.222656 22.957031 26.519531 23.113281 26.730469 Z M 24.542969 28.695312 " fill-opacity="1" fill-rule="nonzero"/><path fill="#3a322b" d="M 25.484375 26.066406 C 25.273438 26.222656 25.226562 26.519531 25.378906 26.730469 L 26.8125 28.695312 C 26.90625 28.820312 27.050781 28.890625 27.195312 28.890625 C 27.292969 28.890625 27.390625 28.859375 27.476562 28.796875 C 27.6875 28.644531 27.734375 28.34375 27.578125 28.132812 L 26.148438 26.171875 C 25.996094 25.957031 25.695312 25.914062 25.484375 26.066406 Z M 25.484375 26.066406 " fill-opacity="1" fill-rule="nonzero"/><path fill="#3a322b" d="M 33.878906 28.695312 C 33.972656 28.820312 34.117188 28.890625 34.265625 28.890625 C 34.359375 28.890625 34.460938 28.859375 34.542969 28.796875 C 34.753906 28.644531 34.800781 28.347656 34.648438 28.132812 L 33.214844 26.171875 C 33.0625 25.960938 32.765625 25.914062 32.550781 26.066406 C 32.339844 26.222656 32.292969 26.519531 32.449219 26.730469 Z M 33.878906 28.695312 " fill-opacity="1" fill-rule="nonzero"/><path fill="#3a322b" d="M 34.820312 26.066406 C 34.609375 26.222656 34.5625 26.519531 34.714844 26.730469 L 36.148438 28.695312 C 36.238281 28.820312 36.382812 28.890625 36.53125 28.890625 C 36.628906 28.890625 36.726562 28.859375 36.8125 28.796875 C 37.023438 28.644531 37.070312 28.34375 36.914062 28.132812 L 35.484375 26.171875 C 35.328125 25.957031 35.03125 25.914062 34.820312 26.066406 Z M 34.820312 26.066406 " fill-opacity="1" fill-rule="nonzero"/><path fill="#3a322b" d="M 38.414062 28.695312 C 38.507812 28.820312 38.652344 28.890625 38.800781 28.890625 C 38.894531 28.890625 38.996094 28.859375 39.078125 28.796875 C 39.289062 28.644531 39.335938 28.347656 39.183594 28.132812 L 37.75 26.171875 C 37.597656 25.960938 37.300781 25.914062 37.085938 26.066406 C 36.875 26.222656 36.828125 26.519531 36.984375 26.730469 Z M 38.414062 28.695312 " fill-opacity="1" fill-rule="nonzero"/><path fill="#3a322b" d="M 22.539062 36.863281 C 20.761719 35.894531 19.441406 34.460938 18.621094 32.601562 C 18.511719 32.359375 18.230469 32.25 17.992188 32.355469 C 17.753906 32.464844 17.644531 32.746094 17.75 32.984375 C 18.660156 35.042969 20.121094 36.628906 22.085938 37.699219 C 22.160156 37.738281 22.238281 37.757812 22.3125 37.757812 C 22.480469 37.757812 22.644531 37.667969 22.730469 37.507812 C 22.855469 37.277344 22.769531 36.988281 22.539062 36.863281 Z M 22.539062 36.863281 " fill-opacity="1" fill-rule="nonzero"/><path fill="#3a322b" d="M 20.332031 37.898438 C 19.320312 37.320312 18.476562 36.402344 17.828125 35.167969 C 17.707031 34.9375 17.417969 34.847656 17.1875 34.972656 C 16.953125 35.09375 16.863281 35.382812 16.988281 35.613281 C 17.722656 37.007812 18.6875 38.054688 19.863281 38.726562 C 19.9375 38.769531 20.015625 38.789062 20.097656 38.789062 C 20.261719 38.789062 20.421875 38.703125 20.511719 38.546875 C 20.640625 38.320312 20.5625 38.03125 20.332031 37.898438 Z M 20.332031 37.898438 " fill-opacity="1" fill-rule="nonzero"/><path fill="#3a322b" d="M 43.34375 23.382812 C 43.230469 23.621094 43.332031 23.902344 43.566406 24.015625 C 43.632812 24.046875 43.703125 24.0625 43.773438 24.0625 C 43.949219 24.0625 44.121094 23.964844 44.203125 23.792969 C 45.214844 21.667969 45.648438 19.390625 45.480469 17.035156 C 45.460938 16.773438 45.242188 16.578125 44.972656 16.59375 C 44.710938 16.613281 44.511719 16.839844 44.53125 17.101562 C 44.6875 19.292969 44.285156 21.40625 43.34375 23.382812 Z M 43.34375 23.382812 " fill-opacity="1" fill-rule="nonzero"/><path fill="#3a322b" d="M 45.894531 23.121094 C 45.949219 23.140625 46.003906 23.148438 46.054688 23.148438 C 46.25 23.148438 46.433594 23.027344 46.503906 22.832031 C 47.0625 21.28125 47.3125 19.703125 47.242188 18.148438 C 47.230469 17.886719 47 17.683594 46.746094 17.695312 C 46.480469 17.707031 46.277344 17.929688 46.292969 18.191406 C 46.355469 19.625 46.128906 21.074219 45.609375 22.511719 C 45.519531 22.757812 45.648438 23.03125 45.894531 23.121094 Z M 45.894531 23.121094 " fill-opacity="1" fill-rule="nonzero"/><path fill="#3a322b" d="M 59.800781 59.128906 C 58.574219 57.988281 57.695312 57.007812 57.113281 55.640625 C 56.382812 53.933594 55 52.660156 53.320312 52.152344 C 52.109375 51.785156 50.804688 51.441406 49.445312 51.128906 L 49.464844 50.820312 C 49.492188 50.378906 49.347656 49.953125 49.058594 49.621094 C 48.765625 49.289062 48.363281 49.089844 47.921875 49.058594 C 47.601562 49.039062 47.289062 49.113281 47.011719 49.265625 C 46.945312 49.113281 46.863281 48.964844 46.75 48.835938 C 46.457031 48.503906 46.054688 48.304688 45.613281 48.277344 C 45.308594 48.257812 45.011719 48.324219 44.75 48.460938 C 44.527344 47.871094 43.980469 47.433594 43.3125 47.390625 C 43.03125 47.371094 42.761719 47.429688 42.511719 47.546875 C 42.449219 47.292969 42.332031 47.054688 42.15625 46.855469 C 41.890625 46.550781 41.535156 46.367188 41.140625 46.3125 C 39.679688 44.8125 38.1875 43.703125 36.796875 42.886719 C 37.390625 42.894531 38.070312 42.902344 38.816406 42.902344 C 43.511719 42.902344 50.621094 42.644531 51.949219 41.128906 C 53.839844 38.976562 54.992188 15.066406 53.320312 12.699219 C 51.808594 10.558594 42.398438 9.886719 40.582031 9.773438 C 39.800781 8.890625 38.996094 8.167969 38.292969 7.535156 C 37.53125 6.851562 36.871094 6.261719 36.605469 5.757812 C 35.6875 4.039062 35.226562 1.613281 35.222656 1.589844 C 35.175781 1.332031 34.933594 1.160156 34.675781 1.207031 C 34.144531 1.300781 33.675781 1.519531 33.261719 1.804688 C 33.320312 1.355469 33.332031 0.917969 33.332031 0.519531 C 33.328125 0.328125 33.210938 0.152344 33.03125 0.0820312 C 32.855469 0.0117188 32.648438 0.0546875 32.515625 0.191406 C 31.199219 1.542969 29.242188 2.351562 27.171875 3.203125 C 24.96875 4.113281 22.691406 5.050781 20.8125 6.75 C 19.824219 7.648438 19 8.683594 18.328125 9.777344 C 16.558594 9.898438 8.179688 10.582031 6.683594 12.699219 C 5.011719 15.066406 6.164062 38.976562 8.054688 41.128906 C 9.382812 42.644531 16.492188 42.902344 21.1875 42.902344 C 21.929688 42.902344 22.613281 42.898438 23.203125 42.886719 C 21.8125 43.703125 20.320312 44.816406 18.863281 46.316406 C 18.46875 46.371094 18.109375 46.554688 17.84375 46.855469 C 17.667969 47.054688 17.554688 47.292969 17.492188 47.546875 C 17.242188 47.433594 16.972656 47.375 16.691406 47.390625 C 16.023438 47.433594 15.472656 47.875 15.253906 48.464844 C 14.988281 48.328125 14.695312 48.261719 14.386719 48.277344 C 13.949219 48.308594 13.542969 48.503906 13.253906 48.835938 C 13.140625 48.96875 13.054688 49.113281 12.988281 49.265625 C 12.714844 49.113281 12.402344 49.042969 12.078125 49.0625 C 11.636719 49.089844 11.234375 49.289062 10.945312 49.621094 C 10.652344 49.953125 10.507812 50.378906 10.539062 50.820312 L 10.558594 51.128906 C 9.195312 51.441406 7.890625 51.785156 6.683594 52.152344 C 5 52.664062 3.617188 53.933594 2.886719 55.644531 C 2.304688 57.007812 1.425781 57.988281 0.199219 59.128906 C 0.0078125 59.308594 -0.00390625 59.609375 0.175781 59.800781 C 0.269531 59.902344 0.394531 59.953125 0.523438 59.953125 C 0.640625 59.953125 0.753906 59.910156 0.847656 59.824219 C 2.164062 58.597656 3.113281 57.535156 3.761719 56.015625 C 4.378906 54.566406 5.546875 53.488281 6.957031 53.058594 C 8.101562 52.714844 9.332031 52.386719 10.621094 52.089844 L 10.621094 52.140625 C 10.679688 53.011719 11.410156 53.683594 12.273438 53.683594 C 12.308594 53.683594 12.34375 53.683594 12.378906 53.683594 C 12.839844 53.652344 13.242188 53.433594 13.523438 53.109375 C 13.527344 53.113281 13.53125 53.117188 13.535156 53.121094 C 13.835938 53.386719 14.21875 53.53125 14.621094 53.53125 C 14.65625 53.53125 14.695312 53.53125 14.730469 53.527344 C 15.191406 53.496094 15.597656 53.28125 15.875 52.953125 C 15.9375 53.007812 16 53.058594 16.066406 53.101562 C 16.285156 54.472656 16.28125 55.707031 16.039062 56.859375 C 15.984375 57.117188 16.148438 57.371094 16.40625 57.421875 C 16.441406 57.429688 16.472656 57.433594 16.503906 57.433594 C 16.726562 57.433594 16.921875 57.28125 16.96875 57.054688 C 17.207031 55.925781 17.230469 54.6875 17.0625 53.375 C 17.070312 53.375 17.078125 53.375 17.082031 53.375 C 17.542969 53.34375 17.949219 53.125 18.226562 52.800781 C 18.339844 52.898438 18.464844 52.980469 18.601562 53.046875 C 18.703125 53.667969 18.695312 54.292969 18.5625 54.914062 C 18.503906 55.171875 18.667969 55.425781 18.925781 55.480469 C 18.957031 55.488281 18.992188 55.492188 19.027344 55.492188 C 19.246094 55.492188 19.441406 55.339844 19.492188 55.117188 C 19.628906 54.480469 19.660156 53.835938 19.585938 53.195312 C 20.417969 53.058594 21.03125 52.320312 20.976562 51.460938 L 20.910156 50.449219 C 26.804688 49.890625 33.199219 49.890625 39.09375 50.449219 L 39.027344 51.460938 C 38.96875 52.316406 39.582031 53.058594 40.414062 53.191406 C 40.257812 54.546875 40.308594 55.914062 40.589844 57.269531 C 40.632812 57.492188 40.832031 57.648438 41.054688 57.648438 C 41.085938 57.648438 41.117188 57.644531 41.148438 57.636719 C 41.40625 57.582031 41.570312 57.332031 41.519531 57.074219 C 41.242188 55.742188 41.203125 54.390625 41.382812 53.058594 C 41.527344 52.988281 41.65625 52.902344 41.773438 52.800781 C 42.023438 53.089844 42.375 53.289062 42.777344 53.347656 C 42.875 55.632812 43.597656 57.804688 44.949219 59.804688 C 45.042969 59.941406 45.191406 60.015625 45.34375 60.015625 C 45.4375 60.015625 45.53125 59.988281 45.613281 59.933594 C 45.828125 59.785156 45.886719 59.492188 45.738281 59.273438 C 44.46875 57.394531 43.796875 55.355469 43.722656 53.21875 C 43.867188 53.148438 44.003906 53.0625 44.125 52.953125 C 44.40625 53.28125 44.808594 53.496094 45.269531 53.527344 C 45.285156 53.527344 45.296875 53.527344 45.3125 53.53125 C 45.628906 55.253906 46.367188 56.722656 47.523438 57.886719 C 47.617188 57.980469 47.738281 58.027344 47.859375 58.027344 C 47.980469 58.027344 48.101562 57.980469 48.195312 57.886719 C 48.382812 57.703125 48.382812 57.402344 48.199219 57.214844 C 47.148438 56.160156 46.511719 54.871094 46.234375 53.289062 C 46.316406 53.242188 46.394531 53.183594 46.46875 53.121094 C 46.472656 53.117188 46.472656 53.113281 46.476562 53.109375 C 46.757812 53.433594 47.160156 53.652344 47.621094 53.683594 C 47.65625 53.683594 47.691406 53.683594 47.730469 53.683594 C 48.59375 53.683594 49.320312 53.011719 49.378906 52.140625 L 49.382812 52.089844 C 50.667969 52.386719 51.902344 52.710938 53.042969 53.058594 C 54.457031 53.488281 55.621094 54.566406 56.238281 56.015625 C 56.890625 57.535156 57.835938 58.597656 59.152344 59.824219 C 59.246094 59.910156 59.363281 59.953125 59.476562 59.953125 C 59.605469 59.953125 59.730469 59.902344 59.824219 59.800781 C 60.003906 59.609375 59.992188 59.308594 59.800781 59.128906 Z M 52.539062 13.246094 C 53.953125 15.25 52.832031 38.683594 51.234375 40.5 C 50.027344 41.875 40.589844 42.082031 34.859375 41.890625 C 34.3125 41.648438 33.796875 41.449219 33.328125 41.289062 L 33.328125 38.167969 C 33.957031 37.941406 34.582031 37.648438 35.195312 37.296875 L 40.175781 40.851562 C 40.589844 41.148438 41.082031 41.304688 41.589844 41.304688 C 41.753906 41.304688 41.917969 41.289062 42.085938 41.253906 C 42.757812 41.121094 43.351562 40.734375 43.757812 40.167969 L 44.371094 39.308594 C 45.214844 38.125 44.984375 36.503906 43.855469 35.699219 L 39.902344 32.875 C 39.90625 32.867188 39.910156 32.859375 39.917969 32.851562 C 40.191406 32.390625 40.453125 31.824219 40.695312 31.175781 C 42.09375 31.15625 43.410156 30.136719 43.984375 28.578125 C 44.699219 26.636719 43.972656 24.53125 42.371094 23.820312 C 43.042969 22.53125 44.535156 19.070312 43.570312 15.3125 C 43.09375 13.457031 42.296875 11.988281 41.398438 10.78125 C 45.625 11.097656 51.632812 11.960938 52.539062 13.246094 Z M 18.972656 30.179688 C 18.101562 30.007812 17.285156 29.28125 16.90625 28.25 C 16.378906 26.820312 16.839844 25.300781 17.917969 24.746094 C 18.152344 26.808594 18.515625 28.664062 18.972656 30.179688 Z M 18.824219 24.292969 C 19.875 23.398438 20.636719 22.21875 21.183594 20.617188 C 21.261719 20.613281 21.339844 20.609375 21.417969 20.597656 C 22.699219 20.386719 23.980469 20.230469 25.265625 20.113281 C 24.863281 20.691406 24.265625 21.019531 23.449219 21.101562 C 23.1875 21.125 23 21.359375 23.023438 21.621094 C 23.046875 21.867188 23.253906 22.046875 23.496094 22.046875 C 23.511719 22.046875 23.527344 22.046875 23.542969 22.046875 C 24.917969 21.910156 25.867188 21.226562 26.386719 20.023438 C 28.792969 19.859375 31.207031 19.859375 33.613281 20.023438 C 34.132812 21.226562 35.082031 21.910156 36.457031 22.046875 C 36.472656 22.046875 36.488281 22.046875 36.503906 22.046875 C 36.746094 22.046875 36.953125 21.867188 36.976562 21.621094 C 37.003906 21.359375 36.8125 21.125 36.550781 21.101562 C 35.734375 21.019531 35.136719 20.691406 34.734375 20.113281 C 36.019531 20.230469 37.304688 20.386719 38.582031 20.597656 C 38.660156 20.609375 38.738281 20.617188 38.816406 20.617188 C 39.367188 22.21875 40.125 23.402344 41.175781 24.292969 C 40.808594 27.769531 40.050781 30.75 39.125 32.320312 L 36.097656 30.15625 C 35.128906 29.464844 33.839844 29.441406 32.796875 30.070312 L 30.65625 28.539062 C 30.082031 28.132812 29.277344 28.28125 28.851562 28.875 C 28.429688 29.464844 28.550781 30.28125 29.121094 30.6875 L 31.261719 32.21875 C 31.007812 33.410156 31.449219 34.621094 32.417969 35.3125 L 34.34375 36.6875 C 32.898438 37.441406 31.410156 37.835938 30 37.835938 C 25.761719 37.835938 22.167969 34.480469 20.898438 32.363281 C 19.964844 30.800781 19.191406 27.796875 18.824219 24.292969 Z M 30 11.648438 C 33.0625 11.648438 36.125 12.011719 39.164062 12.738281 C 39.742188 12.878906 40.160156 13.445312 40.160156 14.089844 L 40.160156 16.925781 C 40.160156 17.070312 40.105469 17.203125 40.007812 17.304688 C 39.992188 17.316406 39.976562 17.328125 39.964844 17.34375 C 39.960938 17.347656 39.953125 17.351562 39.949219 17.355469 C 39.8125 17.457031 39.644531 17.492188 39.484375 17.445312 C 37.832031 16.992188 34.40625 16.226562 30 16.226562 C 23.582031 16.226562 20.867188 17.65625 20.753906 17.71875 C 20.523438 17.84375 20.4375 18.132812 20.5625 18.363281 C 20.6875 18.59375 20.976562 18.679688 21.207031 18.554688 C 21.234375 18.542969 23.859375 17.179688 30 17.179688 C 34.292969 17.179688 37.625 17.921875 39.230469 18.363281 C 39.449219 18.421875 39.671875 18.433594 39.886719 18.394531 C 39.839844 18.777344 39.667969 19.117188 39.46875 19.339844 C 39.339844 19.480469 39.070312 19.710938 38.738281 19.660156 C 37.164062 19.398438 35.585938 19.214844 34.007812 19.097656 C 33.976562 19.09375 33.949219 19.089844 33.917969 19.089844 C 31.308594 18.898438 28.691406 18.898438 26.082031 19.089844 C 26.050781 19.089844 26.019531 19.089844 25.992188 19.097656 C 24.410156 19.214844 22.835938 19.398438 21.261719 19.660156 C 20.925781 19.714844 20.59375 19.621094 20.324219 19.390625 C 20.015625 19.128906 19.839844 18.734375 19.839844 18.304688 L 19.839844 14.089844 C 19.839844 13.445312 20.257812 12.878906 20.835938 12.738281 C 23.875 12.011719 26.9375 11.648438 30 11.648438 Z M 25.445312 10.960938 C 26.597656 10.335938 28.097656 10.023438 30 10.023438 C 31.902344 10.023438 33.402344 10.335938 34.554688 10.960938 C 31.519531 10.609375 28.480469 10.609375 25.445312 10.960938 Z M 35.507812 36.347656 L 32.96875 34.535156 C 32.246094 34.019531 31.960938 33.070312 32.257812 32.167969 C 32.324219 31.972656 32.253906 31.753906 32.082031 31.632812 L 29.671875 29.914062 C 29.53125 29.808594 29.507812 29.589844 29.625 29.425781 C 29.703125 29.320312 29.820312 29.257812 29.933594 29.257812 C 29.992188 29.257812 30.050781 29.277344 30.101562 29.3125 L 32.511719 31.035156 C 32.679688 31.15625 32.910156 31.152344 33.074219 31.027344 C 33.832031 30.453125 34.824219 30.414062 35.546875 30.929688 L 43.304688 36.472656 C 44.007812 36.972656 44.136719 37.996094 43.597656 38.753906 L 42.984375 39.613281 C 42.71875 39.984375 42.335938 40.238281 41.902344 40.320312 C 41.480469 40.40625 41.066406 40.320312 40.730469 40.078125 Z M 42.082031 24.746094 C 43.160156 25.300781 43.621094 26.820312 43.09375 28.25 C 42.714844 29.28125 41.898438 30.007812 41.027344 30.179688 C 41.484375 28.664062 41.847656 26.808594 42.082031 24.746094 Z M 27.621094 38.46875 C 28.386719 38.667969 29.179688 38.789062 30 38.789062 C 30.78125 38.789062 31.578125 38.675781 32.378906 38.464844 L 32.375 41.632812 L 32.378906 41.632812 C 32.375 41.8125 32.261719 44.472656 30 44.472656 C 27.722656 44.472656 27.625 41.738281 27.621094 41.621094 Z M 21.453125 7.457031 C 23.207031 5.867188 25.40625 4.960938 27.53125 4.082031 C 29.292969 3.359375 30.972656 2.664062 32.320312 1.628906 C 32.230469 2.367188 32.023438 2.925781 31.691406 3.375 C 31.535156 3.582031 31.574219 3.878906 31.785156 4.039062 C 31.992188 4.195312 32.289062 4.15625 32.449219 3.945312 C 33.125 3.058594 33.753906 2.515625 34.394531 2.269531 C 34.582031 3.109375 35.03125 4.835938 35.765625 6.207031 C 36.109375 6.855469 36.792969 7.46875 37.65625 8.242188 C 39.367188 9.777344 41.707031 11.878906 42.648438 15.550781 C 43.519531 18.933594 42.148438 22.15625 41.539062 23.351562 C 40.75 22.601562 40.175781 21.644531 39.726562 20.347656 C 39.886719 20.25 40.035156 20.128906 40.171875 19.976562 C 40.695312 19.40625 40.933594 18.578125 40.820312 17.8125 C 41.007812 17.558594 41.113281 17.25 41.113281 16.925781 L 41.113281 14.089844 C 41.113281 12.992188 40.402344 12.058594 39.386719 11.816406 C 38.421875 11.582031 37.453125 11.390625 36.480469 11.230469 C 35.082031 9.785156 32.964844 9.074219 30 9.074219 C 27.035156 9.074219 24.917969 9.785156 23.519531 11.234375 C 22.546875 11.390625 21.578125 11.582031 20.613281 11.816406 C 19.597656 12.058594 18.886719 12.992188 18.886719 14.089844 L 18.886719 18.304688 C 18.886719 19.011719 19.1875 19.675781 19.710938 20.117188 C 19.871094 20.253906 20.050781 20.359375 20.242188 20.441406 C 19.796875 21.683594 19.21875 22.632812 18.449219 23.359375 C 17.976562 22.5 17.050781 20.578125 16.914062 18.488281 C 16.707031 15.339844 18.035156 10.542969 21.453125 7.457031 Z M 8.765625 40.5 C 7.167969 38.683594 6.046875 15.25 7.460938 13.246094 C 8.378906 11.945312 13.9375 11.078125 17.761719 10.773438 C 16.371094 13.453125 15.820312 16.371094 15.964844 18.550781 C 16.117188 20.839844 17.101562 22.890625 17.617188 23.824219 C 16.019531 24.542969 15.300781 26.640625 16.015625 28.578125 C 16.585938 30.136719 17.90625 31.15625 19.304688 31.175781 C 19.546875 31.824219 19.808594 32.390625 20.082031 32.851562 C 21.113281 34.570312 23.5625 37.039062 26.671875 38.175781 L 26.671875 41.289062 C 26.199219 41.449219 25.683594 41.648438 25.136719 41.890625 C 19.40625 42.082031 9.972656 41.875 8.765625 40.5 Z M 12.320312 52.734375 C 11.929688 52.761719 11.597656 52.464844 11.570312 52.078125 L 11.484375 50.757812 C 11.472656 50.570312 11.535156 50.386719 11.65625 50.246094 C 11.78125 50.105469 11.953125 50.019531 12.140625 50.007812 C 12.328125 49.996094 12.507812 50.058594 12.648438 50.183594 C 12.789062 50.304688 12.875 50.476562 12.886719 50.664062 L 12.972656 51.988281 C 13 52.375 12.703125 52.707031 12.320312 52.734375 Z M 14.667969 52.578125 C 14.277344 52.605469 13.949219 52.3125 13.921875 51.925781 L 13.835938 50.601562 L 13.792969 49.972656 C 13.78125 49.785156 13.84375 49.605469 13.96875 49.464844 C 14.089844 49.320312 14.261719 49.238281 14.449219 49.226562 C 14.832031 49.195312 15.171875 49.496094 15.195312 49.878906 L 15.324219 51.832031 C 15.351562 52.21875 15.054688 52.554688 14.667969 52.578125 Z M 17.019531 52.425781 C 16.628906 52.453125 16.296875 52.15625 16.273438 51.769531 L 16.097656 49.085938 C 16.074219 48.699219 16.367188 48.363281 16.753906 48.339844 C 16.941406 48.328125 17.121094 48.386719 17.261719 48.511719 C 17.402344 48.632812 17.488281 48.804688 17.5 48.992188 L 17.675781 51.679688 C 17.699219 52.066406 17.40625 52.398438 17.019531 52.425781 Z M 19.371094 52.273438 C 18.980469 52.296875 18.648438 52.003906 18.625 51.617188 L 18.386719 47.992188 C 18.375 47.804688 18.433594 47.621094 18.558594 47.480469 C 18.683594 47.339844 18.855469 47.257812 19.042969 47.242188 C 19.058594 47.242188 19.074219 47.242188 19.085938 47.242188 C 19.453125 47.242188 19.765625 47.527344 19.789062 47.898438 L 20.027344 51.523438 C 20.050781 51.910156 19.757812 52.246094 19.371094 52.273438 Z M 20.847656 49.5 L 20.738281 47.835938 C 20.703125 47.285156 20.402344 46.820312 19.96875 46.546875 C 22.40625 44.183594 24.886719 42.933594 26.734375 42.273438 C 26.953125 43.617188 27.804688 45.421875 30 45.421875 C 32.195312 45.421875 33.046875 43.617188 33.265625 42.273438 C 35.113281 42.933594 37.597656 44.1875 40.03125 46.550781 C 39.601562 46.824219 39.300781 47.289062 39.261719 47.835938 L 39.15625 49.5 C 33.214844 48.9375 26.785156 48.9375 20.847656 49.5 Z M 40.628906 52.273438 C 40.242188 52.246094 39.949219 51.910156 39.972656 51.523438 L 40.210938 47.898438 C 40.238281 47.511719 40.570312 47.210938 40.957031 47.242188 C 41.144531 47.257812 41.316406 47.339844 41.441406 47.480469 C 41.566406 47.621094 41.625 47.804688 41.613281 47.992188 L 41.375 51.617188 C 41.351562 52.003906 41.015625 52.296875 40.628906 52.273438 Z M 42.980469 52.425781 C 42.59375 52.398438 42.300781 52.066406 42.324219 51.679688 L 42.5 48.992188 C 42.511719 48.804688 42.597656 48.632812 42.738281 48.511719 C 42.878906 48.386719 43.0625 48.324219 43.246094 48.339844 C 43.632812 48.363281 43.925781 48.699219 43.902344 49.085938 L 43.726562 51.769531 C 43.703125 52.15625 43.367188 52.457031 42.980469 52.425781 Z M 45.332031 52.578125 C 44.945312 52.554688 44.652344 52.21875 44.675781 51.832031 L 44.804688 49.878906 C 44.828125 49.496094 45.160156 49.195312 45.550781 49.226562 C 45.738281 49.238281 45.910156 49.320312 46.03125 49.464844 C 46.15625 49.605469 46.21875 49.785156 46.207031 49.972656 L 46.164062 50.601562 L 46.078125 51.925781 C 46.050781 52.3125 45.71875 52.605469 45.332031 52.578125 Z M 47.679688 52.734375 C 47.296875 52.707031 47 52.375 47.027344 51.988281 L 47.113281 50.664062 C 47.125 50.476562 47.210938 50.304688 47.351562 50.183594 C 47.492188 50.058594 47.675781 49.996094 47.859375 50.007812 C 48.046875 50.019531 48.21875 50.105469 48.34375 50.246094 C 48.464844 50.386719 48.527344 50.570312 48.515625 50.757812 L 48.429688 52.078125 C 48.402344 52.464844 48.066406 52.761719 47.679688 52.734375 Z M 47.679688 52.734375 " fill-opacity="1" fill-rule="nonzero"/></svg>