<svg xmlns="http://www.w3.org/2000/svg" xmlns:xlink="http://www.w3.org/1999/xlink" width="80" zoomAndPan="magnify" viewBox="0 0 60 60" height="80" preserveAspectRatio="xMidYMid meet" version="1.0"><defs><clipPath id="2228f3528b"><path d="M 0.0078125 21.464844 L 59.992188 21.464844 L 59.992188 53.15625 L 0.0078125 53.15625 Z M 0.0078125 21.464844 " clip-rule="nonzero"/></clipPath><clipPath id="82291bb16c"><path d="M 20.507812 19.695312 L 27.234375 19.695312 L 27.234375 26.453125 L 20.507812 26.453125 Z M 20.507812 19.695312 " clip-rule="nonzero"/></clipPath><clipPath id="46cc170535"><path d="M 23.871094 26.453125 C 22.015625 26.453125 20.507812 24.9375 20.507812 23.074219 C 20.507812 21.207031 22.015625 19.695312 23.871094 19.695312 C 25.730469 19.695312 27.234375 21.207031 27.234375 23.074219 C 27.234375 24.9375 25.730469 26.453125 23.871094 26.453125 " clip-rule="nonzero"/></clipPath><clipPath id="fdf9e7a872"><path d="M 23.871094 26.453125 C 22.015625 26.453125 20.507812 24.9375 20.507812 23.074219 C 20.507812 21.207031 22.015625 19.695312 23.871094 19.695312 C 25.730469 19.695312 27.234375 21.207031 27.234375 23.074219 C 27.234375 24.9375 25.730469 26.453125 23.871094 26.453125 " clip-rule="nonzero"/></clipPath><radialGradient gradientTransform="matrix(0.997825, 0, 0, 1.002175, 23.87191, 23.073301)" gradientUnits="userSpaceOnUse" r="3.370743" cx="0" id="b902b4e5ee" cy="0" fx="0" fy="0"><stop stop-opacity="1" stop-color="rgb(95.89386%, 62.895203%, 50.59967%)" offset="0"/><stop stop-opacity="1" stop-color="rgb(96.09375%, 63.179016%, 50.683594%)" offset="0.015625"/><stop stop-opacity="1" stop-color="rgb(96.099854%, 63.383484%, 50.883484%)" offset="0.0273438"/><stop stop-opacity="1" stop-color="rgb(96.185303%, 63.5849%, 51.0849%)" offset="0.0546875"/><stop stop-opacity="1" stop-color="rgb(96.385193%, 63.78479%, 51.28479%)" offset="0.0820312"/><stop stop-opacity="1" stop-color="rgb(96.499634%, 63.986206%, 51.486206%)" offset="0.109375"/><stop stop-opacity="1" stop-color="rgb(96.635437%, 64.186096%, 51.686096%)" offset="0.136719"/><stop stop-opacity="1" stop-color="rgb(96.835327%, 64.299011%, 51.799011%)" offset="0.160156"/><stop stop-opacity="1" stop-color="rgb(96.899414%, 64.431763%, 51.931763%)" offset="0.183594"/><stop stop-opacity="1" stop-color="rgb(96.899414%, 64.698792%, 52.182007%)" offset="0.195312"/><stop stop-opacity="1" stop-color="rgb(96.899414%, 64.96582%, 52.400208%)" offset="0.21875"/><stop stop-opacity="1" stop-color="rgb(96.899414%, 65.196228%, 52.597046%)" offset="0.265625"/><stop stop-opacity="1" stop-color="rgb(97.058105%, 65.397644%, 52.796936%)" offset="0.273438"/><stop stop-opacity="1" stop-color="rgb(97.257996%, 65.661621%, 52.89917%)" offset="0.292969"/><stop stop-opacity="1" stop-color="rgb(97.299194%, 65.942383%, 52.978516%)" offset="0.3125"/><stop stop-opacity="1" stop-color="rgb(97.299194%, 66.178894%, 53.178406%)" offset="0.332031"/><stop stop-opacity="1" stop-color="rgb(97.299194%, 66.299438%, 53.29895%)" offset="0.351562"/><stop stop-opacity="1" stop-color="rgb(97.299194%, 66.299438%, 53.40271%)" offset="0.359375"/><stop stop-opacity="1" stop-color="rgb(97.299194%, 66.456604%, 53.6026%)" offset="0.367188"/><stop stop-opacity="1" stop-color="rgb(97.299194%, 66.656494%, 53.849792%)" offset="0.386719"/><stop stop-opacity="1" stop-color="rgb(97.410583%, 66.848755%, 54.049683%)" offset="0.402344"/><stop stop-opacity="1" stop-color="rgb(97.561646%, 67.114258%, 54.098511%)" offset="0.417969"/><stop stop-opacity="1" stop-color="rgb(97.599792%, 67.364502%, 54.244995%)" offset="0.433594"/><stop stop-opacity="1" stop-color="rgb(97.599792%, 67.648315%, 54.5578%)" offset="0.46875"/><stop stop-opacity="1" stop-color="rgb(97.599792%, 67.799377%, 54.811096%)" offset="0.535156"/><stop stop-opacity="1" stop-color="rgb(97.599792%, 67.991638%, 54.898071%)" offset="0.546875"/><stop stop-opacity="1" stop-color="rgb(97.599792%, 68.191528%, 54.983521%)" offset="0.558594"/><stop stop-opacity="1" stop-color="rgb(97.599792%, 68.327332%, 55.183411%)" offset="0.570312"/><stop stop-opacity="1" stop-color="rgb(97.599792%, 68.595886%, 55.366516%)" offset="0.59375"/><stop stop-opacity="1" stop-color="rgb(97.599792%, 68.867493%, 55.566406%)" offset="0.617188"/><stop stop-opacity="1" stop-color="rgb(97.599792%, 69.07959%, 55.780029%)" offset="0.640625"/><stop stop-opacity="1" stop-color="rgb(97.599792%, 69.27948%, 55.979919%)" offset="0.660156"/><stop stop-opacity="1" stop-color="rgb(97.599792%, 69.500732%, 56.098938%)" offset="0.679688"/><stop stop-opacity="1" stop-color="rgb(97.599792%, 69.702148%, 56.196594%)" offset="0.699219"/><stop stop-opacity="1" stop-color="rgb(97.599792%, 69.898987%, 56.396484%)" offset="0.714844"/><stop stop-opacity="1" stop-color="rgb(97.599792%, 70.098877%, 56.498718%)" offset="0.730469"/><stop stop-opacity="1" stop-color="rgb(97.727966%, 70.327759%, 56.626892%)" offset="0.746094"/><stop stop-opacity="1" stop-color="rgb(97.927856%, 70.582581%, 56.88324%)" offset="0.761719"/><stop stop-opacity="1" stop-color="rgb(97.999573%, 70.854187%, 57.154846%)" offset="0.773438"/><stop stop-opacity="1" stop-color="rgb(97.999573%, 71.081543%, 57.36084%)" offset="0.800781"/><stop stop-opacity="1" stop-color="rgb(97.999573%, 71.281433%, 57.591248%)" offset="0.824219"/><stop stop-opacity="1" stop-color="rgb(97.999573%, 71.502686%, 57.879639%)" offset="0.84375"/><stop stop-opacity="1" stop-color="rgb(97.999573%, 71.801758%, 58.097839%)" offset="0.863281"/><stop stop-opacity="1" stop-color="rgb(97.999573%, 72.097778%, 58.297729%)" offset="0.878906"/><stop stop-opacity="1" stop-color="rgb(97.999573%, 72.315979%, 58.555603%)" offset="0.90625"/><stop stop-opacity="1" stop-color="rgb(97.999573%, 72.467041%, 58.755493%)" offset="0.929688"/><stop stop-opacity="1" stop-color="rgb(97.999573%, 72.499084%, 58.810425%)" offset="0.964844"/><stop stop-opacity="1" stop-color="rgb(97.999573%, 72.499084%, 59.010315%)" offset="0.980469"/><stop stop-opacity="1" stop-color="rgb(97.999573%, 72.499084%, 59.199524%)" offset="1"/></radialGradient><clipPath id="1b2e513d79"><path d="M 35.597656 19.695312 L 42.335938 19.695312 L 42.335938 26.464844 L 35.597656 26.464844 Z M 35.597656 19.695312 " clip-rule="nonzero"/></clipPath><clipPath id="8b516dcc86"><path d="M 38.964844 26.464844 C 37.105469 26.464844 35.597656 24.949219 35.597656 23.078125 C 35.597656 21.210938 37.105469 19.695312 38.964844 19.695312 C 40.828125 19.695312 42.335938 21.210938 42.335938 23.078125 C 42.335938 24.949219 40.828125 26.464844 38.964844 26.464844 " clip-rule="nonzero"/></clipPath><clipPath id="c7d349b86e"><path d="M 38.964844 26.464844 C 37.105469 26.464844 35.597656 24.949219 35.597656 23.078125 C 35.597656 21.210938 37.105469 19.695312 38.964844 19.695312 C 40.828125 19.695312 42.335938 21.210938 42.335938 23.078125 C 42.335938 24.949219 40.828125 26.464844 38.964844 26.464844 " clip-rule="nonzero"/></clipPath><radialGradient gradientTransform="matrix(0.997825, 0, 0, 1.002175, 38.965759, 23.079416)" gradientUnits="userSpaceOnUse" r="3.37691" cx="0" id="4c41fdfcff" cy="0" fx="0" fy="0"><stop stop-opacity="1" stop-color="rgb(95.89386%, 62.895203%, 50.59967%)" offset="0"/><stop stop-opacity="1" stop-color="rgb(96.09375%, 63.179016%, 50.683594%)" offset="0.015625"/><stop stop-opacity="1" stop-color="rgb(96.099854%, 63.383484%, 50.883484%)" offset="0.0273438"/><stop stop-opacity="1" stop-color="rgb(96.185303%, 63.5849%, 51.0849%)" offset="0.0546875"/><stop stop-opacity="1" stop-color="rgb(96.385193%, 63.78479%, 51.28479%)" offset="0.0820312"/><stop stop-opacity="1" stop-color="rgb(96.499634%, 63.986206%, 51.486206%)" offset="0.109375"/><stop stop-opacity="1" stop-color="rgb(96.635437%, 64.186096%, 51.686096%)" offset="0.136719"/><stop stop-opacity="1" stop-color="rgb(96.835327%, 64.299011%, 51.799011%)" offset="0.160156"/><stop stop-opacity="1" stop-color="rgb(96.899414%, 64.431763%, 51.931763%)" offset="0.183594"/><stop stop-opacity="1" stop-color="rgb(96.899414%, 64.698792%, 52.182007%)" offset="0.195312"/><stop stop-opacity="1" stop-color="rgb(96.899414%, 64.96582%, 52.400208%)" offset="0.21875"/><stop stop-opacity="1" stop-color="rgb(96.899414%, 65.196228%, 52.597046%)" offset="0.265625"/><stop stop-opacity="1" stop-color="rgb(97.058105%, 65.397644%, 52.796936%)" offset="0.273438"/><stop stop-opacity="1" stop-color="rgb(97.257996%, 65.661621%, 52.89917%)" offset="0.292969"/><stop stop-opacity="1" stop-color="rgb(97.299194%, 65.942383%, 52.978516%)" offset="0.3125"/><stop stop-opacity="1" stop-color="rgb(97.299194%, 66.178894%, 53.178406%)" offset="0.332031"/><stop stop-opacity="1" stop-color="rgb(97.299194%, 66.299438%, 53.29895%)" offset="0.351562"/><stop stop-opacity="1" stop-color="rgb(97.299194%, 66.299438%, 53.40271%)" offset="0.359375"/><stop stop-opacity="1" stop-color="rgb(97.299194%, 66.456604%, 53.6026%)" offset="0.367188"/><stop stop-opacity="1" stop-color="rgb(97.299194%, 66.656494%, 53.849792%)" offset="0.386719"/><stop stop-opacity="1" stop-color="rgb(97.410583%, 66.848755%, 54.049683%)" offset="0.402344"/><stop stop-opacity="1" stop-color="rgb(97.561646%, 67.114258%, 54.098511%)" offset="0.417969"/><stop stop-opacity="1" stop-color="rgb(97.599792%, 67.364502%, 54.244995%)" offset="0.433594"/><stop stop-opacity="1" stop-color="rgb(97.599792%, 67.648315%, 54.5578%)" offset="0.46875"/><stop stop-opacity="1" stop-color="rgb(97.599792%, 67.799377%, 54.811096%)" offset="0.535156"/><stop stop-opacity="1" stop-color="rgb(97.599792%, 67.991638%, 54.898071%)" offset="0.546875"/><stop stop-opacity="1" stop-color="rgb(97.599792%, 68.191528%, 54.983521%)" offset="0.558594"/><stop stop-opacity="1" stop-color="rgb(97.599792%, 68.327332%, 55.183411%)" offset="0.570312"/><stop stop-opacity="1" stop-color="rgb(97.599792%, 68.595886%, 55.366516%)" offset="0.59375"/><stop stop-opacity="1" stop-color="rgb(97.599792%, 68.867493%, 55.566406%)" offset="0.617188"/><stop stop-opacity="1" stop-color="rgb(97.599792%, 69.07959%, 55.780029%)" offset="0.640625"/><stop stop-opacity="1" stop-color="rgb(97.599792%, 69.27948%, 55.979919%)" offset="0.660156"/><stop stop-opacity="1" stop-color="rgb(97.599792%, 69.500732%, 56.098938%)" offset="0.679688"/><stop stop-opacity="1" stop-color="rgb(97.599792%, 69.702148%, 56.196594%)" offset="0.699219"/><stop stop-opacity="1" stop-color="rgb(97.599792%, 69.898987%, 56.396484%)" offset="0.714844"/><stop stop-opacity="1" stop-color="rgb(97.599792%, 70.098877%, 56.498718%)" offset="0.730469"/><stop stop-opacity="1" stop-color="rgb(97.727966%, 70.327759%, 56.626892%)" offset="0.746094"/><stop stop-opacity="1" stop-color="rgb(97.927856%, 70.582581%, 56.88324%)" offset="0.761719"/><stop stop-opacity="1" stop-color="rgb(97.999573%, 70.854187%, 57.154846%)" offset="0.773438"/><stop stop-opacity="1" stop-color="rgb(97.999573%, 71.081543%, 57.36084%)" offset="0.800781"/><stop stop-opacity="1" stop-color="rgb(97.999573%, 71.281433%, 57.591248%)" offset="0.824219"/><stop stop-opacity="1" stop-color="rgb(97.999573%, 71.502686%, 57.879639%)" offset="0.84375"/><stop stop-opacity="1" stop-color="rgb(97.999573%, 71.801758%, 58.097839%)" offset="0.863281"/><stop stop-opacity="1" stop-color="rgb(97.999573%, 72.097778%, 58.297729%)" offset="0.878906"/><stop stop-opacity="1" stop-color="rgb(97.999573%, 72.315979%, 58.555603%)" offset="0.90625"/><stop stop-opacity="1" stop-color="rgb(97.999573%, 72.467041%, 58.755493%)" offset="0.929688"/><stop stop-opacity="1" stop-color="rgb(97.999573%, 72.499084%, 58.810425%)" offset="0.964844"/><stop stop-opacity="1" stop-color="rgb(97.999573%, 72.499084%, 59.010315%)" offset="0.980469"/><stop stop-opacity="1" stop-color="rgb(97.999573%, 72.499084%, 59.199524%)" offset="1"/></radialGradient><clipPath id="7482454af0"><path d="M 32.214844 43.621094 L 52 43.621094 L 52 57.113281 L 32.214844 57.113281 Z M 32.214844 43.621094 " clip-rule="nonzero"/></clipPath><clipPath id="fe2d50747b"><path d="M 24 3.113281 L 29 3.113281 L 29 9 L 24 9 Z M 24 3.113281 " clip-rule="nonzero"/></clipPath></defs><g clip-path="url(#2228f3528b)"><path fill="#faba97" d="M 59.941406 28.632812 C 59.875 29.175781 58.609375 29.367188 57.011719 29.589844 C 56.976562 29.59375 56.9375 29.601562 56.898438 29.605469 C 55.75 29.765625 53.648438 31.136719 53.648438 31.136719 C 50.191406 34.300781 44.3125 35.335938 41.210938 35.667969 C 39.953125 35.804688 39.152344 35.824219 39.152344 35.824219 C 39.304688 36.136719 39.445312 36.449219 39.574219 36.761719 C 40.785156 39.652344 41.160156 42.503906 41.132812 45.003906 C 41.089844 49.535156 39.71875 52.890625 39.617188 53.136719 C 39.613281 53.144531 39.609375 53.152344 39.609375 53.152344 L 35.667969 53.152344 C 35.667969 53.152344 29.933594 51.121094 26.078125 49.03125 C 23.835938 47.816406 22.230469 46.585938 22.738281 45.71875 C 23.015625 45.242188 23.230469 44.511719 23.390625 43.652344 C 24.019531 40.273438 23.84375 34.882812 23.84375 34.882812 C 10.152344 36.066406 4.621094 32.382812 4.621094 32.382812 C 0.539062 32.660156 0.953125 31.691406 0.953125 31.691406 C 0.886719 31.132812 2.753906 30.71875 2.753906 30.71875 C -0.222656 30.300781 0.0117188 29.605469 0.0117188 29.605469 C 0.246094 28.773438 2.335938 29.050781 2.335938 29.050781 C -0.289062 27.800781 0.0234375 26.757812 0.0234375 26.757812 C 0.199219 25.996094 3.167969 27.183594 3.167969 27.183594 C 1.195312 25.683594 2.128906 24.464844 2.128906 24.464844 C 3.304688 23.910156 5.378906 26.6875 5.378906 26.6875 C 5.105469 24.746094 5.613281 24.1875 6.246094 24.1875 C 7.351562 24.1875 7.074219 26.898438 7.074219 26.898438 C 7.160156 27.871094 9.148438 28.667969 9.148438 28.667969 C 11.542969 29.726562 18.425781 29.902344 22.429688 29.910156 C 24.207031 29.914062 25.417969 29.882812 25.417969 29.882812 L 37.722656 30.09375 C 39.046875 30.222656 40.320312 30.191406 41.523438 30.046875 C 47.34375 29.355469 51.503906 26.066406 51.503906 26.066406 C 51.433594 24.679688 51.78125 23.773438 51.78125 23.773438 C 52.679688 21.480469 54.132812 21.503906 54.132812 21.503906 C 55.476562 21.664062 54.40625 23.714844 54.34375 23.835938 C 56.140625 20.996094 57.105469 21.550781 57.105469 21.550781 C 58.351562 22.589844 55.859375 24.910156 55.859375 24.910156 C 58.28125 23.269531 58.972656 24.050781 58.972656 24.050781 C 60.109375 24.585938 57.105469 26.292969 56.910156 26.40625 C 59.042969 25.300781 59.941406 26.066406 59.941406 26.066406 C 60.425781 27.386719 57.3125 27.9375 57.3125 27.9375 C 59.871094 27.871094 59.941406 28.632812 59.941406 28.632812 " fill-opacity="1" fill-rule="nonzero"/></g><path fill="#e28d6c" d="M 41.523438 30.046875 C 34.78125 35.074219 25.710938 31.496094 22.429688 29.910156 C 24.207031 29.914062 25.417969 29.882812 25.417969 29.882812 L 37.722656 30.09375 C 39.046875 30.222656 40.320312 30.191406 41.523438 30.046875 " fill-opacity="1" fill-rule="nonzero"/><path fill="#faba97" d="M 39.0625 29.539062 C 39.0625 29.539062 33.136719 32.832031 25.925781 30.070312 C 24.507812 29.527344 23.039062 28.75 21.554688 27.667969 C 21.554688 27.667969 20.5 27.089844 18.683594 24.445312 C 18.683594 24.445312 15.667969 24.984375 15.574219 20.917969 C 15.574219 20.917969 15.621094 18.554688 17.871094 19.410156 C 17.871094 19.410156 18.253906 11.382812 22.796875 8.472656 C 22.796875 8.472656 25.339844 5.511719 32.9375 6.535156 C 34.941406 6.804688 37.8125 7.464844 39.722656 9.984375 C 40.503906 11.011719 41.121094 12.351562 41.457031 14.097656 C 41.457031 14.097656 41.839844 16.285156 41.839844 17.097656 C 41.839844 17.910156 42.125 20.582031 42.605469 21.21875 C 43.082031 21.851562 45.378906 25.886719 39.0625 29.539062 " fill-opacity="1" fill-rule="nonzero"/><g clip-path="url(#82291bb16c)"><g clip-path="url(#46cc170535)"><g clip-path="url(#fdf9e7a872)"><path fill="url(#b902b4e5ee)" d="M 20.507812 19.695312 L 20.507812 26.453125 L 27.234375 26.453125 L 27.234375 19.695312 Z M 20.507812 19.695312 " fill-rule="nonzero"/></g></g></g><g clip-path="url(#1b2e513d79)"><g clip-path="url(#8b516dcc86)"><g clip-path="url(#c7d349b86e)"><path fill="url(#4c41fdfcff)" d="M 35.597656 19.695312 L 35.597656 26.464844 L 42.335938 26.464844 L 42.335938 19.695312 Z M 35.597656 19.695312 " fill-rule="nonzero"/></g></g></g><path fill="#e28d6c" d="M 31.269531 19.859375 C 31.316406 19.859375 31.402344 19.796875 31.449219 19.78125 C 31.554688 19.746094 31.667969 19.726562 31.777344 19.726562 C 32.015625 19.722656 32.269531 19.808594 32.425781 20 C 32.695312 20.335938 32.558594 20.804688 32.320312 21.117188 C 32.296875 21.148438 32.191406 21.292969 32.15625 21.277344 C 32.121094 21.257812 32.175781 21.046875 32.183594 21.007812 C 32.21875 20.8125 32.246094 20.609375 32.203125 20.414062 C 32.152344 20.226562 31.996094 20.132812 31.824219 20.0625 C 31.714844 20.015625 31.597656 19.984375 31.484375 19.949219 C 31.421875 19.929688 31.292969 19.917969 31.269531 19.859375 " fill-opacity="1" fill-rule="nonzero"/><path fill="#875b4f" d="M 22.964844 16.035156 C 23.09375 15.582031 24.617188 14.507812 25.195312 14.742188 C 25.195312 14.742188 25.960938 15.058594 25.074219 15.445312 C 25.074219 15.445312 24.117188 15.90625 23.519531 16.164062 C 22.945312 16.410156 22.933594 16.148438 22.964844 16.035156 " fill-opacity="1" fill-rule="nonzero"/><path fill="#875b4f" d="M 38.316406 15.488281 C 38.121094 15.0625 36.449219 14.238281 35.914062 14.5625 C 35.914062 14.5625 35.207031 14.992188 36.144531 15.238281 C 36.144531 15.238281 37.160156 15.542969 37.792969 15.703125 C 38.398438 15.851562 38.367188 15.59375 38.316406 15.488281 " fill-opacity="1" fill-rule="nonzero"/><path fill="#e28d6c" d="M 17.488281 20.648438 C 17.488281 20.648438 16.433594 20.191406 16.457031 21.34375 C 16.457031 21.34375 16.457031 23.171875 17.894531 23.027344 C 17.894531 23.027344 16.792969 22.644531 16.839844 21.609375 C 16.839844 21.609375 16.671875 20.890625 17.488281 20.648438 " fill-opacity="1" fill-rule="nonzero"/><path fill="#f03b8a" d="M 41.132812 45.003906 C 41.132812 45.074219 41.132812 45.144531 41.132812 45.214844 C 41.128906 45.285156 41.128906 45.355469 41.125 45.421875 C 41.125 45.527344 41.121094 45.632812 41.117188 45.734375 C 41.113281 45.769531 41.113281 45.804688 41.109375 45.835938 C 41.109375 45.859375 41.109375 45.878906 41.109375 45.898438 C 41.105469 45.925781 41.105469 45.949219 41.105469 45.976562 C 41.101562 46 41.101562 46.019531 41.101562 46.042969 C 41.097656 46.074219 41.097656 46.109375 41.09375 46.144531 C 41.089844 46.214844 41.085938 46.285156 41.082031 46.359375 C 41.078125 46.421875 41.074219 46.480469 41.066406 46.542969 C 41.066406 46.578125 41.0625 46.609375 41.058594 46.644531 C 41.058594 46.675781 41.054688 46.710938 41.050781 46.742188 C 41.046875 46.808594 41.042969 46.871094 41.035156 46.9375 C 41.03125 46.992188 41.023438 47.050781 41.019531 47.109375 C 41.011719 47.183594 41.003906 47.257812 40.996094 47.332031 C 40.984375 47.449219 40.96875 47.5625 40.957031 47.675781 C 40.953125 47.691406 40.953125 47.707031 40.949219 47.722656 C 40.941406 47.777344 40.9375 47.828125 40.929688 47.878906 C 40.902344 48.09375 40.871094 48.300781 40.839844 48.503906 C 40.835938 48.53125 40.832031 48.5625 40.824219 48.589844 C 40.800781 48.753906 40.773438 48.910156 40.746094 49.066406 C 40.738281 49.09375 40.734375 49.121094 40.730469 49.152344 C 40.726562 49.160156 40.726562 49.171875 40.722656 49.179688 C 40.71875 49.207031 40.714844 49.234375 40.707031 49.261719 C 40.671875 49.457031 40.632812 49.644531 40.59375 49.824219 C 40.585938 49.863281 40.578125 49.902344 40.570312 49.9375 C 40.546875 50.050781 40.519531 50.164062 40.496094 50.273438 C 40.484375 50.316406 40.472656 50.359375 40.464844 50.402344 C 40.457031 50.433594 40.449219 50.460938 40.441406 50.492188 C 40.429688 50.539062 40.417969 50.589844 40.40625 50.636719 C 40.402344 50.660156 40.394531 50.679688 40.390625 50.703125 C 40.382812 50.726562 40.378906 50.75 40.371094 50.773438 C 40.367188 50.796875 40.359375 50.820312 40.355469 50.84375 C 40.335938 50.910156 40.320312 50.976562 40.300781 51.042969 C 40.289062 51.085938 40.277344 51.128906 40.265625 51.171875 C 40.265625 51.175781 40.261719 51.183594 40.261719 51.191406 C 40.242188 51.269531 40.21875 51.34375 40.199219 51.417969 C 40.179688 51.476562 40.164062 51.539062 40.144531 51.59375 C 40.136719 51.625 40.128906 51.65625 40.121094 51.683594 C 40.0625 51.875 40.007812 52.050781 39.953125 52.210938 C 39.949219 52.222656 39.945312 52.238281 39.9375 52.253906 C 39.925781 52.289062 39.914062 52.324219 39.90625 52.359375 C 39.898438 52.382812 39.890625 52.402344 39.882812 52.421875 C 39.871094 52.453125 39.863281 52.484375 39.851562 52.511719 C 39.84375 52.53125 39.839844 52.550781 39.832031 52.570312 C 39.792969 52.679688 39.757812 52.777344 39.726562 52.859375 C 39.71875 52.882812 39.707031 52.902344 39.699219 52.925781 C 39.664062 53.019531 39.636719 53.085938 39.621094 53.121094 L 39.617188 53.136719 C 39.613281 53.144531 39.609375 53.152344 39.609375 53.152344 L 35.667969 53.152344 C 35.667969 53.152344 35.664062 53.148438 35.652344 53.144531 L 35.644531 53.140625 C 35.601562 53.125 35.511719 53.09375 35.382812 53.046875 C 35.371094 53.042969 35.359375 53.039062 35.347656 53.035156 C 35.328125 53.027344 35.304688 53.019531 35.277344 53.007812 C 35.265625 53.003906 35.253906 53 35.238281 52.996094 C 35.207031 52.984375 35.175781 52.972656 35.140625 52.960938 C 35.125 52.953125 35.105469 52.945312 35.085938 52.9375 C 34.921875 52.878906 34.730469 52.808594 34.511719 52.726562 C 34.496094 52.71875 34.480469 52.714844 34.464844 52.707031 C 34.449219 52.703125 34.433594 52.695312 34.414062 52.6875 C 34.394531 52.679688 34.375 52.671875 34.351562 52.664062 C 34.292969 52.644531 34.234375 52.621094 34.175781 52.597656 C 34.15625 52.589844 34.140625 52.585938 34.125 52.578125 C 33.3125 52.269531 32.253906 51.855469 31.101562 51.375 C 31.054688 51.355469 31.011719 51.335938 30.964844 51.320312 C 30.652344 51.1875 30.332031 51.050781 30.011719 50.910156 C 29.945312 50.882812 29.875 50.855469 29.808594 50.824219 C 29.507812 50.691406 29.203125 50.554688 28.898438 50.417969 C 28.867188 50.402344 28.832031 50.386719 28.796875 50.371094 C 28.460938 50.21875 28.125 50.0625 27.792969 49.902344 C 27.726562 49.871094 27.660156 49.839844 27.597656 49.808594 C 27.53125 49.773438 27.464844 49.742188 27.398438 49.710938 C 27.367188 49.695312 27.335938 49.679688 27.300781 49.664062 C 27.042969 49.535156 26.785156 49.40625 26.535156 49.273438 C 26.503906 49.257812 26.472656 49.242188 26.445312 49.226562 C 26.320312 49.160156 26.195312 49.09375 26.078125 49.03125 C 23.835938 47.816406 22.230469 46.585938 22.738281 45.71875 C 23.015625 45.242188 23.230469 44.511719 23.390625 43.652344 C 23.859375 43.773438 24.566406 43.945312 25.441406 44.136719 C 29.207031 44.957031 36.125 46.125 41.132812 45.003906 " fill-opacity="1" fill-rule="nonzero"/><path fill="#e28d6c" d="M 38.917969 35.890625 C 38.871094 35.890625 38.824219 35.867188 38.800781 35.824219 C 38.019531 34.496094 36.988281 33.214844 36.980469 33.199219 C 36.929688 33.140625 36.941406 33.054688 37 33.003906 C 37.058594 32.957031 37.144531 32.964844 37.195312 33.027344 C 37.167969 32.996094 38.222656 34.296875 39.039062 35.683594 C 39.078125 35.746094 39.054688 35.832031 38.988281 35.871094 C 38.96875 35.886719 38.941406 35.890625 38.917969 35.890625 " fill-opacity="1" fill-rule="nonzero"/><path fill="#e28d6c" d="M 54.753906 27.101562 C 54.742188 27.101562 54.730469 27.101562 54.71875 27.097656 C 54.644531 27.078125 54.601562 27.003906 54.621094 26.929688 C 55.015625 25.445312 54.234375 24.308594 54.226562 24.296875 C 54.183594 24.234375 54.199219 24.148438 54.261719 24.105469 C 54.324219 24.058594 54.410156 24.074219 54.453125 24.136719 C 54.488281 24.1875 55.316406 25.394531 54.886719 27 C 54.871094 27.0625 54.816406 27.101562 54.753906 27.101562 " fill-opacity="1" fill-rule="nonzero"/><path fill="#e28d6c" d="M 5.207031 30.023438 C 5.152344 30.023438 5.101562 29.992188 5.082031 29.9375 C 4.441406 28.441406 5.054688 27.039062 5.082031 26.980469 C 5.113281 26.910156 5.195312 26.878906 5.265625 26.910156 C 5.335938 26.941406 5.363281 27.023438 5.332031 27.09375 C 5.328125 27.105469 4.746094 28.445312 5.335938 29.828125 C 5.363281 29.898438 5.332031 29.980469 5.261719 30.011719 C 5.246094 30.019531 5.226562 30.023438 5.207031 30.023438 " fill-opacity="1" fill-rule="nonzero"/><path fill="#faba97" d="M 37.375 51.386719 C 37.375 51.386719 24.914062 42.320312 20.199219 46.355469 C 20.199219 46.355469 18.390625 48.226562 18.742188 51.386719 C 19.089844 54.542969 20.839844 55.539062 24.855469 54.894531 C 28.875 54.253906 36.007812 55.082031 36.007812 55.082031 L 37.375 51.386719 " fill-opacity="1" fill-rule="nonzero"/><g clip-path="url(#7482454af0)"><path fill="#faba97" d="M 49.082031 54.195312 C 47.179688 55.199219 40.988281 56.007812 38.949219 55.949219 C 38.949219 55.949219 37.9375 56.523438 37.726562 56.824219 C 37.523438 57.117188 36.878906 57.210938 36.199219 57.007812 C 35.710938 56.859375 35.199219 56.558594 34.8125 56.066406 C 33.886719 54.878906 33.765625 54.195312 33.183594 53.375 C 33.183594 53.375 29.863281 50.273438 35.746094 50.859375 C 35.746094 50.859375 39.714844 49.527344 39.738281 49.433594 C 39.757812 49.339844 38.832031 47.292969 40.578125 46.121094 C 42.324219 44.953125 46.519531 42.261719 50.011719 44.542969 C 50.5625 44.902344 50.988281 45.351562 51.296875 45.863281 C 52.957031 48.574219 51.417969 52.957031 49.082031 54.195312 " fill-opacity="1" fill-rule="nonzero"/></g><path fill="#e28d6c" d="M 35.921875 50.917969 C 35.871094 50.917969 35.824219 50.882812 35.808594 50.832031 C 35.789062 50.769531 35.828125 50.707031 35.890625 50.6875 C 38.445312 49.96875 40.488281 48.859375 41.753906 48.058594 C 43.144531 47.175781 43.933594 46.449219 43.90625 46.476562 C 43.953125 46.429688 44.027344 46.433594 44.070312 46.480469 C 44.113281 46.53125 44.113281 46.605469 44.0625 46.648438 C 44.054688 46.65625 43.269531 47.375 41.882812 48.253906 C 40.605469 49.066406 38.535156 50.183594 35.953125 50.914062 C 35.941406 50.917969 35.929688 50.917969 35.921875 50.917969 " fill-opacity="1" fill-rule="nonzero"/><path fill="#e28d6c" d="M 33.953125 54.859375 C 33.902344 54.859375 33.851562 54.824219 33.839844 54.769531 C 33.722656 54.265625 33.164062 53.539062 33.097656 53.457031 C 31.90625 52.40625 32.152344 51.503906 32.136719 51.5625 L 32.140625 51.546875 L 32.148438 51.535156 C 32.464844 50.957031 33.117188 50.632812 34.03125 50.59375 C 34.707031 50.566406 35.285156 50.699219 35.308594 50.707031 C 35.371094 50.722656 35.410156 50.785156 35.394531 50.847656 C 35.378906 50.910156 35.316406 50.949219 35.253906 50.933594 C 35.230469 50.929688 33.046875 50.429688 32.359375 51.632812 C 32.34375 51.730469 32.277344 52.425781 33.261719 53.285156 L 33.269531 53.292969 L 33.273438 53.300781 C 33.300781 53.335938 33.929688 54.132812 34.066406 54.714844 C 34.082031 54.777344 34.042969 54.839844 33.980469 54.855469 C 33.972656 54.859375 33.960938 54.859375 33.953125 54.859375 " fill-opacity="1" fill-rule="nonzero"/><path fill="#211d1d" d="M 26.78125 19.695312 C 26.78125 20.523438 26.207031 21.191406 25.503906 21.191406 C 24.796875 21.1875 24.226562 20.519531 24.230469 19.691406 C 24.230469 18.867188 24.800781 18.199219 25.507812 18.199219 C 26.210938 18.203125 26.78125 18.871094 26.78125 19.695312 " fill-opacity="1" fill-rule="nonzero"/><path fill="#211d1d" d="M 38.3125 19.246094 C 38.3125 20.070312 37.738281 20.738281 37.035156 20.738281 C 36.332031 20.738281 35.761719 20.066406 35.761719 19.242188 C 35.761719 18.417969 36.335938 17.75 37.039062 17.75 C 37.746094 17.75 38.316406 18.421875 38.3125 19.246094 " fill-opacity="1" fill-rule="nonzero"/><path fill="#ffffff" d="M 34.699219 23.351562 C 34.832031 24.335938 33.109375 25.363281 32.25 25.371094 C 31.394531 25.382812 29.402344 24.484375 29.253906 23.414062 C 29.195312 22.972656 29.519531 22.613281 29.988281 22.605469 L 33.746094 22.5625 C 34.210938 22.554688 34.636719 22.910156 34.699219 23.351562 " fill-opacity="1" fill-rule="nonzero"/><path fill="#875b4f" d="M 26.207031 7.445312 C 26.207031 7.445312 23.992188 12.410156 25.796875 12.023438 C 25.796875 12.023438 27.792969 12.007812 29.265625 8.757812 C 29.265625 8.757812 28.140625 11.9375 29.265625 12.023438 C 30.386719 12.109375 32.015625 11.4375 32.941406 8.660156 C 32.941406 8.660156 32.011719 11.800781 32.824219 12.117188 C 33.640625 12.429688 35.089844 12.527344 36.484375 7.949219 C 36.484375 7.949219 29.808594 3.832031 26.207031 7.445312 " fill-opacity="1" fill-rule="nonzero"/><path fill="#f14b93" d="M 17.839844 19.246094 C 17.839844 19.246094 19.375 6.5625 31.980469 7.074219 C 31.980469 7.074219 38.679688 7.378906 41.046875 12.460938 C 41.046875 12.460938 40.386719 4.40625 27.363281 6.152344 C 27.363281 6.152344 17.640625 7.117188 17.839844 19.246094 " fill-opacity="1" fill-rule="nonzero"/><path fill="#f14b93" d="M 22.972656 7.40625 C 22.972656 7.40625 20.203125 6.035156 17.332031 8.578125 L 20.5 11.167969 L 23.671875 8.421875 L 22.972656 7.40625 " fill-opacity="1" fill-rule="nonzero"/><path fill="#f03b8a" d="M 17.503906 8.574219 L 20.496094 11.027344 L 23.527344 8.402344 L 22.898438 7.492188 C 22.761719 7.433594 22.074219 7.144531 21.105469 7.144531 C 19.820312 7.144531 18.609375 7.625 17.503906 8.574219 Z M 20.5 11.277344 C 20.472656 11.277344 20.449219 11.269531 20.429688 11.253906 L 17.265625 8.660156 C 17.238281 8.640625 17.226562 8.609375 17.222656 8.578125 C 17.222656 8.546875 17.238281 8.515625 17.261719 8.496094 C 17.902344 7.925781 18.59375 7.503906 19.3125 7.246094 C 19.894531 7.035156 20.5 6.925781 21.105469 6.925781 C 22.238281 6.925781 22.988281 7.292969 23.019531 7.308594 C 23.035156 7.316406 23.050781 7.328125 23.0625 7.34375 L 23.761719 8.359375 C 23.792969 8.40625 23.785156 8.46875 23.746094 8.503906 L 20.570312 11.253906 C 20.550781 11.269531 20.523438 11.277344 20.5 11.277344 " fill-opacity="1" fill-rule="nonzero"/><path fill="#f255a1" d="M 23.089844 7.578125 C 23.089844 7.578125 19.132812 8.992188 16.945312 11.167969 L 20.503906 13.554688 L 23.671875 8.421875 L 23.089844 7.578125 " fill-opacity="1" fill-rule="nonzero"/><path fill="#f03b8a" d="M 17.117188 11.152344 L 20.46875 13.402344 L 23.542969 8.425781 L 23.046875 7.707031 C 22.492188 7.917969 19.109375 9.234375 17.117188 11.152344 Z M 20.503906 13.664062 C 20.480469 13.664062 20.460938 13.660156 20.441406 13.644531 L 16.886719 11.261719 C 16.859375 11.242188 16.84375 11.214844 16.839844 11.179688 C 16.835938 11.148438 16.847656 11.117188 16.871094 11.09375 C 18.007812 9.957031 19.628906 9.03125 20.789062 8.457031 C 22.042969 7.835938 23.042969 7.476562 23.054688 7.472656 C 23.097656 7.457031 23.152344 7.472656 23.179688 7.515625 L 23.761719 8.359375 C 23.789062 8.394531 23.789062 8.441406 23.765625 8.480469 L 20.59375 13.613281 C 20.578125 13.636719 20.554688 13.65625 20.527344 13.660156 C 20.519531 13.664062 20.511719 13.664062 20.503906 13.664062 " fill-opacity="1" fill-rule="nonzero"/><g clip-path="url(#fe2d50747b)"><path fill="#f14b93" d="M 24.171875 7.21875 C 24.171875 7.21875 24.8125 4.078125 28.476562 3.226562 L 28.523438 7.441406 L 24.515625 8.421875 L 24.171875 7.21875 " fill-opacity="1" fill-rule="nonzero"/><path fill="#f03b8a" d="M 24.285156 7.21875 L 24.589844 8.289062 L 28.414062 7.355469 L 28.371094 3.367188 C 26.597656 3.816406 25.585938 4.820312 25.042969 5.597656 C 24.503906 6.375 24.316406 7.078125 24.285156 7.21875 Z M 24.515625 8.53125 C 24.46875 8.53125 24.425781 8.5 24.410156 8.449219 L 24.066406 7.25 C 24.0625 7.234375 24.0625 7.214844 24.066406 7.199219 C 24.070312 7.164062 24.238281 6.378906 24.859375 5.480469 C 25.226562 4.953125 25.675781 4.496094 26.195312 4.121094 C 26.84375 3.65625 27.601562 3.320312 28.453125 3.121094 C 28.484375 3.113281 28.519531 3.121094 28.542969 3.140625 C 28.570312 3.164062 28.585938 3.195312 28.585938 3.226562 L 28.632812 7.4375 C 28.632812 7.488281 28.601562 7.535156 28.550781 7.546875 L 24.542969 8.527344 C 24.53125 8.527344 24.523438 8.53125 24.515625 8.53125 " fill-opacity="1" fill-rule="nonzero"/></g><path fill="#f255a1" d="M 24.230469 7.421875 C 24.230469 7.421875 27.703125 4.980469 30.679688 4.476562 L 30.332031 8.890625 L 24.515625 8.421875 L 24.230469 7.421875 " fill-opacity="1" fill-rule="nonzero"/><path fill="#f03b8a" d="M 24.597656 8.316406 L 30.230469 8.773438 L 30.558594 4.609375 C 27.890625 5.113281 24.832031 7.140625 24.355469 7.46875 Z M 30.332031 9 L 30.324219 9 L 24.507812 8.53125 C 24.460938 8.527344 24.425781 8.496094 24.410156 8.449219 L 24.125 7.453125 C 24.113281 7.40625 24.128906 7.359375 24.167969 7.332031 C 24.175781 7.328125 25.054688 6.710938 26.285156 6.042969 C 27.425781 5.425781 29.109375 4.632812 30.660156 4.371094 C 30.695312 4.363281 30.726562 4.375 30.753906 4.398438 C 30.777344 4.421875 30.789062 4.453125 30.785156 4.488281 L 30.441406 8.898438 C 30.4375 8.925781 30.425781 8.953125 30.402344 8.972656 C 30.382812 8.992188 30.355469 9 30.332031 9 " fill-opacity="1" fill-rule="nonzero"/><path fill="#f255a1" d="M 24.976562 7.546875 C 25.261719 8.179688 24.90625 8.984375 24.1875 9.339844 C 23.464844 9.691406 22.652344 9.46875 22.367188 8.835938 C 22.085938 8.203125 22.4375 7.402344 23.160156 7.046875 C 23.878906 6.691406 24.695312 6.914062 24.976562 7.546875 " fill-opacity="1" fill-rule="nonzero"/><path fill="#f03b8a" d="M 23.863281 6.984375 C 23.640625 6.984375 23.414062 7.039062 23.207031 7.144531 C 22.539062 7.472656 22.207031 8.210938 22.46875 8.789062 C 22.636719 9.164062 23.023438 9.398438 23.484375 9.398438 C 23.703125 9.398438 23.929688 9.34375 24.140625 9.238281 C 24.808594 8.910156 25.140625 8.171875 24.878906 7.59375 C 24.710938 7.21875 24.320312 6.984375 23.863281 6.984375 Z M 23.484375 9.617188 C 22.9375 9.617188 22.472656 9.332031 22.269531 8.878906 C 21.960938 8.195312 22.339844 7.328125 23.113281 6.945312 C 23.351562 6.828125 23.609375 6.769531 23.863281 6.769531 C 24.410156 6.769531 24.875 7.050781 25.078125 7.503906 C 25.382812 8.1875 25.007812 9.054688 24.234375 9.4375 C 23.996094 9.554688 23.738281 9.617188 23.484375 9.617188 " fill-opacity="1" fill-rule="nonzero"/><path fill="#f03b8a" d="M 20.351562 10.675781 C 20.332031 10.675781 20.308594 10.667969 20.289062 10.65625 C 20.242188 10.625 20.226562 10.554688 20.261719 10.503906 C 20.789062 9.710938 22.210938 8.835938 22.273438 8.796875 C 22.324219 8.765625 22.390625 8.78125 22.421875 8.832031 C 22.453125 8.886719 22.4375 8.953125 22.386719 8.984375 C 22.371094 8.992188 20.941406 9.871094 20.441406 10.625 C 20.421875 10.65625 20.386719 10.675781 20.351562 10.675781 " fill-opacity="1" fill-rule="nonzero"/><path fill="#f03b8a" d="M 25.117188 7.6875 C 25.070312 7.6875 25.027344 7.65625 25.011719 7.609375 C 24.992188 7.550781 25.027344 7.488281 25.082031 7.472656 C 25.136719 7.457031 26.40625 7.066406 27.234375 7.144531 C 27.292969 7.152344 27.339844 7.203125 27.332031 7.265625 C 27.328125 7.324219 27.273438 7.367188 27.214844 7.363281 C 26.429688 7.289062 25.160156 7.675781 25.148438 7.679688 C 25.136719 7.683594 25.125 7.6875 25.117188 7.6875 " fill-opacity="1" fill-rule="nonzero"/></svg>