<svg xmlns="http://www.w3.org/2000/svg" xmlns:xlink="http://www.w3.org/1999/xlink" width="416" zoomAndPan="magnify" viewBox="0 0 312 311.999988" height="416" preserveAspectRatio="xMidYMid meet" version="1.0"><rect x="-31.2" width="374.4" fill="#ffffff" y="-31.199999" height="374.399986" fill-opacity="1"/><rect x="-31.2" width="374.4" fill="#ffffff" y="-31.199999" height="374.399986" fill-opacity="1"/><rect x="-31.2" width="374.4" fill="#ffffff" y="-31.199999" height="374.399986" fill-opacity="1"/><path fill="#493b34" d="M 311.976562 135.210938 L 311.976562 289.804688 C 311.976562 290.71875 311.238281 291.457031 310.324219 291.457031 L 286.832031 291.457031 C 285.898438 297.945312 280.636719 303.066406 273.949219 303.824219 C 271.453125 308.75 266.414062 311.882812 260.832031 311.882812 C 256.835938 311.882812 253.097656 310.300781 250.34375 307.488281 C 247.59375 310.300781 243.871094 311.882812 239.863281 311.882812 C 236.535156 311.882812 233.355469 310.773438 230.773438 308.738281 C 228.386719 310.308594 225.566406 311.164062 222.691406 311.164062 C 219.492188 311.164062 216.414062 310.128906 213.882812 308.230469 C 211.351562 310.132812 208.273438 311.164062 205.074219 311.164062 C 201.363281 311.164062 197.828125 309.765625 195.128906 307.285156 C 192.429688 309.765625 188.898438 311.164062 185.1875 311.164062 C 181.234375 311.164062 177.445312 309.542969 174.703125 306.757812 C 171.957031 309.542969 168.167969 311.164062 164.214844 311.164062 C 158.367188 311.164062 153.074219 307.65625 150.75 302.351562 C 144.65625 301.632812 139.757812 297.230469 138.265625 291.457031 L 7.28125 291.457031 C 6.371094 291.457031 5.628906 290.71875 5.628906 289.804688 L 5.628906 82.898438 L 1.652344 82.898438 C 0.738281 82.898438 0 82.15625 0 81.246094 L 0 1.738281 C 0 0.828125 0.738281 0.0859375 1.652344 0.0859375 L 180.71875 0.0859375 C 181.632812 0.0859375 182.371094 0.828125 182.371094 1.738281 L 182.371094 81.246094 C 182.371094 82.15625 181.632812 82.898438 180.71875 82.898438 L 176.742188 82.898438 L 176.742188 133.558594 L 310.324219 133.558594 C 311.238281 133.558594 311.976562 134.296875 311.976562 135.210938 Z M 311.976562 135.210938 " fill-opacity="1" fill-rule="nonzero"/><path fill="#e2b384" d="M 118.304688 85.917969 C 118.304688 100.871094 106.140625 113.035156 91.183594 113.035156 C 76.230469 113.035156 64.066406 100.871094 64.066406 85.917969 C 64.066406 84.894531 64.128906 83.890625 64.238281 82.898438 L 8.933594 82.898438 L 8.933594 288.152344 L 67.492188 288.152344 L 67.492188 248.96875 C 67.492188 248.058594 68.230469 247.316406 69.144531 247.316406 L 113.222656 247.316406 C 114.136719 247.316406 114.875 248.058594 114.875 248.96875 L 114.875 288.152344 L 137.804688 288.152344 C 137.800781 288.023438 137.796875 287.890625 137.796875 287.757812 C 137.796875 280.4375 143.171875 274.355469 150.179688 273.238281 C 151.519531 268.960938 154.777344 265.582031 158.839844 263.960938 L 127.171875 263.960938 C 126.257812 263.960938 125.519531 263.222656 125.519531 262.308594 L 125.519531 248.335938 C 125.519531 247.425781 126.257812 246.683594 127.171875 246.683594 L 162.496094 246.683594 C 163.410156 246.683594 164.148438 247.421875 164.148438 248.335938 L 164.148438 262.308594 C 164.148438 262.527344 164.105469 262.730469 164.03125 262.921875 C 164.09375 262.921875 164.152344 262.914062 164.214844 262.914062 C 167.707031 262.914062 170.914062 264.136719 173.4375 266.175781 L 173.4375 82.898438 L 118.132812 82.898438 C 118.242188 83.890625 118.304688 84.894531 118.304688 85.917969 Z M 27.824219 124 C 27.824219 123.089844 28.566406 122.347656 29.476562 122.347656 L 50.085938 122.347656 C 51 122.347656 51.738281 123.089844 51.738281 124 L 51.738281 144.609375 C 51.738281 145.519531 51 146.261719 50.085938 146.261719 L 29.476562 146.261719 C 28.566406 146.261719 27.824219 145.519531 27.824219 144.609375 Z M 27.824219 168.628906 C 27.824219 167.71875 28.566406 166.976562 29.476562 166.976562 L 50.085938 166.976562 C 51 166.976562 51.738281 167.714844 51.738281 168.628906 L 51.738281 189.238281 C 51.738281 190.148438 51 190.886719 50.085938 190.886719 L 29.476562 190.886719 C 28.566406 190.886719 27.824219 190.148438 27.824219 189.238281 Z M 27.824219 210.300781 C 27.824219 209.386719 28.566406 208.648438 29.476562 208.648438 L 50.085938 208.648438 C 51 208.648438 51.738281 209.386719 51.738281 210.300781 L 51.738281 230.90625 C 51.738281 231.820312 51 232.558594 50.085938 232.558594 L 29.476562 232.558594 C 28.566406 232.558594 27.824219 231.820312 27.824219 230.90625 Z M 58.300781 262.308594 C 58.300781 263.222656 57.558594 263.960938 56.648438 263.960938 L 21.320312 263.960938 C 20.40625 263.960938 19.667969 263.222656 19.667969 262.308594 L 19.667969 248.335938 C 19.667969 247.425781 20.40625 246.683594 21.320312 246.683594 L 56.648438 246.683594 C 57.558594 246.683594 58.300781 247.421875 58.300781 248.335938 Z M 103.140625 230.90625 C 103.140625 231.820312 102.402344 232.558594 101.488281 232.558594 L 80.882812 232.558594 C 79.96875 232.558594 79.230469 231.820312 79.230469 230.90625 L 79.230469 210.300781 C 79.230469 209.386719 79.96875 208.648438 80.882812 208.648438 L 101.488281 208.648438 C 102.402344 208.648438 103.140625 209.386719 103.140625 210.300781 Z M 103.140625 189.238281 C 103.140625 190.148438 102.402344 190.886719 101.488281 190.886719 L 80.882812 190.886719 C 79.96875 190.886719 79.230469 190.148438 79.230469 189.238281 L 79.230469 168.628906 C 79.230469 167.71875 79.96875 166.976562 80.882812 166.976562 L 101.488281 166.976562 C 102.402344 166.976562 103.140625 167.714844 103.140625 168.628906 Z M 103.140625 144.609375 C 103.140625 145.519531 102.402344 146.261719 101.488281 146.261719 L 80.882812 146.261719 C 79.96875 146.261719 79.230469 145.519531 79.230469 144.609375 L 79.230469 124 C 79.230469 123.089844 79.96875 122.347656 80.882812 122.347656 L 101.488281 122.347656 C 102.402344 122.347656 103.140625 123.089844 103.140625 124 Z M 130.632812 124 C 130.632812 123.089844 131.371094 122.347656 132.285156 122.347656 L 152.890625 122.347656 C 153.804688 122.347656 154.542969 123.089844 154.542969 124 L 154.542969 144.609375 C 154.542969 145.519531 153.804688 146.261719 152.890625 146.261719 L 132.285156 146.261719 C 131.371094 146.261719 130.632812 145.519531 130.632812 144.609375 Z M 130.632812 168.628906 C 130.632812 167.71875 131.371094 166.976562 132.285156 166.976562 L 152.890625 166.976562 C 153.804688 166.976562 154.542969 167.714844 154.542969 168.628906 L 154.542969 189.238281 C 154.542969 190.148438 153.804688 190.886719 152.890625 190.886719 L 132.285156 190.886719 C 131.371094 190.886719 130.632812 190.148438 130.632812 189.238281 Z M 130.632812 210.300781 C 130.632812 209.386719 131.371094 208.648438 132.285156 208.648438 L 152.890625 208.648438 C 153.804688 208.648438 154.542969 209.386719 154.542969 210.300781 L 154.542969 230.90625 C 154.542969 231.820312 153.804688 232.558594 152.890625 232.558594 L 132.285156 232.558594 C 131.371094 232.558594 130.632812 231.820312 130.632812 230.90625 Z M 176.742188 216.367188 L 176.742188 265.597656 C 179.191406 263.878906 182.140625 262.914062 185.1875 262.914062 C 189.015625 262.914062 192.507812 264.386719 195.125 266.792969 C 197.828125 264.316406 201.378906 262.914062 205.074219 262.914062 C 208.375 262.914062 211.421875 264.007812 213.878906 265.847656 C 216.410156 263.949219 219.492188 262.914062 222.691406 262.914062 C 226.117188 262.914062 229.269531 264.09375 231.769531 266.066406 C 234.160156 264.492188 236.984375 263.632812 239.863281 263.632812 C 243.960938 263.632812 247.671875 265.320312 250.339844 268.035156 C 253.09375 265.21875 256.832031 263.632812 260.832031 263.632812 C 262.355469 263.632812 263.832031 263.875 265.226562 264.320312 L 265.226562 216.367188 Z M 250.59375 248.289062 C 250.59375 249.203125 249.855469 249.941406 248.941406 249.941406 L 191.96875 249.941406 C 191.054688 249.941406 190.316406 249.203125 190.316406 248.289062 L 190.316406 234.671875 C 190.316406 233.761719 191.054688 233.019531 191.96875 233.019531 L 248.941406 233.019531 C 249.855469 233.019531 250.59375 233.757812 250.59375 234.671875 Z M 250.59375 248.289062 " fill-opacity="1" fill-rule="nonzero"/><path fill="#e35e5e" d="M 114.601562 72.261719 C 109.894531 64.214844 101.164062 58.796875 91.183594 58.796875 C 81.207031 58.796875 72.476562 64.214844 67.769531 72.261719 C 69.804688 61.183594 79.527344 52.757812 91.183594 52.757812 C 102.84375 52.757812 112.566406 61.183594 114.601562 72.261719 Z M 115 85.917969 C 115 99.046875 104.316406 109.730469 91.183594 109.730469 C 78.054688 109.730469 67.371094 99.046875 67.371094 85.917969 C 67.371094 72.785156 78.054688 62.101562 91.183594 62.101562 C 104.316406 62.101562 115 72.785156 115 85.917969 Z M 97.578125 71.78125 C 97.578125 70.867188 96.839844 70.128906 95.925781 70.128906 L 86.441406 70.128906 C 85.53125 70.128906 84.789062 70.867188 84.789062 71.78125 L 84.789062 80.496094 L 76.078125 80.496094 C 75.164062 80.496094 74.425781 81.234375 74.425781 82.148438 L 74.425781 91.632812 C 74.425781 92.542969 75.164062 93.285156 76.078125 93.285156 L 84.789062 93.285156 L 84.789062 101.996094 C 84.789062 102.910156 85.53125 103.648438 86.441406 103.648438 L 95.925781 103.648438 C 96.839844 103.648438 97.578125 102.910156 97.578125 101.996094 L 97.578125 93.285156 L 106.292969 93.285156 C 107.207031 93.285156 107.945312 92.542969 107.945312 91.632812 L 107.945312 82.148438 C 107.945312 81.234375 107.207031 80.496094 106.292969 80.496094 L 97.578125 80.496094 Z M 97.578125 71.78125 " fill-opacity="1" fill-rule="nonzero"/><path fill="#ced5cd" d="M 169.722656 62.3125 L 114.238281 62.3125 C 109.449219 54.601562 100.910156 49.453125 91.183594 49.453125 C 81.460938 49.453125 72.917969 54.601562 68.132812 62.3125 L 12.644531 62.3125 L 12.644531 12.734375 L 169.722656 12.734375 Z M 179.066406 11.332031 L 179.066406 3.390625 L 3.304688 3.390625 L 3.304688 71.652344 L 64.519531 71.652344 C 64.910156 69.546875 65.539062 67.523438 66.386719 65.617188 L 10.992188 65.617188 C 10.082031 65.617188 9.339844 64.875 9.339844 63.964844 L 9.339844 11.082031 C 9.339844 10.167969 10.082031 9.429688 10.992188 9.429688 L 171.375 9.429688 C 172.289062 9.429688 173.027344 10.167969 173.027344 11.082031 L 173.027344 63.964844 C 173.027344 64.875 172.289062 65.617188 171.375 65.617188 L 115.984375 65.617188 C 116.828125 67.523438 117.460938 69.546875 117.847656 71.652344 L 179.066406 71.652344 Z M 88.09375 73.433594 L 88.09375 82.148438 C 88.09375 83.058594 87.355469 83.800781 86.441406 83.800781 L 77.730469 83.800781 L 77.730469 89.980469 L 86.441406 89.980469 C 87.355469 89.980469 88.09375 90.71875 88.09375 91.632812 L 88.09375 100.34375 L 94.273438 100.34375 L 94.273438 91.632812 C 94.273438 90.71875 95.015625 89.980469 95.925781 89.980469 L 104.640625 89.980469 L 104.640625 83.800781 L 95.925781 83.800781 C 95.015625 83.800781 94.273438 83.058594 94.273438 82.148438 L 94.273438 73.433594 Z M 64.117188 74.957031 L 3.304688 74.957031 L 3.304688 79.59375 L 64.238281 79.59375 C 64.125 78.601562 64.066406 77.597656 64.066406 76.574219 C 64.066406 76.03125 64.085938 75.492188 64.117188 74.957031 Z M 179.066406 74.957031 L 118.253906 74.957031 C 118.285156 75.492188 118.304688 76.03125 118.304688 76.574219 C 118.304688 77.597656 118.242188 78.601562 118.132812 79.59375 L 179.066406 79.59375 Z M 176.742188 211.953125 L 176.742188 213.0625 L 308.671875 213.0625 L 308.671875 208.425781 L 176.742188 208.425781 Z M 176.742188 136.863281 L 176.742188 205.125 L 308.671875 205.125 L 308.671875 136.863281 Z M 303.023438 280.214844 L 308.671875 280.214844 L 308.671875 216.367188 L 303.023438 216.367188 Z M 285.75 283.515625 C 286.382812 284.957031 286.785156 286.515625 286.921875 288.152344 L 308.671875 288.152344 L 308.671875 283.515625 Z M 299.71875 216.367188 L 268.53125 216.367188 L 268.53125 265.847656 C 271.777344 267.863281 274.222656 271.113281 275.136719 274.972656 C 278.597656 275.660156 281.621094 277.5625 283.75 280.214844 L 299.71875 280.214844 Z M 31.128906 187.585938 L 48.433594 187.585938 L 48.433594 170.28125 L 31.128906 170.28125 Z M 31.128906 229.253906 L 48.433594 229.253906 L 48.433594 211.953125 L 31.128906 211.953125 Z M 22.972656 260.65625 L 54.996094 260.65625 L 54.996094 249.988281 L 22.972656 249.988281 Z M 193.621094 246.636719 L 247.289062 246.636719 L 247.289062 236.324219 L 193.621094 236.324219 Z M 99.835938 170.28125 L 82.535156 170.28125 L 82.535156 187.585938 L 99.835938 187.585938 Z M 48.433594 125.652344 L 31.128906 125.652344 L 31.128906 142.957031 L 48.433594 142.957031 Z M 70.796875 287.972656 L 89.535156 287.972656 L 89.535156 277.839844 L 84.636719 277.839844 C 83.722656 277.839844 82.984375 277.097656 82.984375 276.1875 L 82.984375 265.441406 C 82.984375 264.53125 83.722656 263.792969 84.636719 263.792969 L 89.535156 263.792969 L 89.535156 250.621094 L 70.796875 250.621094 Z M 133.9375 187.585938 L 151.238281 187.585938 L 151.238281 170.28125 L 133.9375 170.28125 Z M 151.238281 125.652344 L 133.9375 125.652344 L 133.9375 142.957031 L 151.238281 142.957031 Z M 82.535156 229.253906 L 99.835938 229.253906 L 99.835938 211.953125 L 82.535156 211.953125 Z M 133.9375 229.253906 L 151.238281 229.253906 L 151.238281 211.953125 L 133.9375 211.953125 Z M 128.824219 260.65625 L 160.847656 260.65625 L 160.847656 249.988281 L 128.824219 249.988281 Z M 99.835938 125.652344 L 82.535156 125.652344 L 82.535156 142.957031 L 99.835938 142.957031 Z M 92.835938 263.792969 L 97.734375 263.792969 C 98.648438 263.792969 99.386719 264.53125 99.386719 265.445312 L 99.386719 276.1875 C 99.386719 277.097656 98.648438 277.839844 97.734375 277.839844 L 92.835938 277.839844 L 92.835938 287.972656 L 111.574219 287.972656 L 111.574219 250.621094 L 92.835938 250.621094 Z M 92.835938 263.792969 " fill-opacity="1" fill-rule="nonzero"/><path fill="#94b453" d="M 92.835938 267.09375 L 96.082031 267.09375 L 96.082031 274.535156 L 92.835938 274.535156 Z M 86.289062 274.535156 L 89.53125 274.535156 L 89.53125 267.09375 L 86.289062 267.09375 Z M 272.277344 277.996094 C 269.992188 277.996094 267.789062 278.667969 265.90625 279.941406 C 265.148438 280.453125 264.121094 280.253906 263.613281 279.496094 C 263.101562 278.742188 263.300781 277.714844 264.054688 277.203125 C 266.308594 275.683594 268.917969 274.835938 271.628906 274.714844 C 270.089844 270.167969 265.753906 266.9375 260.832031 266.9375 C 257.585938 266.9375 254.5625 268.289062 252.402344 270.667969 C 253.773438 272.902344 254.566406 275.527344 254.566406 278.335938 C 254.566406 279.246094 253.824219 279.988281 252.914062 279.988281 C 252 279.988281 251.261719 279.246094 251.261719 278.335938 C 251.261719 272.050781 246.148438 266.9375 239.863281 266.9375 C 237.832031 266.9375 235.898438 267.460938 234.179688 268.457031 C 236.1875 270.972656 237.394531 274.15625 237.394531 277.617188 C 237.394531 278.527344 236.65625 279.269531 235.742188 279.269531 C 234.828125 279.269531 234.089844 278.527344 234.089844 277.617188 C 234.089844 271.332031 228.976562 266.21875 222.691406 266.21875 C 220.402344 266.21875 218.199219 266.910156 216.328125 268.171875 C 218.476562 270.726562 219.777344 274.023438 219.777344 277.617188 C 219.777344 278.527344 219.035156 279.269531 218.125 279.269531 C 217.210938 279.269531 216.472656 278.527344 216.472656 277.617188 C 216.472656 271.332031 211.359375 266.21875 205.074219 266.21875 C 202.179688 266.21875 199.398438 267.328125 197.296875 269.289062 C 198.929688 271.660156 199.890625 274.527344 199.890625 277.617188 C 199.890625 278.527344 199.148438 279.269531 198.238281 279.269531 C 197.324219 279.269531 196.585938 278.527344 196.585938 277.617188 C 196.585938 271.332031 191.472656 266.21875 185.1875 266.21875 C 181.925781 266.21875 178.914062 267.566406 176.757812 269.949219 C 178.125 272.183594 178.917969 274.808594 178.917969 277.617188 C 178.917969 278.527344 178.179688 279.269531 177.265625 279.269531 C 176.355469 279.269531 175.613281 278.53125 175.613281 277.617188 C 175.613281 271.332031 170.5 266.21875 164.214844 266.21875 C 159.640625 266.21875 155.527344 269.019531 153.75 273.113281 C 156.246094 273.324219 158.632812 274.160156 160.71875 275.566406 C 160.71875 275.570312 160.722656 275.570312 160.722656 275.570312 C 161.5 276.097656 162.230469 276.699219 162.894531 277.363281 C 163.539062 278.007812 163.539062 279.054688 162.894531 279.699219 C 162.570312 280.019531 162.148438 280.183594 161.726562 280.183594 C 161.300781 280.183594 160.878906 280.019531 160.558594 279.699219 C 160.042969 279.183594 159.472656 278.714844 158.871094 278.304688 C 156.984375 277.03125 154.78125 276.359375 152.496094 276.359375 C 146.210938 276.359375 141.101562 281.472656 141.101562 287.757812 C 141.101562 293.859375 145.871094 298.863281 151.960938 299.144531 C 152.578125 299.171875 153.089844 299.539062 153.351562 300.050781 C 153.382812 300.101562 153.402344 300.15625 153.429688 300.210938 C 153.429688 300.214844 153.433594 300.21875 153.4375 300.222656 C 153.457031 300.269531 153.480469 300.308594 153.5 300.355469 C 155.132812 304.84375 159.4375 307.863281 164.21875 307.863281 C 167.863281 307.863281 171.199219 306.179688 173.375 303.25 C 173.390625 303.230469 173.410156 303.214844 173.425781 303.195312 C 173.460938 303.152344 173.496094 303.113281 173.535156 303.074219 C 173.578125 303.03125 173.621094 302.988281 173.667969 302.953125 C 173.6875 302.9375 173.699219 302.921875 173.71875 302.90625 C 173.738281 302.890625 173.761719 302.882812 173.785156 302.867188 C 173.835938 302.832031 173.886719 302.800781 173.941406 302.773438 C 173.988281 302.75 174.03125 302.730469 174.078125 302.710938 C 174.128906 302.691406 174.179688 302.671875 174.234375 302.65625 C 174.285156 302.640625 174.335938 302.628906 174.386719 302.617188 C 174.4375 302.609375 174.492188 302.601562 174.542969 302.597656 C 174.597656 302.589844 174.648438 302.589844 174.703125 302.589844 C 174.753906 302.589844 174.808594 302.589844 174.859375 302.597656 C 174.914062 302.601562 174.964844 302.609375 175.015625 302.617188 C 175.066406 302.628906 175.121094 302.640625 175.171875 302.65625 C 175.222656 302.671875 175.273438 302.691406 175.324219 302.710938 C 175.371094 302.730469 175.417969 302.75 175.464844 302.773438 C 175.515625 302.800781 175.566406 302.832031 175.617188 302.867188 C 175.640625 302.882812 175.664062 302.890625 175.6875 302.910156 C 175.707031 302.921875 175.71875 302.941406 175.738281 302.953125 C 175.78125 302.992188 175.824219 303.03125 175.867188 303.074219 C 175.90625 303.113281 175.945312 303.152344 175.980469 303.195312 C 175.996094 303.214844 176.015625 303.230469 176.027344 303.25 C 178.203125 306.179688 181.542969 307.863281 185.1875 307.863281 C 188.535156 307.863281 191.699219 306.398438 193.871094 303.847656 C 194.425781 303.195312 195.382812 303.089844 196.070312 303.570312 C 196.105469 303.59375 196.144531 303.617188 196.175781 303.644531 C 196.183594 303.648438 196.191406 303.652344 196.199219 303.660156 C 196.226562 303.683594 196.246094 303.710938 196.273438 303.734375 C 196.3125 303.773438 196.359375 303.8125 196.398438 303.855469 C 198.570312 306.402344 201.734375 307.859375 205.074219 307.859375 C 207.929688 307.859375 210.664062 306.800781 212.765625 304.871094 C 212.789062 304.851562 212.816406 304.839844 212.839844 304.820312 C 212.886719 304.78125 212.933594 304.746094 212.980469 304.714844 C 213.023438 304.683594 213.066406 304.660156 213.113281 304.636719 C 213.164062 304.609375 213.214844 304.585938 213.265625 304.5625 C 213.3125 304.542969 213.363281 304.527344 213.410156 304.515625 C 213.464844 304.5 213.515625 304.484375 213.570312 304.472656 C 213.621094 304.464844 213.671875 304.457031 213.71875 304.453125 C 213.777344 304.449219 213.832031 304.445312 213.886719 304.445312 C 213.9375 304.445312 213.984375 304.445312 214.035156 304.453125 C 214.089844 304.457031 214.144531 304.464844 214.203125 304.476562 C 214.25 304.484375 214.296875 304.496094 214.34375 304.511719 C 214.398438 304.527344 214.453125 304.546875 214.503906 304.566406 C 214.554688 304.585938 214.597656 304.609375 214.644531 304.632812 C 214.691406 304.660156 214.742188 304.6875 214.789062 304.714844 C 214.832031 304.746094 214.878906 304.78125 214.921875 304.816406 C 214.945312 304.835938 214.972656 304.851562 214.996094 304.871094 C 217.101562 306.800781 219.835938 307.859375 222.691406 307.859375 C 225.316406 307.859375 227.785156 306.992188 229.828125 305.347656 C 229.839844 305.339844 229.851562 305.335938 229.863281 305.328125 C 229.921875 305.28125 229.984375 305.242188 230.050781 305.207031 C 230.082031 305.1875 230.113281 305.167969 230.144531 305.152344 C 230.207031 305.121094 230.273438 305.097656 230.335938 305.074219 C 230.375 305.0625 230.410156 305.050781 230.449219 305.039062 C 230.511719 305.023438 230.578125 305.011719 230.640625 305.003906 C 230.683594 305 230.722656 304.992188 230.765625 304.988281 C 230.828125 304.984375 230.890625 304.988281 230.953125 304.992188 C 230.996094 304.992188 231.039062 304.996094 231.082031 305 C 231.144531 305.007812 231.203125 305.023438 231.261719 305.039062 C 231.304688 305.050781 231.351562 305.058594 231.390625 305.074219 C 231.449219 305.089844 231.5 305.117188 231.554688 305.140625 C 231.601562 305.160156 231.644531 305.183594 231.6875 305.207031 C 231.734375 305.234375 231.78125 305.265625 231.828125 305.300781 C 231.871094 305.332031 231.914062 305.363281 231.957031 305.402344 C 231.972656 305.414062 231.988281 305.421875 232.003906 305.4375 C 234.132812 307.464844 236.921875 308.578125 239.863281 308.578125 C 243.480469 308.578125 246.804688 306.917969 248.980469 304.019531 C 249.53125 303.289062 250.566406 303.144531 251.292969 303.691406 C 251.328125 303.71875 251.351562 303.746094 251.382812 303.773438 C 251.546875 303.875 251.695312 304 251.820312 304.160156 C 254 306.96875 257.285156 308.578125 260.832031 308.578125 C 265.425781 308.578125 269.546875 305.847656 271.335938 301.617188 C 271.351562 301.582031 271.371094 301.558594 271.386719 301.527344 C 271.414062 301.46875 271.441406 301.414062 271.476562 301.363281 C 271.503906 301.316406 271.535156 301.28125 271.566406 301.238281 C 271.601562 301.195312 271.636719 301.152344 271.675781 301.113281 C 271.710938 301.074219 271.75 301.042969 271.789062 301.007812 C 271.832031 300.972656 271.871094 300.9375 271.917969 300.90625 C 271.960938 300.878906 272.003906 300.851562 272.046875 300.828125 C 272.097656 300.800781 272.144531 300.773438 272.195312 300.75 C 272.242188 300.730469 272.292969 300.714844 272.339844 300.699219 C 272.390625 300.679688 272.441406 300.664062 272.496094 300.652344 C 272.554688 300.636719 272.613281 300.632812 272.671875 300.625 C 272.707031 300.621094 272.742188 300.609375 272.78125 300.609375 C 278.890625 300.328125 283.675781 295.398438 283.675781 289.394531 C 283.675781 283.109375 278.5625 277.996094 272.277344 277.996094 Z M 272.277344 277.996094 " fill-opacity="1" fill-rule="nonzero"/></svg>