<svg xmlns="http://www.w3.org/2000/svg" xmlns:xlink="http://www.w3.org/1999/xlink" width="80" zoomAndPan="magnify" viewBox="0 0 60 60" height="80" preserveAspectRatio="xMidYMid meet" version="1.0"><defs><clipPath id="a738d1dbc7"><path d="M 10 23 L 60 23 L 60 57.601562 L 10 57.601562 Z M 10 23 " clip-rule="nonzero"/></clipPath></defs><g clip-path="url(#a738d1dbc7)"><path fill="#d6f0f0" d="M 15.148438 50.964844 C 15.761719 51.480469 16.441406 51.910156 17.195312 52.226562 C 20.289062 53.535156 23.65625 52.667969 26.886719 52.847656 C 29.855469 53.011719 32.898438 53.554688 35.621094 54.816406 C 39.109375 56.4375 43.015625 57.601562 46.785156 57.253906 C 48.089844 57.132812 49.359375 56.671875 50.582031 56.105469 C 52.085938 55.410156 53.558594 54.535156 54.753906 53.207031 C 56.703125 51.042969 56.449219 48.359375 57.671875 45.800781 C 58.648438 43.753906 60.257812 42.191406 61.855469 40.941406 C 63.242188 39.859375 65.285156 39.222656 66.457031 37.894531 C 69.007812 34.992188 68.726562 28.6875 67.140625 25.324219 C 66.90625 24.824219 66.625 24.332031 66.222656 24.027344 C 65.726562 23.65625 65.113281 23.621094 64.535156 23.671875 C 61.621094 23.925781 59 25.972656 56.808594 28.359375 C 54.617188 30.75 52.710938 33.53125 50.398438 35.746094 C 47.113281 38.890625 44.164062 39.078125 40.230469 39.0625 C 37.273438 39.054688 35.125 39.46875 32.359375 37.746094 C 31.351562 37.117188 30.40625 36.332031 29.359375 35.8125 C 27.550781 34.917969 25.972656 35.121094 24.121094 35.226562 C 18.351562 35.558594 8.894531 35.167969 11.269531 44.261719 C 11.933594 46.789062 13.191406 49.316406 15.148438 50.964844 " fill-opacity="1" fill-rule="nonzero"/></g><path fill="#d6f0f0" d="M 30.191406 48.402344 C 29.609375 48 29.03125 47.566406 28.453125 47.109375 C 25.722656 44.953125 22.101562 44.253906 18.753906 43.726562 C 14.582031 43.066406 10.085938 42.402344 7.054688 39.457031 C 5.789062 38.230469 5.199219 36.644531 4.125 35.304688 C 3.101562 34.015625 2.113281 33.175781 1.53125 31.527344 C 0.285156 28.007812 0.882812 23.894531 2.738281 20.703125 C 4.601562 17.496094 7.683594 15.449219 10.726562 13.488281 C 11.972656 12.6875 13.527344 12.09375 14.507812 10.96875 C 15.550781 9.777344 16.003906 8.101562 16.65625 6.6875 C 19.605469 0.28125 27.289062 -3.148438 33.902344 -0.390625 C 34.589844 -0.105469 35.25 0.242188 35.902344 0.597656 C 37.242188 1.324219 38.648438 1.976562 39.707031 3.066406 C 40.808594 4.203125 41.53125 5.535156 42.996094 6.332031 C 45.777344 7.824219 49.117188 5.402344 51.875 4.867188 C 54.78125 4.300781 57.378906 5.863281 58.410156 8.746094 C 59.390625 11.496094 58.496094 14.660156 59.554688 17.378906 C 60.476562 19.753906 62.6875 21.316406 64.566406 23.03125 C 69.082031 27.136719 68.910156 33.800781 64.441406 37.96875 C 62.300781 39.96875 60.019531 40.042969 57.5625 40.839844 C 52.394531 42.519531 49.300781 48.546875 44.285156 50.507812 C 42.410156 51.238281 40.414062 51.367188 38.449219 51.320312 C 35.199219 51.246094 32.644531 50.097656 30.191406 48.402344 " fill-opacity="1" fill-rule="nonzero"/><path fill="#26c9c2" d="M 19.226562 39.953125 C 19.730469 39.507812 20.253906 39.066406 20.828125 38.664062 C 19.054688 37.421875 17.390625 36.109375 15.535156 34.988281 C 12.222656 32.996094 8.648438 32.578125 4.894531 32.316406 C 0.601562 32.019531 -3.667969 34.304688 -7.492188 35.933594 C -6.027344 36.828125 -4.953125 37.558594 -3.835938 38.828125 C -2.75 40.0625 -1.714844 41.355469 -0.425781 42.390625 C 3.523438 45.554688 9.277344 45.65625 13.992188 43.824219 C 16.132812 42.996094 17.570312 41.421875 19.226562 39.953125 " fill-opacity="1" fill-rule="nonzero"/><path fill="#74e3dd" d="M 10.746094 37.972656 L 7.09375 32.511719 C 6.996094 32.507812 6.902344 32.5 6.804688 32.484375 L 6.746094 32.523438 L 10.367188 37.933594 C 9.71875 37.863281 9.054688 37.777344 8.371094 37.679688 L 4.632812 32.269531 C 4.582031 32.265625 4.527344 32.265625 4.476562 32.261719 L 4.335938 32.359375 L 7.972656 37.621094 C 7.277344 37.515625 6.566406 37.402344 5.835938 37.285156 L 2.34375 32.433594 C 2.230469 32.453125 2.121094 32.464844 2.007812 32.472656 L 5.421875 37.21875 C 5.269531 37.191406 5.113281 37.167969 4.957031 37.140625 C 4.222656 37.019531 3.46875 36.898438 2.695312 36.777344 L -0.171875 32.964844 C -0.261719 32.988281 -0.347656 33.007812 -0.4375 33.027344 L -0.472656 33.054688 L 2.277344 36.710938 C 1.480469 36.589844 0.667969 36.472656 -0.164062 36.359375 L -2.277344 33.660156 C -2.371094 33.699219 -2.460938 33.742188 -2.554688 33.785156 L -0.582031 36.308594 C -1.4375 36.199219 -2.3125 36.101562 -3.207031 36.019531 L -4.460938 34.539062 C -4.550781 34.574219 -4.644531 34.609375 -4.734375 34.644531 C -4.742188 34.644531 -4.746094 34.648438 -4.75 34.652344 L -3.625 35.984375 C -4.792969 35.886719 -6 35.816406 -7.238281 35.792969 C -7.316406 35.835938 -7.398438 35.871094 -7.480469 35.910156 C -7.414062 35.96875 -7.34375 36.027344 -7.277344 36.085938 C -2.761719 36.179688 1.308594 36.84375 4.910156 37.433594 C 8.917969 38.089844 12.378906 38.65625 15.507812 38.324219 L 15.476562 38.03125 C 13.992188 38.1875 12.421875 38.136719 10.746094 37.972656 " fill-opacity="1" fill-rule="nonzero"/><path fill="#74e3dd" d="M 13.539062 37.789062 L 10.066406 32.890625 L 9.828125 33.0625 L 13.296875 37.960938 L 13.539062 37.789062 " fill-opacity="1" fill-rule="nonzero"/><path fill="#74e3dd" d="M 5.90625 30.890625 C 5.015625 29.65625 4.320312 28.308594 3.878906 26.851562 C 2.554688 22.472656 2.164062 17.824219 2.195312 13.265625 C 2.1875 14.539062 8.03125 16.765625 9 17.242188 C 11.636719 18.539062 14.386719 19.75 16.542969 21.804688 C 21.875 26.890625 19.863281 33.496094 21.617188 39.851562 C 15.976562 38.855469 9.429688 35.769531 5.90625 30.890625 " fill-opacity="1" fill-rule="nonzero"/><path fill="#26c9c2" d="M 21.488281 39.097656 C 20.601562 38.089844 19.738281 37.09375 18.898438 36.113281 L 20.324219 28.464844 C 20.289062 28.3125 20.238281 28.164062 20.183594 28.015625 L 20.078125 27.996094 L 18.625 35.792969 C 17.988281 35.046875 17.367188 34.304688 16.753906 33.574219 L 16.777344 33.582031 L 18.90625 24.644531 C 18.847656 24.5625 18.789062 24.476562 18.738281 24.386719 L 18.636719 24.359375 L 16.511719 33.285156 C 15.933594 32.585938 15.367188 31.894531 14.8125 31.214844 L 16.34375 21.59375 C 16.289062 21.554688 16.238281 21.515625 16.1875 21.476562 C 16.140625 21.441406 16.09375 21.402344 16.046875 21.363281 L 14.535156 30.871094 C 13.6875 29.820312 12.867188 28.789062 12.078125 27.773438 L 12.289062 27.816406 L 13.902344 19.652344 C 13.902344 19.652344 13.898438 19.648438 13.894531 19.648438 C 13.851562 19.625 13.808594 19.601562 13.761719 19.578125 L 13.589844 19.546875 L 11.988281 27.65625 C 11.347656 26.835938 10.730469 26.023438 10.132812 25.222656 L 11.28125 18.308594 L 10.957031 18.253906 L 9.859375 24.859375 C 9.265625 24.0625 8.691406 23.273438 8.136719 22.5 L 8.476562 16.941406 C 8.386719 16.914062 8.296875 16.882812 8.207031 16.851562 L 8.15625 16.847656 L 7.835938 22.074219 C 7.105469 21.046875 6.410156 20.039062 5.746094 19.046875 L 5.671875 15.820312 C 5.558594 15.769531 5.445312 15.707031 5.339844 15.640625 L 5.40625 18.535156 C 4.3125 16.878906 3.304688 15.269531 2.386719 13.703125 C 2.386719 13.703125 2.382812 13.703125 2.378906 13.699219 L 2.222656 13.792969 C 2.199219 13.847656 2.175781 13.902344 2.15625 13.957031 C 3.367188 16.019531 4.703125 18.121094 6.191406 20.296875 C 7.539062 22.269531 9.011719 24.304688 10.621094 26.425781 C 12.972656 29.519531 15.585938 32.746094 18.550781 36.210938 L 18.546875 36.21875 L 18.558594 36.222656 C 19.421875 37.234375 20.316406 38.261719 21.242188 39.316406 L 21.488281 39.097656 " fill-opacity="1" fill-rule="nonzero"/><path fill="#26c9c2" d="M 60.207031 18.792969 C 63.546875 17.375 67.199219 16.855469 70.820312 16.695312 C 72.640625 16.617188 74.480469 16.621094 76.253906 16.195312 C 76.507812 16.136719 75.933594 19.597656 75.855469 19.84375 C 75.464844 21.105469 74.882812 22.308594 74.148438 23.40625 C 71.730469 27 68.058594 28.671875 64.035156 29.777344 C 61.917969 30.355469 59.742188 30.941406 57.558594 30.730469 C 55.394531 30.523438 53.023438 29.667969 51.039062 28.824219 C 51.945312 24.105469 55.949219 20.601562 60.207031 18.792969 " fill-opacity="1" fill-rule="nonzero"/><path fill="#74e3dd" d="M 76.222656 16.171875 C 76.167969 16.191406 76.113281 16.214844 76.058594 16.238281 C 75.199219 17.320312 74.171875 18.25 73.027344 19.058594 L 73.386719 16.59375 C 73.300781 16.597656 73.214844 16.601562 73.128906 16.605469 L 72.742188 19.253906 C 72.050781 19.722656 71.320312 20.152344 70.554688 20.550781 L 71.117188 16.640625 C 71.03125 16.632812 70.945312 16.628906 70.863281 16.617188 L 70.28125 20.691406 C 69.519531 21.078125 68.730469 21.433594 67.917969 21.769531 L 68.558594 16.847656 C 68.472656 16.847656 68.386719 16.851562 68.300781 16.855469 L 67.652344 21.878906 C 66.921875 22.171875 66.179688 22.453125 65.429688 22.71875 L 66.0625 17.0625 C 65.972656 17.074219 65.886719 17.089844 65.800781 17.109375 L 65.167969 22.785156 L 65.222656 22.792969 C 64.304688 23.113281 63.378906 23.421875 62.453125 23.722656 L 63.070312 17.742188 C 62.984375 17.765625 62.894531 17.789062 62.808594 17.808594 L 62.195312 23.777344 L 62.261719 23.785156 C 62.011719 23.863281 61.765625 23.945312 61.519531 24.023438 C 60.976562 24.199219 60.433594 24.375 59.898438 24.554688 L 60.375 18.722656 L 60.265625 18.714844 C 60.21875 18.734375 60.167969 18.75 60.117188 18.765625 L 59.636719 24.640625 C 58.875 24.890625 58.128906 25.144531 57.398438 25.40625 L 57.730469 20.042969 L 57.476562 20.027344 L 57.144531 25.398438 L 57.382812 25.414062 C 54.984375 26.277344 52.761719 27.234375 50.890625 28.515625 C 50.9375 28.585938 50.980469 28.660156 51.023438 28.730469 C 53.910156 26.753906 57.648438 25.542969 61.597656 24.265625 C 67.191406 22.453125 72.972656 20.582031 76.3125 16.328125 C 76.304688 16.296875 76.300781 16.265625 76.296875 16.230469 L 76.222656 16.171875 " fill-opacity="1" fill-rule="nonzero"/><path fill="#74e3dd" d="M 50.070312 19.175781 C 51.878906 15.113281 55.738281 12.425781 59.417969 9.945312 C 59.5 9.890625 60.269531 12.136719 60.324219 12.304688 C 60.886719 14.101562 60.613281 16.4375 60.246094 18.246094 C 59.214844 23.320312 55.382812 26.625 50.714844 28.378906 C 50.0625 25.160156 48.59375 22.492188 50.070312 19.175781 " fill-opacity="1" fill-rule="nonzero"/><path fill="#26c9c2" d="M 59.199219 10.195312 L 57.351562 14.113281 L 56.730469 11.789062 L 56.59375 11.824219 C 56.554688 11.859375 56.515625 11.898438 56.476562 11.933594 L 57.167969 14.503906 L 56.125 16.714844 L 54.929688 13.125 C 54.925781 13.125 54.921875 13.128906 54.921875 13.128906 C 54.855469 13.210938 54.789062 13.289062 54.707031 13.355469 L 55.953125 17.082031 L 55.011719 19.074219 L 53.320312 14.695312 L 53.164062 14.757812 C 53.140625 14.800781 53.117188 14.84375 53.09375 14.882812 L 54.804688 19.316406 L 54.917969 19.273438 L 53.867188 21.507812 L 51.832031 16.265625 L 51.753906 16.292969 C 51.714844 16.363281 51.667969 16.433594 51.621094 16.5 L 53.691406 21.828125 L 53.71875 21.816406 L 52.824219 23.71875 L 50.484375 18.253906 L 50.46875 18.261719 C 50.421875 18.363281 50.367188 18.464844 50.3125 18.5625 L 52.648438 24.023438 L 52.6875 24.003906 L 51.957031 25.550781 L 49.597656 20.917969 L 49.480469 20.976562 C 49.46875 21.0625 49.457031 21.152344 49.445312 21.238281 L 51.75 25.757812 L 51.898438 25.683594 L 51.019531 27.539062 L 51.273438 27.660156 L 59.453125 10.3125 L 59.199219 10.195312 " fill-opacity="1" fill-rule="nonzero"/><path fill="#ffffff" d="M 12.117188 16.199219 C 12.902344 15.605469 13.914062 15.324219 14.890625 15.429688 C 15.101562 15.453125 15.339844 15.480469 15.492188 15.335938 C 15.585938 15.246094 15.621094 15.113281 15.660156 14.988281 C 15.859375 14.371094 16.40625 13.84375 17.050781 13.804688 C 17.699219 13.761719 18.355469 14.328125 18.304688 14.972656 C 18.742188 14.683594 19.28125 14.5 19.796875 14.597656 C 20.316406 14.699219 20.785156 15.140625 20.796875 15.667969 C 20.835938 17.476562 13.339844 16.261719 12.117188 16.199219 " fill-opacity="1" fill-rule="nonzero"/><path fill="#ffffff" d="M 63.890625 35.503906 C 64.042969 35.507812 64.21875 35.496094 64.304688 35.371094 C 64.410156 35.210938 64.289062 35 64.160156 34.859375 C 63.332031 33.976562 61.917969 33.707031 60.828125 34.226562 C 60.523438 33.628906 59.859375 33.230469 59.1875 33.253906 C 58.515625 33.273438 57.875 33.710938 57.609375 34.328125 C 57.402344 33.902344 56.808594 33.804688 56.367188 33.976562 C 55.921875 34.144531 55.585938 34.5 55.21875 34.804688 C 54.855469 35.105469 54.402344 35.375 53.933594 35.308594 C 55.378906 35.511719 56.738281 35.273438 58.214844 35.335938 C 60.105469 35.421875 62 35.476562 63.890625 35.503906 " fill-opacity="1" fill-rule="nonzero"/><path fill="#74e3dd" d="M 50.246094 49.136719 C 50.195312 48.199219 48.570312 47.445312 46.570312 47.445312 C 44.574219 47.445312 42.949219 48.199219 42.898438 49.136719 L 50.246094 49.136719 " fill-opacity="1" fill-rule="nonzero"/><path fill="#74e3dd" d="M 46.90625 48.117188 L 45.792969 48.117188 L 45.792969 36.339844 L 46.90625 36.339844 L 46.90625 48.117188 " fill-opacity="1" fill-rule="nonzero"/><path fill="#74e3dd" d="M 51.25 35.503906 C 51.25 36.398438 49.082031 37.121094 46.40625 37.121094 C 43.730469 37.121094 41.558594 36.398438 41.558594 35.503906 C 41.558594 34.609375 43.730469 33.882812 46.40625 33.882812 C 49.082031 33.882812 51.25 34.609375 51.25 35.503906 " fill-opacity="1" fill-rule="nonzero"/><path fill="#ffa15e" d="M 43.46875 17.597656 C 43.574219 17.75 43.769531 17.839844 43.957031 17.816406 C 43.84375 17.878906 43.820312 18.046875 43.882812 18.164062 C 43.945312 18.28125 44.066406 18.355469 44.183594 18.410156 C 44.589844 18.589844 45.066406 18.605469 45.484375 18.453125 C 45.902344 18.300781 46.257812 17.980469 46.453125 17.578125 C 46.660156 17.152344 46.664062 16.585938 46.339844 16.238281 C 46.210938 16.097656 46.039062 16.003906 45.910156 15.863281 C 45.699219 15.640625 45.589844 15.300781 45.304688 15.1875 C 44.996094 15.0625 44.652344 15.289062 44.457031 15.558594 C 44.214844 15.890625 44.027344 16.265625 43.804688 16.609375 C 43.613281 16.910156 43.203125 17.199219 43.46875 17.597656 " fill-opacity="1" fill-rule="nonzero"/><path fill="#ffdfd8" d="M 43.976562 46 C 44.042969 46.085938 44.113281 46.171875 44.179688 46.253906 C 44.570312 46.753906 44.863281 47.296875 45.097656 47.886719 C 45.222656 48.199219 45.285156 48.539062 45.277344 48.878906 C 45.273438 49.085938 45.179688 49.289062 45.164062 49.5 C 45.15625 49.5625 45.152344 49.628906 45.113281 49.683594 C 45.066406 49.75 44.984375 49.777344 44.910156 49.8125 C 44.835938 49.84375 44.753906 49.894531 44.742188 49.976562 C 44.730469 50.050781 44.785156 50.128906 44.855469 50.160156 C 44.925781 50.195312 45.007812 50.195312 45.085938 50.195312 C 45.339844 50.195312 45.554688 50.082031 45.710938 49.878906 C 46.085938 49.390625 45.75 48.683594 45.859375 48.078125 C 45.921875 47.738281 46.121094 47.441406 46.226562 47.109375 C 46.34375 46.746094 46.292969 46.175781 45.832031 46.097656 C 45.660156 46.066406 45.511719 46.167969 45.339844 46.105469 C 45.144531 46.03125 45.015625 45.792969 44.910156 45.625 C 44.839844 45.507812 44.769531 45.394531 44.699219 45.277344 C 44.441406 45.5 44.199219 45.738281 43.976562 46 " fill-opacity="1" fill-rule="nonzero"/><path fill="#26c9c2" d="M 46.226562 47.109375 C 46.34375 46.746094 46.292969 46.175781 45.832031 46.097656 C 45.699219 46.074219 45.582031 46.128906 45.457031 46.125 C 45.46875 46.34375 45.558594 46.542969 45.621094 46.75 C 45.691406 46.976562 45.710938 47.195312 45.683594 47.429688 C 45.628906 47.941406 45.4375 48.421875 45.304688 48.914062 C 45.296875 48.941406 45.285156 48.960938 45.269531 48.980469 C 45.246094 49.152344 45.179688 49.320312 45.164062 49.5 C 45.15625 49.5625 45.152344 49.628906 45.113281 49.683594 C 45.066406 49.75 44.984375 49.777344 44.910156 49.8125 C 44.835938 49.84375 44.753906 49.894531 44.742188 49.976562 C 44.730469 50.050781 44.785156 50.128906 44.855469 50.160156 C 44.925781 50.195312 45.007812 50.195312 45.085938 50.195312 C 45.339844 50.195312 45.554688 50.082031 45.710938 49.878906 C 46.085938 49.390625 45.75 48.683594 45.859375 48.078125 C 45.921875 47.738281 46.121094 47.441406 46.226562 47.109375 " fill-opacity="1" fill-rule="nonzero"/><path fill="#ffdfd8" d="M 36.589844 47.851562 C 36.585938 48.226562 36.65625 48.683594 36.429688 49.003906 C 36.070312 49.515625 35.4375 49.816406 34.851562 49.96875 C 34.660156 50.019531 34.386719 50.019531 34.222656 50.121094 C 33.941406 50.285156 34.441406 50.386719 34.507812 50.394531 C 34.75 50.414062 34.980469 50.398438 35.21875 50.351562 C 35.574219 50.285156 35.921875 50.148438 36.285156 50.109375 C 36.605469 50.074219 36.890625 50.195312 37.207031 50.25 C 37.382812 50.28125 37.59375 50.296875 37.71875 50.164062 C 37.804688 50.066406 37.816406 49.921875 37.808594 49.789062 C 37.785156 49.304688 37.507812 48.957031 37.558594 48.46875 C 37.59375 48.144531 37.621094 47.816406 37.644531 47.488281 C 37.292969 47.472656 36.941406 47.46875 36.59375 47.445312 C 36.59375 47.582031 36.59375 47.714844 36.589844 47.851562 " fill-opacity="1" fill-rule="nonzero"/><path fill="#26c9c2" d="M 37.683594 49.210938 C 37.679688 49.210938 37.675781 49.210938 37.675781 49.210938 C 37.601562 49.25 37.527344 49.296875 37.453125 49.34375 C 37.269531 49.464844 37.070312 49.550781 36.855469 49.597656 C 36.644531 49.644531 36.425781 49.660156 36.210938 49.675781 C 36.046875 49.691406 35.886719 49.714844 35.722656 49.707031 C 35.65625 49.71875 35.582031 49.726562 35.507812 49.734375 C 35.292969 49.835938 35.070312 49.914062 34.851562 49.96875 C 34.660156 50.019531 34.386719 50.019531 34.222656 50.121094 C 33.941406 50.285156 34.441406 50.386719 34.507812 50.394531 C 34.75 50.414062 34.980469 50.398438 35.21875 50.351562 C 35.574219 50.285156 35.921875 50.148438 36.285156 50.109375 C 36.605469 50.074219 36.890625 50.195312 37.207031 50.25 C 37.382812 50.28125 37.59375 50.296875 37.71875 50.164062 C 37.804688 50.066406 37.816406 49.921875 37.808594 49.789062 C 37.800781 49.578125 37.742188 49.394531 37.683594 49.210938 " fill-opacity="1" fill-rule="nonzero"/><path fill="#26c9c2" d="M 50.316406 31.613281 C 50.113281 30.574219 49.601562 29.625 49.097656 28.695312 C 48.785156 28.117188 48.46875 27.605469 48.210938 27.089844 C 47.605469 27.121094 46.996094 27.1875 46.378906 27.296875 C 46.015625 27.351562 45.652344 27.492188 45.320312 27.714844 C 45.1875 27.796875 45.046875 27.851562 44.898438 27.894531 C 44.898438 27.90625 44.894531 27.921875 44.890625 27.933594 C 44.675781 28.898438 43.878906 29.328125 43.027344 29.621094 C 41.257812 30.234375 39.46875 30.617188 37.734375 31.347656 C 37.007812 31.652344 35.96875 31.894531 35.566406 32.636719 C 35.140625 33.421875 35.554688 34.601562 35.648438 35.433594 C 35.832031 37.027344 35.976562 38.628906 36.128906 40.230469 C 36.320312 42.296875 36.496094 44.351562 36.59375 46.421875 C 36.609375 46.761719 36.617188 47.101562 36.621094 47.445312 C 36.804688 47.457031 37.867188 47.644531 37.941406 47.476562 C 37.953125 47.445312 37.957031 47.410156 37.957031 47.375 C 38.015625 45.847656 38.066406 44.273438 38.105469 42.730469 C 38.128906 41.921875 38.148438 41.113281 38.164062 40.300781 C 38.179688 39.570312 38.328125 38.839844 38.300781 38.105469 C 38.515625 38.433594 38.679688 38.792969 38.90625 39.117188 C 39.28125 39.660156 43.738281 46.15625 43.824219 46.085938 C 43.925781 46.003906 44.746094 45.3125 44.726562 45.277344 C 44.476562 44.863281 44.230469 44.453125 44.007812 44.019531 C 43.375 42.796875 42.714844 41.535156 42.109375 40.277344 C 41.496094 39.003906 41.042969 37.632812 40.378906 36.386719 C 40.210938 36.070312 40.101562 35.714844 39.90625 35.417969 C 39.8125 35.277344 39.4375 34.777344 39.300781 34.738281 C 40.773438 35.15625 42.277344 35.394531 43.785156 35.640625 C 45.226562 35.875 46.757812 36.046875 48.167969 35.574219 C 48.742188 35.382812 49.289062 35.074219 49.683594 34.617188 C 50.375 33.816406 50.523438 32.652344 50.316406 31.613281 " fill-opacity="1" fill-rule="nonzero"/><path fill="#b5e8e8" d="M 45.046875 29.441406 C 44.921875 29.523438 44.777344 29.613281 44.632812 29.671875 C 43.945312 29.882812 43.246094 30.074219 42.574219 30.261719 C 40.679688 30.785156 38.890625 31.28125 37.132812 32.160156 C 36.789062 32.347656 36.542969 32.640625 36.382812 33.054688 C 36.160156 33.691406 36.335938 34.355469 36.523438 34.800781 C 36.945312 35.730469 37.425781 36.636719 37.894531 37.511719 C 38.035156 37.773438 38.175781 38.039062 38.316406 38.304688 C 38.316406 38.289062 38.320312 38.273438 38.320312 38.257812 C 38.324219 38.214844 38.339844 38.183594 38.363281 38.15625 C 38.242188 37.921875 38.117188 37.691406 37.992188 37.460938 C 37.527344 36.585938 37.042969 35.683594 36.628906 34.757812 C 36.449219 34.328125 36.277344 33.695312 36.488281 33.09375 C 36.636719 32.703125 36.867188 32.429688 37.1875 32.257812 C 38.929688 31.382812 40.714844 30.890625 42.605469 30.367188 C 43.277344 30.179688 43.976562 29.988281 44.667969 29.777344 L 44.671875 29.777344 C 44.828125 29.714844 44.980469 29.617188 45.105469 29.535156 L 45.046875 29.441406 " fill-opacity="1" fill-rule="nonzero"/><path fill="#ffdfd8" d="M 46.347656 27.296875 C 46.96875 27.1875 47.578125 27.121094 48.179688 27.089844 C 47.796875 26.316406 47.546875 25.539062 47.65625 24.542969 C 47.753906 23.675781 47.910156 22.835938 48.21875 22.015625 C 48.292969 21.808594 49.292969 19.960938 49.285156 19.949219 C 48.941406 19.503906 48.304688 19.351562 47.808594 19.15625 C 47.65625 19.09375 47.496094 19.03125 47.378906 18.914062 C 47.171875 18.703125 47.144531 18.375 47.183594 18.082031 C 47.234375 17.714844 47.363281 17.363281 47.496094 17.015625 C 47.863281 16.0625 48.789062 14.992188 48.007812 13.996094 C 47.839844 13.78125 47.621094 13.617188 47.398438 13.460938 C 47.175781 13.304688 46.945312 13.15625 46.695312 13.050781 C 46.167969 12.832031 45.558594 12.847656 45.03125 13.058594 C 44.449219 13.292969 44.285156 13.589844 44.261719 14.171875 C 44.230469 15.039062 43.71875 15.957031 43.925781 16.800781 C 44.03125 17.234375 44.253906 17.632812 44.511719 17.996094 C 44.558594 18.066406 44.613281 18.136719 44.691406 18.171875 C 44.820312 18.230469 44.964844 18.175781 45.09375 18.105469 C 45.113281 18.097656 45.132812 18.085938 45.152344 18.074219 C 45.269531 18.003906 45.386719 17.933594 45.503906 17.867188 C 45.484375 17.875 45.519531 18.421875 45.511719 18.488281 C 45.488281 18.714844 45.429688 18.949219 45.28125 19.125 C 44.957031 19.515625 44.414062 19.632812 44.058594 19.984375 C 43.476562 20.5625 43.457031 21.324219 43.527344 22.121094 C 43.675781 23.800781 44.554688 25.308594 44.839844 26.957031 C 44.894531 27.265625 44.933594 27.585938 44.871094 27.894531 C 45.015625 27.851562 45.160156 27.796875 45.289062 27.714844 C 45.625 27.492188 45.988281 27.351562 46.347656 27.296875 " fill-opacity="1" fill-rule="nonzero"/><path fill="#ffdfd8" d="M 46.496094 30.644531 C 47.117188 30.417969 47.714844 30.15625 48.3125 29.847656 C 48.722656 29.636719 49.117188 29.394531 49.535156 29.203125 C 49.863281 29.054688 50.265625 28.8125 50.40625 28.453125 C 50.472656 28.285156 50.46875 28.105469 50.464844 27.929688 C 50.386719 25.378906 49.949219 22.914062 49.527344 20.402344 C 49.367188 19.441406 48.664062 19.363281 48.171875 20.085938 C 47.835938 20.582031 47.914062 21.121094 48.058594 21.660156 C 48.230469 22.308594 48.378906 22.960938 48.503906 23.617188 C 48.640625 24.3125 48.75 25.007812 48.832031 25.707031 C 48.910156 26.363281 48.949219 27.019531 49.023438 27.675781 C 49.03125 27.734375 49.035156 27.792969 49.011719 27.84375 C 48.992188 27.894531 48.941406 27.929688 48.898438 27.960938 C 48.078125 28.542969 47.214844 29.0625 46.316406 29.507812 C 45.90625 29.710938 45.484375 29.882812 45.050781 30.039062 C 44.855469 30.113281 44.660156 30.175781 44.46875 30.253906 C 44.28125 30.332031 44.105469 30.433594 43.90625 30.476562 C 43.765625 30.503906 43.617188 30.5 43.472656 30.496094 C 43.015625 30.480469 42.503906 30.394531 42.058594 30.488281 C 41.90625 30.519531 41.769531 30.59375 41.632812 30.667969 C 41.34375 30.835938 41.058594 31.007812 40.777344 31.191406 C 40.699219 31.242188 40.292969 31.523438 40.515625 31.632812 C 40.546875 31.644531 40.582031 31.644531 40.613281 31.640625 C 40.710938 31.632812 40.800781 31.609375 40.894531 31.582031 C 40.957031 31.566406 41.082031 31.5625 41.132812 31.519531 C 41.121094 31.53125 40.84375 31.84375 40.929688 31.855469 C 41.066406 31.875 41.191406 31.785156 41.308594 31.710938 C 41.53125 31.566406 41.765625 31.445312 42.027344 31.464844 C 42.324219 31.488281 42.605469 31.582031 42.90625 31.554688 C 43.089844 31.535156 43.265625 31.472656 43.441406 31.414062 C 44.335938 31.113281 45.269531 31.058594 46.152344 30.761719 C 46.269531 30.722656 46.382812 30.683594 46.496094 30.644531 " fill-opacity="1" fill-rule="nonzero"/><path fill="#ffdfd8" d="M 42.820312 23.902344 C 42.714844 24.234375 42.601562 24.558594 42.476562 24.882812 C 41.902344 26.375 41.039062 27.753906 39.949219 28.921875 C 39.433594 29.476562 38.84375 29.949219 38.320312 30.484375 C 37.808594 31.015625 37.113281 31.324219 36.597656 31.851562 C 36.511719 31.933594 36.433594 32.027344 36.390625 32.136719 C 36.214844 32.570312 36.371094 33.101562 36.53125 33.511719 C 36.589844 33.664062 36.691406 33.832031 36.851562 33.832031 C 36.855469 33.589844 36.855469 33.351562 36.855469 33.109375 C 36.863281 33.292969 36.917969 33.472656 37.011719 33.625 C 37.089844 33.558594 37.089844 33.445312 37.082031 33.347656 C 37.050781 32.785156 37.136719 32.394531 37.53125 31.984375 C 37.503906 32.253906 37.472656 32.519531 37.445312 32.789062 C 37.429688 32.945312 37.425781 33.128906 37.550781 33.222656 C 37.671875 33.109375 37.703125 32.929688 37.734375 32.765625 C 37.804688 32.40625 38.039062 32.117188 38.15625 31.769531 C 38.207031 31.625 38.246094 31.476562 38.320312 31.34375 C 38.472656 31.074219 38.890625 30.894531 39.144531 30.742188 C 39.527344 30.507812 39.921875 30.296875 40.300781 30.058594 C 41.308594 29.414062 42.136719 28.625 42.734375 27.578125 C 43.773438 25.75 44.128906 23.617188 44.464844 21.574219 C 44.515625 21.261719 44.570312 20.929688 44.46875 20.621094 C 44.441406 20.546875 44.15625 19.976562 44.125 20.007812 C 43.574219 20.597656 43.480469 21.535156 43.28125 22.28125 C 43.140625 22.824219 42.988281 23.367188 42.820312 23.902344 " fill-opacity="1" fill-rule="nonzero"/><path fill="#ffa15e" d="M 47.070312 11.410156 C 47.105469 11.40625 47.136719 11.402344 47.167969 11.402344 C 48.140625 11.367188 49.027344 11.882812 49.695312 12.5625 C 50.074219 12.949219 50.433594 13.375 50.675781 13.863281 C 50.828125 14.167969 50.964844 14.515625 50.9375 14.863281 C 50.925781 15.039062 50.855469 15.179688 50.773438 15.332031 C 50.761719 15.359375 50.5625 15.707031 50.53125 15.640625 C 50.695312 16.007812 50.703125 16.445312 50.542969 16.816406 C 50.386719 17.1875 50.070312 17.488281 49.691406 17.625 C 49.5625 17.675781 49.410156 17.703125 49.28125 17.644531 C 49.417969 17.703125 49.457031 18.027344 49.429688 18.148438 C 49.394531 18.292969 49.285156 18.46875 49.164062 18.554688 C 48.972656 18.699219 48.742188 18.746094 48.507812 18.722656 C 48.121094 18.691406 47.734375 18.601562 47.351562 18.539062 C 47.296875 18.53125 47.230469 18.515625 47.199219 18.464844 C 47.179688 18.433594 47.179688 18.390625 47.179688 18.351562 C 47.195312 17.976562 47.285156 17.601562 47.4375 17.257812 C 47.285156 17.1875 47.175781 17.027344 47.167969 16.859375 C 47.128906 16.261719 47.988281 16.128906 47.945312 15.5 C 47.925781 15.226562 47.625 15.039062 47.375 15.152344 C 47.234375 15.21875 47.140625 15.359375 47.085938 15.503906 C 47.066406 15.566406 47.046875 15.632812 47.011719 15.683594 C 46.976562 15.734375 46.914062 15.773438 46.863281 15.746094 C 46.824219 15.722656 46.816406 15.667969 46.8125 15.625 C 46.785156 15.296875 46.800781 14.96875 46.816406 14.640625 C 46.824219 14.46875 46.832031 14.296875 46.839844 14.128906 C 46.847656 14.007812 46.808594 13.746094 46.863281 13.644531 C 46.722656 13.910156 46.625 14.195312 46.574219 14.488281 C 45.714844 14.460938 44.855469 14.4375 43.992188 14.410156 C 43.828125 13.902344 43.792969 13.339844 43.992188 12.84375 C 44.113281 12.539062 44.335938 12.265625 44.617188 12.09375 C 44.863281 11.941406 45.300781 11.8125 45.582031 11.878906 C 45.664062 11.898438 45.753906 11.9375 45.828125 11.898438 C 45.875 11.878906 45.902344 11.839844 45.933594 11.800781 C 46.195312 11.488281 46.6875 11.445312 47.070312 11.410156 " fill-opacity="1" fill-rule="nonzero"/><path fill="#f04191" d="M 48.035156 22.390625 C 47.699219 23.457031 47.617188 24.605469 47.785156 25.710938 C 47.902344 26.496094 48.246094 27.105469 48.589844 27.800781 C 47.945312 27.847656 47.285156 27.769531 46.632812 27.816406 C 46.308594 27.839844 45.988281 27.878906 45.667969 27.941406 C 45.546875 27.964844 44.855469 28.0625 44.8125 28.179688 C 45.003906 27.644531 44.851562 27.140625 44.75 26.605469 C 44.644531 26.039062 44.523438 25.472656 44.335938 24.925781 C 44.203125 24.53125 44.066406 24.136719 43.941406 23.742188 C 43.910156 23.648438 43.621094 22.714844 43.652344 22.722656 C 43.429688 22.675781 43.207031 22.625 42.984375 22.578125 C 43.292969 21.65625 43.496094 20.582031 44.066406 19.792969 C 44.085938 19.765625 44.109375 19.734375 44.140625 19.714844 C 44.175781 19.683594 44.226562 19.675781 44.273438 19.664062 C 44.589844 19.597656 44.851562 19.539062 45.101562 19.316406 C 45.074219 19.335938 45.039062 19.804688 45.027344 19.886719 C 44.992188 20.152344 44.996094 20.433594 44.976562 20.703125 C 44.957031 21.03125 44.957031 21.367188 44.90625 21.691406 C 44.867188 21.945312 44.925781 22.304688 44.84375 22.542969 C 44.992188 22.109375 45.390625 21.707031 45.65625 21.328125 C 45.902344 21.082031 46.089844 20.707031 46.292969 20.417969 C 46.507812 20.117188 46.726562 19.84375 46.957031 19.554688 C 46.988281 19.511719 47.457031 18.910156 47.445312 18.902344 C 47.984375 19.183594 48.53125 19.398438 49.097656 19.617188 C 49.386719 19.726562 49.398438 19.957031 49.472656 20.230469 C 49.539062 20.46875 49.5625 20.726562 49.605469 20.96875 C 49.695312 21.484375 49.78125 22 49.871094 22.511719 C 49.296875 22.691406 48.773438 23.035156 48.382812 23.496094 C 48.304688 23.589844 48.382812 23.460938 48.300781 23.550781 C 48.28125 23.152344 48.191406 22.757812 48.035156 22.390625 " fill-opacity="1" fill-rule="nonzero"/><path fill="#ffdfd8" d="M 43.628906 22.746094 L 43.515625 22.738281 C 43.566406 22 43.667969 21.257812 43.8125 20.53125 L 43.921875 20.554688 C 43.777344 21.273438 43.675781 22.011719 43.628906 22.746094 " fill-opacity="1" fill-rule="nonzero"/><path fill="#74e3dd" d="M 40.75 9.773438 C 40.070312 9.773438 38.765625 11.019531 37.855469 13.382812 C 36.867188 15.949219 37.105469 17.855469 37.714844 18.089844 C 37.765625 18.109375 37.816406 18.117188 37.875 18.117188 C 38.554688 18.117188 39.859375 16.875 40.769531 14.511719 C 41.214844 13.347656 41.453125 12.191406 41.4375 11.253906 C 41.421875 10.476562 41.21875 9.921875 40.910156 9.800781 C 40.859375 9.78125 40.804688 9.773438 40.75 9.773438 Z M 37.875 18.957031 C 37.714844 18.957031 37.5625 18.929688 37.414062 18.871094 C 36.753906 18.617188 36.375 17.828125 36.355469 16.65625 C 36.335938 15.609375 36.589844 14.339844 37.078125 13.078125 C 37.5625 11.820312 38.222656 10.707031 38.9375 9.945312 C 39.742188 9.09375 40.546875 8.765625 41.210938 9.019531 C 41.871094 9.277344 42.25 10.0625 42.269531 11.238281 C 42.289062 12.28125 42.035156 13.550781 41.546875 14.8125 C 41.0625 16.074219 40.402344 17.1875 39.6875 17.945312 C 39.0625 18.609375 38.433594 18.957031 37.875 18.957031 " fill-opacity="1" fill-rule="nonzero"/><path fill="#74e3dd" d="M 32.882812 17.378906 L 24.226562 12.816406 L 24.746094 11.828125 L 32.640625 15.992188 L 35.824219 12.515625 L 37.3125 12.867188 L 37.054688 13.957031 L 36.203125 13.753906 L 32.882812 17.378906 " fill-opacity="1" fill-rule="nonzero"/><path fill="#74e3dd" d="M 24.601562 46.421875 C 24.21875 46.421875 23.90625 46.109375 23.90625 45.722656 L 23.851562 11.214844 C 23.851562 10.828125 24.160156 10.515625 24.546875 10.515625 C 24.929688 10.515625 25.242188 10.828125 25.242188 11.210938 L 25.296875 45.722656 C 25.300781 46.105469 24.988281 46.421875 24.605469 46.421875 C 24.601562 46.421875 24.601562 46.421875 24.601562 46.421875 " fill-opacity="1" fill-rule="nonzero"/><path fill="#74e3dd" d="M 28.667969 46.839844 C 28.617188 45.722656 26.988281 44.828125 24.992188 44.828125 C 22.996094 44.828125 21.371094 45.722656 21.316406 46.839844 L 28.667969 46.839844 " fill-opacity="1" fill-rule="nonzero"/><path fill="#ffffff" d="M 19.394531 46.632812 C 19.132812 46.867188 19.011719 47.203125 18.953125 47.589844 C 18.898438 47.941406 18.894531 48.304688 18.800781 48.652344 C 18.75 48.847656 18.664062 49.050781 18.714844 49.246094 C 18.761719 49.421875 18.902344 49.554688 19.066406 49.632812 C 19.226562 49.710938 19.40625 49.742188 19.582031 49.769531 C 19.824219 49.808594 20.082031 49.84375 20.316406 49.757812 C 20.375 49.738281 20.433594 49.703125 20.464844 49.648438 C 20.546875 49.507812 20.390625 49.351562 20.28125 49.226562 C 20.078125 48.988281 20.019531 48.644531 20.074219 48.332031 C 20.214844 47.910156 20.527344 47.453125 20.484375 46.992188 C 20.449219 46.578125 20.132812 46.261719 19.730469 46.425781 C 19.597656 46.480469 19.484375 46.550781 19.394531 46.632812 " fill-opacity="1" fill-rule="nonzero"/><path fill="#ffdfd8" d="M 20.601562 46.921875 C 20.523438 47.039062 20.441406 47.148438 20.378906 47.28125 C 20.261719 47.523438 20.144531 47.769531 20.027344 48.015625 C 19.988281 48.097656 19.945312 48.183594 19.867188 48.234375 C 19.753906 48.308594 19.589844 48.28125 19.484375 48.191406 C 19.378906 48.105469 19.320312 47.96875 19.289062 47.835938 C 19.1875 47.410156 19.3125 46.941406 19.601562 46.613281 C 19.679688 46.519531 19.773438 46.4375 19.855469 46.34375 C 19.972656 46.214844 20.066406 46.066406 20.15625 45.917969 C 20.316406 45.664062 20.472656 45.414062 20.628906 45.164062 C 20.664062 45.105469 20.710938 45.039062 20.777344 45.027344 C 20.84375 45.015625 20.902344 45.050781 20.957031 45.085938 C 21.191406 45.242188 21.46875 45.328125 21.695312 45.488281 C 21.5 45.71875 21.308594 45.949219 21.113281 46.179688 C 20.964844 46.359375 20.808594 46.539062 20.703125 46.75 C 20.671875 46.8125 20.636719 46.867188 20.601562 46.921875 " fill-opacity="1" fill-rule="nonzero"/><path fill="#ffffff" d="M 30.753906 48.148438 C 30.671875 48.089844 30.582031 48.039062 30.488281 47.992188 C 30.289062 47.902344 29.53125 47.6875 29.359375 47.839844 C 29.304688 47.886719 29.277344 47.953125 29.25 48.015625 C 29.203125 48.128906 29.152344 48.246094 29.101562 48.359375 C 29.007812 48.578125 28.914062 48.824219 29.007812 49.042969 C 29.199219 49.492188 29.726562 49.484375 30.113281 49.578125 C 30.515625 49.671875 30.902344 49.964844 31.277344 50.140625 C 31.65625 50.316406 32.15625 50.457031 32.566406 50.34375 C 32.707031 50.304688 32.851562 50.230469 32.921875 50.097656 C 33.019531 49.921875 32.953125 49.691406 32.828125 49.535156 C 32.671875 49.34375 32.4375 49.238281 32.214844 49.136719 C 31.90625 48.996094 31.597656 48.863281 31.335938 48.636719 C 31.144531 48.46875 30.960938 48.292969 30.753906 48.148438 " fill-opacity="1" fill-rule="nonzero"/><path fill="#ffdfd8" d="M 30.777344 47.945312 C 30.785156 47.960938 30.792969 47.980469 30.800781 47.996094 C 30.941406 48.25 31.140625 48.46875 31.382812 48.628906 C 31.519531 48.71875 31.664062 48.789062 31.785156 48.898438 C 31.832031 48.945312 31.878906 49 31.878906 49.066406 C 31.871094 49.503906 30.992188 49.140625 30.832031 49.078125 C 30.492188 48.9375 30.148438 48.800781 29.804688 48.660156 C 29.722656 48.625 29.636719 48.589844 29.566406 48.53125 C 29.304688 48.3125 29.417969 48.058594 29.496094 47.789062 C 29.59375 47.445312 29.671875 47.101562 29.726562 46.75 C 30 46.800781 30.554688 46.976562 30.644531 47.277344 C 30.71875 47.519531 30.667969 47.707031 30.777344 47.945312 " fill-opacity="1" fill-rule="nonzero"/><path fill="#ffa15e" d="M 20.78125 44.582031 C 20.570312 44.894531 20.359375 45.203125 20.148438 45.511719 C 19.953125 45.796875 20.214844 45.871094 20.417969 46.023438 C 20.671875 46.207031 20.9375 46.375 21.210938 46.53125 C 21.238281 46.546875 21.265625 46.5625 21.296875 46.558594 C 21.328125 46.554688 21.351562 46.527344 21.375 46.503906 C 21.984375 45.84375 22.566406 45.148438 23.167969 44.488281 C 24.175781 43.390625 25.085938 42.210938 25.921875 40.976562 C 26.816406 39.664062 28.367188 37.902344 28.636719 36.324219 C 28.722656 35.835938 28.609375 35.335938 28.492188 34.855469 C 28.179688 33.574219 27.816406 32.3125 27.433594 31.050781 C 27.238281 30.40625 27.117188 29.535156 26.464844 29.171875 C 25.222656 28.472656 24.933594 31.085938 24.9375 31.988281 C 24.9375 33.246094 25.285156 34.4375 25.542969 35.660156 C 25.714844 36.464844 25.515625 37.214844 25.097656 37.910156 C 23.734375 40.183594 22.269531 42.390625 20.78125 44.582031 " fill-opacity="1" fill-rule="nonzero"/><path fill="#ffa15e" d="M 30.914062 47.027344 C 30.902344 47.136719 30.886719 47.246094 30.863281 47.351562 C 30.679688 47.378906 30.460938 47.277344 30.273438 47.253906 C 29.984375 47.226562 29.695312 47.203125 29.40625 47.175781 C 29.394531 46.320312 29.445312 45.472656 29.460938 44.621094 C 29.476562 43.722656 29.507812 42.828125 29.558594 41.933594 C 29.636719 40.464844 30.023438 38.867188 29.777344 37.398438 C 29.535156 35.945312 28.503906 34.398438 27.882812 33.050781 C 28.714844 33.074219 30.347656 32.660156 31.070312 33.085938 C 31.613281 33.402344 31.742188 34.226562 31.949219 34.792969 C 32.1875 35.445312 32.269531 36.128906 32.398438 36.8125 C 32.449219 37.101562 32.503906 37.390625 32.511719 37.683594 C 32.523438 38.03125 32.46875 38.382812 32.414062 38.726562 C 32.113281 40.632812 31.769531 42.511719 31.335938 44.394531 C 31.210938 44.9375 31.085938 45.484375 31.003906 46.039062 C 30.957031 46.363281 30.949219 46.699219 30.914062 47.027344 " fill-opacity="1" fill-rule="nonzero"/><path fill="#ffd0ba" d="M 35.878906 18.601562 C 36.464844 18.128906 37.082031 17.703125 37.640625 17.207031 C 37.859375 17.007812 38.140625 16.914062 38.371094 16.730469 C 38.703125 16.464844 39.050781 16.210938 39.433594 16.023438 C 39.519531 15.980469 39.609375 15.929688 39.695312 15.894531 C 39.835938 15.839844 39.96875 15.769531 40.117188 15.730469 C 40.144531 15.722656 40.175781 15.71875 40.203125 15.710938 C 40.222656 15.703125 40.238281 15.695312 40.253906 15.6875 L 40.144531 16.019531 L 40.148438 16.019531 C 40.140625 16.039062 40.132812 16.058594 40.125 16.058594 C 40.148438 16.054688 40.175781 16.0625 40.199219 16.0625 C 40.222656 16.0625 40.25 16.058594 40.277344 16.0625 C 40.433594 16.074219 40.632812 16.132812 40.78125 16.074219 C 40.941406 16.015625 41.140625 15.945312 41.253906 16.117188 C 41.3125 16.203125 41.40625 16.289062 41.347656 16.398438 C 41.3125 16.460938 41.257812 16.507812 41.203125 16.546875 C 41.1875 16.558594 40.976562 16.675781 40.972656 16.667969 C 40.992188 16.695312 41.011719 16.722656 41.023438 16.753906 C 41.050781 16.832031 40.996094 16.953125 40.957031 17.023438 C 40.90625 17.109375 40.816406 17.164062 40.71875 17.167969 C 40.789062 17.164062 40.8125 17.265625 40.804688 17.320312 C 40.796875 17.378906 40.769531 17.453125 40.722656 17.496094 C 40.671875 17.542969 40.59375 17.578125 40.535156 17.613281 C 40.585938 17.675781 40.585938 17.765625 40.554688 17.839844 C 40.519531 17.910156 40.457031 17.964844 40.386719 18 C 40.257812 18.0625 40.113281 18.078125 39.976562 18.101562 C 39.742188 18.132812 39.453125 18.148438 39.21875 18.105469 C 38.996094 18.066406 38.8125 17.910156 38.570312 17.988281 C 38.417969 18.039062 38.285156 18.140625 38.160156 18.242188 C 37.289062 18.945312 36.398438 19.621094 35.484375 20.269531 C 35.511719 19.921875 35.285156 19.582031 35.296875 19.285156 C 35.308594 19.003906 35.621094 18.8125 35.878906 18.601562 " fill-opacity="1" fill-rule="nonzero"/><path fill="#ffdfd8" d="M 28.636719 13.808594 C 28.757812 13.472656 28.886719 13.140625 29.015625 12.8125 C 29.054688 12.714844 29.09375 12.621094 29.117188 12.519531 C 29.136719 12.429688 29.140625 12.332031 29.148438 12.238281 C 29.164062 11.953125 29.179688 11.664062 29.199219 11.378906 C 29.226562 10.96875 29.339844 10.585938 29.449219 10.195312 C 29.667969 9.410156 29.945312 8.546875 30.578125 7.996094 C 31.492188 7.195312 32.671875 7.386719 33.582031 8.132812 C 34.0625 8.527344 34.46875 9.277344 34.3125 9.917969 C 34.160156 10.535156 33.828125 10.960938 34.101562 11.640625 C 34.140625 11.738281 34.210938 11.824219 34.28125 11.902344 C 34.347656 11.972656 34.40625 12.054688 34.488281 12.109375 C 34.460938 12.222656 34.382812 12.320312 34.289062 12.390625 C 34.195312 12.460938 34.085938 12.503906 33.972656 12.535156 C 33.875 12.566406 33.835938 12.613281 33.816406 12.707031 C 33.789062 12.828125 33.75 12.941406 33.714844 13.058594 C 33.710938 13.070312 33.707031 13.082031 33.699219 13.089844 C 33.6875 13.09375 33.675781 13.09375 33.667969 13.09375 C 33.628906 13.09375 33.585938 13.09375 33.546875 13.09375 C 33.578125 13.136719 33.613281 13.183594 33.621094 13.238281 C 33.628906 13.292969 33.609375 13.355469 33.558594 13.375 C 33.535156 13.386719 33.503906 13.386719 33.480469 13.394531 C 33.445312 13.410156 33.417969 13.441406 33.394531 13.46875 C 33.285156 13.609375 33.214844 13.78125 33.054688 13.867188 C 32.894531 13.953125 32.722656 13.941406 32.558594 13.875 C 31.847656 13.578125 31.203125 12.304688 30.839844 13.621094 C 30.546875 14.675781 30.785156 16.667969 29.597656 17.214844 C 29.097656 17.445312 28.4375 17.296875 28.136719 16.835938 C 27.863281 16.417969 27.925781 15.859375 28.085938 15.382812 C 28.257812 14.855469 28.441406 14.328125 28.636719 13.808594 " fill-opacity="1" fill-rule="nonzero"/><path fill="#f04191" d="M 34.621094 9.472656 C 34.695312 9.539062 34.769531 9.601562 34.855469 9.648438 C 35.09375 9.789062 35.40625 9.804688 35.652344 9.675781 C 35.898438 9.546875 36.0625 9.269531 36.042969 8.992188 C 36.019531 8.710938 35.800781 8.457031 35.523438 8.414062 C 35.773438 8.363281 35.921875 8.082031 35.894531 7.832031 C 35.863281 7.578125 35.699219 7.363281 35.507812 7.195312 C 35.140625 6.875 34.660156 6.699219 34.175781 6.683594 C 33.902344 6.675781 32.988281 6.730469 33.015625 7.183594 C 33 6.914062 32.800781 6.683594 32.558594 6.5625 C 32.320312 6.445312 32.042969 6.421875 31.773438 6.425781 C 31.355469 6.429688 30.890625 6.527344 30.632812 6.859375 C 30.566406 6.054688 30.070312 5.144531 29.175781 5.082031 C 28.925781 5.0625 28.679688 5.128906 28.445312 5.21875 C 28.179688 5.320312 27.917969 5.460938 27.75 5.6875 C 27.578125 5.914062 27.527344 6.246094 27.683594 6.484375 C 27.460938 6.5 27.230469 6.515625 27.023438 6.597656 C 26.8125 6.679688 26.617188 6.835938 26.550781 7.050781 C 26.5 7.203125 26.519531 7.371094 26.5625 7.527344 C 26.816406 8.4375 27.824219 8.984375 28.699219 9.074219 C 28.398438 9.765625 28.417969 10.585938 28.742188 11.265625 C 28.953125 11.703125 29.28125 12.074219 29.082031 12.597656 C 29.113281 12.515625 29.773438 12.347656 29.890625 12.296875 C 30.214844 12.15625 30.519531 11.980469 30.808594 11.78125 C 30.992188 11.660156 31.175781 11.519531 31.394531 11.5 C 31.277344 11.332031 31.15625 11.160156 31.101562 10.964844 C 31.042969 10.738281 31.136719 10.128906 31.492188 10.34375 C 31.796875 10.527344 32.015625 10.851562 32.074219 11.203125 C 32.269531 11.074219 32.261719 10.792969 32.246094 10.558594 C 32.230469 10.324219 32.261719 10.035156 32.476562 9.945312 C 32.601562 9.894531 32.742188 9.933594 32.878906 9.933594 C 33.144531 9.9375 33.414062 9.761719 33.507812 9.511719 C 33.582031 9.3125 33.46875 9.074219 33.800781 9.023438 C 34.011719 8.992188 34.214844 9.105469 34.375 9.242188 C 34.457031 9.316406 34.539062 9.398438 34.621094 9.472656 " fill-opacity="1" fill-rule="nonzero"/><path fill="#ffffff" d="M 30.832031 14.675781 C 30.832031 14.679688 30.828125 14.6875 30.828125 14.691406 C 30.808594 14.816406 30.828125 14.941406 30.847656 15.066406 C 30.90625 15.464844 30.960938 15.871094 31.054688 16.261719 C 31.183594 16.8125 31.222656 17.375 31.371094 17.917969 C 31.480469 18.316406 31.617188 18.710938 31.613281 19.125 C 31.613281 20.636719 30.554688 22.046875 29.886719 23.347656 C 29.796875 23.527344 29.703125 23.714844 29.691406 23.914062 C 29.679688 24.066406 29.71875 24.214844 29.757812 24.363281 C 30.71875 28.164062 31.402344 32.054688 32.34375 35.871094 C 30.734375 35.765625 29.046875 35.8125 27.429688 35.8125 C 26.53125 35.8125 25.664062 35.953125 24.769531 35.839844 C 24.75 35.839844 24.726562 35.835938 24.714844 35.820312 C 24.703125 35.808594 24.699219 35.792969 24.695312 35.773438 C 24.632812 35.445312 24.570312 35.117188 24.519531 34.785156 C 24.164062 32.554688 23.867188 30.265625 24.257812 28.019531 C 24.460938 26.859375 25.054688 25.488281 25.605469 24.449219 C 25.785156 24.109375 25.988281 23.777344 26.101562 23.410156 C 26.183594 23.125 26.210938 22.824219 26.234375 22.527344 C 26.371094 20.847656 26.277344 18.90625 26.714844 17.28125 C 26.894531 16.625 27.160156 15.992188 27.460938 15.382812 C 27.617188 15.0625 27.78125 14.746094 27.953125 14.433594 C 28.105469 14.144531 28.332031 13.898438 28.523438 13.632812 C 28.742188 13.332031 28.761719 12.917969 28.921875 12.582031 C 29.246094 12.652344 29.625 13.25 29.867188 13.476562 C 30.003906 13.601562 30.863281 14.472656 31.035156 14.398438 C 30.925781 14.445312 30.855469 14.558594 30.832031 14.675781 " fill-opacity="1" fill-rule="nonzero"/><path fill="#ffffff" d="M 31.4375 23.980469 C 31.921875 24.042969 32.695312 23.226562 32.964844 23.007812 C 33.476562 22.601562 33.984375 22.1875 34.484375 21.765625 C 35.476562 20.9375 36.449219 20.089844 37.40625 19.21875 C 37.46875 19.160156 37.199219 18.730469 37.171875 18.664062 C 37.039062 18.363281 36.933594 18.046875 36.746094 17.773438 C 36.816406 17.875 33.582031 20.273438 33.285156 20.5 C 32.902344 20.796875 32.519531 21.09375 32.117188 21.359375 C 32.074219 21.390625 31.386719 19.816406 31.335938 19.691406 C 31.082031 19.050781 30.847656 18.40625 30.585938 17.769531 C 30.265625 16.992188 29.855469 15.511719 28.746094 15.601562 C 27.523438 15.699219 27.863281 17.421875 28.097656 18.203125 C 28.726562 20.296875 29.699219 22.332031 31.234375 23.878906 C 31.292969 23.9375 31.363281 23.96875 31.4375 23.980469 " fill-opacity="1" fill-rule="nonzero"/><path fill="#b5e8e8" d="M 30.25 22.734375 C 30.253906 22.726562 30.257812 22.722656 30.261719 22.714844 C 29.429688 21.648438 28.851562 20.398438 28.292969 19.191406 L 28.191406 19.238281 C 28.757812 20.464844 29.34375 21.730469 30.195312 22.816406 C 30.214844 22.789062 30.230469 22.761719 30.25 22.734375 " fill-opacity="1" fill-rule="nonzero"/><path fill="#b5e8e8" d="M 31.511719 20.078125 C 31.511719 20.070312 31.507812 20.0625 31.503906 20.050781 C 31.488281 19.996094 31.496094 19.949219 31.523438 19.914062 C 30.941406 19.019531 30.414062 18.082031 29.953125 17.117188 L 29.851562 17.164062 C 30.332031 18.175781 30.890625 19.15625 31.507812 20.089844 C 31.507812 20.085938 31.511719 20.082031 31.511719 20.078125 " fill-opacity="1" fill-rule="nonzero"/><path fill="#b5e8e8" d="M 28.441406 31.515625 C 28.605469 31.542969 28.773438 31.535156 28.9375 31.492188 C 29.605469 31.328125 29.917969 30.847656 29.925781 29.976562 C 29.925781 29.75 29.867188 28.257812 29.8125 28.023438 C 29.558594 28.042969 29.292969 28.050781 29.039062 28.0625 C 28.511719 28.082031 27.964844 28.101562 27.449219 28.207031 C 27.445312 28.394531 27.429688 28.578125 27.417969 28.757812 C 27.394531 29.136719 27.367188 29.496094 27.410156 29.890625 C 27.445312 30.207031 27.484375 30.53125 27.597656 30.828125 C 27.738281 31.195312 28.054688 31.449219 28.441406 31.515625 Z M 28.636719 31.640625 C 28.566406 31.640625 28.496094 31.636719 28.425781 31.625 C 27.996094 31.554688 27.648438 31.269531 27.492188 30.867188 C 27.375 30.558594 27.335938 30.226562 27.300781 29.902344 C 27.257812 29.5 27.28125 29.136719 27.308594 28.75 C 27.320312 28.558594 27.335938 28.363281 27.339844 28.160156 L 27.339844 28.117188 L 27.382812 28.109375 C 27.921875 27.992188 28.488281 27.96875 29.035156 27.949219 C 29.300781 27.9375 29.578125 27.929688 29.839844 27.90625 C 29.859375 27.90625 29.875 27.910156 29.886719 27.925781 C 29.914062 27.949219 29.949219 27.984375 29.996094 28.933594 C 30.019531 29.398438 30.035156 29.886719 30.035156 29.976562 C 30.027344 30.894531 29.679688 31.425781 28.964844 31.601562 C 28.855469 31.628906 28.746094 31.640625 28.636719 31.640625 " fill-opacity="1" fill-rule="nonzero"/></svg>