<svg xmlns="http://www.w3.org/2000/svg" xmlns:xlink="http://www.w3.org/1999/xlink" width="80" zoomAndPan="magnify" viewBox="0 0 60 60" height="80" preserveAspectRatio="xMidYMid meet" version="1.0"><defs><clipPath id="39f7264574"><path d="M 0 5.101562 L 60 5.101562 L 60 52.351562 L 0 52.351562 Z M 0 5.101562 " clip-rule="nonzero"/></clipPath></defs><g clip-path="url(#39f7264574)"><path fill="#fc517e" d="M 59.324219 45.15625 C 59.300781 45.15625 59.28125 45.152344 59.261719 45.152344 C 59.136719 45.15625 59.011719 45.101562 58.914062 45.015625 C 56.675781 43.027344 54.503906 44.195312 52.402344 42.90625 C 54.519531 43.03125 56.578125 40.851562 58.5625 41.964844 C 58.6875 42.035156 58.777344 42.15625 58.832031 42.289062 C 58.847656 42.332031 58.875 42.375 58.910156 42.410156 C 59.164062 42.820312 59.75 42.464844 59.5625 42.046875 C 59.546875 41.894531 59.421875 41.757812 59.257812 41.726562 C 59.136719 41.703125 59.023438 41.660156 58.929688 41.578125 C 58.277344 41 57.414062 40.875 56.554688 40.992188 C 57.257812 40.609375 57.992188 40.328125 58.839844 40.351562 C 58.945312 40.355469 59.042969 40.394531 59.136719 40.445312 C 59.652344 40.730469 60.011719 39.75 59.3125 39.683594 C 59.222656 39.683594 59.152344 39.707031 59.09375 39.742188 C 58.972656 39.824219 58.835938 39.871094 58.691406 39.859375 C 56.3125 39.636719 54.617188 42.421875 52.195312 41.945312 C 51.574219 41.761719 51.417969 41.222656 51.136719 40.707031 C 50.421875 39.394531 49.46875 38.214844 48.351562 37.222656 C 43.222656 32.425781 36.894531 34.066406 30.851562 32.136719 C 27.675781 31.015625 23.464844 26.578125 26.148438 23.019531 C 28.285156 20.191406 31.847656 24.609375 33.640625 25.34375 C 33.886719 25.441406 34.050781 25.074219 33.808594 24.964844 C 32.117188 24.164062 31.375 22.253906 29.808594 21.269531 C 31.019531 21.265625 32.21875 21.570312 33.378906 21.769531 C 33.824219 21.980469 34.257812 22.214844 34.679688 22.46875 C 34.890625 22.597656 35.109375 22.238281 34.90625 22.097656 C 33.425781 21.101562 31.78125 20.445312 30.039062 20.101562 C 31.769531 19.347656 33.5 18.332031 35.414062 18.734375 C 35.679688 18.789062 35.734375 18.394531 35.480469 18.328125 C 33.75 17.871094 32.226562 18.574219 30.6875 19.257812 C 31.902344 18 32.886719 16.394531 34.625 15.902344 C 34.859375 15.828125 34.804688 15.28125 34.523438 15.332031 C 31.78125 15.84375 30.605469 19.175781 28.085938 19.726562 C 25.777344 19.417969 23.164062 16.925781 23.234375 14.496094 C 24.640625 11.902344 28.015625 10.867188 30.785156 10.492188 C 31.140625 10.457031 31.082031 9.941406 30.734375 9.949219 C 28.476562 10.003906 26.292969 10.828125 24.4375 12.101562 C 24.546875 11.773438 27.039062 7.132812 25.804688 7.988281 C 25.058594 9.558594 24.234375 11.085938 23.300781 12.550781 C 23.328125 10.414062 22.519531 8.027344 22.898438 6.070312 C 22.957031 5.769531 22.492188 5.695312 22.425781 5.996094 C 22.152344 7.28125 22.164062 8.546875 22.117188 9.847656 C 22.085938 10.648438 21.871094 11.472656 21.871094 12.261719 C 20.945312 10.09375 18.628906 8.085938 19.46875 5.582031 C 19.566406 5.296875 19.140625 5.097656 19.03125 5.390625 C 17.796875 8.492188 21.082031 10.765625 21.484375 13.589844 C 20.828125 16.339844 16.773438 17.121094 14.675781 15.523438 C 12.476562 12.730469 12.574219 8.933594 12.671875 5.589844 C 12.664062 5.320312 12.214844 5.300781 12.199219 5.574219 C 12.066406 8.136719 11.46875 11.269531 12.140625 13.886719 C 11.28125 11.46875 10.984375 8.695312 8.757812 7.09375 C 8.464844 6.882812 8.109375 7.316406 8.402344 7.535156 C 10.375 9.023438 10.640625 11.621094 11.261719 13.953125 C 9.253906 12.839844 6.808594 12.136719 5.566406 9.984375 C 5.488281 9.863281 5.355469 9.847656 5.242188 9.890625 C 3.753906 9.457031 6.410156 12.339844 6.832031 12.4375 C 8.113281 13.59375 9.757812 14.335938 11.042969 15.5 C 8.792969 14.40625 5.394531 16.410156 3.808594 13.976562 C 2.574219 13.503906 4.285156 16.261719 7.230469 15.910156 C 8.90625 15.785156 10.746094 15.835938 12.101562 16.9375 C 14.039062 20.484375 10.789062 23.632812 7.164062 22.917969 C 4.585938 22.425781 3.507812 19.652344 1.042969 18.988281 C 0.863281 18.949219 0.269531 18.796875 0.117188 18.988281 C 0.00390625 19.128906 0.09375 19.410156 0.320312 19.425781 C 3.347656 19.617188 3.964844 23.617188 6.808594 24.375 C 5.53125 24.125 4.226562 23.613281 2.957031 23.285156 C 2.492188 23.183594 1.78125 22.6875 1.351562 23 C 1.042969 23.027344 0.972656 23.515625 1.316406 23.554688 C 1.796875 23.609375 2.300781 23.71875 2.8125 23.863281 C 3.988281 24.382812 5.070312 25.132812 6.289062 25.542969 C 5.160156 26.417969 4.167969 27.890625 2.554688 27.535156 C 2.421875 27.511719 2.328125 27.570312 2.28125 27.65625 C 1.992188 27.625 1.933594 28.070312 2.226562 28.144531 C 4.691406 28.75 6.359375 26.328125 8.566406 25.789062 C 7.011719 27.199219 6.289062 29.921875 4.03125 30.34375 C 3.886719 30.363281 3.695312 30.402344 3.679688 30.550781 C 4.167969 31.328125 5.84375 30.203125 6.308594 29.667969 C 7.433594 28.523438 8.054688 26.6875 9.671875 26.136719 C 13.875 25.121094 17.453125 32.410156 12.804688 34.324219 C 11.097656 35.089844 9.0625 34.40625 7.40625 33.8125 C 7.125 33.710938 6.933594 34.125 7.21875 34.242188 C 9.859375 35.582031 13.300781 36.015625 15.269531 33.292969 C 14.375 35.632812 13.476562 38.097656 11.347656 39.578125 C 11.117188 39.738281 11.367188 40.066406 11.601562 39.925781 C 13.855469 38.578125 14.964844 36.203125 15.925781 33.851562 C 15.652344 36.332031 17.914062 38.558594 16.851562 40.976562 C 16.726562 41.226562 17.105469 41.375 17.238281 41.148438 C 18.660156 38.640625 16.121094 36.011719 16.609375 33.382812 C 17.601562 36.523438 20.515625 37.597656 20.902344 39.996094 C 20.917969 40.097656 20.925781 40.207031 20.984375 40.289062 C 21.121094 40.46875 21.335938 40.378906 21.320312 40.160156 C 21.425781 38.125 19.402344 36.996094 18.597656 35.335938 C 16.882812 31.71875 20.71875 29.492188 23.851562 30.914062 C 24.703125 31.300781 25.308594 31.992188 26.097656 32.464844 C 27.207031 33.125 28.398438 33.605469 29.636719 33.953125 C 37.464844 35.910156 45.484375 33.960938 50.527344 42.050781 C 50.820312 42.867188 51.171875 43.773438 50.871094 44.664062 C 50.035156 46.703125 47.511719 47.761719 45.996094 49.351562 C 45.890625 49.464844 45.746094 49.527344 45.59375 49.539062 C 45.304688 49.554688 45.09375 49.957031 45.347656 50.195312 C 45.546875 50.40625 45.90625 50.292969 45.984375 50.039062 C 46.011719 49.957031 46.042969 49.878906 46.109375 49.816406 C 46.738281 49.210938 47.449219 48.699219 48.15625 48.183594 C 47.664062 48.769531 47.238281 49.394531 46.96875 50.121094 C 46.925781 50.238281 46.84375 50.332031 46.746094 50.402344 C 46.601562 50.511719 46.539062 50.710938 46.59375 50.890625 C 46.65625 51.113281 46.890625 51.246094 47.109375 51.183594 C 47.363281 51.121094 47.480469 50.820312 47.394531 50.59375 C 47.335938 50.433594 47.34375 50.257812 47.417969 50.109375 C 48.449219 47.992188 50.945312 46.960938 51.679688 44.613281 C 52.191406 46.855469 51.195312 49.320312 49.636719 50.984375 C 49.515625 51.113281 49.347656 51.175781 49.175781 51.183594 C 48.78125 51.203125 48.671875 51.921875 49.203125 51.945312 C 49.378906 51.945312 49.488281 51.847656 49.539062 51.722656 C 49.574219 51.632812 49.636719 51.558594 49.707031 51.492188 C 50.421875 50.835938 51.042969 50 51.515625 49.074219 C 51.347656 49.804688 51.183594 50.535156 51.097656 51.28125 C 51.082031 51.40625 51.03125 51.523438 50.945312 51.613281 C 50.726562 51.84375 50.824219 52.332031 51.230469 52.332031 C 51.601562 52.332031 51.714844 51.9375 51.578125 51.691406 C 51.511719 51.578125 51.484375 51.449219 51.503906 51.324219 C 51.835938 49.027344 52.921875 46.816406 52.539062 44.445312 L 52.546875 44.441406 C 52.769531 44.632812 52.984375 44.828125 53.191406 45.035156 C 53.207031 45.089844 53.238281 45.144531 53.296875 45.183594 C 53.734375 45.523438 54.007812 46.042969 54.28125 46.511719 C 54.511719 47.488281 54.070312 48.625 53.777344 49.707031 C 53.738281 49.855469 53.652344 49.992188 53.519531 50.070312 C 53.265625 50.222656 53.230469 50.648438 53.523438 50.808594 C 53.871094 51.027344 54.261719 50.628906 54.136719 50.296875 C 54.09375 50.179688 54.085938 50.046875 54.125 49.929688 C 54.355469 49.207031 54.660156 48.484375 54.796875 47.742188 C 55.066406 48.601562 55.179688 49.507812 55.128906 50.425781 C 55.125 50.519531 55.085938 50.609375 55.042969 50.691406 C 54.910156 50.957031 55.03125 51.363281 55.421875 51.363281 C 55.847656 51.363281 55.957031 50.871094 55.75 50.617188 C 55.65625 50.507812 55.601562 50.371094 55.613281 50.226562 C 55.773438 48.117188 55.128906 45.871094 53.617188 44.359375 C 55.265625 44.601562 57.140625 44.773438 57.878906 46.378906 C 57.953125 46.535156 57.941406 46.714844 57.863281 46.867188 C 57.722656 47.148438 57.976562 47.5625 58.339844 47.449219 C 58.640625 47.382812 58.746094 46.945312 58.511719 46.746094 C 58.335938 45.90625 57.933594 45.199219 57.328125 44.679688 C 57.824219 44.851562 58.296875 45.09375 58.71875 45.40625 C 58.8125 45.476562 58.875 45.574219 58.914062 45.683594 C 58.964844 45.828125 59.09375 45.945312 59.300781 45.929688 C 59.75 45.898438 59.765625 45.203125 59.316406 45.15625 Z M 59.324219 45.15625 " fill-opacity="1" fill-rule="nonzero"/></g><path fill="#fbc669" d="M 23.566406 22.984375 C 23.566406 23.308594 23.535156 23.628906 23.472656 23.945312 C 23.410156 24.265625 23.316406 24.574219 23.191406 24.871094 C 23.066406 25.171875 22.917969 25.457031 22.738281 25.726562 C 22.558594 25.996094 22.351562 26.246094 22.125 26.472656 C 21.898438 26.703125 21.648438 26.90625 21.378906 27.085938 C 21.109375 27.265625 20.828125 27.417969 20.527344 27.542969 C 20.230469 27.667969 19.921875 27.761719 19.605469 27.824219 C 19.289062 27.886719 18.96875 27.917969 18.644531 27.917969 C 18.324219 27.917969 18.003906 27.886719 17.6875 27.824219 C 17.367188 27.761719 17.0625 27.667969 16.761719 27.542969 C 16.464844 27.417969 16.179688 27.265625 15.910156 27.085938 C 15.644531 26.90625 15.394531 26.703125 15.167969 26.472656 C 14.9375 26.246094 14.734375 25.996094 14.554688 25.726562 C 14.375 25.457031 14.222656 25.171875 14.101562 24.871094 C 13.976562 24.574219 13.882812 24.265625 13.820312 23.945312 C 13.757812 23.628906 13.726562 23.308594 13.726562 22.984375 C 13.726562 22.660156 13.757812 22.335938 13.820312 22.019531 C 13.882812 21.703125 13.976562 21.394531 14.101562 21.09375 C 14.222656 20.792969 14.375 20.511719 14.554688 20.242188 C 14.734375 19.972656 14.9375 19.722656 15.167969 19.492188 C 15.394531 19.261719 15.644531 19.058594 15.910156 18.878906 C 16.179688 18.699219 16.464844 18.546875 16.761719 18.421875 C 17.0625 18.296875 17.367188 18.203125 17.6875 18.140625 C 18.003906 18.078125 18.324219 18.046875 18.644531 18.046875 C 18.96875 18.046875 19.289062 18.078125 19.605469 18.140625 C 19.921875 18.203125 20.230469 18.296875 20.527344 18.421875 C 20.828125 18.546875 21.109375 18.699219 21.378906 18.878906 C 21.648438 19.058594 21.898438 19.261719 22.125 19.492188 C 22.351562 19.722656 22.558594 19.972656 22.738281 20.242188 C 22.917969 20.511719 23.066406 20.792969 23.191406 21.09375 C 23.316406 21.394531 23.410156 21.703125 23.472656 22.019531 C 23.535156 22.335938 23.566406 22.660156 23.566406 22.984375 Z M 23.566406 22.984375 " fill-opacity="1" fill-rule="nonzero"/><path fill="#fbc669" d="M 32.941406 31.394531 C 32.039062 30.964844 30.96875 30.320312 29.980469 30.136719 C 29.023438 29.960938 28.484375 31.160156 28.226562 31.886719 C 27.878906 32.859375 27.65625 33.957031 28.703125 34.570312 C 29.765625 35.195312 31.609375 35.8125 32.835938 35.453125 C 33.9375 35.132812 34.160156 33.78125 34.085938 32.789062 C 34.027344 32.050781 33.574219 31.695312 32.941406 31.394531 Z M 32.941406 31.394531 " fill-opacity="1" fill-rule="nonzero"/><path fill="#fbc669" d="M 38.945312 32.011719 C 38.203125 31.828125 37.398438 31.726562 36.636719 31.792969 C 35.617188 31.882812 35.222656 32.546875 34.925781 33.449219 C 34.625 34.351562 34.578125 35.59375 35.703125 35.957031 C 37 36.378906 39.042969 36.699219 39.699219 35.167969 C 40.152344 34.105469 40.359375 32.363281 38.945312 32.011719 Z M 38.945312 32.011719 " fill-opacity="1" fill-rule="nonzero"/><path fill="#fbc669" d="M 42.855469 33.023438 C 42.136719 33.035156 41.40625 33.199219 41.085938 33.835938 C 40.492188 35.011719 40.429688 36.152344 41.753906 36.730469 C 42.652344 37.121094 43.828125 37.796875 44.835938 37.746094 C 46.238281 37.671875 46.964844 35.691406 46.472656 34.523438 C 46.054688 33.519531 44.882812 33.179688 43.894531 33.082031 C 43.585938 33.050781 43.222656 33.019531 42.855469 33.023438 Z M 42.855469 33.023438 " fill-opacity="1" fill-rule="nonzero"/><path fill="#fbc669" d="M 50.464844 36.808594 C 50.183594 36.511719 49.871094 36.234375 49.535156 36.046875 C 48.800781 35.632812 48.324219 35.796875 47.753906 36.3125 C 46.738281 37.230469 46.09375 38.410156 47.128906 39.699219 C 48.085938 40.878906 49.996094 42.03125 51.378906 40.8125 C 52.527344 39.796875 51.695312 38.253906 50.90625 37.308594 C 50.769531 37.144531 50.621094 36.972656 50.460938 36.808594 Z M 50.464844 36.808594 " fill-opacity="1" fill-rule="nonzero"/><path fill="#ff8352" d="M 32.09375 32.707031 C 32.074219 32.84375 32.003906 32.980469 31.871094 33.097656 C 31.714844 33.238281 31.507812 33.3125 31.300781 33.339844 C 30.652344 33.429688 29.367188 32.917969 29.722656 32.058594 C 30.15625 31.007812 32.25 31.609375 32.09375 32.707031 Z M 32.09375 32.707031 " fill-opacity="1" fill-rule="nonzero"/><path fill="#ff8352" d="M 38.242188 33.398438 C 38.257812 33.507812 38.234375 33.625 38.160156 33.75 C 38.074219 33.894531 37.929688 34 37.777344 34.070312 C 37.300781 34.289062 36.195312 34.191406 36.273438 33.449219 C 36.363281 32.542969 38.109375 32.519531 38.242188 33.398438 Z M 38.242188 33.398438 " fill-opacity="1" fill-rule="nonzero"/><path fill="#ff8352" d="M 45.179688 34.988281 C 45.167969 35.117188 45.109375 35.246094 44.988281 35.367188 C 44.847656 35.507812 44.65625 35.585938 44.460938 35.625 C 43.855469 35.742188 42.613281 35.324219 42.90625 34.492188 C 43.261719 33.480469 45.273438 33.941406 45.179688 34.984375 Z M 45.179688 34.988281 " fill-opacity="1" fill-rule="nonzero"/><path fill="#ff8352" d="M 50.390625 38.667969 C 50.316406 38.777344 50.203125 38.863281 50.039062 38.910156 C 49.847656 38.964844 49.644531 38.941406 49.457031 38.882812 C 48.867188 38.691406 47.976562 37.730469 48.632812 37.140625 C 49.429688 36.421875 50.972656 37.796875 50.390625 38.667969 Z M 50.390625 38.667969 " fill-opacity="1" fill-rule="nonzero"/><path fill="#fdd898" d="M 17.351562 19.40625 C 17.515625 19.484375 17.648438 19.597656 17.761719 19.742188 C 17.875 19.890625 17.953125 20.0625 18 20.253906 C 18.046875 20.449219 18.058594 20.648438 18.03125 20.859375 C 18.003906 21.070312 17.945312 21.273438 17.851562 21.472656 C 17.757812 21.667969 17.632812 21.839844 17.484375 21.992188 C 17.335938 22.140625 17.171875 22.257812 16.992188 22.34375 C 16.8125 22.425781 16.628906 22.46875 16.445312 22.472656 C 16.257812 22.472656 16.085938 22.4375 15.925781 22.359375 C 15.765625 22.28125 15.628906 22.167969 15.515625 22.019531 C 15.40625 21.875 15.324219 21.703125 15.277344 21.507812 C 15.230469 21.316406 15.222656 21.113281 15.246094 20.902344 C 15.273438 20.691406 15.332031 20.488281 15.429688 20.292969 C 15.523438 20.097656 15.644531 19.921875 15.792969 19.773438 C 15.941406 19.621094 16.105469 19.503906 16.289062 19.421875 C 16.46875 19.335938 16.652344 19.292969 16.835938 19.292969 C 17.019531 19.289062 17.191406 19.328125 17.351562 19.40625 Z M 17.351562 19.40625 " fill-opacity="1" fill-rule="nonzero"/><path fill="#fdd898" d="M 15.980469 23.175781 C 16.125 23.246094 16.222656 23.371094 16.261719 23.546875 C 16.304688 23.726562 16.285156 23.90625 16.199219 24.082031 C 16.109375 24.261719 15.984375 24.390625 15.820312 24.46875 C 15.652344 24.542969 15.496094 24.546875 15.351562 24.472656 C 15.203125 24.402344 15.109375 24.277344 15.066406 24.101562 C 15.023438 23.921875 15.042969 23.746094 15.132812 23.566406 C 15.21875 23.386719 15.34375 23.257812 15.507812 23.179688 C 15.675781 23.105469 15.832031 23.101562 15.980469 23.175781 Z M 15.980469 23.175781 " fill-opacity="1" fill-rule="nonzero"/></svg>