<svg xmlns="http://www.w3.org/2000/svg" xmlns:xlink="http://www.w3.org/1999/xlink" width="80" zoomAndPan="magnify" viewBox="0 0 60 60" height="80" preserveAspectRatio="xMidYMid meet" version="1.0"><defs><clipPath id="22646f8ea5"><path d="M 3.023438 27 L 57 27 L 57 60 L 3.023438 60 Z M 3.023438 27 " clip-rule="nonzero"/></clipPath><clipPath id="c48036aa0b"><path d="M 3.023438 24 L 57 24 L 57 58 L 3.023438 58 Z M 3.023438 24 " clip-rule="nonzero"/></clipPath><clipPath id="85fb5dea2d"><path d="M 3.023438 22 L 57 22 L 57 55 L 3.023438 55 Z M 3.023438 22 " clip-rule="nonzero"/></clipPath></defs><path fill="#221616" d="M 23.09375 31.90625 C 23.09375 31.191406 23.53125 30.355469 24.070312 30.046875 C 24.203125 29.96875 24.367188 29.929688 24.496094 29.929688 C 24.59375 29.929688 24.851562 29.9375 25.117188 30.101562 C 25.425781 30.292969 25.46875 30.722656 25.46875 30.722656 L 24.371094 32.96875 C 24.371094 32.96875 24.019531 33.140625 23.65625 32.941406 C 23.429688 32.820312 23.296875 32.617188 23.234375 32.503906 C 23.207031 32.453125 23.164062 32.355469 23.152344 32.316406 C 23.113281 32.199219 23.09375 32.0625 23.09375 31.90625 " fill-opacity="1" fill-rule="nonzero"/><path fill="#352122" d="M 25.5 31.035156 C 25.5 31.753906 25.0625 32.585938 24.523438 32.894531 C 23.988281 33.207031 23.550781 32.875 23.550781 32.160156 C 23.550781 31.445312 23.988281 30.609375 24.523438 30.300781 C 25.0625 29.992188 25.5 30.320312 25.5 31.035156 " fill-opacity="1" fill-rule="nonzero"/><path fill="#ffffff" d="M 25.339844 31.128906 C 25.339844 31.726562 24.972656 32.421875 24.523438 32.679688 C 24.074219 32.941406 23.710938 32.664062 23.710938 32.066406 C 23.710938 31.46875 24.074219 30.773438 24.523438 30.515625 C 24.972656 30.257812 25.339844 30.53125 25.339844 31.128906 " fill-opacity="1" fill-rule="nonzero"/><path fill="#556ebf" d="M 22.632812 19.425781 L 22.632812 30.148438 C 22.632812 30.523438 22.757812 30.78125 22.953125 30.898438 L 22.953125 30.902344 L 32.523438 36.371094 C 32.523438 36.371094 32.515625 35.949219 32.519531 35.949219 L 35.269531 34.363281 C 35.789062 34.066406 36.214844 20.078125 36.214844 20.078125 C 36.214844 19.386719 22.632812 19.425781 22.632812 19.425781 " fill-opacity="1" fill-rule="nonzero"/><path fill="#6781c9" d="M 38.125 33.484375 L 33.125 36.316406 C 32.605469 36.613281 32.179688 36.292969 32.179688 35.601562 L 32.179688 24.390625 C 32.179688 24.390625 35.992188 20.738281 39.027344 21.03125 L 39.070312 31.679688 C 39.070312 32.371094 38.644531 33.183594 38.125 33.484375 " fill-opacity="1" fill-rule="nonzero"/><path fill="#50373a" d="M 32.191406 24.9375 L 22.632812 19.425781 L 29.464844 15.519531 L 39.027344 21.03125 L 32.191406 24.9375 " fill-opacity="1" fill-rule="nonzero"/><path fill="#221616" d="M 31.140625 36.40625 C 31.140625 35.691406 31.578125 34.859375 32.117188 34.546875 C 32.253906 34.46875 32.414062 34.429688 32.542969 34.429688 C 32.644531 34.429688 32.902344 34.441406 33.167969 34.605469 C 33.472656 34.792969 33.515625 35.222656 33.515625 35.222656 L 32.421875 37.46875 C 32.421875 37.46875 32.066406 37.640625 31.707031 37.445312 C 31.480469 37.320312 31.34375 37.117188 31.28125 37.003906 C 31.253906 36.953125 31.214844 36.855469 31.203125 36.816406 C 31.164062 36.699219 31.140625 36.5625 31.140625 36.40625 " fill-opacity="1" fill-rule="nonzero"/><path fill="#352122" d="M 33.546875 35.539062 C 33.546875 36.253906 33.113281 37.085938 32.574219 37.398438 C 32.035156 37.707031 31.597656 37.378906 31.597656 36.660156 C 31.597656 35.945312 32.035156 35.113281 32.574219 34.800781 C 33.113281 34.492188 33.546875 34.820312 33.546875 35.539062 " fill-opacity="1" fill-rule="nonzero"/><path fill="#ffffff" d="M 33.386719 35.632812 C 33.386719 36.230469 33.023438 36.921875 32.574219 37.183594 C 32.125 37.441406 31.761719 37.167969 31.761719 36.570312 C 31.761719 35.96875 32.125 35.277344 32.574219 35.015625 C 33.023438 34.757812 33.386719 35.03125 33.386719 35.632812 " fill-opacity="1" fill-rule="nonzero"/><path fill="#221616" d="M 37.359375 32.898438 C 37.359375 31.984375 37.917969 30.921875 38.605469 30.527344 C 38.777344 30.425781 38.984375 30.375 39.144531 30.375 C 39.273438 30.375 39.601562 30.390625 39.941406 30.597656 C 40.332031 30.839844 40.386719 31.386719 40.386719 31.386719 L 38.992188 34.25 C 38.992188 34.25 38.539062 34.472656 38.078125 34.21875 C 37.792969 34.0625 37.617188 33.800781 37.539062 33.660156 C 37.503906 33.597656 37.453125 33.46875 37.4375 33.421875 C 37.386719 33.273438 37.359375 33.097656 37.359375 32.898438 " fill-opacity="1" fill-rule="nonzero"/><path fill="#352122" d="M 40.429688 31.789062 C 40.429688 32.703125 39.871094 33.765625 39.183594 34.160156 C 38.5 34.554688 37.941406 34.136719 37.941406 33.222656 C 37.941406 32.308594 38.5 31.246094 39.183594 30.851562 C 39.871094 30.457031 40.429688 30.875 40.429688 31.789062 " fill-opacity="1" fill-rule="nonzero"/><path fill="#ffffff" d="M 40.222656 31.90625 C 40.222656 32.671875 39.757812 33.554688 39.183594 33.886719 C 38.613281 34.214844 38.148438 33.867188 38.148438 33.105469 C 38.148438 32.339844 38.613281 31.457031 39.183594 31.125 C 39.757812 30.792969 40.222656 31.144531 40.222656 31.90625 " fill-opacity="1" fill-rule="nonzero"/><path fill="#556ebf" d="M 38.519531 22.398438 L 38.519531 29.640625 L 33.1875 32.6875 L 33.1875 25.445312 L 38.519531 22.398438 " fill-opacity="1" fill-rule="nonzero"/><path fill="#d6bbb8" d="M 36.808594 24.011719 L 34.898438 25.101562 L 34.898438 25.863281 L 36.808594 24.773438 L 36.808594 24.011719 " fill-opacity="1" fill-rule="nonzero"/><path fill="#352122" d="M 24.769531 30.945312 C 24.359375 30.945312 23.933594 30.582031 23.863281 30.15625 C 23.734375 29.417969 23.757812 28.40625 23.757812 28.363281 C 23.757812 28.304688 23.804688 28.261719 23.867188 28.261719 C 23.925781 28.261719 23.972656 28.3125 23.96875 28.371094 C 23.96875 28.378906 23.949219 29.402344 24.070312 30.121094 C 24.128906 30.460938 24.496094 30.757812 24.808594 30.730469 C 25.117188 30.707031 25.300781 30.371094 25.304688 29.8125 C 25.304688 29.632812 25.308594 29.464844 25.308594 29.304688 C 25.3125 28.0625 25.3125 27.441406 25.90625 26.902344 C 25.953125 26.863281 26.019531 26.863281 26.058594 26.910156 C 26.097656 26.953125 26.09375 27.019531 26.050781 27.058594 C 25.527344 27.535156 25.523438 28.089844 25.519531 29.308594 C 25.519531 29.464844 25.519531 29.632812 25.519531 29.816406 C 25.507812 30.785156 25.03125 30.925781 24.824219 30.945312 C 24.808594 30.945312 24.789062 30.945312 24.769531 30.945312 " fill-opacity="1" fill-rule="nonzero"/><path fill="#50373a" d="M 24.984375 27.132812 L 24.304688 26.742188 C 24.117188 26.632812 23.964844 26.34375 23.964844 26.09375 L 23.964844 23.167969 C 23.964844 22.921875 24.117188 22.804688 24.304688 22.914062 L 24.984375 23.304688 C 25.171875 23.414062 25.320312 23.703125 25.320312 23.949219 L 25.320312 26.875 C 25.320312 27.125 25.171875 27.238281 24.984375 27.132812 " fill-opacity="1" fill-rule="nonzero"/><path fill="#d6bbb8" d="M 24.457031 23.445312 C 24.457031 23.445312 24.058594 23.667969 23.734375 24.042969 C 23.460938 24.359375 23.386719 24.691406 23.308594 26.378906 C 23.257812 27.5 23.277344 28.628906 23.277344 28.628906 L 23.789062 28.898438 C 23.789062 28.898438 24.09375 28.230469 24.257812 27.671875 C 24.421875 27.109375 24.457031 25.886719 24.457031 25.886719 L 24.96875 23.71875 L 24.457031 23.445312 " fill-opacity="1" fill-rule="nonzero"/><path fill="#c2a1a0" d="M 24.96875 23.71875 C 24.96875 23.71875 24.570312 23.941406 24.246094 24.316406 C 23.972656 24.632812 23.898438 24.964844 23.824219 26.652344 C 23.773438 27.773438 23.789062 28.898438 23.789062 28.898438 L 24.253906 28.632812 C 24.253906 28.632812 24.453125 28.171875 24.617188 27.609375 C 24.785156 27.050781 24.96875 26.160156 24.96875 26.160156 L 24.96875 23.71875 " fill-opacity="1" fill-rule="nonzero"/><path fill="#352122" d="M 23.964844 23.808594 L 24.46875 24.089844 C 24.46875 24.089844 24.53125 25.132812 24.503906 26.171875 C 24.476562 27.214844 23.789062 27.828125 23.789062 27.828125 L 23.273438 27.542969 C 23.273438 27.542969 23.238281 26.828125 23.222656 25.660156 C 23.207031 24.488281 23.476562 24.167969 23.964844 23.808594 " fill-opacity="1" fill-rule="nonzero"/><path fill="#352122" d="M 27.398438 32.472656 C 26.988281 32.472656 26.5625 32.109375 26.488281 31.679688 C 26.363281 30.941406 26.382812 29.933594 26.386719 29.890625 C 26.386719 29.832031 26.441406 29.785156 26.492188 29.785156 C 26.550781 29.789062 26.597656 29.835938 26.597656 29.894531 C 26.597656 29.90625 26.574219 30.925781 26.699219 31.644531 C 26.757812 31.984375 27.125 32.28125 27.4375 32.257812 C 27.746094 32.230469 27.925781 31.898438 27.933594 31.335938 C 27.933594 31.15625 27.933594 30.988281 27.9375 30.832031 C 27.9375 29.589844 27.941406 28.964844 28.535156 28.425781 C 28.578125 28.386719 28.644531 28.390625 28.6875 28.433594 C 28.726562 28.476562 28.722656 28.542969 28.679688 28.582031 C 28.152344 29.058594 28.152344 29.613281 28.148438 30.832031 C 28.148438 30.992188 28.148438 31.160156 28.144531 31.339844 C 28.136719 32.308594 27.660156 32.453125 27.453125 32.46875 C 27.433594 32.46875 27.417969 32.472656 27.398438 32.472656 " fill-opacity="1" fill-rule="nonzero"/><path fill="#50373a" d="M 27.613281 28.65625 L 26.933594 28.265625 C 26.746094 28.15625 26.59375 27.867188 26.59375 27.621094 L 26.59375 24.695312 C 26.59375 24.445312 26.746094 24.332031 26.933594 24.4375 L 27.613281 24.832031 C 27.796875 24.9375 27.949219 25.226562 27.949219 25.476562 L 27.949219 28.402344 C 27.949219 28.648438 27.796875 28.765625 27.613281 28.65625 " fill-opacity="1" fill-rule="nonzero"/><path fill="#d6bbb8" d="M 27.085938 24.96875 C 27.085938 24.96875 26.6875 25.195312 26.363281 25.566406 C 26.089844 25.882812 26.015625 26.21875 25.9375 27.902344 C 25.886719 29.023438 25.90625 30.152344 25.90625 30.152344 L 26.417969 30.425781 C 26.417969 30.425781 26.722656 29.757812 26.886719 29.195312 C 27.050781 28.632812 27.085938 27.410156 27.085938 27.410156 L 27.597656 25.242188 L 27.085938 24.96875 " fill-opacity="1" fill-rule="nonzero"/><path fill="#c2a1a0" d="M 27.597656 25.242188 C 27.597656 25.242188 27.199219 25.464844 26.875 25.839844 C 26.601562 26.15625 26.527344 26.488281 26.453125 28.175781 C 26.398438 29.296875 26.417969 30.425781 26.417969 30.425781 L 26.882812 30.15625 C 26.882812 30.15625 27.082031 29.695312 27.246094 29.132812 C 27.410156 28.574219 27.597656 27.683594 27.597656 27.683594 L 27.597656 25.242188 " fill-opacity="1" fill-rule="nonzero"/><path fill="#352122" d="M 26.59375 25.332031 L 27.097656 25.613281 C 27.097656 25.613281 27.160156 26.65625 27.132812 27.699219 C 27.105469 28.738281 26.417969 29.351562 26.417969 29.351562 L 25.902344 29.070312 C 25.902344 29.070312 25.867188 28.355469 25.851562 27.183594 C 25.835938 26.015625 26.105469 25.695312 26.59375 25.332031 " fill-opacity="1" fill-rule="nonzero"/><path fill="#352122" d="M 30.148438 34.019531 C 29.734375 34.019531 29.3125 33.65625 29.238281 33.226562 C 29.109375 32.488281 29.132812 31.480469 29.132812 31.4375 C 29.136719 31.378906 29.195312 31.335938 29.242188 31.332031 C 29.300781 31.335938 29.347656 31.382812 29.347656 31.441406 C 29.347656 31.453125 29.324219 32.472656 29.449219 33.191406 C 29.507812 33.53125 29.871094 33.828125 30.183594 33.804688 C 30.496094 33.777344 30.675781 33.445312 30.683594 32.882812 C 30.683594 32.703125 30.683594 32.535156 30.683594 32.378906 C 30.6875 31.136719 30.6875 30.511719 31.285156 29.972656 C 31.328125 29.933594 31.394531 29.9375 31.433594 29.980469 C 31.472656 30.023438 31.472656 30.089844 31.425781 30.128906 C 30.902344 30.605469 30.898438 31.160156 30.898438 32.378906 C 30.898438 32.539062 30.894531 32.707031 30.894531 32.886719 C 30.886719 33.855469 30.40625 34 30.203125 34.015625 C 30.183594 34.015625 30.164062 34.019531 30.148438 34.019531 " fill-opacity="1" fill-rule="nonzero"/><path fill="#50373a" d="M 30.359375 30.203125 L 29.679688 29.8125 C 29.496094 29.703125 29.34375 29.414062 29.34375 29.167969 L 29.34375 26.242188 C 29.34375 25.992188 29.496094 25.878906 29.679688 25.984375 L 30.359375 26.378906 C 30.546875 26.484375 30.699219 26.773438 30.699219 27.023438 L 30.699219 29.949219 C 30.699219 30.195312 30.546875 30.3125 30.359375 30.203125 " fill-opacity="1" fill-rule="nonzero"/><path fill="#d6bbb8" d="M 29.832031 26.515625 C 29.832031 26.515625 29.433594 26.742188 29.109375 27.113281 C 28.835938 27.429688 28.765625 27.765625 28.6875 29.449219 C 28.636719 30.570312 28.65625 31.699219 28.65625 31.699219 L 29.167969 31.972656 C 29.167969 31.972656 29.472656 31.300781 29.636719 30.742188 C 29.800781 30.179688 29.832031 28.957031 29.832031 28.957031 L 30.347656 26.789062 L 29.832031 26.515625 " fill-opacity="1" fill-rule="nonzero"/><path fill="#c2a1a0" d="M 30.347656 26.789062 C 30.347656 26.789062 29.949219 27.011719 29.625 27.386719 C 29.347656 27.703125 29.277344 28.035156 29.199219 29.722656 C 29.148438 30.84375 29.167969 31.972656 29.167969 31.972656 L 29.632812 31.703125 C 29.632812 31.703125 29.832031 31.242188 29.996094 30.679688 C 30.160156 30.121094 30.347656 29.230469 30.347656 29.230469 L 30.347656 26.789062 " fill-opacity="1" fill-rule="nonzero"/><path fill="#352122" d="M 29.34375 26.878906 L 29.847656 27.160156 C 29.847656 27.160156 29.90625 28.203125 29.882812 29.246094 C 29.855469 30.285156 29.167969 30.898438 29.167969 30.898438 L 28.652344 30.617188 C 28.652344 30.617188 28.617188 29.902344 28.597656 28.730469 C 28.582031 27.5625 28.851562 27.242188 29.34375 26.878906 " fill-opacity="1" fill-rule="nonzero"/><path fill="#352122" d="M 37.324219 14.492188 L 37.324219 20.929688 C 37.324219 21.144531 36.996094 21.320312 36.589844 21.320312 C 36.183594 21.320312 35.851562 21.144531 35.851562 20.929688 L 35.851562 14.492188 L 37.324219 14.492188 " fill-opacity="1" fill-rule="nonzero"/><path fill="#352122" d="M 30.71875 12.003906 L 30.71875 17.070312 C 30.71875 17.289062 30.390625 17.464844 29.984375 17.464844 C 29.574219 17.464844 29.246094 17.289062 29.246094 17.070312 L 29.246094 12.003906 L 30.71875 12.003906 " fill-opacity="1" fill-rule="nonzero"/><path fill="#50373a" d="M 35.207031 16.628906 L 27.75 12.332031 L 33.078125 9.28125 L 40.539062 13.582031 L 35.207031 16.628906 " fill-opacity="1" fill-rule="nonzero"/><path fill="#d6bbb8" d="M 27.75 12.332031 L 27.75 13.515625 L 35.207031 17.816406 L 35.207031 16.628906 L 27.75 12.332031 " fill-opacity="1" fill-rule="nonzero"/><path fill="#50373a" d="M 30.652344 14.320312 L 30.652344 14.988281 L 34.875 17.421875 L 34.875 16.753906 L 30.652344 14.320312 " fill-opacity="1" fill-rule="nonzero"/><path fill="#c2a1a0" d="M 40.539062 13.582031 L 40.539062 14.769531 L 35.207031 17.816406 L 35.207031 16.628906 L 40.539062 13.582031 " fill-opacity="1" fill-rule="nonzero"/><path fill="#6781c9" d="M 28.121094 13.183594 C 28.121094 13.375 28.238281 13.597656 28.382812 13.679688 C 28.527344 13.765625 28.644531 13.675781 28.644531 13.484375 C 28.644531 13.292969 28.527344 13.070312 28.382812 12.984375 C 28.238281 12.902344 28.121094 12.992188 28.121094 13.183594 " fill-opacity="1" fill-rule="nonzero"/><path fill="#ffffff" d="M 29.167969 13.78125 C 29.167969 13.871094 29.222656 13.976562 29.292969 14.019531 C 29.363281 14.058594 29.417969 14.015625 29.417969 13.921875 C 29.417969 13.832031 29.363281 13.726562 29.292969 13.683594 C 29.222656 13.644531 29.167969 13.6875 29.167969 13.78125 " fill-opacity="1" fill-rule="nonzero"/><path fill="#ffffff" d="M 29.675781 14.089844 C 29.675781 14.179688 29.734375 14.285156 29.800781 14.328125 C 29.871094 14.367188 29.925781 14.324219 29.925781 14.230469 C 29.925781 14.140625 29.871094 14.035156 29.800781 13.992188 C 29.734375 13.953125 29.675781 13.996094 29.675781 14.089844 " fill-opacity="1" fill-rule="nonzero"/><path fill="#d6bbb8" d="M 38.382812 16.21875 L 27.113281 9.722656 L 27.113281 0.375 L 38.382812 6.871094 L 38.382812 16.21875 " fill-opacity="1" fill-rule="nonzero"/><path fill="#352122" d="M 37.832031 14.980469 L 27.699219 9.140625 L 27.699219 1.550781 L 37.832031 7.390625 L 37.832031 14.980469 " fill-opacity="1" fill-rule="nonzero"/><path fill="#6781c9" d="M 30.285156 4.164062 L 28.265625 3 L 28.265625 2.484375 L 30.285156 3.648438 L 30.285156 4.164062 " fill-opacity="1" fill-rule="nonzero"/><path fill="#50373a" d="M 30.285156 9.949219 L 28.265625 8.78125 L 28.265625 8.265625 L 30.285156 9.433594 L 30.285156 9.949219 " fill-opacity="1" fill-rule="nonzero"/><path fill="#6781c9" d="M 30.285156 5.007812 L 28.265625 3.839844 L 28.265625 3.324219 L 30.285156 4.492188 L 30.285156 5.007812 " fill-opacity="1" fill-rule="nonzero"/><path fill="#c2a1a0" d="M 38.382812 6.882812 L 39.027344 6.503906 L 39.027344 15.839844 L 38.382812 16.21875 L 38.382812 6.882812 " fill-opacity="1" fill-rule="nonzero"/><path fill="#efd5d3" d="M 27.113281 0.375 L 27.753906 0 L 39.027344 6.496094 L 38.382812 6.871094 L 27.113281 0.375 " fill-opacity="1" fill-rule="nonzero"/><path fill="#50373a" d="M 33.058594 5.214844 L 30.761719 7.707031 L 30.761719 10.222656 L 36.875 13.746094 L 36.875 11.246094 L 35.078125 6.355469 L 33.058594 5.214844 " fill-opacity="1" fill-rule="nonzero"/><path fill="#412a2c" d="M 32.746094 6.871094 C 32.292969 7.238281 31.761719 7.890625 31.480469 8.398438 C 31.082031 9.105469 31.289062 9.835938 31.898438 10.332031 C 32.324219 10.675781 34.429688 11.714844 35.023438 11.8125 C 35.925781 11.960938 36.164062 11.667969 36.164062 11.09375 C 36.164062 10.410156 35.839844 9.785156 35.335938 8.792969 C 34.648438 7.4375 33.550781 6.226562 32.746094 6.871094 " fill-opacity="1" fill-rule="nonzero"/><path fill="#352122" d="M 35.140625 9.148438 C 34.890625 8.71875 34.128906 8.992188 33.34375 8.828125 C 32.554688 8.664062 32.21875 9.113281 32.410156 9.789062 C 32.597656 10.464844 34.273438 10.625 34.777344 10.308594 C 35.394531 9.921875 35.351562 9.515625 35.140625 9.148438 " fill-opacity="1" fill-rule="nonzero"/><path fill="#d6bbb8" d="M 24.582031 17.390625 C 24.582031 17.390625 22.324219 19.6875 21.089844 20.902344 C 20.503906 21.476562 20.570312 22.277344 21.117188 21.960938 C 21.699219 21.625 23.476562 20.570312 24.476562 19.972656 C 24.863281 19.742188 25.175781 19.144531 25.175781 18.628906 L 24.582031 17.390625 " fill-opacity="1" fill-rule="nonzero"/><path fill="#d6bbb8" d="M 24.582031 17.390625 L 31.738281 21.363281 L 27.699219 26.101562 L 20.734375 21.953125 L 24.582031 17.390625 " fill-opacity="1" fill-rule="nonzero"/><path fill="#c2a1a0" d="M 33.980469 20.175781 C 33.980469 20.175781 32.003906 21.109375 31.652344 21.464844 C 30.75 22.375 28.945312 24.183594 28.058594 25.054688 C 27.472656 25.632812 27.535156 26.429688 28.085938 26.113281 C 28.667969 25.777344 32.285156 23.664062 33.28125 23.070312 C 33.671875 22.839844 33.980469 22.238281 33.980469 21.722656 L 33.980469 20.175781 " fill-opacity="1" fill-rule="nonzero"/><path fill="#6781c9" d="M 21.421875 21.0625 L 27.507812 24.589844 L 30.421875 21.488281 L 24.429688 18.015625 L 21.421875 21.0625 " fill-opacity="1" fill-rule="nonzero"/><path fill="#4e3234" d="M 21.890625 21.070312 L 27.402344 24.273438 L 27.589844 24.078125 L 22.078125 20.871094 L 21.890625 21.070312 " fill-opacity="1" fill-rule="nonzero"/><path fill="#ffffff" d="M 24.253906 18.460938 L 24.804688 18.78125 L 24.988281 18.589844 L 24.4375 18.269531 L 24.253906 18.460938 " fill-opacity="1" fill-rule="nonzero"/><path fill="#ffffff" d="M 23.929688 18.804688 L 24.480469 19.125 L 24.664062 18.933594 L 24.113281 18.617188 L 23.929688 18.804688 " fill-opacity="1" fill-rule="nonzero"/><path fill="#ffffff" d="M 23.59375 19.148438 L 24.144531 19.46875 L 24.328125 19.277344 L 23.777344 18.957031 L 23.59375 19.148438 " fill-opacity="1" fill-rule="nonzero"/><path fill="#ffffff" d="M 23.269531 19.492188 L 23.824219 19.8125 L 24.003906 19.621094 L 23.453125 19.300781 L 23.269531 19.492188 " fill-opacity="1" fill-rule="nonzero"/><path fill="#ffffff" d="M 25.113281 18.976562 L 25.664062 19.296875 L 25.84375 19.105469 L 25.292969 18.789062 L 25.113281 18.976562 " fill-opacity="1" fill-rule="nonzero"/><path fill="#ffffff" d="M 24.789062 19.320312 L 25.339844 19.640625 L 25.523438 19.449219 L 24.972656 19.132812 L 24.789062 19.320312 " fill-opacity="1" fill-rule="nonzero"/><path fill="#ffffff" d="M 24.453125 19.664062 L 25.003906 19.984375 L 25.183594 19.792969 L 24.632812 19.472656 L 24.453125 19.664062 " fill-opacity="1" fill-rule="nonzero"/><path fill="#ffffff" d="M 24.128906 20.007812 L 24.679688 20.328125 L 24.863281 20.136719 L 24.3125 19.820312 L 24.128906 20.007812 " fill-opacity="1" fill-rule="nonzero"/><path fill="#ffffff" d="M 25.992188 19.484375 L 26.542969 19.804688 L 26.726562 19.613281 L 26.175781 19.296875 L 25.992188 19.484375 " fill-opacity="1" fill-rule="nonzero"/><path fill="#ffffff" d="M 25.667969 19.832031 L 26.21875 20.148438 L 26.402344 19.957031 L 25.851562 19.640625 L 25.667969 19.832031 " fill-opacity="1" fill-rule="nonzero"/><path fill="#ffffff" d="M 25.332031 20.171875 L 25.882812 20.492188 L 26.066406 20.300781 L 25.515625 19.984375 L 25.332031 20.171875 " fill-opacity="1" fill-rule="nonzero"/><path fill="#ffffff" d="M 25.007812 20.515625 L 25.558594 20.835938 L 25.742188 20.644531 L 25.191406 20.328125 L 25.007812 20.515625 " fill-opacity="1" fill-rule="nonzero"/><path fill="#ffffff" d="M 26.851562 19.964844 L 27.402344 20.285156 L 27.582031 20.09375 L 27.03125 19.773438 L 26.851562 19.964844 " fill-opacity="1" fill-rule="nonzero"/><path fill="#ffffff" d="M 26.527344 20.308594 L 27.078125 20.628906 L 27.261719 20.4375 L 26.710938 20.121094 L 26.527344 20.308594 " fill-opacity="1" fill-rule="nonzero"/><path fill="#ffffff" d="M 26.191406 20.652344 L 26.742188 20.972656 L 26.921875 20.78125 L 26.371094 20.460938 L 26.191406 20.652344 " fill-opacity="1" fill-rule="nonzero"/><path fill="#ffffff" d="M 25.867188 20.996094 L 26.417969 21.316406 L 26.601562 21.125 L 26.050781 20.804688 L 25.867188 20.996094 " fill-opacity="1" fill-rule="nonzero"/><path fill="#ffffff" d="M 27.738281 20.480469 L 28.289062 20.800781 L 28.46875 20.609375 L 27.917969 20.289062 L 27.738281 20.480469 " fill-opacity="1" fill-rule="nonzero"/><path fill="#ffffff" d="M 27.414062 20.824219 L 27.964844 21.144531 L 28.148438 20.953125 L 27.597656 20.636719 L 27.414062 20.824219 " fill-opacity="1" fill-rule="nonzero"/><path fill="#ffffff" d="M 27.078125 21.167969 L 27.628906 21.488281 L 27.8125 21.296875 L 27.257812 20.976562 L 27.078125 21.167969 " fill-opacity="1" fill-rule="nonzero"/><path fill="#ffffff" d="M 26.753906 21.511719 L 27.304688 21.832031 L 27.488281 21.640625 L 26.9375 21.324219 L 26.753906 21.511719 " fill-opacity="1" fill-rule="nonzero"/><path fill="#ffffff" d="M 27.53125 21.972656 L 28.894531 22.757812 L 30.023438 21.5 L 28.660156 20.714844 L 27.53125 21.972656 " fill-opacity="1" fill-rule="nonzero"/><path fill="#ffffff" d="M 23.382812 20.011719 C 23.40625 20.128906 23.3125 20.25 23.167969 20.28125 C 23.027344 20.308594 22.890625 20.238281 22.863281 20.121094 C 22.839844 20.003906 22.933594 19.882812 23.078125 19.851562 C 23.21875 19.820312 23.355469 19.894531 23.382812 20.011719 " fill-opacity="1" fill-rule="nonzero"/><path fill="#ffffff" d="M 24.3125 20.566406 C 24.339844 20.683594 24.246094 20.804688 24.101562 20.832031 C 23.957031 20.863281 23.820312 20.792969 23.796875 20.675781 C 23.769531 20.558594 23.867188 20.4375 24.007812 20.40625 C 24.152344 20.375 24.289062 20.445312 24.3125 20.566406 " fill-opacity="1" fill-rule="nonzero"/><path fill="#ffffff" d="M 25.1875 21.035156 C 25.210938 21.152344 25.117188 21.273438 24.972656 21.304688 C 24.832031 21.335938 24.695312 21.265625 24.667969 21.144531 C 24.644531 21.027344 24.738281 20.910156 24.882812 20.878906 C 25.023438 20.847656 25.160156 20.917969 25.1875 21.035156 " fill-opacity="1" fill-rule="nonzero"/><path fill="#ffffff" d="M 26.917969 22.058594 C 26.945312 22.175781 26.847656 22.296875 26.707031 22.324219 C 26.5625 22.355469 26.425781 22.285156 26.402344 22.167969 C 26.375 22.050781 26.46875 21.929688 26.613281 21.898438 C 26.757812 21.867188 26.894531 21.9375 26.917969 22.058594 " fill-opacity="1" fill-rule="nonzero"/><path fill="#ffffff" d="M 26.082031 21.570312 C 26.105469 21.6875 26.011719 21.804688 25.867188 21.835938 C 25.726562 21.867188 25.589844 21.796875 25.5625 21.679688 C 25.539062 21.5625 25.632812 21.441406 25.777344 21.410156 C 25.917969 21.378906 26.054688 21.449219 26.082031 21.570312 " fill-opacity="1" fill-rule="nonzero"/><path fill="#ffffff" d="M 22.863281 20.585938 C 22.890625 20.703125 22.792969 20.824219 22.652344 20.855469 C 22.507812 20.886719 22.371094 20.816406 22.347656 20.699219 C 22.320312 20.582031 22.414062 20.460938 22.558594 20.429688 C 22.703125 20.398438 22.839844 20.46875 22.863281 20.585938 " fill-opacity="1" fill-rule="nonzero"/><path fill="#ffffff" d="M 23.796875 21.140625 C 23.820312 21.257812 23.726562 21.378906 23.582031 21.410156 C 23.441406 21.441406 23.304688 21.371094 23.277344 21.253906 C 23.253906 21.136719 23.347656 21.015625 23.492188 20.984375 C 23.632812 20.953125 23.769531 21.023438 23.796875 21.140625 " fill-opacity="1" fill-rule="nonzero"/><path fill="#ffffff" d="M 24.667969 21.609375 C 24.691406 21.730469 24.597656 21.851562 24.453125 21.878906 C 24.3125 21.910156 24.175781 21.839844 24.148438 21.722656 C 24.125 21.605469 24.21875 21.484375 24.363281 21.453125 C 24.503906 21.421875 24.640625 21.492188 24.667969 21.609375 " fill-opacity="1" fill-rule="nonzero"/><path fill="#ffffff" d="M 26.398438 22.632812 C 26.425781 22.75 26.328125 22.871094 26.1875 22.902344 C 26.042969 22.933594 25.90625 22.863281 25.882812 22.746094 C 25.855469 22.628906 25.953125 22.507812 26.09375 22.476562 C 26.238281 22.445312 26.375 22.515625 26.398438 22.632812 " fill-opacity="1" fill-rule="nonzero"/><path fill="#ffffff" d="M 29.347656 23.296875 C 29.359375 23.359375 29.3125 23.417969 29.238281 23.433594 C 29.167969 23.449219 29.101562 23.414062 29.085938 23.355469 C 29.074219 23.296875 29.121094 23.234375 29.195312 23.21875 C 29.265625 23.203125 29.332031 23.238281 29.347656 23.296875 " fill-opacity="1" fill-rule="nonzero"/><path fill="#ffffff" d="M 29.050781 23.617188 C 29.066406 23.675781 29.015625 23.734375 28.945312 23.75 C 28.875 23.765625 28.804688 23.730469 28.792969 23.671875 C 28.78125 23.613281 28.828125 23.554688 28.898438 23.539062 C 28.972656 23.523438 29.039062 23.558594 29.050781 23.617188 " fill-opacity="1" fill-rule="nonzero"/><path fill="#ffffff" d="M 25.5625 22.144531 C 25.589844 22.261719 25.492188 22.382812 25.351562 22.414062 C 25.207031 22.445312 25.070312 22.375 25.046875 22.257812 C 25.019531 22.136719 25.113281 22.019531 25.257812 21.988281 C 25.402344 21.957031 25.539062 22.027344 25.5625 22.144531 " fill-opacity="1" fill-rule="nonzero"/><path fill="#4e3234" d="M 28.195312 22.921875 C 28.261719 23.226562 28.015625 23.535156 27.648438 23.613281 C 27.28125 23.695312 26.929688 23.511719 26.863281 23.210938 C 26.796875 22.90625 27.042969 22.597656 27.410156 22.519531 C 27.777344 22.441406 28.128906 22.621094 28.195312 22.921875 " fill-opacity="1" fill-rule="nonzero"/><path fill="#ebd9d8" d="M 31.652344 21.464844 L 24.582031 17.390625 L 26.914062 16.101562 L 33.980469 20.175781 L 31.652344 21.464844 " fill-opacity="1" fill-rule="nonzero"/><path fill="#d6bbb8" d="M 32.617188 18.597656 L 32.617188 20.382812 L 31.039062 21.328125 L 32.617188 18.597656 " fill-opacity="1" fill-rule="nonzero"/><path fill="#c2a1a0" d="M 31.179688 21.195312 L 25.796875 18.089844 L 27.980469 14.179688 L 33.367188 17.285156 L 31.179688 21.195312 " fill-opacity="1" fill-rule="nonzero"/><path fill="#d6bbb8" d="M 30.695312 21.109375 L 25.308594 18.007812 L 27.582031 13.9375 L 32.96875 17.042969 L 30.695312 21.109375 " fill-opacity="1" fill-rule="nonzero"/><path fill="#352122" d="M 30.363281 20.710938 L 25.859375 18.113281 L 27.789062 14.632812 L 32.292969 17.226562 L 30.363281 20.710938 " fill-opacity="1" fill-rule="nonzero"/><path fill="#6781c9" d="M 30.410156 19.972656 L 27.511719 18.300781 L 28.753906 16.0625 L 31.648438 17.734375 L 30.410156 19.972656 " fill-opacity="1" fill-rule="nonzero"/><path fill="#ffffff" d="M 28.21875 16.125 L 27.5 15.707031 L 27.644531 15.441406 L 28.367188 15.859375 L 28.21875 16.125 " fill-opacity="1" fill-rule="nonzero"/><path fill="#ffffff" d="M 27.980469 16.59375 L 27.261719 16.171875 L 27.40625 15.90625 L 28.125 16.328125 L 27.980469 16.59375 " fill-opacity="1" fill-rule="nonzero"/><path fill="#ffffff" d="M 27.71875 17.058594 L 26.996094 16.636719 L 27.144531 16.375 L 27.863281 16.792969 L 27.71875 17.058594 " fill-opacity="1" fill-rule="nonzero"/><path fill="#ffffff" d="M 27.476562 17.523438 L 26.757812 17.105469 L 26.902344 16.839844 L 27.625 17.257812 L 27.476562 17.523438 " fill-opacity="1" fill-rule="nonzero"/><path fill="#4e3234" d="M 31.097656 23.996094 C 31.011719 23.996094 30.902344 23.949219 30.773438 23.851562 C 30.75 23.835938 30.746094 23.804688 30.761719 23.78125 C 30.777344 23.757812 30.808594 23.753906 30.832031 23.769531 C 30.96875 23.875 31.082031 23.914062 31.132812 23.886719 C 31.183594 23.863281 31.191406 23.78125 31.191406 23.714844 C 31.191406 23.414062 31.207031 23.011719 31.207031 23.007812 C 31.207031 22.980469 31.230469 22.960938 31.257812 22.960938 C 31.285156 22.960938 31.308594 22.984375 31.308594 23.011719 C 31.308594 23.015625 31.292969 23.417969 31.292969 23.714844 C 31.292969 23.851562 31.253906 23.941406 31.179688 23.976562 C 31.15625 23.988281 31.128906 23.996094 31.097656 23.996094 " fill-opacity="1" fill-rule="nonzero"/><path fill="#ffffff" d="M 31.433594 21.417969 C 31.324219 21.363281 31.148438 21.363281 30.964844 21.46875 C 30.675781 21.636719 30.40625 22.050781 30.394531 22.214844 C 30.386719 22.378906 30.394531 22.46875 30.394531 22.46875 L 30.6875 22.636719 L 30.6875 22.628906 C 30.6875 22.632812 30.6875 22.632812 30.6875 22.632812 L 31.210938 22.015625 C 31.210938 22.015625 31.226562 22.039062 31.242188 22.066406 C 31.242188 22.015625 31.242188 21.980469 31.242188 21.980469 L 31.535156 21.8125 C 31.535156 21.8125 31.539062 21.765625 31.539062 21.695312 L 31.597656 21.738281 L 31.761719 21.609375 L 31.433594 21.417969 " fill-opacity="1" fill-rule="nonzero"/><path fill="#d6bbb8" d="M 31.210938 22.015625 L 30.6875 22.632812 C 30.6875 22.75 30.6875 22.882812 30.6875 22.984375 C 30.6875 23.046875 30.703125 23.078125 30.726562 23.09375 L 30.730469 23.097656 C 30.734375 23.101562 30.734375 23.101562 30.738281 23.101562 L 31.019531 23.261719 L 31.152344 23.128906 L 31.0625 22.972656 C 31.140625 22.921875 31.242188 22.824219 31.242188 22.667969 C 31.242188 22.476562 31.242188 22.207031 31.242188 22.066406 C 31.226562 22.039062 31.210938 22.015625 31.210938 22.015625 " fill-opacity="1" fill-rule="nonzero"/><path fill="#ffffff" d="M 31.828125 21.722656 C 31.816406 21.570312 31.546875 21.464844 31.257812 21.632812 C 30.96875 21.800781 30.695312 22.21875 30.6875 22.378906 C 30.675781 22.542969 30.6875 22.636719 30.6875 22.636719 L 30.980469 22.464844 C 30.980469 22.464844 30.980469 22.859375 30.980469 23.121094 C 30.980469 23.382812 31.191406 23.285156 31.257812 23.246094 C 31.371094 23.179688 31.535156 23.0625 31.535156 22.800781 C 31.535156 22.539062 31.535156 22.148438 31.535156 22.148438 L 31.828125 21.976562 C 31.828125 21.976562 31.835938 21.875 31.828125 21.722656 " fill-opacity="1" fill-rule="nonzero"/><path fill="#b08688" d="M 30.253906 23.066406 C 30.417969 23.167969 30.722656 23.328125 30.878906 23.230469 C 31.167969 23.050781 31.40625 22.929688 31.40625 22.929688 L 31.40625 22.71875 L 30.980469 22.675781 L 30.6875 22.847656 L 30.433594 22.648438 L 30.253906 22.851562 C 30.253906 22.851562 30.253906 22.957031 30.253906 23.066406 " fill-opacity="1" fill-rule="nonzero"/><path fill="#b08688" d="M 31.535156 22.359375 L 31.957031 22.621094 C 31.957031 22.621094 32.351562 22.457031 32.347656 22.308594 C 32.347656 22.265625 32.347656 22.152344 32.347656 22.097656 C 32.21875 21.992188 31.890625 21.910156 31.890625 21.910156 L 31.828125 22.1875 L 31.535156 22.148438 L 31.535156 22.359375 " fill-opacity="1" fill-rule="nonzero"/><path fill="#d6bbb8" d="M 30.058594 22.730469 C 30.058594 22.730469 30.65625 23.15625 30.878906 23.023438 C 31.167969 22.839844 31.40625 22.71875 31.40625 22.71875 L 30.980469 22.464844 L 30.6875 22.636719 L 30.316406 22.414062 L 30.058594 22.730469 " fill-opacity="1" fill-rule="nonzero"/><path fill="#d6bbb8" d="M 31.535156 22.148438 L 31.957031 22.414062 C 31.957031 22.414062 32.351562 22.246094 32.347656 22.097656 C 32.347656 21.988281 31.890625 21.699219 31.890625 21.699219 L 31.828125 21.976562 L 31.535156 22.148438 " fill-opacity="1" fill-rule="nonzero"/><path fill="#6781c9" d="M 30.316406 22.414062 C 30.316406 22.414062 30.449219 22.515625 30.6875 22.636719 C 30.765625 22.675781 30.789062 22.644531 30.800781 22.5 C 30.808594 22.414062 30.824219 22.265625 30.964844 22.078125 C 31.230469 21.726562 31.644531 21.605469 31.738281 21.746094 C 31.832031 21.886719 31.828125 21.976562 31.828125 21.976562 C 31.828125 21.976562 31.894531 22.019531 31.90625 21.9375 C 31.921875 21.824219 31.910156 21.605469 31.738281 21.445312 C 31.511719 21.230469 31.238281 21.171875 30.964844 21.292969 C 30.6875 21.417969 30.53125 21.617188 30.429688 21.839844 C 30.328125 22.0625 30.316406 22.414062 30.316406 22.414062 " fill-opacity="1" fill-rule="nonzero"/><path fill="#4e3234" d="M 33.042969 22.710938 C 32.957031 22.710938 32.847656 22.664062 32.71875 22.566406 C 32.695312 22.550781 32.691406 22.519531 32.707031 22.496094 C 32.726562 22.476562 32.757812 22.472656 32.777344 22.488281 C 32.917969 22.589844 33.027344 22.632812 33.082031 22.605469 C 33.128906 22.582031 33.140625 22.496094 33.140625 22.429688 C 33.140625 22.132812 33.152344 21.730469 33.152344 21.726562 C 33.152344 21.699219 33.175781 21.675781 33.203125 21.675781 C 33.234375 21.675781 33.253906 21.699219 33.253906 21.726562 C 33.253906 21.730469 33.238281 22.132812 33.238281 22.429688 C 33.238281 22.566406 33.199219 22.65625 33.125 22.695312 C 33.101562 22.707031 33.074219 22.710938 33.042969 22.710938 " fill-opacity="1" fill-rule="nonzero"/><path fill="#ffffff" d="M 33.378906 20.136719 C 33.269531 20.082031 33.097656 20.078125 32.914062 20.183594 C 32.621094 20.351562 32.351562 20.765625 32.339844 20.929688 C 32.332031 21.09375 32.339844 21.1875 32.339844 21.1875 L 32.632812 21.351562 L 32.636719 21.347656 L 33.15625 20.730469 C 33.15625 20.730469 33.171875 20.753906 33.1875 20.785156 C 33.1875 20.730469 33.1875 20.699219 33.1875 20.699219 L 33.484375 20.527344 C 33.484375 20.527344 33.488281 20.484375 33.488281 20.414062 L 33.542969 20.457031 L 33.707031 20.328125 L 33.378906 20.136719 " fill-opacity="1" fill-rule="nonzero"/><path fill="#d6bbb8" d="M 33.15625 20.730469 L 32.636719 21.347656 C 32.636719 21.46875 32.636719 21.597656 32.636719 21.703125 C 32.636719 21.761719 32.652344 21.792969 32.671875 21.8125 L 32.675781 21.8125 C 32.679688 21.816406 32.683594 21.816406 32.683594 21.820312 L 32.964844 21.980469 L 33.097656 21.847656 L 33.007812 21.6875 C 33.085938 21.636719 33.1875 21.539062 33.1875 21.382812 C 33.1875 21.195312 33.1875 20.921875 33.1875 20.785156 C 33.171875 20.753906 33.15625 20.730469 33.15625 20.730469 " fill-opacity="1" fill-rule="nonzero"/><path fill="#ffffff" d="M 33.773438 20.4375 C 33.765625 20.285156 33.492188 20.183594 33.203125 20.347656 C 32.914062 20.515625 32.640625 20.933594 32.632812 21.097656 C 32.621094 21.261719 32.632812 21.351562 32.632812 21.351562 L 32.925781 21.183594 C 32.925781 21.183594 32.925781 21.574219 32.925781 21.835938 C 32.925781 22.097656 33.136719 22 33.203125 21.960938 C 33.316406 21.898438 33.480469 21.777344 33.480469 21.515625 C 33.480469 21.257812 33.480469 20.863281 33.480469 20.863281 L 33.773438 20.695312 C 33.773438 20.695312 33.785156 20.589844 33.773438 20.4375 " fill-opacity="1" fill-rule="nonzero"/><path fill="#b08688" d="M 31.855469 21.570312 C 31.921875 21.609375 32.347656 21.871094 32.4375 21.910156 C 32.578125 21.96875 32.730469 22.007812 32.824219 21.949219 C 33.113281 21.769531 33.351562 21.648438 33.351562 21.648438 L 33.351562 21.4375 L 32.925781 21.390625 L 32.632812 21.5625 L 32.378906 21.367188 L 31.859375 21.359375 C 31.859375 21.359375 31.855469 21.460938 31.855469 21.570312 " fill-opacity="1" fill-rule="nonzero"/><path fill="#b08688" d="M 33.480469 21.074219 L 33.902344 21.339844 C 33.902344 21.339844 34.296875 21.171875 34.296875 21.023438 C 34.292969 20.980469 34.296875 20.867188 34.296875 20.816406 C 34.164062 20.707031 33.835938 20.625 33.835938 20.625 L 33.773438 20.90625 L 33.480469 20.863281 L 33.480469 21.074219 " fill-opacity="1" fill-rule="nonzero"/><path fill="#ebd9d8" d="M 31.761719 21.285156 C 31.761719 21.285156 32.605469 21.875 32.824219 21.738281 C 33.113281 21.558594 33.351562 21.4375 33.351562 21.4375 L 32.925781 21.183594 L 32.632812 21.351562 L 32.261719 21.128906 L 31.761719 21.285156 " fill-opacity="1" fill-rule="nonzero"/><path fill="#ebd9d8" d="M 33.480469 20.863281 L 33.902344 21.128906 C 33.902344 21.128906 34.296875 20.964844 34.296875 20.816406 C 34.292969 20.707031 33.835938 20.417969 33.835938 20.417969 L 33.773438 20.695312 L 33.480469 20.863281 " fill-opacity="1" fill-rule="nonzero"/><path fill="#6781c9" d="M 32.261719 21.128906 C 32.261719 21.128906 32.394531 21.230469 32.632812 21.351562 C 32.710938 21.390625 32.734375 21.359375 32.746094 21.214844 C 32.753906 21.132812 32.769531 20.980469 32.914062 20.792969 C 33.175781 20.441406 33.589844 20.324219 33.683594 20.460938 C 33.777344 20.601562 33.773438 20.695312 33.773438 20.695312 C 33.773438 20.695312 33.839844 20.734375 33.851562 20.652344 C 33.867188 20.542969 33.855469 20.324219 33.683594 20.160156 C 33.457031 19.945312 33.183594 19.886719 32.914062 20.007812 C 32.632812 20.132812 32.476562 20.332031 32.375 20.558594 C 32.273438 20.78125 32.261719 21.128906 32.261719 21.128906 " fill-opacity="1" fill-rule="nonzero"/><path fill="#d6bbb8" d="M 11.046875 36.78125 L 11.046875 44 C 11.046875 44 11.046875 44.011719 11.046875 44.015625 C 11.046875 44.234375 11.378906 44.414062 11.789062 44.414062 C 12.199219 44.414062 12.53125 44.234375 12.53125 44.015625 C 12.53125 44.011719 12.53125 44 12.53125 44 L 12.53125 36.78125 L 11.046875 36.78125 " fill-opacity="1" fill-rule="nonzero"/><path fill="#ebd9d8" d="M 11.789062 36.386719 C 11.378906 36.386719 11.046875 36.5625 11.046875 36.78125 C 11.046875 37 11.378906 37.175781 11.789062 37.175781 C 12.199219 37.175781 12.53125 37 12.53125 36.78125 C 12.53125 36.5625 12.199219 36.386719 11.789062 36.386719 " fill-opacity="1" fill-rule="nonzero"/><path fill="#221616" d="M 14.71875 43.746094 C 14.71875 43.425781 14.914062 43.058594 15.152344 42.917969 C 15.210938 42.886719 15.285156 42.867188 15.339844 42.867188 C 15.386719 42.867188 15.5 42.871094 15.617188 42.945312 C 15.753906 43.027344 15.773438 43.21875 15.773438 43.21875 L 15.289062 44.214844 C 15.289062 44.214844 15.128906 44.292969 14.96875 44.207031 C 14.871094 44.152344 14.808594 44.058594 14.78125 44.011719 C 14.769531 43.988281 14.75 43.945312 14.746094 43.925781 C 14.730469 43.875 14.71875 43.8125 14.71875 43.746094 " fill-opacity="1" fill-rule="nonzero"/><path fill="#352122" d="M 15.789062 43.359375 C 15.789062 43.675781 15.59375 44.046875 15.355469 44.183594 C 15.117188 44.324219 14.921875 44.175781 14.921875 43.859375 C 14.921875 43.539062 15.117188 43.171875 15.355469 43.03125 C 15.59375 42.894531 15.789062 43.039062 15.789062 43.359375 " fill-opacity="1" fill-rule="nonzero"/><path fill="#ffffff" d="M 15.621094 43.484375 C 15.621094 43.660156 15.515625 43.863281 15.386719 43.9375 C 15.253906 44.011719 15.148438 43.933594 15.148438 43.757812 C 15.148438 43.582031 15.253906 43.382812 15.386719 43.304688 C 15.515625 43.230469 15.621094 43.308594 15.621094 43.484375 " fill-opacity="1" fill-rule="nonzero"/><path fill="#352122" d="M 15.582031 43.5625 C 15.582031 43.667969 15.515625 43.789062 15.441406 43.832031 C 15.363281 43.878906 15.296875 43.828125 15.296875 43.726562 C 15.296875 43.621094 15.363281 43.5 15.441406 43.457031 C 15.515625 43.410156 15.582031 43.460938 15.582031 43.5625 " fill-opacity="1" fill-rule="nonzero"/><path fill="#221616" d="M 7.179688 48.089844 C 7.179688 47.773438 7.371094 47.402344 7.613281 47.265625 C 7.671875 47.230469 7.742188 47.210938 7.800781 47.210938 C 7.84375 47.210938 7.960938 47.214844 8.078125 47.289062 C 8.214844 47.375 8.234375 47.566406 8.234375 47.566406 L 7.746094 48.5625 C 7.746094 48.5625 7.589844 48.640625 7.429688 48.550781 C 7.328125 48.496094 7.269531 48.40625 7.242188 48.355469 C 7.230469 48.332031 7.210938 48.289062 7.203125 48.273438 C 7.1875 48.222656 7.179688 48.160156 7.179688 48.089844 " fill-opacity="1" fill-rule="nonzero"/><path fill="#352122" d="M 8.246094 47.703125 C 8.246094 48.023438 8.054688 48.390625 7.8125 48.53125 C 7.574219 48.667969 7.382812 48.519531 7.382812 48.203125 C 7.382812 47.886719 7.574219 47.515625 7.8125 47.378906 C 8.054688 47.238281 8.246094 47.386719 8.246094 47.703125 " fill-opacity="1" fill-rule="nonzero"/><path fill="#ffffff" d="M 8.082031 47.828125 C 8.082031 48.003906 7.976562 48.207031 7.84375 48.28125 C 7.714844 48.359375 7.605469 48.277344 7.605469 48.101562 C 7.605469 47.929688 7.714844 47.726562 7.84375 47.652344 C 7.976562 47.574219 8.082031 47.65625 8.082031 47.828125 " fill-opacity="1" fill-rule="nonzero"/><path fill="#352122" d="M 8.039062 47.910156 C 8.039062 48.011719 7.976562 48.132812 7.898438 48.175781 C 7.820312 48.222656 7.757812 48.175781 7.757812 48.070312 C 7.757812 47.96875 7.820312 47.847656 7.898438 47.800781 C 7.976562 47.757812 8.039062 47.804688 8.039062 47.910156 " fill-opacity="1" fill-rule="nonzero"/><path fill="#221616" d="M 8.761719 43.707031 C 8.761719 43.386719 8.570312 43.019531 8.328125 42.882812 C 8.269531 42.847656 8.199219 42.828125 8.140625 42.828125 C 8.097656 42.828125 7.980469 42.832031 7.863281 42.90625 C 7.726562 42.988281 7.707031 43.179688 7.707031 43.179688 L 8.195312 44.179688 C 8.195312 44.179688 8.351562 44.253906 8.511719 44.167969 C 8.613281 44.113281 8.671875 44.023438 8.699219 43.972656 C 8.710938 43.949219 8.730469 43.90625 8.738281 43.890625 C 8.753906 43.835938 8.761719 43.777344 8.761719 43.707031 " fill-opacity="1" fill-rule="nonzero"/><path fill="#352122" d="M 7.695312 43.320312 C 7.695312 43.640625 7.886719 44.007812 8.128906 44.144531 C 8.367188 44.285156 8.558594 44.136719 8.558594 43.820312 C 8.558594 43.5 8.367188 43.132812 8.128906 42.996094 C 7.886719 42.855469 7.695312 43.003906 7.695312 43.320312 " fill-opacity="1" fill-rule="nonzero"/><path fill="#ffffff" d="M 7.859375 43.445312 C 7.859375 43.621094 7.964844 43.824219 8.097656 43.898438 C 8.226562 43.972656 8.335938 43.894531 8.335938 43.71875 C 8.335938 43.546875 8.226562 43.34375 8.097656 43.265625 C 7.964844 43.191406 7.859375 43.273438 7.859375 43.445312 " fill-opacity="1" fill-rule="nonzero"/><path fill="#352122" d="M 7.902344 43.523438 C 7.902344 43.628906 7.964844 43.75 8.042969 43.792969 C 8.121094 43.839844 8.183594 43.792969 8.183594 43.6875 C 8.183594 43.582031 8.121094 43.464844 8.042969 43.417969 C 7.964844 43.375 7.902344 43.421875 7.902344 43.523438 " fill-opacity="1" fill-rule="nonzero"/><path fill="#221616" d="M 16.398438 48.089844 C 16.398438 47.773438 16.203125 47.402344 15.964844 47.265625 C 15.902344 47.230469 15.832031 47.210938 15.773438 47.210938 C 15.730469 47.210938 15.617188 47.214844 15.496094 47.289062 C 15.363281 47.375 15.34375 47.566406 15.34375 47.566406 L 15.828125 48.5625 C 15.828125 48.5625 15.984375 48.640625 16.148438 48.550781 C 16.246094 48.496094 16.308594 48.40625 16.335938 48.355469 C 16.347656 48.332031 16.367188 48.289062 16.371094 48.273438 C 16.386719 48.222656 16.398438 48.160156 16.398438 48.089844 " fill-opacity="1" fill-rule="nonzero"/><path fill="#352122" d="M 15.328125 47.703125 C 15.328125 48.023438 15.523438 48.390625 15.761719 48.53125 C 16 48.667969 16.195312 48.519531 16.195312 48.203125 C 16.195312 47.886719 16 47.515625 15.761719 47.378906 C 15.523438 47.238281 15.328125 47.386719 15.328125 47.703125 " fill-opacity="1" fill-rule="nonzero"/><path fill="#ffffff" d="M 15.496094 47.828125 C 15.496094 48.003906 15.601562 48.207031 15.730469 48.28125 C 15.863281 48.359375 15.96875 48.277344 15.96875 48.101562 C 15.96875 47.929688 15.863281 47.726562 15.730469 47.652344 C 15.601562 47.574219 15.496094 47.65625 15.496094 47.828125 " fill-opacity="1" fill-rule="nonzero"/><path fill="#352122" d="M 15.535156 47.910156 C 15.535156 48.011719 15.597656 48.132812 15.675781 48.175781 C 15.753906 48.222656 15.816406 48.175781 15.816406 48.070312 C 15.816406 47.96875 15.753906 47.847656 15.675781 47.800781 C 15.597656 47.757812 15.535156 47.804688 15.535156 47.910156 " fill-opacity="1" fill-rule="nonzero"/><path fill="#d6bbb8" d="M 15.339844 42.816406 C 14.6875 42.917969 11.789062 43.464844 11.789062 43.464844 C 11.789062 43.464844 8.890625 46.261719 8.238281 46.910156 C 7.585938 47.558594 7.808594 48.433594 7.808594 48.433594 L 8.089844 48.273438 C 8.089844 48.273438 8.179688 47.703125 8.546875 47.371094 C 8.730469 47.203125 10.257812 45.683594 11.789062 44.800781 C 13.320312 43.921875 14.847656 43.675781 15.03125 43.632812 C 15.398438 43.542969 15.488281 44.007812 15.488281 44.007812 L 15.855469 43.796875 C 15.855469 43.796875 15.992188 42.714844 15.339844 42.816406 " fill-opacity="1" fill-rule="nonzero"/><path fill="#d6bbb8" d="M 8.238281 42.816406 C 8.890625 42.917969 11.789062 43.464844 11.789062 43.464844 C 11.789062 43.464844 14.6875 46.261719 15.339844 46.910156 C 15.730469 47.296875 15.929688 47.714844 15.945312 48.160156 C 15.953125 48.398438 15.761719 48.429688 15.761719 48.429688 L 15.488281 48.273438 C 15.488281 48.273438 15.398438 47.703125 15.03125 47.371094 C 14.847656 47.203125 13.320312 45.683594 11.789062 44.800781 C 10.257812 43.921875 8.554688 43.609375 8.371094 43.5625 C 8.269531 43.539062 8.21875 43.648438 8.160156 43.792969 C 8.097656 43.941406 8.089844 44.007812 8.089844 44.007812 L 7.726562 43.796875 C 7.726562 43.796875 7.585938 42.714844 8.238281 42.816406 " fill-opacity="1" fill-rule="nonzero"/><path fill="#221616" d="M 15.832031 48.402344 C 15.832031 48.082031 15.636719 47.714844 15.398438 47.578125 C 15.339844 47.542969 15.265625 47.523438 15.210938 47.523438 C 15.164062 47.523438 15.050781 47.527344 14.933594 47.601562 C 14.796875 47.683594 14.777344 47.875 14.777344 47.875 L 15.265625 48.875 C 15.265625 48.875 15.421875 48.949219 15.582031 48.863281 C 15.683594 48.808594 15.742188 48.71875 15.769531 48.667969 C 15.78125 48.644531 15.800781 48.601562 15.804688 48.585938 C 15.824219 48.53125 15.832031 48.472656 15.832031 48.402344 " fill-opacity="1" fill-rule="nonzero"/><path fill="#352122" d="M 14.765625 48.015625 C 14.765625 48.332031 14.957031 48.703125 15.195312 48.839844 C 15.4375 48.980469 15.628906 48.832031 15.628906 48.515625 C 15.628906 48.195312 15.4375 47.828125 15.195312 47.6875 C 14.957031 47.550781 14.765625 47.699219 14.765625 48.015625 " fill-opacity="1" fill-rule="nonzero"/><path fill="#ffffff" d="M 14.929688 48.140625 C 14.929688 48.316406 15.035156 48.519531 15.167969 48.59375 C 15.296875 48.667969 15.402344 48.589844 15.402344 48.414062 C 15.402344 48.242188 15.296875 48.039062 15.167969 47.960938 C 15.035156 47.886719 14.929688 47.96875 14.929688 48.140625 " fill-opacity="1" fill-rule="nonzero"/><path fill="#352122" d="M 14.972656 48.21875 C 14.972656 48.324219 15.035156 48.445312 15.113281 48.488281 C 15.191406 48.535156 15.253906 48.484375 15.253906 48.382812 C 15.253906 48.277344 15.191406 48.160156 15.113281 48.113281 C 15.035156 48.070312 14.972656 48.117188 14.972656 48.21875 " fill-opacity="1" fill-rule="nonzero"/><path fill="#221616" d="M 7.742188 48.402344 C 7.742188 48.082031 7.9375 47.714844 8.175781 47.578125 C 8.238281 47.542969 8.308594 47.523438 8.367188 47.523438 C 8.410156 47.523438 8.523438 47.527344 8.644531 47.601562 C 8.777344 47.683594 8.796875 47.875 8.796875 47.875 L 8.3125 48.875 C 8.3125 48.875 8.15625 48.949219 7.992188 48.863281 C 7.894531 48.808594 7.832031 48.71875 7.804688 48.667969 C 7.792969 48.644531 7.773438 48.601562 7.769531 48.585938 C 7.753906 48.53125 7.742188 48.472656 7.742188 48.402344 " fill-opacity="1" fill-rule="nonzero"/><path fill="#352122" d="M 8.8125 48.015625 C 8.8125 48.332031 8.617188 48.703125 8.378906 48.839844 C 8.140625 48.980469 7.945312 48.832031 7.945312 48.515625 C 7.945312 48.195312 8.140625 47.828125 8.378906 47.6875 C 8.617188 47.550781 8.8125 47.699219 8.8125 48.015625 " fill-opacity="1" fill-rule="nonzero"/><path fill="#ffffff" d="M 8.644531 48.140625 C 8.644531 48.316406 8.539062 48.519531 8.410156 48.59375 C 8.277344 48.667969 8.171875 48.589844 8.171875 48.414062 C 8.171875 48.242188 8.277344 48.039062 8.410156 47.960938 C 8.539062 47.886719 8.644531 47.96875 8.644531 48.140625 " fill-opacity="1" fill-rule="nonzero"/><path fill="#352122" d="M 8.605469 48.21875 C 8.605469 48.324219 8.542969 48.445312 8.464844 48.488281 C 8.386719 48.535156 8.324219 48.484375 8.324219 48.382812 C 8.324219 48.277344 8.386719 48.160156 8.464844 48.113281 C 8.542969 48.070312 8.605469 48.117188 8.605469 48.21875 " fill-opacity="1" fill-rule="nonzero"/><path fill="#221616" d="M 15.285156 44.054688 C 15.285156 43.738281 15.476562 43.367188 15.71875 43.230469 C 15.777344 43.195312 15.847656 43.179688 15.90625 43.179688 C 15.949219 43.179688 16.066406 43.183594 16.183594 43.257812 C 16.320312 43.339844 16.339844 43.53125 16.339844 43.53125 L 15.851562 44.527344 C 15.851562 44.527344 15.695312 44.605469 15.535156 44.515625 C 15.433594 44.460938 15.375 44.371094 15.347656 44.320312 C 15.335938 44.300781 15.316406 44.253906 15.3125 44.238281 C 15.292969 44.1875 15.285156 44.125 15.285156 44.054688 " fill-opacity="1" fill-rule="nonzero"/><path fill="#352122" d="M 16.351562 43.671875 C 16.351562 43.988281 16.160156 44.359375 15.917969 44.496094 C 15.679688 44.632812 15.488281 44.488281 15.488281 44.167969 C 15.488281 43.851562 15.679688 43.480469 15.917969 43.34375 C 16.160156 43.207031 16.351562 43.351562 16.351562 43.671875 " fill-opacity="1" fill-rule="nonzero"/><path fill="#ffffff" d="M 16.1875 43.796875 C 16.1875 43.96875 16.082031 44.171875 15.949219 44.25 C 15.820312 44.324219 15.714844 44.242188 15.714844 44.070312 C 15.714844 43.894531 15.820312 43.691406 15.949219 43.617188 C 16.082031 43.542969 16.1875 43.621094 16.1875 43.796875 " fill-opacity="1" fill-rule="nonzero"/><path fill="#352122" d="M 16.144531 43.875 C 16.144531 43.976562 16.082031 44.097656 16.003906 44.144531 C 15.925781 44.1875 15.863281 44.140625 15.863281 44.035156 C 15.863281 43.933594 15.925781 43.8125 16.003906 43.769531 C 16.082031 43.722656 16.144531 43.769531 16.144531 43.875 " fill-opacity="1" fill-rule="nonzero"/><path fill="#221616" d="M 8.199219 44.019531 C 8.199219 43.699219 8.003906 43.332031 7.765625 43.191406 C 7.703125 43.15625 7.632812 43.140625 7.574219 43.140625 C 7.53125 43.140625 7.417969 43.144531 7.296875 43.21875 C 7.164062 43.300781 7.144531 43.492188 7.144531 43.492188 L 7.628906 44.488281 C 7.628906 44.488281 7.785156 44.566406 7.949219 44.476562 C 8.046875 44.421875 8.109375 44.332031 8.136719 44.285156 C 8.148438 44.261719 8.167969 44.21875 8.171875 44.199219 C 8.1875 44.148438 8.199219 44.085938 8.199219 44.019531 " fill-opacity="1" fill-rule="nonzero"/><path fill="#352122" d="M 7.128906 43.632812 C 7.128906 43.949219 7.324219 44.320312 7.5625 44.457031 C 7.800781 44.59375 7.996094 44.449219 7.996094 44.132812 C 7.996094 43.8125 7.800781 43.441406 7.5625 43.304688 C 7.324219 43.167969 7.128906 43.3125 7.128906 43.632812 " fill-opacity="1" fill-rule="nonzero"/><path fill="#ffffff" d="M 7.296875 43.757812 C 7.296875 43.933594 7.402344 44.132812 7.53125 44.210938 C 7.664062 44.285156 7.769531 44.207031 7.769531 44.03125 C 7.769531 43.855469 7.664062 43.65625 7.53125 43.578125 C 7.402344 43.503906 7.296875 43.582031 7.296875 43.757812 " fill-opacity="1" fill-rule="nonzero"/><path fill="#352122" d="M 7.335938 43.835938 C 7.335938 43.941406 7.398438 44.058594 7.476562 44.105469 C 7.554688 44.148438 7.617188 44.101562 7.617188 44 C 7.617188 43.894531 7.554688 43.773438 7.476562 43.730469 C 7.398438 43.683594 7.335938 43.734375 7.335938 43.835938 " fill-opacity="1" fill-rule="nonzero"/><path fill="#ebd9d8" d="M 7.472656 36.035156 L 7.472656 37.390625 C 7.472656 37.390625 7.472656 37.449219 7.472656 37.480469 C 7.472656 38.75 9.410156 39.777344 11.796875 39.777344 C 14.183594 39.777344 16.117188 38.75 16.117188 37.480469 C 16.117188 37.449219 16.117188 37.390625 16.117188 37.390625 L 16.117188 36.035156 L 7.472656 36.035156 " fill-opacity="1" fill-rule="nonzero"/><path fill="#556ebf" d="M 6.855469 34.90625 L 6.855469 36.445312 C 6.855469 36.445312 6.855469 36.511719 6.855469 36.546875 C 6.855469 37.988281 9.050781 39.152344 11.761719 39.152344 C 14.472656 39.152344 16.671875 37.988281 16.671875 36.546875 C 16.671875 36.511719 16.671875 36.445312 16.671875 36.445312 L 16.671875 34.90625 L 6.855469 34.90625 " fill-opacity="1" fill-rule="nonzero"/><path fill="#6781c9" d="M 11.761719 32.4375 C 9.050781 32.4375 6.855469 33.605469 6.855469 35.046875 C 6.855469 36.484375 9.050781 37.652344 11.761719 37.652344 C 14.472656 37.652344 16.671875 36.484375 16.671875 35.046875 C 16.671875 33.605469 14.472656 32.4375 11.761719 32.4375 " fill-opacity="1" fill-rule="nonzero"/><path fill="#ebd9d8" d="M 20.65625 47.101562 C 20.65625 47.101562 20.652344 47.621094 20.65625 48.523438 C 20.660156 49.421875 21.996094 49.644531 22.925781 49.710938 C 23.851562 49.777344 25.457031 50.152344 26.101562 49.167969 C 26.746094 48.1875 25.851562 48.230469 24.679688 47.609375 C 23.503906 46.984375 22.398438 46.332031 22.398438 46.332031 L 20.65625 47.101562 " fill-opacity="1" fill-rule="nonzero"/><path fill="#412a2c" d="M 21.738281 46.625 C 21.738281 46.625 22.4375 47.261719 23.191406 47.796875 C 23.945312 48.332031 24.5625 48.277344 24.769531 48.085938 C 24.976562 47.890625 25.003906 47.769531 25.003906 47.769531 C 25.003906 47.769531 23.101562 46.585938 22.820312 46.332031 C 22.539062 46.078125 21.738281 46.625 21.738281 46.625 " fill-opacity="1" fill-rule="nonzero"/><path fill="#412a2c" d="M 26.039062 48.273438 C 25.867188 48.269531 25.199219 49.351562 24.59375 49.542969 C 24.261719 49.644531 23.117188 49.207031 22.644531 49.167969 C 22.171875 49.128906 21.125 48.570312 20.65625 48.523438 C 20.660156 49.128906 20.664062 49.34375 21.359375 49.511719 C 21.746094 49.605469 22.132812 49.59375 22.574219 49.679688 C 22.929688 49.75 23.652344 50.070312 23.972656 50.085938 C 25.167969 50.144531 26.105469 49.796875 26.355469 49.167969 C 26.601562 48.539062 26.039062 48.273438 26.039062 48.273438 " fill-opacity="1" fill-rule="nonzero"/><path fill="#ebd9d8" d="M 21.292969 42.585938 C 21.292969 42.585938 21.125 43.078125 20.851562 43.933594 C 20.574219 44.792969 21.777344 45.417969 22.636719 45.769531 C 23.496094 46.117188 24.90625 46.972656 25.824219 46.238281 C 26.742188 45.503906 25.878906 45.269531 24.957031 44.3125 C 24.035156 43.359375 23.1875 42.394531 23.1875 42.394531 L 21.292969 42.585938 " fill-opacity="1" fill-rule="nonzero"/><path fill="#412a2c" d="M 22.46875 42.464844 C 22.46875 42.464844 22.933594 43.289062 23.484375 44.03125 C 24.03125 44.773438 24.640625 44.914062 24.894531 44.792969 C 25.152344 44.675781 25.214844 44.566406 25.214844 44.566406 C 25.214844 44.566406 23.777344 42.851562 23.589844 42.523438 C 23.402344 42.195312 22.46875 42.464844 22.46875 42.464844 " fill-opacity="1" fill-rule="nonzero"/><path fill="#412a2c" d="M 26.042969 45.367188 C 25.882812 45.308594 24.910156 46.128906 24.273438 46.125 C 23.929688 46.121094 22.972656 45.351562 22.539062 45.164062 C 22.101562 44.980469 21.277344 44.125 20.851562 43.933594 C 20.664062 44.511719 20.601562 44.71875 21.210938 45.09375 C 21.546875 45.300781 21.921875 45.410156 22.3125 45.628906 C 22.628906 45.804688 23.21875 46.335938 23.515625 46.449219 C 24.632812 46.878906 25.632812 46.839844 26.0625 46.316406 C 26.496094 45.792969 26.042969 45.367188 26.042969 45.367188 " fill-opacity="1" fill-rule="nonzero"/><path fill="#f89f91" d="M 24.003906 25.332031 C 23.75 25.160156 22.03125 23.914062 21.289062 23.355469 C 20.726562 22.933594 19.699219 22.191406 19.699219 22.191406 L 18.328125 24.183594 C 18.328125 24.183594 19.207031 25.207031 20.117188 25.675781 C 21.027344 26.148438 22.597656 26.898438 22.902344 26.988281 C 23.011719 27.019531 24.097656 25.753906 24.003906 25.332031 " fill-opacity="1" fill-rule="nonzero"/><path fill="#4dada1" d="M 16.722656 19.507812 C 16.722656 19.507812 17.890625 19.128906 18.933594 20.300781 C 19.972656 21.472656 21.289062 22.917969 21.289062 22.917969 C 21.289062 22.917969 20.589844 23.953125 20.230469 24.378906 C 19.875 24.800781 18.925781 25.449219 18.925781 25.449219 C 18.925781 25.449219 17.269531 24.332031 16.8125 23.539062 C 16.355469 22.742188 16.722656 19.507812 16.722656 19.507812 " fill-opacity="1" fill-rule="nonzero"/><path fill="#3e958b" d="M 20.960938 22.558594 C 20.960938 22.558594 20.566406 23.355469 19.933594 24.003906 C 19.304688 24.648438 18.535156 25.164062 18.535156 25.164062 L 18.925781 25.449219 C 18.925781 25.449219 19.628906 25.089844 20.390625 24.410156 C 21.152344 23.734375 21.289062 22.917969 21.289062 22.917969 L 20.960938 22.558594 " fill-opacity="1" fill-rule="nonzero"/><path fill="#3e958b" d="M 14.707031 29.816406 C 15.011719 29.613281 18.113281 31.101562 19.378906 31.601562 C 20.644531 32.101562 21.765625 32.363281 22.25 33 C 22.894531 33.839844 22.953125 35.269531 23.3125 37.09375 C 23.578125 38.441406 23.945312 42.789062 23.945312 42.789062 C 23.4375 43.429688 23.3125 43.730469 22.371094 43.648438 C 21.601562 43.582031 21.105469 43.175781 21.105469 43.175781 C 21.105469 43.175781 20.238281 39.832031 20.015625 39.171875 C 19.175781 36.664062 19.4375 35.664062 19.4375 35.664062 C 19.4375 35.664062 15.574219 34.964844 13.949219 34.003906 C 12.324219 33.046875 11.242188 31.515625 11.242188 31.515625 L 14.707031 29.816406 " fill-opacity="1" fill-rule="nonzero"/><path fill="#4dada1" d="M 9.214844 31.875 C 9.214844 31.875 7.957031 34.59375 9.335938 35.949219 C 10.652344 37.246094 11.859375 37.257812 11.859375 37.257812 C 11.859375 37.257812 13.257812 37.953125 14.449219 38.933594 C 15.570312 39.851562 16.8125 39.828125 16.8125 39.828125 C 16.8125 39.828125 18.234375 41.894531 18.683594 43.089844 C 18.941406 43.777344 20.542969 47.644531 20.542969 47.644531 C 20.542969 47.644531 21.460938 48.253906 22.207031 47.917969 C 23.449219 47.359375 23.78125 46.609375 23.78125 46.609375 C 23.78125 46.609375 21.628906 39.742188 20.75 38.425781 C 19.890625 37.136719 16.90625 34.375 15.765625 33.785156 C 14.625 33.199219 13.242188 32.003906 13.242188 32.003906 L 9.214844 31.875 " fill-opacity="1" fill-rule="nonzero"/><path fill="#f0393b" d="M 14.851562 13.710938 C 14.851562 13.710938 14.25 11.90625 12.734375 12.777344 C 11.128906 13.699219 10.746094 15.523438 10.738281 17.078125 C 10.730469 18.632812 10.867188 20.820312 10.117188 21.503906 C 9.363281 22.1875 8.8125 22.253906 8.8125 22.253906 C 8.8125 22.253906 10.585938 22.90625 11.652344 22.101562 C 12.71875 21.300781 13.367188 19.882812 13.558594 18.011719 C 13.746094 16.136719 12.96875 14.046875 13.96875 14.105469 C 14.96875 14.167969 14.851562 13.710938 14.851562 13.710938 " fill-opacity="1" fill-rule="nonzero"/><path fill="#59c0b3" d="M 13.863281 20.460938 C 13.863281 20.460938 11.613281 21.503906 10.785156 22.417969 C 9.953125 23.332031 9.816406 25.160156 9.609375 26.539062 C 9.40625 27.914062 9.074219 29.179688 8.8125 30.042969 C 8.308594 31.714844 8.308594 33.8125 8.308594 33.8125 C 8.308594 33.8125 9.992188 34.429688 12.492188 34.089844 C 13.816406 33.910156 17.1875 30.679688 17.1875 30.679688 C 17.066406 30.101562 15.625 29.78125 15.625 29.78125 C 15.625 29.78125 16.222656 29.367188 16.414062 29.03125 C 16.585938 28.734375 16.683594 28.074219 16.742188 27.609375 C 17.476562 27.210938 18.601562 26.539062 18.53125 25.722656 C 18.464844 24.910156 18.589844 21.351562 17.664062 20.460938 C 16.734375 19.570312 15.183594 19.773438 13.863281 20.460938 " fill-opacity="1" fill-rule="nonzero"/><path fill="#4dada1" d="M 12.769531 21.023438 C 12.769531 21.023438 13.945312 22.511719 14.554688 23.128906 C 15.160156 23.742188 16.28125 24.75 17.011719 25.007812 C 17.164062 24.289062 17.238281 23.457031 17.148438 22.503906 C 16.996094 20.960938 16.375 19.929688 16.359375 19.886719 C 16.089844 19.15625 15.453125 20.050781 14.554688 20.289062 C 13.652344 20.527344 12.769531 21.023438 12.769531 21.023438 " fill-opacity="1" fill-rule="nonzero"/><path fill="#f89f91" d="M 14.097656 19.507812 C 14.015625 20.460938 13.257812 20.910156 13.257812 20.910156 C 13.257812 20.910156 13.417969 21.222656 14.554688 22.476562 C 15.464844 23.484375 16.789062 24.289062 16.789062 24.289062 C 16.789062 24.289062 16.882812 23.226562 16.699219 22.164062 C 16.386719 20.367188 16.394531 19.425781 16.667969 18.5 C 17.011719 17.332031 14.195312 18.398438 14.097656 19.507812 " fill-opacity="1" fill-rule="nonzero"/><path fill="#59c0b3" d="M 14.402344 15.265625 C 14.402344 15.265625 12.941406 14.628906 13.96875 13.710938 C 14.992188 12.792969 15.980469 13.945312 15.726562 14.601562 C 15.472656 15.253906 14.402344 15.265625 14.402344 15.265625 " fill-opacity="1" fill-rule="nonzero"/><path fill="#f9b1a2" d="M 17.917969 16.105469 C 16.796875 15.851562 16.210938 15.808594 15.214844 16.210938 C 14.652344 16.359375 14.125 16.609375 13.621094 16.941406 C 13.582031 16.964844 13.550781 17.019531 13.558594 17.066406 C 13.816406 18.542969 14.3125 20.105469 15.96875 20.761719 C 17.332031 21.300781 18.097656 19.804688 18.335938 18.804688 C 18.613281 17.636719 18.695312 16.277344 17.917969 16.105469 " fill-opacity="1" fill-rule="nonzero"/><path fill="#f14c4e" d="M 14.316406 14.609375 C 15.386719 13.746094 17.132812 14.003906 17.871094 14.601562 C 18.652344 15.234375 18.929688 15.910156 19.207031 17.199219 C 18.246094 17.636719 17.261719 17.050781 17.082031 16.417969 C 16.410156 16.464844 15.71875 16.5625 14.851562 17.636719 C 14.660156 18.253906 14.664062 19.542969 14.097656 19.507812 C 12.972656 17.1875 12.59375 16.003906 14.316406 14.609375 " fill-opacity="1" fill-rule="nonzero"/><path fill="#f9b1a2" d="M 15.335938 18.0625 C 15.335938 18.0625 15.066406 17.15625 14.476562 17.621094 C 13.882812 18.085938 14.722656 19.003906 14.722656 19.003906 L 15.335938 18.0625 " fill-opacity="1" fill-rule="nonzero"/><path fill="#f9b1a2" d="M 15.8125 30.183594 C 15.59375 29.742188 15.511719 29.320312 15.492188 28.964844 C 15.457031 28.972656 15.417969 28.980469 15.394531 28.984375 C 14.917969 29.085938 13.894531 29.433594 13.894531 29.433594 C 13.894531 29.433594 13.234375 26.363281 12.792969 25.164062 C 12.351562 23.964844 10.332031 26.910156 10.332031 26.910156 C 10.332031 26.910156 10.71875 28.191406 10.96875 29.039062 C 11.328125 30.25 11.804688 30.675781 12.21875 31.410156 C 12.628906 32.148438 13.328125 32.195312 14.289062 31.960938 C 14.59375 31.886719 15.46875 31.304688 16.359375 30.734375 C 16.105469 30.574219 15.910156 30.386719 15.8125 30.183594 " fill-opacity="1" fill-rule="nonzero"/><path fill="#b9d2ef" d="M 20.765625 29.070312 C 21.164062 28.859375 22.21875 27.308594 21.210938 27.476562 C 19.886719 27.695312 19.515625 28.050781 18.953125 27.816406 C 18.390625 27.582031 18.632812 26.796875 18.335938 26.648438 C 18.039062 26.503906 18.078125 26.964844 17.988281 27.472656 C 17.960938 27.636719 17.976562 27.863281 18 28.050781 C 18.027344 28.246094 17.894531 28.429688 17.699219 28.472656 C 17.117188 28.605469 15.976562 28.859375 15.492188 28.964844 C 15.511719 29.320312 15.59375 29.742188 15.8125 30.183594 C 15.910156 30.386719 16.105469 30.574219 16.359375 30.734375 C 17.105469 30.257812 17.863281 29.789062 18.3125 29.636719 C 18.941406 29.417969 19.925781 29.515625 20.765625 29.070312 " fill-opacity="1" fill-rule="nonzero"/><path fill="#4dada1" d="M 10.578125 22.167969 C 10.578125 22.167969 8.914062 22.945312 9.042969 24.625 C 9.171875 26.304688 10.160156 28.816406 10.160156 28.816406 C 10.160156 28.816406 10.265625 28.957031 11.664062 28.371094 C 12.492188 28.027344 13.453125 27.539062 13.453125 27.539062 C 13.453125 27.539062 13.203125 25.300781 12.6875 24.070312 C 12.222656 22.964844 11.464844 21.542969 10.578125 22.167969 " fill-opacity="1" fill-rule="nonzero"/><path fill="#3e958b" d="M 9.996094 28.371094 C 9.996094 28.371094 10.691406 28.101562 11.464844 27.8125 C 12.238281 27.527344 13.390625 27.074219 13.390625 27.074219 L 13.453125 27.539062 C 13.453125 27.539062 12.355469 28.101562 11.664062 28.371094 C 10.96875 28.640625 10.160156 28.816406 10.160156 28.816406 L 9.996094 28.371094 " fill-opacity="1" fill-rule="nonzero"/><path fill="#352122" d="M 20.582031 53.226562 L 20.582031 64.558594 C 20.582031 64.941406 20 65.25 19.285156 65.25 C 18.566406 65.25 17.988281 64.941406 17.988281 64.558594 L 17.988281 53.226562 L 20.582031 53.226562 " fill-opacity="1" fill-rule="nonzero"/><path fill="#352122" d="M 7.839844 45.90625 L 7.839844 57.238281 C 7.839844 57.621094 7.257812 57.929688 6.542969 57.929688 C 5.828125 57.929688 5.246094 57.621094 5.246094 57.238281 L 5.246094 45.90625 L 7.839844 45.90625 " fill-opacity="1" fill-rule="nonzero"/><path fill="#352122" d="M 54.632812 33.695312 L 54.632812 45.027344 C 54.632812 45.410156 54.050781 45.71875 53.335938 45.71875 C 52.621094 45.71875 52.039062 45.410156 52.039062 45.027344 L 52.039062 33.695312 L 54.632812 33.695312 " fill-opacity="1" fill-rule="nonzero"/><path fill="#352122" d="M 41.890625 26.375 L 41.890625 37.707031 C 41.890625 38.089844 41.3125 38.398438 40.59375 38.398438 C 39.878906 38.398438 39.296875 38.089844 39.296875 37.707031 L 39.296875 26.375 L 41.890625 26.375 " fill-opacity="1" fill-rule="nonzero"/><g clip-path="url(#22646f8ea5)"><path fill="#c2a1a0" d="M 3.328125 47.074219 L 39.222656 27.484375 C 40.105469 26.953125 41.648438 27.007812 42.671875 27.613281 L 56.722656 33.964844 L 56.722656 36.59375 C 56.714844 36.917969 56.519531 37.230469 56.132812 37.464844 L 20.824219 58.871094 C 19.945312 59.40625 18.402344 59.347656 17.378906 58.746094 L 4.175781 50.949219 C 3.578125 50.597656 3.292969 50.132812 3.332031 49.703125 L 3.328125 49.703125 L 3.328125 47.074219 " fill-opacity="1" fill-rule="nonzero"/></g><g clip-path="url(#c48036aa0b)"><path fill="#91bbe7" d="M 3.328125 44.871094 L 39.222656 25.285156 C 40.105469 24.75 41.648438 24.808594 42.671875 25.410156 L 56.722656 31.765625 L 56.722656 34.390625 C 56.714844 34.71875 56.519531 35.027344 56.132812 35.265625 L 20.824219 56.671875 C 19.945312 57.203125 18.402344 57.148438 17.378906 56.542969 L 4.175781 48.75 C 3.578125 48.394531 3.292969 47.929688 3.332031 47.5 L 3.328125 47.5 L 3.328125 44.871094 " fill-opacity="1" fill-rule="nonzero"/></g><g clip-path="url(#85fb5dea2d)"><path fill="#b9d2ef" d="M 56.132812 32.753906 L 20.824219 54.160156 C 19.945312 54.691406 18.402344 54.636719 17.378906 54.03125 L 4.175781 46.308594 C 3.152344 45.703125 3.039062 44.78125 3.917969 44.246094 L 39.222656 22.839844 C 40.105469 22.308594 41.648438 22.363281 42.671875 22.96875 L 55.871094 30.695312 C 56.894531 31.296875 57.011719 32.21875 56.132812 32.753906 " fill-opacity="1" fill-rule="nonzero"/></g><path fill="#d7e7f7" d="M 37.144531 24.660156 C 39.320312 23.347656 41.890625 21.796875 41.890625 21.796875 L 41.890625 24.003906 L 53.59375 31.007812 L 46.488281 35.257812 L 34.785156 28.253906 C 34.785156 28.253906 34.96875 25.972656 37.144531 24.660156 " fill-opacity="1" fill-rule="nonzero"/><path fill="#d7e7f7" d="M 37.144531 24.660156 L 48.851562 31.660156 L 53.59375 28.796875 L 41.890625 21.796875 L 37.144531 24.660156 " fill-opacity="1" fill-rule="nonzero"/><path fill="#91bbe7" d="M 46.488281 35.257812 C 46.488281 35.257812 46.675781 32.972656 48.851562 31.660156 C 51.023438 30.347656 53.59375 28.796875 53.59375 28.796875 L 53.59375 31.007812 L 46.488281 35.257812 " fill-opacity="1" fill-rule="nonzero"/><path fill="#fab5a6" d="M 39.65625 27.808594 C 39.65625 27.808594 38.96875 26.816406 37.855469 27.097656 C 36.746094 27.378906 34.988281 29.195312 34.203125 29.875 C 33.417969 30.554688 31.53125 31.023438 30.546875 31.574219 C 29.5625 32.121094 27.347656 33.355469 26.167969 33.78125 C 24.53125 34.375 24.027344 34.84375 23.695312 35.382812 C 23.363281 35.921875 24.445312 36.675781 24.984375 36.640625 C 25.527344 36.605469 27.363281 34.976562 27.960938 34.5625 C 28.558594 34.152344 30.53125 33.90625 31.65625 33.59375 C 32.78125 33.28125 39.65625 27.808594 39.65625 27.808594 " fill-opacity="1" fill-rule="nonzero"/><path fill="#f8a294" d="M 45.359375 28.429688 C 45.359375 28.429688 44.660156 28.714844 44.28125 29.035156 C 43.902344 29.351562 43.191406 29.882812 43.378906 30.542969 C 43.5625 31.203125 44.074219 32.460938 44.074219 32.460938 C 44.074219 32.460938 41.65625 31.542969 40.644531 30.785156 C 39.636719 30.027344 38.746094 29.105469 38.746094 29.105469 C 38.746094 29.105469 39.535156 28.429688 40.925781 28.550781 C 41.945312 28.257812 42.5625 27.316406 42.5625 27.316406 L 45.359375 28.429688 " fill-opacity="1" fill-rule="nonzero"/><path fill="#fab5a6" d="M 44.164062 24.425781 C 45.050781 25.027344 45.453125 25.394531 45.816406 26.328125 C 46.070312 26.804688 46.234375 27.320312 46.332031 27.875 C 46.339844 27.914062 46.324219 27.972656 46.285156 27.996094 C 45.121094 28.761719 43.738281 29.421875 42.234375 28.714844 C 41 28.132812 41.527344 26.664062 42.058594 25.863281 C 42.675781 24.933594 43.546875 24.007812 44.164062 24.425781 " fill-opacity="1" fill-rule="nonzero"/><path fill="#f14c4e" d="M 13.511719 45.058594 C 13.511719 45.058594 12.746094 45.40625 12.019531 45.957031 C 11.296875 46.507812 10.390625 47.199219 9.609375 46.328125 C 9.304688 45.988281 8.800781 45.511719 8.386719 45.195312 C 7.722656 44.699219 6.988281 44.410156 6.671875 43.851562 C 6.15625 42.949219 5.984375 42.203125 6.8125 42.027344 C 7.289062 41.929688 7.746094 42.242188 8.707031 42.660156 C 9.414062 42.96875 10.417969 43.410156 10.9375 43.480469 C 11.75 43.59375 12.660156 43.285156 12.660156 43.285156 L 13.511719 45.058594 " fill-opacity="1" fill-rule="nonzero"/><path fill="#221616" d="M 12.828125 44.164062 C 12.480469 43.6875 12.246094 43.503906 11.910156 43.394531 C 14.707031 41.660156 18.367188 39.523438 21.152344 37.953125 C 21.3125 37.136719 21.757812 36.890625 22.652344 36.890625 C 24.066406 36.265625 25.546875 34.507812 27.273438 33.472656 C 28.207031 32.910156 29.71875 31.878906 30.75 31.597656 C 31.257812 31.460938 31.535156 32.480469 32.085938 32.460938 C 32.128906 32.441406 32.929688 33.320312 33.253906 33.984375 C 33.417969 34.328125 33.699219 34.757812 33.636719 35.164062 C 33.53125 35.894531 30.332031 37.75 29.289062 38.199219 C 28.121094 38.703125 24.875 40 23.550781 40.175781 C 23.191406 41.648438 20.367188 43.035156 18.867188 43.605469 C 16.976562 44.324219 14.808594 44.84375 13.242188 45.25 C 13.183594 44.890625 13.046875 44.457031 12.828125 44.164062 " fill-opacity="1" fill-rule="nonzero"/><path fill="#352122" d="M 16.511719 49.046875 C 16.28125 48.875 15.941406 48.773438 15.609375 48.769531 C 15.96875 48.027344 17.242188 47.191406 17.75 46.796875 C 19.734375 45.253906 21.824219 43.15625 23.941406 41.796875 C 24.375 41.019531 24.738281 40.605469 25.535156 40.457031 C 25.820312 40.140625 28.257812 37.121094 29.558594 36.554688 C 29.324219 36.074219 29.425781 34.046875 31.40625 32.75 C 31.785156 32.503906 33.597656 32.90625 34.078125 32.910156 C 34.484375 32.917969 36.734375 37.179688 36.726562 37.234375 C 36.144531 39.996094 33.859375 40.878906 32.050781 40.878906 C 31.65625 41.515625 29.074219 43.449219 26.851562 43.359375 C 26.664062 44.917969 23.691406 47.082031 22.4375 47.742188 C 20.769531 48.621094 19.089844 49.480469 17.398438 50.316406 C 17.25 49.8125 16.839844 49.289062 16.511719 49.046875 " fill-opacity="1" fill-rule="nonzero"/><path fill="#f14c4e" d="M 44.757812 32.753906 C 44.644531 31.820312 43.378906 30.542969 43.378906 30.542969 C 43.378906 30.542969 41.367188 30.800781 39.917969 29.886719 C 38.464844 28.972656 40.925781 28.550781 40.925781 28.550781 C 40.925781 28.550781 40.171875 27.984375 39.535156 27.695312 C 38.898438 28.105469 37.578125 27.785156 36.4375 28.234375 C 35.925781 28.433594 35.425781 28.996094 35.292969 30.300781 C 35.003906 30.28125 34.6875 30.222656 34.320312 30.195312 C 34.382812 30.25 34.449219 30.308594 34.519531 30.375 C 35.121094 30.976562 37.328125 32.589844 37.628906 34.917969 C 37.882812 36.890625 36.273438 38.371094 35.773438 38.777344 C 35.828125 39.035156 35.839844 39.1875 35.839844 39.1875 C 35.839844 39.1875 37.515625 38.417969 37.363281 37.753906 C 37.664062 37.929688 38.261719 38.152344 38.390625 37.402344 C 39.203125 37.054688 41.691406 36.242188 42.980469 35.382812 C 44.265625 34.523438 44.871094 33.683594 44.757812 32.753906 " fill-opacity="1" fill-rule="nonzero"/><path fill="#fab5a6" d="M 36.808594 36.054688 C 37.410156 34.949219 36.914062 32.816406 36.8125 32.75 C 35.898438 31.613281 34.855469 30.710938 34.519531 30.375 C 34.449219 30.308594 34.382812 30.25 34.320312 30.195312 C 33.515625 29.871094 31.890625 29.636719 30.828125 29.929688 C 29.820312 30.203125 28.714844 31.210938 28.207031 32.460938 C 27.902344 33.78125 28.792969 36.425781 35.332031 37.429688 C 35.796875 37.171875 36.445312 36.71875 36.808594 36.054688 " fill-opacity="1" fill-rule="nonzero"/><path fill="#f8a294" d="M 38.308594 35.738281 C 38.175781 34.707031 37.535156 33.65625 36.8125 32.75 C 36.914062 32.816406 37.410156 34.949219 36.808594 36.054688 C 36.445312 36.71875 35.796875 37.171875 35.332031 37.429688 C 35.578125 37.992188 35.707031 38.464844 35.773438 38.777344 C 36.273438 38.367188 38.566406 37.710938 38.308594 35.738281 " fill-opacity="1" fill-rule="nonzero"/><path fill="#f14c4e" d="M 17.378906 45.765625 C 18.097656 46.425781 17.867188 47.171875 17.964844 48.332031 C 18.0625 49.492188 17.730469 49.988281 17.378906 50.601562 C 17.023438 51.210938 16.195312 52.214844 15.210938 51.644531 C 14.226562 51.078125 14.652344 50.566406 15.054688 49.132812 C 14.640625 47.132812 14.996094 45.972656 15.316406 45.121094 C 15.632812 44.269531 16.433594 44.90625 17.378906 45.765625 " fill-opacity="1" fill-rule="nonzero"/><path fill="#f0393b" d="M 36.765625 30.925781 C 36.773438 31.226562 37.371094 32.144531 38.101562 32.714844 C 38.832031 33.285156 39.535156 33.582031 39.535156 33.582031 C 39.535156 33.582031 38.679688 34.238281 38.148438 33.902344 C 37.613281 33.566406 37.429688 32.933594 37.066406 32.261719 C 36.664062 31.519531 36.765625 30.925781 36.765625 30.925781 " fill-opacity="1" fill-rule="nonzero"/><path fill="#221616" d="M 42.707031 25.019531 C 42.707031 25.019531 42.84375 23.371094 44.398438 23.851562 C 46.253906 23.242188 47.636719 24.582031 47.460938 26.101562 C 47.605469 26.835938 47.21875 27.820312 46.988281 28.085938 C 46.335938 28.847656 45.488281 28.886719 44.773438 29.128906 C 44.253906 29.304688 43.765625 29.492188 43.765625 29.492188 C 43.765625 29.492188 44.535156 28.757812 44.925781 28.527344 C 44.535156 27.421875 45.125 26.730469 45.359375 26.011719 C 43.570312 25.585938 43.628906 24.402344 42.707031 25.019531 " fill-opacity="1" fill-rule="nonzero"/><path fill="#221616" d="M 41.628906 26.730469 C 41.628906 26.730469 40.59375 27.386719 39.804688 26.867188 C 38.972656 26.324219 38.824219 27.035156 38.722656 27.53125 C 38.320312 27.121094 37.515625 27.398438 37.644531 28.148438 C 37.644531 28.148438 38.144531 27.695312 38.597656 28.199219 C 38.863281 28.492188 39.535156 28.699219 40.257812 28.722656 C 40.980469 28.746094 41.636719 28.199219 41.636719 28.199219 C 41.636719 28.199219 41.394531 27.46875 41.628906 26.730469 " fill-opacity="1" fill-rule="nonzero"/><path fill="#221616" d="M 45.101562 28.097656 C 45.101562 28.097656 43.9375 28.722656 43.445312 29.574219 C 42.816406 29.675781 41.898438 29.425781 41.480469 29.75 C 41.058594 30.078125 41.261719 30.730469 41.261719 30.730469 C 41.261719 30.730469 40.832031 30.71875 40.59375 31.085938 C 40.355469 31.457031 40.785156 31.84375 40.785156 31.84375 C 40.785156 31.84375 40.910156 31.308594 41.335938 31.484375 C 41.761719 31.65625 42.164062 31.785156 42.792969 31.484375 C 43.417969 31.179688 43.5 30.933594 43.5 30.933594 C 43.5 30.933594 43.480469 31.367188 43.90625 31.484375 C 44.332031 31.601562 44.789062 32.109375 44.789062 32.109375 C 44.789062 32.109375 44.972656 31.589844 44.789062 31.222656 C 44.601562 30.855469 44.265625 30.628906 44.773438 30.078125 C 45.277344 29.527344 46.523438 29.320312 46.988281 28.085938 C 47.457031 26.855469 45.699219 27.800781 45.101562 28.097656 " fill-opacity="1" fill-rule="nonzero"/><path fill="#f0393b" d="M 35.292969 30.300781 C 35.058594 30.125 34.640625 29.925781 34.203125 29.875 C 33.765625 29.824219 33.386719 29.929688 33.386719 29.929688 C 33.386719 29.929688 33.980469 30.183594 35.207031 31.199219 C 36.039062 31.890625 37.105469 33.277344 37.359375 34.554688 C 37.617188 35.832031 37.480469 37.515625 37.480469 37.515625 C 37.480469 37.515625 37.492188 38.105469 37.941406 37.753906 C 38.390625 37.402344 38.519531 37.167969 38.519531 37.167969 C 38.519531 37.167969 39.082031 37.3125 39.183594 36.976562 C 39.289062 36.640625 39.082031 34.703125 37.941406 33.222656 C 36.800781 31.738281 36.082031 30.894531 35.292969 30.300781 " fill-opacity="1" fill-rule="nonzero"/><path fill="#f8a294" d="M 30.6875 33.226562 C 30.71875 33.308594 30.628906 33.425781 30.484375 33.484375 C 30.335938 33.539062 30.191406 33.519531 30.15625 33.433594 C 30.125 33.347656 30.214844 33.234375 30.359375 33.175781 C 30.507812 33.117188 30.652344 33.140625 30.6875 33.226562 " fill-opacity="1" fill-rule="nonzero"/><path fill="#ffffff" d="M 28.488281 31.894531 C 28.425781 32.605469 28.597656 33.800781 29.753906 34.789062 C 31.171875 35.996094 35.011719 36.496094 35.523438 37.230469 C 36.335938 38.398438 36.214844 38.746094 36.214844 38.746094 L 32.179688 41.6875 C 32.179688 41.6875 31.40625 39.707031 29.140625 37.09375 C 27.5 35.207031 26.261719 34.644531 25.851562 34.492188 C 25.769531 34.074219 26.699219 33.15625 27.273438 32.503906 C 28.015625 31.660156 28.15625 31.84375 28.488281 31.894531 " fill-opacity="1" fill-rule="nonzero"/><path fill="#fab5a6" d="M 44.160156 31.484375 C 44.160156 31.484375 44.675781 31.707031 45.246094 32.910156 C 45.679688 33.816406 45.0625 34.960938 43.472656 35.910156 C 42.628906 37.339844 41.019531 38.371094 38.878906 39.046875 C 37.867188 40.671875 34.390625 41.480469 33.648438 41.929688 C 32.910156 42.378906 33.136719 43.390625 31.898438 44.296875 C 30.664062 45.203125 29.144531 45.1875 28.773438 44.847656 C 28.40625 44.507812 29.808594 42.785156 30.914062 42.003906 C 32.019531 41.222656 34.980469 39.074219 35.539062 38.652344 C 36.492188 37.933594 37.25 37.746094 38.445312 36.910156 C 39.886719 35.902344 41.089844 34.824219 41.089844 34.824219 C 41.089844 34.824219 41.425781 32.1875 44.160156 31.484375 " fill-opacity="1" fill-rule="nonzero"/><path fill="#f89f91" d="M 26.308594 26.71875 C 25.085938 26.066406 23.929688 25.371094 23.929688 25.371094 L 22.902344 26.988281 C 22.902344 26.988281 24.714844 27.761719 25.550781 28.015625 C 25.695312 27.507812 25.949219 27.046875 26.308594 26.71875 " fill-opacity="1" fill-rule="nonzero"/><path fill="#d7e7f7" d="M 27.121094 28.730469 C 27.484375 29.066406 27.765625 29.636719 27.914062 30.003906 C 27.996094 30.207031 28.410156 30.257812 28.457031 29.8125 C 28.46875 29.71875 28.273438 28.730469 28.8125 29.285156 C 29.007812 29.488281 29.558594 29.988281 29.96875 30.210938 C 31.464844 31.015625 31.4375 30.074219 31.054688 29.402344 C 30.46875 28.359375 30.222656 28.054688 28.878906 27.660156 C 28.238281 27.46875 27.738281 27.453125 27.003906 27.082031 C 26.777344 26.964844 26.542969 26.84375 26.308594 26.71875 C 25.949219 27.046875 25.695312 27.507812 25.550781 28.015625 C 25.566406 28.019531 25.578125 28.027344 25.59375 28.027344 C 26.195312 28.210938 26.8125 28.449219 27.121094 28.730469 " fill-opacity="1" fill-rule="nonzero"/></svg>