<svg xmlns="http://www.w3.org/2000/svg" xmlns:xlink="http://www.w3.org/1999/xlink" width="80" zoomAndPan="magnify" viewBox="0 0 60 60" height="80" preserveAspectRatio="xMidYMid meet" version="1.0"><rect x="-6" width="72" fill="#ffffff" y="-6" height="72" fill-opacity="1"/><rect x="-6" width="72" fill="#ffffff" y="-6" height="72" fill-opacity="1"/><rect x="-6" width="72" fill="#ffffff" y="-6" height="72" fill-opacity="1"/><path fill="#4d4d4d" d="M 22.589844 27.765625 L 21.710938 27.097656 L 19.730469 29.730469 C 19.546875 29.976562 19.597656 30.324219 19.839844 30.507812 C 20.082031 30.691406 20.429688 30.644531 20.613281 30.398438 Z M 22.589844 27.765625 " fill-opacity="1" fill-rule="nonzero"/><path fill="#f2f2f2" d="M 33.347656 25.058594 C 32.296875 25.398438 31.539062 26.316406 31.398438 27.417969 C 31.070312 29.945312 30.367188 34.523438 29.296875 36.980469 C 29.296875 36.980469 27.824219 34.730469 27.714844 30.5625 L 22.589844 30.5625 C 22.589844 30.5625 22.253906 39.082031 25.957031 42.417969 C 27.527344 43.832031 29.878906 43.910156 31.585938 42.667969 C 33.4375 41.320312 36.035156 38.503906 36.320312 33.195312 C 36.320312 33.195312 34.175781 25.96875 33.347656 25.058594 Z M 33.347656 25.058594 " fill-opacity="1" fill-rule="nonzero"/><path fill="#f7cbb5" d="M 20.25 26.566406 C 20.199219 27.160156 20.359375 27.828125 21.007812 28.445312 C 21.007812 28.445312 22.589844 29.4375 22.589844 30.5625 L 27.714844 30.5625 C 27.714844 30.5625 28.042969 25.234375 23.539062 24.390625 C 23.539062 24.390625 23.09375 24.292969 22.386719 24.390625 C 21.265625 24.550781 20.347656 25.429688 20.25 26.566406 Z M 20.25 26.566406 " fill-opacity="1" fill-rule="nonzero"/><path fill="#4d4d4d" d="M 23.132812 26.125 C 22.886719 25.941406 22.839844 25.59375 23.023438 25.351562 L 26.175781 21.160156 C 26.359375 20.914062 26.703125 20.867188 26.945312 21.050781 C 27.1875 21.234375 27.238281 21.582031 27.054688 21.828125 L 23.902344 26.019531 C 23.71875 26.261719 23.375 26.3125 23.132812 26.125 Z M 23.132812 26.125 " fill-opacity="1" fill-rule="nonzero"/><path fill="#f7cbb5" d="M 42.460938 13.71875 L 44.636719 22.644531 L 38.992188 23.949219 L 38.34375 21.277344 L 41.714844 13.71875 Z M 42.460938 13.71875 " fill-opacity="1" fill-rule="nonzero"/><path fill="#f2f2f2" d="M 33.347656 25.058594 L 50.753906 21.160156 C 50.753906 21.160156 56.402344 38.761719 57.148438 49.230469 L 37.921875 50.121094 C 37.921875 50.121094 38.714844 37.214844 33.347656 25.058594 Z M 33.347656 25.058594 " fill-opacity="1" fill-rule="nonzero"/><path fill="#cccccc" d="M 52.734375 27.824219 C 51.628906 23.886719 50.753906 21.160156 50.753906 21.160156 L 41.917969 23.136719 Z M 52.734375 27.824219 " fill-opacity="1" fill-rule="nonzero"/><path fill="#7dbc96" d="M 38.015625 24.011719 C 39.558594 25.941406 45.246094 33.324219 45.246094 33.324219 L 45.628906 22.308594 Z M 38.015625 24.011719 " fill-opacity="1" fill-rule="nonzero"/><path fill="#cccccc" d="M 38.015625 24.011719 L 36.957031 24.25 L 36.835938 26.945312 C 36.792969 27.945312 37.523438 28.8125 38.511719 28.925781 L 40.128906 29.109375 L 39.835938 31.125 C 39.699219 32.078125 40.289062 32.980469 41.210938 33.234375 L 46.097656 34.582031 L 45.246094 33.324219 Z M 38.015625 24.011719 " fill-opacity="1" fill-rule="nonzero"/><path fill="#cccccc" d="M 45.628906 22.308594 L 45.246094 33.324219 L 45.246094 36.445312 C 45.246094 36.796875 45.71875 36.90625 45.875 36.589844 L 48.480469 31.234375 C 48.816406 30.546875 48.699219 29.71875 48.183594 29.152344 L 46.4375 27.222656 L 47.785156 25.273438 C 48.308594 24.511719 48.203125 23.480469 47.535156 22.84375 L 46.71875 22.0625 Z M 45.628906 22.308594 " fill-opacity="1" fill-rule="nonzero"/><path fill="#f7cbb5" d="M 44.636719 22.644531 L 42.460938 13.71875 L 41.714844 13.71875 L 38.34375 21.277344 L 38.425781 21.625 L 42.121094 23.226562 Z M 44.636719 22.644531 " fill-opacity="1" fill-rule="nonzero"/><path fill="#e89e7e" d="M 38.390625 21.171875 L 38.425781 21.625 L 42.121094 23.226562 L 44.636719 22.644531 L 42.460938 13.71875 L 41.714844 13.71875 Z M 38.390625 21.171875 " fill-opacity="1" fill-rule="nonzero"/><path fill="#cccccc" d="M 47.535156 22.84375 L 46.71875 22.0625 L 45.628906 22.308594 L 45.546875 24.710938 L 47.566406 25.585938 L 47.785156 25.273438 C 48.308594 24.511719 48.203125 23.480469 47.535156 22.84375 Z M 47.535156 22.84375 " fill-opacity="1" fill-rule="nonzero"/><path fill="#5d8c6e" d="M 45.546875 24.710938 L 45.628906 22.308594 L 41.917969 23.136719 Z M 45.546875 24.710938 " fill-opacity="1" fill-rule="nonzero"/><path fill="#f7cbb5" d="M 37.914062 21.96875 C 34.683594 22.785156 31.40625 20.8125 30.59375 17.566406 L 28.78125 10.308594 L 40.476562 7.351562 L 42.292969 14.605469 C 43.105469 17.855469 41.144531 21.152344 37.914062 21.96875 Z M 37.914062 21.96875 " fill-opacity="1" fill-rule="nonzero"/><path fill="#f2f2f2" d="M 42.316406 14.722656 C 42.308594 14.683594 42.300781 14.644531 42.292969 14.605469 L 42.035156 13.585938 C 37.921875 15.34375 31.886719 16.269531 30.324219 16.488281 L 30.59375 17.566406 C 31.40625 20.8125 34.683594 22.785156 37.914062 21.96875 C 39.511719 21.5625 40.796875 20.550781 41.59375 19.242188 C 40.078125 16.066406 41.566406 15.027344 42.316406 14.722656 Z M 42.316406 14.722656 " fill-opacity="1" fill-rule="nonzero"/><path fill="#333333" d="M 32.09375 14.207031 C 32.09375 14.34375 32.046875 14.457031 31.953125 14.554688 C 31.855469 14.648438 31.742188 14.699219 31.609375 14.699219 C 31.472656 14.699219 31.359375 14.648438 31.261719 14.554688 C 31.167969 14.457031 31.121094 14.34375 31.121094 14.207031 C 31.121094 14.074219 31.167969 13.957031 31.261719 13.863281 C 31.359375 13.765625 31.472656 13.71875 31.609375 13.71875 C 31.742188 13.71875 31.855469 13.765625 31.953125 13.863281 C 32.046875 13.957031 32.09375 14.074219 32.09375 14.207031 Z M 32.09375 14.207031 " fill-opacity="1" fill-rule="nonzero"/><path fill="#333333" d="M 35.003906 13.585938 C 35.003906 13.71875 34.953125 13.835938 34.859375 13.929688 C 34.765625 14.027344 34.648438 14.074219 34.515625 14.074219 C 34.378906 14.074219 34.265625 14.027344 34.171875 13.929688 C 34.074219 13.835938 34.027344 13.71875 34.027344 13.585938 C 34.027344 13.449219 34.074219 13.335938 34.171875 13.238281 C 34.265625 13.144531 34.378906 13.09375 34.515625 13.09375 C 34.648438 13.09375 34.765625 13.144531 34.859375 13.238281 C 34.953125 13.335938 35.003906 13.449219 35.003906 13.585938 Z M 35.003906 13.585938 " fill-opacity="1" fill-rule="nonzero"/><path fill="#f7cbb5" d="M 15.519531 37.050781 C 15.519531 37.050781 16.339844 38.214844 17.578125 39.195312 L 14.597656 43.675781 C 14.597656 43.675781 10.804688 39.863281 8.5 35.589844 L 10.960938 34.453125 Z M 15.519531 37.050781 " fill-opacity="1" fill-rule="nonzero"/><path fill="#e89e7e" d="M 18.421875 27.816406 C 18.421875 27.816406 16.992188 31.039062 19.820312 32.0625 L 17.246094 33.648438 C 17.246094 33.648438 14.765625 32.066406 15.378906 29.941406 Z M 18.421875 27.816406 " fill-opacity="1" fill-rule="nonzero"/><path fill="#ffffff" d="M 18.34375 26.363281 L 18.90625 27.214844 C 19.039062 27.417969 18.992188 27.6875 18.800781 27.832031 L 15.21875 30.5625 L 15.070312 29.296875 C 15.070312 29.296875 16.886719 27.113281 18.34375 26.363281 Z M 18.34375 26.363281 " fill-opacity="1" fill-rule="nonzero"/><path fill="#ffffff" d="M 17.507812 33.183594 C 17.609375 33.078125 19.183594 32.164062 20.097656 31.414062 C 20.328125 31.222656 20.664062 31.242188 20.875 31.453125 L 21.40625 31.988281 C 21.40625 31.988281 19.800781 33.824219 17.507812 33.324219 C 15.21875 32.828125 17.390625 33.308594 17.507812 33.183594 Z M 17.507812 33.183594 " fill-opacity="1" fill-rule="nonzero"/><path fill="#f7cbb5" d="M 14.46875 21.023438 C 14.558594 21.152344 17.402344 24.492188 17.402344 24.492188 C 17.402344 24.492188 18.921875 24.847656 18.800781 26 C 18.765625 26.335938 18.578125 26.640625 18.308594 26.851562 L 16.679688 28.132812 C 15.460938 29.09375 15.246094 30.867188 16.203125 32.09375 C 17.144531 33.296875 18.863281 33.527344 20.082031 32.609375 L 21.40625 31.617188 C 21.40625 31.617188 22.292969 32.019531 22.25 32.960938 C 22.207031 33.898438 20.339844 36.851562 16.160156 37.609375 C 16.160156 37.609375 11.933594 37.789062 9.84375 34.792969 C 9.84375 34.792969 11.558594 30.8125 8.476562 26.96875 Z M 14.46875 21.023438 " fill-opacity="1" fill-rule="nonzero"/><path fill="#333333" d="M 15.011719 26.507812 C 14.746094 26.703125 14.484375 26.804688 14.285156 26.859375 C 14.09375 26.910156 13.90625 26.769531 13.902344 26.570312 C 13.902344 26.429688 13.992188 26.308594 14.128906 26.273438 C 14.378906 26.210938 14.78125 26.03125 15.101562 25.542969 C 15.1875 25.414062 15.351562 25.363281 15.492188 25.433594 C 15.648438 25.511719 15.710938 25.714844 15.613281 25.863281 C 15.429688 26.148438 15.21875 26.355469 15.011719 26.507812 Z M 15.011719 26.507812 " fill-opacity="1" fill-rule="nonzero"/><path fill="#ffba6e" d="M 14.5625 22.097656 L 9.398438 27.011719 C 9.398438 27.011719 11.992188 30.621094 10.417969 34.515625 C 10.070312 35.367188 9.351562 36.015625 8.480469 36.300781 C 7.539062 36.609375 6.507812 36.460938 5.691406 35.894531 C 3.550781 34.421875 0.0195312 31.015625 2.332031 25.585938 C 4.984375 19.359375 9.558594 17.398438 11.050781 16.910156 C 11.382812 16.800781 11.734375 16.757812 12.085938 16.789062 C 13.175781 16.886719 15.488281 17.429688 15.378906 20.316406 C 15.351562 20.992188 15.050781 21.628906 14.5625 22.097656 Z M 14.5625 22.097656 " fill-opacity="1" fill-rule="nonzero"/><path fill="#7dbc96" d="M 15.660156 45.546875 C 15.660156 45.546875 13.761719 43.414062 16.027344 40.191406 C 18.289062 36.96875 25.039062 40.449219 25.039062 40.449219 C 25.039062 40.449219 31.21875 43.304688 36.835938 47.742188 C 36.835938 47.742188 40.445312 48.175781 43.160156 48.882812 L 43.160156 57.179688 L 33.574219 57.179688 Z M 15.660156 45.546875 " fill-opacity="1" fill-rule="nonzero"/><path fill="#d87d2b" d="M 15.378906 20.285156 C 15.417969 19.109375 15.050781 18.328125 14.53125 17.808594 C 14.644531 18.707031 14.640625 20.136719 13.726562 21.160156 C 12.769531 22.234375 10.378906 24.375 8.917969 25.660156 C 8.230469 26.265625 7.867188 27.160156 7.957031 28.070312 C 8.136719 29.921875 7.839844 33.152344 4.003906 34.496094 C 4.558594 35.050781 5.132812 35.507812 5.632812 35.855469 C 6.226562 36.269531 6.9375 36.5 7.660156 36.457031 C 8.886719 36.382812 9.96875 35.625 10.417969 34.515625 C 11.992188 30.621094 9.398438 27.011719 9.398438 27.011719 L 14.5625 22.097656 C 15.0625 21.621094 15.355469 20.972656 15.378906 20.285156 Z M 15.378906 20.285156 " fill-opacity="1" fill-rule="nonzero"/><path fill="#4d4d4d" d="M 43.160156 48.882812 L 60.871094 48.882812 L 60.871094 57.179688 L 43.160156 57.179688 Z M 43.160156 48.882812 " fill-opacity="1" fill-rule="nonzero"/><path fill="#7dbc96" d="M 15.277344 41.097656 C 16.273438 40.152344 17.789062 40.03125 18.917969 40.808594 L 28.027344 47.050781 L 24.730469 51.542969 L 15.699219 45.6875 C 14.113281 44.65625 13.90625 42.402344 15.277344 41.097656 Z M 15.277344 41.097656 " fill-opacity="1" fill-rule="nonzero"/><path fill="#f7cbb5" d="M 28.027344 47.050781 L 34.261719 50.644531 C 34.820312 50.96875 35.429688 51.179688 36.066406 51.273438 L 44.1875 52.464844 C 46.28125 52.773438 47.863281 54.5625 47.875 56.691406 C 47.875 56.714844 47.875 56.742188 47.875 56.765625 L 32.78125 56.765625 L 24.730469 51.542969 Z M 28.027344 47.050781 " fill-opacity="1" fill-rule="nonzero"/><path fill="#4d4d4d" d="M 1.578125 36.277344 L 1.988281 35.640625 L 33.675781 56.65625 L 60.871094 56.65625 L 60.871094 59.996094 L 32.835938 59.996094 L 2.289062 39.699219 C 1.160156 38.949219 0.84375 37.421875 1.578125 36.277344 Z M 1.578125 36.277344 " fill-opacity="1" fill-rule="nonzero"/><path fill="#333333" d="M 4.367188 41.078125 L 4.367188 41.996094 C 4.367188 42.964844 4.847656 43.867188 5.644531 44.402344 L 28.820312 59.996094 L 32.835938 59.996094 Z M 4.367188 41.078125 " fill-opacity="1" fill-rule="nonzero"/><path fill="#7dbc96" d="M 1.988281 35.640625 C 3.800781 33.964844 6.550781 33.84375 8.503906 35.351562 L 11.566406 37.714844 C 12.460938 38.402344 13.101562 39.371094 13.386719 40.464844 C 13.6875 41.628906 12.40625 42.550781 11.410156 41.890625 Z M 1.988281 35.640625 " fill-opacity="1" fill-rule="nonzero"/><path fill="#f2f2f2" d="M 50.753906 21.160156 C 52.628906 20.679688 54.589844 21.5 55.578125 23.171875 C 57.289062 26.0625 59.675781 31.035156 60.429688 37.25 C 60.429688 37.25 61.46875 46.199219 56.289062 51.515625 C 55.285156 52.542969 53.71875 52.765625 52.480469 52.039062 C 50.886719 51.101562 50.445312 48.984375 51.535156 47.488281 C 53.097656 45.339844 54.875 42 54.886719 37.910156 C 54.886719 37.421875 54.828125 36.9375 54.726562 36.460938 C 54.261719 34.277344 52.699219 27.171875 50.753906 21.160156 Z M 50.753906 21.160156 " fill-opacity="1" fill-rule="nonzero"/><path fill="#f7cbb5" d="M 52.914062 45.300781 C 52.46875 46.121094 51.992188 46.855469 51.535156 47.488281 C 50.445312 48.984375 50.886719 51.101562 52.480469 52.039062 C 53.71875 52.765625 55.285156 52.542969 56.289062 51.515625 C 57.179688 50.601562 57.886719 49.578125 58.449219 48.511719 C 55.949219 46.863281 53.792969 45.738281 52.914062 45.300781 Z M 52.914062 45.300781 " fill-opacity="1" fill-rule="nonzero"/><path fill="#cccccc" d="M 55.578125 23.171875 C 54.589844 21.5 52.628906 20.679688 50.753906 21.160156 C 51.453125 23.328125 52.105469 25.632812 52.671875 27.800781 L 58.910156 30.503906 C 57.890625 27.421875 56.613281 24.914062 55.578125 23.171875 Z M 55.578125 23.171875 " fill-opacity="1" fill-rule="nonzero"/><path fill="#4d4d4d" d="M 38.398438 10.402344 C 38.351562 10.316406 26.917969 15.34375 25.667969 7.421875 C 25.621094 7.128906 25.652344 6.828125 25.746094 6.550781 C 25.898438 6.109375 26.207031 5.742188 26.613281 5.523438 C 29.023438 4.21875 37.519531 -0.00390625 39.472656 4.15625 C 39.472656 4.15625 45.367188 4.15625 44.207031 12.722656 C 44.113281 13.417969 43.574219 13.992188 42.878906 14.066406 C 41.832031 14.175781 40.203125 13.632812 38.398438 10.402344 Z M 38.398438 10.402344 " fill-opacity="1" fill-rule="nonzero"/><path fill="#cccccc" d="M 53.210938 44.714844 C 53.0625 44.640625 53.003906 44.464844 53.070312 44.316406 C 53.496094 43.367188 54.867188 40.027344 54.53125 37.125 C 54.132812 33.65625 52.140625 26.957031 52.121094 26.886719 L 52.695312 26.714844 C 52.777344 26.992188 54.722656 33.53125 55.128906 37.058594 C 55.488281 40.144531 54.070312 43.570312 53.617188 44.570312 C 53.546875 44.726562 53.363281 44.789062 53.210938 44.714844 Z M 53.210938 44.714844 " fill-opacity="1" fill-rule="nonzero"/><path fill="#333333" d="M 42.878906 14.066406 C 43.574219 13.992188 44.113281 13.417969 44.207031 12.722656 C 44.601562 9.808594 44.179688 7.886719 43.453125 6.617188 C 34.566406 11.683594 28.769531 10.410156 26.332031 9.4375 C 29.105469 14.382812 38.355469 10.324219 38.398438 10.402344 C 40.203125 13.632812 41.832031 14.175781 42.878906 14.066406 Z M 42.878906 14.066406 " fill-opacity="1" fill-rule="nonzero"/><path fill="#5d8c6e" d="M 26.976562 46.695312 L 19.257812 41.304688 C 19.25 41.296875 18.320312 40.488281 17.355469 40.554688 C 17.203125 40.5625 17.066406 40.472656 17.03125 40.324219 C 16.988281 40.140625 17.121094 39.960938 17.308594 39.949219 C 18.46875 39.871094 19.503906 40.71875 19.644531 40.839844 L 27.320312 46.195312 C 27.457031 46.292969 27.488281 46.480469 27.394531 46.617188 C 27.300781 46.753906 27.113281 46.789062 26.976562 46.695312 Z M 26.976562 46.695312 " fill-opacity="1" fill-rule="nonzero"/><path fill="#5d8c6e" d="M 13.359375 41.21875 C 12.496094 41.496094 11.925781 41.078125 11.925781 41.078125 C 11.925781 41.078125 7.527344 38.304688 5.578125 36.742188 C 4.550781 35.921875 4.390625 35.039062 4.464844 34.390625 C 3.566406 34.5625 2.703125 34.980469 1.988281 35.640625 L 11.410156 41.890625 C 12.175781 42.398438 13.105469 41.96875 13.359375 41.21875 Z M 13.359375 41.21875 " fill-opacity="1" fill-rule="nonzero"/></svg>